<svg xmlns="http://www.w3.org/2000/svg" width="32px" height="20px" fill="none">
  <g clip-path="url(#a)">
    <path fill="#000" d="M28.443 0H2.478c-.09.001-.18.002-.27.005a3.923 3.923 0 0 0-.588.051C1.423.092 1.24.15 1.06.24a1.875 1.875 0 0 0-.82.822 1.975 1.975 0 0 0-.185.558 3.897 3.897 0 0 0-.052.588L0 2.478v15.044l.004.27c.006.196.017.394.052.588.036.197.093.38.184.558a1.869 1.869 0 0 0 .821.822c.179.09.362.148.559.184.193.034.391.046.587.052l.27.003.32.001h25.966l.27-.005a3.96 3.96 0 0 0 .588-.051c.196-.035.38-.093.558-.184a1.866 1.866 0 0 0 .821-.822 1.96 1.96 0 0 0 .184-.558c.035-.194.046-.392.052-.587l.004-.27V2.478c0-.09-.002-.18-.004-.27a3.897 3.897 0 0 0-.052-.588A1.883 1.883 0 0 0 29.621.056a3.934 3.934 0 0 0-.588-.051c-.09-.003-.18-.004-.27-.004L28.443 0Z" />
    <path fill="#fff" d="M28.443.667h.315c.086 0 .171.002.257.004.15.004.325.012.488.041.141.026.26.065.374.123a1.209 1.209 0 0 1 .53.53 1.3 1.3 0 0 1 .121.374c.03.161.037.336.041.487.003.085.004.17.004.256V17.52c0 .085-.001.17-.004.255a3.3 3.3 0 0 1-.041.488c-.025.14-.064.26-.122.373a1.208 1.208 0 0 1-.53.53 1.303 1.303 0 0 1-.372.122c-.167.03-.349.037-.486.041l-.26.004H2.48c-.086 0-.172-.002-.255-.004a3.391 3.391 0 0 1-.487-.041 1.309 1.309 0 0 1-.375-.123 1.195 1.195 0 0 1-.529-.529 1.31 1.31 0 0 1-.122-.375 3.298 3.298 0 0 1-.041-.486c-.003-.086-.004-.171-.004-.256V2.482c0-.086.001-.171.004-.256a3.3 3.3 0 0 1 .041-.489c.026-.14.064-.26.123-.374a1.203 1.203 0 0 1 .529-.528c.113-.058.232-.097.374-.122.163-.03.338-.038.487-.042l.256-.004h25.962" />
    <path fill="#000" d="M8.528 6.727c.268-.335.45-.784.401-1.243-.391.02-.869.258-1.146.593-.248.287-.468.755-.41 1.195.439.038.878-.22 1.155-.545ZM8.925 7.358c-.639-.038-1.182.362-1.486.362-.305 0-.772-.343-1.277-.334a1.882 1.882 0 0 0-1.6.972c-.686 1.182-.182 2.936.485 3.899.324.476.715 1 1.23.982.485-.02.676-.315 1.266-.315s.762.315 1.277.305c.533-.01.867-.476 1.19-.953.372-.543.524-1.067.534-1.096-.01-.01-1.029-.4-1.038-1.573-.01-.982.8-1.449.838-1.478-.457-.676-1.172-.752-1.42-.771ZM14.483 6.03c1.387 0 2.353.955 2.353 2.348 0 1.397-.986 2.359-2.388 2.359h-1.536v2.443h-1.11V6.03h2.68Zm-1.571 3.775h1.273c.966 0 1.516-.52 1.516-1.422 0-.902-.55-1.417-1.51-1.417h-1.28v2.839ZM17.126 11.698c0-.912.699-1.472 1.938-1.541l1.427-.084V9.67c0-.58-.392-.926-1.046-.926-.62 0-1.006.297-1.1.763h-1.01c.059-.942.861-1.636 2.15-1.636 1.263 0 2.07.67 2.07 1.715v3.593H20.53v-.858h-.024c-.303.58-.962.947-1.646.947-1.02 0-1.734-.635-1.734-1.571Zm3.365-.47v-.412l-1.284.08c-.64.044-1 .326-1 .772 0 .456.376.753.95.753.749 0 1.334-.515 1.334-1.194ZM22.525 15.097v-.867c.079.02.257.02.346.02.496 0 .764-.208.927-.743 0-.01.094-.317.094-.322L22.01 7.966h1.16l1.318 4.241h.02l1.318-4.241h1.13l-1.953 5.485c-.446 1.264-.961 1.67-2.041 1.67-.09 0-.357-.01-.436-.025Z" />
  </g>
  <defs>
    <clipPath id="a">
      <path fill="#fff" d="M0 0h31.241v20H0z" />
    </clipPath>
  </defs>
</svg>