<svg width="64" height="64" viewBox="0 0 64 64" fill="none" xmlns="http://www.w3.org/2000/svg">
<g clip-path="url(#clip0)">
<path d="M61 14.6V16.5334C61 16.7897 60.8982 17.0356 60.7169 17.2169C60.5356 17.3982 60.2897 17.5 60.0333 17.5H57.1333V18.95C57.1333 19.7508 56.4841 20.4 55.6833 20.4H8.31667C7.5159 20.4 6.86667 19.7508 6.86667 18.95V17.5H3.96667C3.71029 17.5 3.46442 17.3982 3.28313 17.2169C3.10184 17.0356 3 16.7897 3 16.5334V14.6C3 14.4088 3.05673 14.2218 3.163 14.0628C3.26928 13.9039 3.42033 13.78 3.59704 13.7068L31.6304 3.0735C31.867 2.9755 32.133 2.9755 32.3696 3.0735L60.403 13.7068C60.5797 13.78 60.7307 13.9039 60.837 14.0628C60.9433 14.2218 61 14.4088 61 14.6ZM58.1 51.3334H5.9C4.29835 51.3334 3 52.6317 3 54.2334V56.1667C3 56.4231 3.10184 56.6689 3.28313 56.8502C3.46442 57.0315 3.71029 57.1334 3.96667 57.1334H60.0333C60.2897 57.1334 60.5356 57.0315 60.7169 56.8502C60.8982 56.6689 61 56.4231 61 56.1667V54.2334C61 52.6317 59.7016 51.3334 58.1 51.3334ZM12.6667 22.6062V45.3321H8.31667C7.5159 45.3321 6.86667 45.9813 6.86667 46.7821V49.1987H57.1333V46.7821C57.1333 45.9813 56.4841 45.3321 55.6833 45.3321H51.3333V22.6062H43.6V45.3321H35.8667V22.6062H28.1333V45.3321H20.4V22.6062H12.6667Z" fill="black"/>
</g>
<defs>
<clipPath id="clip0">
<rect x="3" y="3" width="58" height="58" fill="white"/>
</clipPath>
</defs>
</svg>