<svg width="64" height="64" viewBox="0 0 64 64" fill="none" xmlns="http://www.w3.org/2000/svg">
<circle cx="32" cy="32" r="32" fill="#3A3939"/>
<path d="M38 30.0002C38 29.735 37.8947 29.4806 37.7071 29.2931C37.5196 29.1055 37.2652 29.0002 37 29.0002H25.41L27.71 26.7102C27.8983 26.5219 28.0041 26.2665 28.0041 26.0002C28.0041 25.7339 27.8983 25.4785 27.71 25.2902C27.5217 25.1019 27.2663 24.9961 27 24.9961C26.7337 24.9961 26.4783 25.1019 26.29 25.2902L22.29 29.2902C22.1513 29.4308 22.0573 29.6094 22.0199 29.8034C21.9825 29.9974 22.0034 30.1981 22.08 30.3802C22.155 30.5628 22.2824 30.7191 22.4462 30.8295C22.6099 30.9398 22.8026 30.9992 23 31.0002H37C37.2652 31.0002 37.5196 30.8948 37.7071 30.7073C37.8947 30.5198 38 30.2654 38 30.0002ZM41.92 33.6202C41.845 33.4376 41.7176 33.2812 41.5539 33.1709C41.3902 33.0606 41.1974 33.0012 41 33.0002H27C26.7348 33.0002 26.4804 33.1055 26.2929 33.2931C26.1054 33.4806 26 33.735 26 34.0002C26 34.2654 26.1054 34.5198 26.2929 34.7073C26.4804 34.8948 26.7348 35.0002 27 35.0002H38.59L36.29 37.2902C36.1963 37.3831 36.1219 37.4937 36.0711 37.6156C36.0204 37.7375 35.9942 37.8682 35.9942 38.0002C35.9942 38.1322 36.0204 38.2629 36.0711 38.3848C36.1219 38.5066 36.1963 38.6172 36.29 38.7102C36.383 38.8039 36.4936 38.8783 36.6154 38.9291C36.7373 38.9798 36.868 39.006 37 39.006C37.132 39.006 37.2627 38.9798 37.3846 38.9291C37.5065 38.8783 37.6171 38.8039 37.71 38.7102L41.71 34.7102C41.8488 34.5696 41.9428 34.391 41.9801 34.197C42.0175 34.003 41.9966 33.8023 41.92 33.6202Z" fill="white"/>
</svg>
