<svg xmlns="http://www.w3.org/2000/svg" width="38px" height="20px" fill="none">
  <path fill="#3C4043" fill-rule="evenodd" d="M27.84 1h-17.6c-4.947 0-9 4.052-9 9s4.053 9 9 9h17.6c4.948 0 9-4.052 9-9s-4.052-9-9-9Zm-17.6-1h17.6c5.5 0 10 4.5 10 10s-4.5 10-10 10h-17.6c-5.5 0-10-4.5-10-10s4.5-10 10-10Z" clip-rule="evenodd" />
  <path fill="#3C4043" d="M18.171 10.71v3.025h-.96v-7.47h2.545c.645 0 1.195.215 1.645.645.46.43.69.955.69 1.575 0 .635-.23 1.16-.69 1.585-.445.425-.995.635-1.645.635h-1.585v.005Zm0-3.525V9.79h1.605c.38 0 .7-.13.95-.385a1.26 1.26 0 0 0 .385-.915c0-.345-.13-.65-.385-.905a1.245 1.245 0 0 0-.95-.395h-1.605v-.005ZM24.6 8.455c.71 0 1.27.19 1.68.57.41.38.615.9.615 1.56v3.15h-.915v-.71h-.04c-.395.585-.925.875-1.585.875-.565 0-1.035-.165-1.415-.5-.38-.335-.57-.75-.57-1.25 0-.53.2-.95.6-1.26.4-.315.935-.47 1.6-.47.57 0 1.04.105 1.405.315v-.22c0-.335-.13-.615-.395-.85a1.355 1.355 0 0 0-.93-.35c-.535 0-.96.225-1.27.68l-.845-.53C23 8.79 23.69 8.455 24.6 8.455Zm-1.24 3.71c0 .25.105.46.32.625.21.165.46.25.745.25.405 0 .765-.15 1.08-.45.315-.3.475-.65.475-1.055-.3-.235-.715-.355-1.25-.355-.39 0-.715.095-.975.28-.265.195-.395.43-.395.705ZM32.116 8.62l-3.2 7.36h-.99l1.19-2.575-2.11-4.785h1.045l1.52 3.67h.02l1.48-3.67h1.045Z" />
  <path fill="#4285F4" d="M14.354 10.1c0-.313-.028-.613-.08-.9H10.25v1.65h2.318a1.985 1.985 0 0 1-.86 1.329v1.07h1.379c.806-.745 1.267-1.847 1.267-3.149Z" />
  <path fill="#34A853" d="M11.708 12.179c-.384.259-.879.41-1.457.41-1.118 0-2.066-.753-2.405-1.768H6.423v1.104a4.284 4.284 0 0 0 3.828 2.36c1.157 0 2.129-.381 2.836-1.036l-1.38-1.07Z" />
  <path fill="#FABB05" d="M7.71 10.002c0-.285.048-.56.135-.819V8.079H6.422a4.261 4.261 0 0 0-.456 1.923c0 .692.165 1.345.456 1.924l1.423-1.104a2.583 2.583 0 0 1-.134-.82Z" />
  <path fill="#E94235" d="M10.25 7.415c.632 0 1.198.218 1.644.643l1.223-1.222A4.115 4.115 0 0 0 10.25 5.72c-1.674 0-3.123.96-3.828 2.36l1.423 1.103c.34-1.015 1.287-1.768 2.405-1.768Z" />
</svg>