<svg width="15" height="15" viewBox="0 0 15 15" fill="none" xmlns="http://www.w3.org/2000/svg">
<path fill-rule="evenodd" clip-rule="evenodd" d="M1.79275 1.7932C1.23552 2.35042 0.793507 3.01195 0.491939 3.74C0.190371 4.46805 0.0351563 5.24836 0.0351563 6.0364C0.0351562 6.82444 0.190371 7.60475 0.491939 8.3328C0.793507 9.06085 1.23552 9.72237 1.79275 10.2796C2.34997 10.8368 3.01149 11.2788 3.73954 11.5804C4.46759 11.882 5.24791 12.0372 6.03595 12.0372C6.82398 12.0372 7.6043 11.882 8.33235 11.5804C9.0604 11.2788 9.72192 10.8368 10.2791 10.2796C11.3721 9.14799 11.9769 7.63237 11.9632 6.05919C11.9495 4.48601 11.3185 2.98114 10.2061 1.86869C9.09361 0.756239 7.58874 0.125225 6.01555 0.111555C4.44237 0.0978844 2.92676 0.702651 1.79515 1.7956M9.43195 9.4324C8.98804 9.88627 8.45851 10.2476 7.87401 10.4954C7.28951 10.7432 6.66165 10.8726 6.02679 10.8761C5.39194 10.8796 4.7627 10.7571 4.1755 10.5158C3.58831 10.2744 3.05483 9.91895 2.60595 9.46999C2.15707 9.02103 1.80171 8.48749 1.56046 7.90025C1.3192 7.31302 1.19683 6.68375 1.20044 6.0489C1.20405 5.41404 1.33356 4.78621 1.58148 4.20175C1.8294 3.61729 2.1908 3.08783 2.64475 2.644C3.54837 1.76054 4.76393 1.26907 6.02764 1.27626C7.29136 1.28344 8.50126 1.78869 9.39477 2.68237C10.2883 3.57604 10.7933 4.78603 10.8003 6.04974C10.8072 7.31346 10.3156 8.52894 9.43195 9.4324Z" fill="white"/>
<path d="M9.42937 11.1522C9.20436 10.927 9.07801 10.6217 9.07813 10.3033C9.07824 9.98501 9.2048 9.67977 9.42997 9.45476C9.65514 9.22975 9.96047 9.1034 10.2788 9.10352C10.5971 9.10363 10.9024 9.23019 11.1274 9.45536L14.521 12.8502C14.6356 12.9609 14.727 13.0933 14.7899 13.2397C14.8528 13.3861 14.8859 13.5435 14.8873 13.7029C14.8887 13.8622 14.8583 14.0202 14.798 14.1677C14.7376 14.3152 14.6485 14.4492 14.5358 14.5618C14.4232 14.6745 14.2892 14.7636 14.1417 14.8239C13.9942 14.8843 13.8362 14.9146 13.6769 14.9133C13.5176 14.9119 13.3601 14.8788 13.2137 14.8159C13.0673 14.753 12.9349 14.6616 12.8242 14.547L9.42937 11.1522Z" fill="white"/>
</svg>
