<svg width="321" height="173" viewBox="0 0 321 173" fill="none" xmlns="http://www.w3.org/2000/svg">
<g clip-path="url(#clip0_9_1278)">
<path d="M50.1931 24.8424V79.2718C50.1931 80.4654 51.1611 81.4334 52.3555 81.4334C53.5491 81.4334 54.5162 80.4654 54.5162 79.2718V24.8424C54.5162 21.1715 57.5027 18.1851 61.1727 18.1851C64.8435 18.1851 67.8291 21.1715 67.8291 24.8424V94.4496H72.0672L72.1531 24.8424C72.1531 18.7879 67.2271 13.8619 61.1727 13.8619C55.1191 13.8619 50.1931 18.7879 50.1931 24.8424Z" fill="black"/>
<path d="M58.8384 16.0235V81.7916C58.8384 82.9852 59.8055 83.9532 60.9999 83.9532C62.1944 83.9532 63.1615 82.9852 63.1615 81.7916V16.0235C63.1615 14.8299 62.1944 13.862 60.9999 13.862C59.8055 13.862 58.8384 14.8299 58.8384 16.0235Z" fill="black"/>
<path d="M69.9907 28.6173C68.7963 28.6173 67.8291 29.5845 67.8291 30.778C67.8291 31.9724 68.7963 32.9396 69.9907 32.9396H74.3927C75.5863 32.9396 76.5543 31.9724 76.5543 30.778C76.5543 29.5845 75.5863 28.6173 74.3927 28.6173H69.9907Z" fill="black"/>
<path d="M69.9907 42.7134C68.7963 42.7134 67.8291 43.6815 67.8291 44.875C67.8291 46.0694 68.7963 47.0374 69.9907 47.0374H74.3927C75.5863 47.0374 76.5543 46.0694 76.5543 44.875C76.5543 43.6815 75.5863 42.7134 74.3927 42.7134H69.9907Z" fill="black"/>
<path d="M69.9907 56.8113C68.7963 56.8113 67.8291 57.7793 67.8291 58.9729C67.8291 60.1664 68.7963 61.1345 69.9907 61.1345H74.3927C75.5863 61.1345 76.5543 60.1664 76.5543 58.9729C76.5543 57.7793 75.5863 56.8113 74.3927 56.8113H69.9907Z" fill="black"/>
<path d="M69.9907 70.9075C68.7963 70.9075 67.8291 71.8755 67.8291 73.0691C67.8291 74.2626 68.7963 75.2306 69.9907 75.2306H74.3927C75.5863 75.2306 76.5543 74.2626 76.5543 73.0691C76.5543 71.8755 75.5863 70.9075 74.3927 70.9075H69.9907Z" fill="black"/>
<path d="M81.136 77.1415V110.004H70.6804C69.486 110.004 68.5188 110.971 68.5188 112.165C68.5188 113.359 69.486 114.326 70.6804 114.326H83.2967C84.4911 114.326 85.4583 113.359 85.4583 112.165V77.1415C85.4583 73.5661 88.3676 70.6577 91.943 70.6577C95.5193 70.6577 98.4285 73.5661 98.4285 77.1415V113.267C98.4285 121.002 92.1338 127.296 84.4001 127.296H70.5156C69.3212 127.296 68.354 128.264 68.354 129.457C68.354 130.651 69.3212 131.619 70.5156 131.619H84.4001C94.5192 131.619 102.751 123.386 102.751 113.267V77.1415C102.751 71.1824 97.9029 66.3345 91.943 66.3345C85.9839 66.3345 81.136 71.1824 81.136 77.1415Z" fill="black"/>
<path d="M89.7812 68.4961V111.999C89.7812 115.666 86.7982 118.65 83.1308 118.65H70.6801C69.4857 118.65 68.5186 119.617 68.5186 120.811C68.5186 122.004 69.4857 122.972 70.6801 122.972H83.1308C89.1818 122.972 94.1043 118.05 94.1043 111.999V68.4961C94.1043 67.3017 93.1371 66.3345 91.9427 66.3345C90.7483 66.3345 89.7812 67.3017 89.7812 68.4961Z" fill="black"/>
<path d="M101.107 73.069C99.9134 73.069 98.9445 74.0371 98.9445 75.2306C98.9445 76.4242 99.9134 77.3922 101.107 77.3922H105.508C106.703 77.3922 107.67 76.4242 107.67 75.2306C107.67 74.0371 106.703 73.069 105.508 73.069H101.107Z" fill="black"/>
<path d="M101.107 87.166C99.9134 87.166 98.9445 88.134 98.9445 89.3276C98.9445 90.5211 99.9134 91.4891 101.107 91.4891H105.508C106.703 91.4891 107.67 90.5211 107.67 89.3276C107.67 88.134 106.703 87.166 105.508 87.166H101.107Z" fill="black"/>
<path d="M101.107 101.263C99.9134 101.263 98.9445 102.231 98.9445 103.425C98.9445 104.619 99.9134 105.587 101.107 105.587H105.508C106.703 105.587 107.67 104.619 107.67 103.425C107.67 102.231 106.703 101.263 105.508 101.263H101.107Z" fill="black"/>
<path d="M101.107 115.361C99.9134 115.361 98.9445 116.328 98.9445 117.522C98.9445 118.716 99.9134 119.683 101.107 119.683H105.508C106.703 119.683 107.67 118.716 107.67 117.522C107.67 116.328 106.703 115.361 105.508 115.361H101.107Z" fill="black"/>
<path d="M20.4714 45.0945V81.2209C20.4714 91.34 28.7039 99.5716 38.823 99.5716H50.5451V149.38C50.5451 150.575 51.5123 151.542 52.7067 151.542H69.9992C71.1927 151.542 72.1607 150.575 72.1607 149.38V96.3059C72.1607 86.1876 63.9291 77.9568 53.8109 77.9568H42.0871V45.0945C42.0871 39.1354 37.2383 34.2875 31.2784 34.2875C25.3202 34.2875 20.4714 39.1354 20.4714 45.0945ZM24.7946 81.2209V45.0945C24.7946 41.5191 27.703 38.6098 31.2784 38.6098C34.8547 38.6098 37.764 41.5191 37.764 45.0945V80.1176C37.764 81.3111 38.732 82.2791 39.9255 82.2791H53.8109C61.5446 82.2791 67.8367 88.5712 67.8367 96.3059V147.219H54.8682V97.41C54.8682 96.2165 53.9011 95.2485 52.7067 95.2485H38.823C31.0876 95.2485 24.7946 88.9555 24.7946 81.2209Z" fill="black"/>
<path d="M29.1169 36.4491V79.9519C29.1169 86.0029 34.0403 90.9254 40.0913 90.9254H52.5429C56.2085 90.9254 59.1915 93.9084 59.1915 97.574V149.381C59.1915 150.576 60.1586 151.543 61.3522 151.543C62.5466 151.543 63.5137 150.576 63.5137 149.381V97.574C63.5137 91.5247 58.5921 86.6022 52.5429 86.6022H40.0913C36.4239 86.6022 33.4409 83.6192 33.4409 79.9519V36.4491C33.4409 35.2547 32.4721 34.2875 31.2785 34.2875C30.0858 34.2875 29.1169 35.2547 29.1169 36.4491Z" fill="black"/>
<path d="M18.0749 84.6991C16.8814 84.6991 15.9133 85.6672 15.9133 86.8607C15.9133 88.0543 16.8814 89.0223 18.0749 89.0223H22.4761C23.6705 89.0223 24.6385 88.0543 24.6385 86.8607C24.6385 85.6672 23.6705 84.6991 22.4761 84.6991H18.0749Z" fill="black"/>
<path d="M18.0749 70.6022C16.8814 70.6022 15.9133 71.5702 15.9133 72.7637C15.9133 73.9573 16.8814 74.9253 18.0749 74.9253H22.4761C23.6705 74.9253 24.6385 73.9573 24.6385 72.7637C24.6385 71.5702 23.6705 70.6022 22.4761 70.6022H18.0749Z" fill="black"/>
<path d="M18.0749 56.5051C16.8814 56.5051 15.9133 57.4732 15.9133 58.6676C15.9133 59.8603 16.8814 60.8283 18.0749 60.8283H22.4761C23.6705 60.8283 24.6385 59.8603 24.6385 58.6676C24.6385 57.4732 23.6705 56.5051 22.4761 56.5051H18.0749Z" fill="black"/>
<path d="M18.0749 42.4081C16.8814 42.4081 15.9133 43.3761 15.9133 44.5705C15.9133 45.7641 16.8814 46.7321 18.0749 46.7321H22.4761C23.6705 46.7321 24.6385 45.7641 24.6385 44.5705C24.6385 43.3761 23.6705 42.4081 22.4761 42.4081H18.0749Z" fill="black"/>
<path d="M21.9436 147.219C20.75 147.219 19.782 148.187 19.782 149.381C19.782 150.576 20.75 151.543 21.9436 151.543H100.057C101.25 151.543 102.217 150.576 102.217 149.381C102.217 148.187 101.25 147.219 100.057 147.219H21.9436Z" fill="black"/>
<path d="M2.16069 155.678C0.96715 155.678 0 156.645 0 157.838C0 159.033 0.96715 160 2.16069 160H119.838C121.033 160 122 159.033 122 157.838C122 156.645 121.033 155.678 119.838 155.678H2.16069Z" fill="black"/>
<path d="M166.248 70.512C162.536 70.512 159.229 69.7653 156.328 68.272C153.427 66.736 151.144 64.624 149.48 61.936C147.859 59.248 147.048 56.1973 147.048 52.784C147.048 49.328 147.859 46.2773 149.48 43.632C151.144 40.944 153.427 38.8533 156.328 37.36C159.229 35.824 162.536 35.056 166.248 35.056C169.875 35.056 173.032 35.824 175.72 37.36C178.408 38.8533 180.392 41.008 181.672 43.824L173.928 47.984C173.032 46.3627 171.901 45.168 170.536 44.4C169.213 43.632 167.763 43.248 166.184 43.248C164.477 43.248 162.941 43.632 161.576 44.4C160.211 45.168 159.123 46.256 158.312 47.664C157.544 49.072 157.16 50.7787 157.16 52.784C157.16 54.7893 157.544 56.496 158.312 57.904C159.123 59.312 160.211 60.4 161.576 61.168C162.941 61.936 164.477 62.32 166.184 62.32C167.763 62.32 169.213 61.9573 170.536 61.232C171.901 60.464 173.032 59.248 173.928 57.584L181.672 61.808C180.392 64.5813 178.408 66.736 175.72 68.272C173.032 69.7653 169.875 70.512 166.248 70.512ZM211.741 70V63.28L211.101 61.808V49.776C211.101 47.6427 210.439 45.9787 209.117 44.784C207.837 43.5893 205.853 42.992 203.165 42.992C201.33 42.992 199.517 43.2907 197.725 43.888C195.975 44.4427 194.482 45.2107 193.245 46.192L189.661 39.216C191.538 37.8933 193.799 36.8693 196.445 36.144C199.09 35.4187 201.778 35.056 204.509 35.056C209.757 35.056 213.831 36.2933 216.733 38.768C219.634 41.2427 221.085 45.104 221.085 50.352V70H211.741ZM201.245 70.512C198.557 70.512 196.253 70.064 194.333 69.168C192.413 68.2293 190.941 66.9707 189.917 65.392C188.893 63.8133 188.381 62.0427 188.381 60.08C188.381 58.032 188.871 56.24 189.853 54.704C190.877 53.168 192.477 51.9733 194.653 51.12C196.829 50.224 199.666 49.776 203.165 49.776H212.317V55.6H204.253C201.906 55.6 200.285 55.984 199.389 56.752C198.535 57.52 198.109 58.48 198.109 59.632C198.109 60.912 198.599 61.936 199.581 62.704C200.605 63.4293 201.991 63.792 203.741 63.792C205.405 63.792 206.898 63.408 208.221 62.64C209.543 61.8293 210.503 60.656 211.101 59.12L212.637 63.728C211.911 65.9467 210.589 67.632 208.669 68.784C206.749 69.936 204.274 70.512 201.245 70.512ZM250.211 70.512C246.499 70.512 243.192 69.7653 240.291 68.272C237.389 66.736 235.107 64.624 233.443 61.936C231.821 59.248 231.011 56.1973 231.011 52.784C231.011 49.328 231.821 46.2773 233.443 43.632C235.107 40.944 237.389 38.8533 240.291 37.36C243.192 35.824 246.499 35.056 250.211 35.056C253.837 35.056 256.995 35.824 259.683 37.36C262.371 38.8533 264.355 41.008 265.635 43.824L257.891 47.984C256.995 46.3627 255.864 45.168 254.499 44.4C253.176 43.632 251.725 43.248 250.147 43.248C248.44 43.248 246.904 43.632 245.539 44.4C244.173 45.168 243.085 46.256 242.275 47.664C241.507 49.072 241.123 50.7787 241.123 52.784C241.123 54.7893 241.507 56.496 242.275 57.904C243.085 59.312 244.173 60.4 245.539 61.168C246.904 61.936 248.44 62.32 250.147 62.32C251.725 62.32 253.176 61.9573 254.499 61.232C255.864 60.464 256.995 59.248 257.891 57.584L265.635 61.808C264.355 64.5813 262.371 66.736 259.683 68.272C256.995 69.7653 253.837 70.512 250.211 70.512ZM289.163 70.512C285.11 70.512 281.952 69.488 279.691 67.44C277.43 65.3493 276.299 62.256 276.299 58.16V27.952H286.283V58.032C286.283 59.4827 286.667 60.6133 287.435 61.424C288.203 62.192 289.248 62.576 290.571 62.576C292.15 62.576 293.494 62.1493 294.603 61.296L297.291 68.336C296.267 69.0613 295.03 69.616 293.579 70C292.171 70.3413 290.699 70.512 289.163 70.512ZM270.987 44.016V36.336H294.859V44.016H270.987ZM306.096 70V35.568H316.08V70H306.096ZM311.088 30.768C309.253 30.768 307.76 30.2347 306.608 29.168C305.456 28.1013 304.88 26.7787 304.88 25.2C304.88 23.6213 305.456 22.2987 306.608 21.232C307.76 20.1653 309.253 19.632 311.088 19.632C312.922 19.632 314.416 20.144 315.568 21.168C316.72 22.1493 317.296 23.4293 317.296 25.008C317.296 26.672 316.72 28.0587 315.568 29.168C314.458 30.2347 312.965 30.768 311.088 30.768ZM179.32 130.704C175.331 130.704 171.84 129.824 168.848 128.064C165.856 126.304 163.509 123.635 161.808 120.056C160.165 116.419 159.344 111.843 159.344 106.328C159.344 100.755 160.136 96.1787 161.72 92.6C163.304 89.0213 165.592 86.352 168.584 84.592C171.576 82.832 175.155 81.952 179.32 81.952C183.779 81.952 187.768 82.9787 191.288 85.032C194.867 87.0267 197.683 89.8427 199.736 93.48C201.848 97.1173 202.904 101.4 202.904 106.328C202.904 111.315 201.848 115.627 199.736 119.264C197.683 122.901 194.867 125.717 191.288 127.712C187.768 129.707 183.779 130.704 179.32 130.704ZM151.336 147.072V82.656H164.448V92.336L164.184 106.416L165.064 120.408V147.072H151.336ZM176.944 119.44C179.232 119.44 181.256 118.912 183.016 117.856C184.835 116.8 186.272 115.304 187.328 113.368C188.443 111.373 189 109.027 189 106.328C189 103.571 188.443 101.224 187.328 99.288C186.272 97.352 184.835 95.856 183.016 94.8C181.256 93.744 179.232 93.216 176.944 93.216C174.656 93.216 172.603 93.744 170.784 94.8C168.965 95.856 167.528 97.352 166.472 99.288C165.416 101.224 164.888 103.571 164.888 106.328C164.888 109.027 165.416 111.373 166.472 113.368C167.528 115.304 168.965 116.8 170.784 117.856C172.603 118.912 174.656 119.44 176.944 119.44ZM244.76 130V120.76L243.88 118.736V102.192C243.88 99.2587 242.971 96.9707 241.152 95.328C239.392 93.6853 236.664 92.864 232.968 92.864C230.446 92.864 227.952 93.2747 225.488 94.096C223.083 94.8587 221.03 95.9147 219.328 97.264L214.4 87.672C216.982 85.8533 220.091 84.4453 223.728 83.448C227.366 82.4507 231.062 81.952 234.816 81.952C242.032 81.952 247.635 83.6533 251.624 87.056C255.614 90.4587 257.608 95.768 257.608 102.984V130H244.76ZM230.328 130.704C226.632 130.704 223.464 130.088 220.824 128.856C218.184 127.565 216.16 125.835 214.752 123.664C213.344 121.493 212.64 119.059 212.64 116.36C212.64 113.544 213.315 111.08 214.664 108.968C216.072 106.856 218.272 105.213 221.264 104.04C224.256 102.808 228.158 102.192 232.968 102.192H245.552V110.2H234.464C231.238 110.2 229.008 110.728 227.776 111.784C226.603 112.84 226.016 114.16 226.016 115.744C226.016 117.504 226.691 118.912 228.04 119.968C229.448 120.965 231.355 121.464 233.76 121.464C236.048 121.464 238.102 120.936 239.92 119.88C241.739 118.765 243.059 117.152 243.88 115.04L245.992 121.376C244.995 124.427 243.176 126.744 240.536 128.328C237.896 129.912 234.494 130.704 230.328 130.704ZM279.558 147.776C277.094 147.776 274.659 147.395 272.254 146.632C269.848 145.869 267.883 144.813 266.358 143.464L271.374 133.696C272.43 134.635 273.632 135.368 274.982 135.896C276.39 136.424 277.768 136.688 279.118 136.688C281.054 136.688 282.579 136.219 283.694 135.28C284.867 134.4 285.923 132.904 286.862 130.792L289.326 124.984L290.382 123.488L307.366 82.656H320.566L299.182 132.904C297.656 136.717 295.896 139.709 293.902 141.88C291.966 144.051 289.795 145.576 287.39 146.456C285.043 147.336 282.432 147.776 279.558 147.776ZM287.654 131.848L266.534 82.656H280.702L297.07 122.256L287.654 131.848Z" fill="black"/>
</g>
<defs>
<clipPath id="clip0_9_1278">
<rect width="321" height="173" fill="white"/>
</clipPath>
</defs>
</svg>
