<svg width="72" height="56" viewBox="0 0 72 56" fill="none" xmlns="http://www.w3.org/2000/svg">
<g clip-path="url(#clip0_483_439)">
<path d="M13.0892 55.7219V52.0155C13.0892 50.5944 12.2246 49.668 10.7427 49.668C10.0019 49.668 9.19923 49.9151 8.64348 50.7182C8.21148 50.0386 7.59414 49.668 6.66798 49.668C6.05036 49.668 5.4333 49.8532 4.93914 50.5328V49.7916H3.64258V55.7219H4.93914V52.4478C4.93914 51.3978 5.49489 50.9034 6.35945 50.9034C7.22345 50.9034 7.65602 51.4595 7.65602 52.4478V55.7219H8.95258V52.4478C8.95258 51.3978 9.56964 50.9034 10.3723 50.9034C11.2369 50.9034 11.6689 51.4595 11.6689 52.4478V55.7219H13.0892ZM32.2904 49.7916H30.1915V48.0001H28.8949V49.7916H27.7218V50.965H28.8946V53.6834C28.8946 55.0426 29.4504 55.8455 30.9323 55.8455C31.488 55.8455 32.1051 55.6603 32.5376 55.4132L32.167 54.3011C31.7965 54.5482 31.3645 54.6101 31.0557 54.6101C30.4384 54.6101 30.1915 54.2395 30.1915 53.6215V50.965H32.2904V49.7916ZM43.2805 49.6677C42.5397 49.6677 42.0459 50.0386 41.737 50.5328V49.7916H40.4405V55.7219H41.737V52.3861C41.737 51.3978 42.169 50.8418 42.9717 50.8418C43.2187 50.8418 43.5275 50.9037 43.7744 50.9653L44.1448 49.7299C43.8979 49.668 43.5275 49.668 43.2805 49.668M26.6722 50.286C26.0545 49.8535 25.1903 49.6683 24.2641 49.6683C22.7825 49.6683 21.7947 50.4095 21.7947 51.5833C21.7947 52.5719 22.5355 53.1276 23.8321 53.3131L24.4495 53.375C25.1287 53.4982 25.4991 53.6837 25.4991 53.9927C25.4991 54.4249 25.0052 54.7339 24.1406 54.7339C23.2761 54.7339 22.5971 54.4249 22.1649 54.1162L21.5475 55.1045C22.2267 55.5987 23.1529 55.8457 24.0788 55.8457C25.8076 55.8457 26.7956 55.0429 26.7956 53.9308C26.7956 52.8806 25.993 52.3245 24.758 52.1393L24.1406 52.0774C23.5849 52.0155 23.1529 51.8923 23.1529 51.5216C23.1529 51.0891 23.5849 50.842 24.2641 50.842C25.0052 50.842 25.746 51.1507 26.1164 51.3362L26.6722 50.286ZM61.1239 49.6683C60.3828 49.6683 59.8889 50.0389 59.5801 50.5331V49.7918H58.2836V55.7222H59.5801V52.3864C59.5801 51.3981 60.0124 50.842 60.8148 50.842C61.062 50.842 61.3708 50.904 61.6178 50.9656L61.9882 49.7302C61.7412 49.6683 61.3708 49.6683 61.1239 49.6683ZM44.5771 52.757C44.5771 54.5485 45.8118 55.8457 47.726 55.8457C48.5903 55.8457 49.2076 55.6606 49.825 55.1664L49.2076 54.1162C48.7137 54.4868 48.2199 54.672 47.6641 54.672C46.6145 54.672 45.8737 53.9308 45.8737 52.757C45.8737 51.6452 46.6145 50.9037 47.6641 50.842C48.2199 50.842 48.7137 51.0272 49.2076 51.3981L49.825 50.3479C49.2076 49.8535 48.5903 49.6683 47.726 49.6683C45.8118 49.6683 44.5771 50.9656 44.5771 52.757ZM56.555 52.757V49.7918H55.2584V50.5331C54.8261 49.9773 54.2088 49.6683 53.4061 49.6683C51.7391 49.6683 50.4426 50.9656 50.4426 52.757C50.4426 54.5485 51.7391 55.8457 53.4061 55.8457C54.2704 55.8457 54.888 55.537 55.2584 54.981V55.7222H56.555V52.757ZM51.8007 52.757C51.8007 51.7068 52.48 50.842 53.5912 50.842C54.6408 50.842 55.3819 51.6452 55.3819 52.757C55.3819 53.8072 54.6408 54.672 53.5912 54.672C52.48 54.6101 51.8007 53.8072 51.8007 52.757ZM36.3039 49.6683C34.575 49.6683 33.34 50.9037 33.34 52.757C33.34 54.6104 34.5747 55.8457 36.3655 55.8457C37.2297 55.8457 38.0943 55.5987 38.7735 55.0429L38.1559 54.1162C37.662 54.4868 37.0447 54.7339 36.4273 54.7339C35.6246 54.7339 34.822 54.3633 34.6366 53.3128H39.0205V52.8189C39.0823 50.9037 37.9711 49.6683 36.3039 49.6683ZM36.3036 50.7801C37.106 50.7801 37.662 51.2746 37.7852 52.2012H34.6982C34.8217 51.3981 35.3774 50.7801 36.3036 50.7801ZM68.4707 52.757V47.4443H67.1741V50.5331C66.7419 49.9773 66.1245 49.6683 65.3218 49.6683C63.6549 49.6683 62.3583 50.9656 62.3583 52.757C62.3583 54.5485 63.6549 55.8457 65.3218 55.8457C66.1864 55.8457 66.8037 55.537 67.1741 54.981V55.7222H68.4707V52.757ZM63.7167 52.757C63.7167 51.7068 64.3957 50.842 65.5072 50.842C66.5568 50.842 67.2976 51.6452 67.2976 52.757C67.2976 53.8072 66.5568 54.672 65.5072 54.672C64.3957 54.6101 63.7167 53.8072 63.7167 52.757ZM20.3741 52.757V49.7918H19.0776V50.5331C18.6453 49.9773 18.028 49.6683 17.2253 49.6683C15.5583 49.6683 14.2617 50.9656 14.2617 52.757C14.2617 54.5485 15.5583 55.8457 17.2253 55.8457C18.0898 55.8457 18.7072 55.537 19.0776 54.981V55.7222H20.3741V52.757ZM15.5583 52.757C15.5583 51.7068 16.2375 50.842 17.3487 50.842C18.3984 50.842 19.1395 51.6452 19.1395 52.757C19.1395 53.8072 18.3984 54.672 17.3487 54.672C16.2375 54.6101 15.5583 53.8072 15.5583 52.757Z" fill="white"/>
<path d="M26.2402 4.75684H45.6887V39.7219H26.2402V4.75684Z" fill="#FF5F00"/>
<path d="M27.475 22.2393C27.475 15.1352 30.809 8.83393 35.9333 4.75662C32.1674 1.79144 27.4134 0 22.2272 0C9.94022 0 0 9.94577 0 22.2393C0 34.5329 9.94022 44.4786 22.2269 44.4786C27.4132 44.4786 32.1671 42.6872 35.9333 39.7217C30.809 35.7063 27.475 29.3434 27.475 22.2393Z" fill="#EB001B"/>
<path d="M71.9294 22.2393C71.9294 34.5326 61.9892 44.4786 49.7025 44.4786C44.5163 44.4786 39.7623 42.6872 35.9961 39.7217C41.1823 35.6447 44.4547 29.3434 44.4547 22.2393C44.4547 15.1352 41.1205 8.83393 35.9961 4.75662C39.762 1.79144 44.5163 0 49.7025 0C61.9892 0 71.9294 10.0077 71.9294 22.2393Z" fill="#F79E1B"/>
</g>
<defs>
<clipPath id="clip0_483_439">
<rect width="72" height="56" fill="white"/>
</clipPath>
</defs>
</svg>
