<svg width="126" height="41" viewBox="0 0 126 41" fill="none" xmlns="http://www.w3.org/2000/svg">
<g clip-path="url(#clip0_483_444)">
<path d="M65.1641 13.0078C65.0923 18.6759 70.2155 21.8387 74.0747 23.7193C78.0398 25.6487 79.3716 26.8861 79.3559 28.6117C79.3264 31.2523 76.1931 32.4178 73.2611 32.463C68.1458 32.5423 65.1715 31.082 62.8071 29.9775L60.9643 38.6001C63.3367 39.6933 67.7294 40.6466 72.2846 40.6885C82.9774 40.6885 89.9729 35.4103 90.0108 27.2267C90.0526 16.8405 75.6448 16.2656 75.7432 11.6233C75.7772 10.2157 77.1204 8.71351 80.0637 8.33157C81.5205 8.13863 85.5422 7.99097 90.1018 10.0906L91.8914 1.74807C89.4393 0.85524 86.2878 0.00030899 82.3641 0.00030899C72.2999 0.00030899 65.2212 5.35039 65.1641 13.0078ZM109.087 0.718903C107.135 0.718903 105.49 1.85782 104.755 3.60558L89.4812 40.0757H100.166L102.292 34.1995H115.349L116.582 40.0757H126L117.782 0.718903H109.087ZM110.582 11.3506L113.666 26.1296H105.221L110.582 11.3506ZM52.2093 0.719395L43.787 40.0752H53.9689L62.3872 0.71841L52.2093 0.719395ZM37.1469 0.719395L26.5491 27.5067L22.2621 4.72974C21.7591 2.1871 19.7726 0.718903 17.5667 0.718903H0.242648L0 1.86176C3.55655 2.63351 7.59741 3.87825 10.0455 5.21011C11.5438 6.0237 11.971 6.73491 12.4632 8.66822L20.5828 40.0757H31.3425L47.8387 0.718903L37.1469 0.719395Z" fill="white"/>
</g>
<defs>
<clipPath id="clip0_483_444">
<rect width="126" height="40.8516" fill="white"/>
</clipPath>
</defs>
</svg>
