<svg width="64" height="65" viewBox="0 0 64 65" fill="none" xmlns="http://www.w3.org/2000/svg">
<circle cx="32" cy="32" r="32" transform="rotate(180 32 32)" fill="white"/>
<path fill-rule="evenodd" clip-rule="evenodd" d="M64 32.0013C64 49.6745 49.6731 64.0013 32 64.0013C14.3269 64.0013 0 49.6745 0 32.0013C0 14.3282 14.3269 0.00134277 32 0.00134277C49.6731 0.00134277 64 14.3282 64 32.0013ZM30.0225 19.5215C30.8293 18.5745 30.5134 17.1714 30.5134 17.1714L28.1633 20.644C28.1284 20.644 29.0051 20.6791 30.0225 19.5215ZM22.4102 37.0925L22.1294 38.4956C22.1294 38.4956 22.6907 38.4254 22.6907 39.0568C22.6907 39.5479 22.1294 40.2142 21.6733 40.2493C21.2175 40.2843 21.042 39.7231 21.1472 39.4075C21.2524 39.1269 22.4102 37.0925 22.4102 37.0925ZM42.9666 16.188C42.9666 16.188 44.7202 16.2581 46.5442 16.4686C42.4402 13.2415 38.5466 12.2944 35.3899 12.2944C31.0735 12.2944 28.1387 14.0562 27.9226 14.1859L29.2864 12.0138C29.2864 12.0138 23.8142 11.4876 21.885 17.2753C21.394 16.0477 20.938 14.2587 20.938 14.2587C20.938 14.2587 18.0967 16.7492 19.4297 20.8883C16.1675 19.6957 11.5022 18.047 11.3269 18.012C11.0813 17.9769 11.0112 18.0821 11.0112 18.0821C11.0112 18.0821 10.9412 18.1874 11.1516 18.3627C11.5374 18.6784 18.9036 24.1154 20.5171 25.1676C20.1663 26.4305 20.1663 27.0267 20.5171 27.623C21.0081 28.4298 21.0432 28.8508 20.9731 29.447C20.9028 30.0434 20.2715 35.1996 20.1313 35.831C20.075 36.0853 19.8022 36.6012 19.5012 37.1703L19.499 37.1741C19.053 38.0174 18.5459 38.9763 18.5879 39.3736C18.658 40.0402 19.5701 42.8814 20.3767 43.1972C20.9731 43.4076 22.4463 43.8636 23.4285 43.8636C23.7793 43.8636 24.095 43.7933 24.2351 43.6531C24.8315 43.127 25.0068 43.0217 25.4277 43.0217H25.5332C25.6135 43.0217 25.7012 43.029 25.7961 43.037C25.9087 43.0465 26.0312 43.0568 26.1643 43.0568C26.7256 43.0568 27.4624 42.9518 27.9885 42.4606C28.3521 42.0971 28.8401 41.6712 29.2988 41.2711C29.8137 40.8219 30.2913 40.4051 30.5139 40.1453C31.0403 39.479 31.3208 38.567 31.1807 37.6549C31.0752 36.8131 31.5312 36.0765 32.0574 35.34C32.7239 34.463 33.9517 32.8845 33.9517 32.8845C36.3718 34.7085 37.8801 37.4795 37.8801 40.5663C37.8801 46.0382 33.1099 50.458 27.2168 50.458C26.3047 50.458 25.4277 50.3528 24.551 50.1424C27.252 51.0893 29.5317 51.4051 31.3911 51.4051C35.3547 51.4051 37.4592 49.9668 37.4592 49.9668C37.4592 49.9668 36.7227 50.9141 35.53 52.0013H35.5652C42.1245 51.0893 45.3164 45.6876 45.3164 45.6876C45.3164 45.6876 45.071 47.4413 44.7551 48.634C53.2681 42.2411 52.0842 34.282 51.9861 33.6226L51.981 33.5861C52.0242 33.6506 52.3691 34.0698 52.7354 34.5141L52.7441 34.525C52.9731 34.8031 53.2095 35.09 53.384 35.3048C54.7876 20.8531 42.9666 16.188 42.9666 16.188ZM29.5317 39.2686C29.4236 39.4039 29.0437 39.7483 28.6821 40.0759C28.5754 40.1727 28.4702 40.268 28.3743 40.356C28.2285 40.4895 28.0789 40.6229 27.9307 40.755L27.9263 40.759C27.6477 41.0072 27.375 41.2502 27.1467 41.4783C27.0063 41.6186 26.7256 41.6888 26.3047 41.6888H25.9189H25.7085H25.5681H25.2524C25.7786 40.9872 27.322 39.3736 27.8481 39.0228C28.4795 38.6021 28.7954 38.181 28.4094 37.4445C28.0234 36.7079 27.0063 36.8833 27.0063 36.8833C27.0063 36.8833 27.6028 36.6377 28.1287 36.6377C27.4624 36.4624 26.6204 36.6378 26.2346 37.0237C25.9539 37.2808 25.8916 37.9747 25.8293 38.6686C25.7981 39.0154 25.7668 39.3622 25.7085 39.6544C25.5515 40.471 25.0569 40.922 24.3 41.6119C24.2117 41.6924 24.1199 41.7762 24.0247 41.8642C23.5337 42.3202 23.1829 42.4606 22.9023 42.4606C22.3059 42.3554 21.6045 42.1798 21.1133 42.0046C20.7627 41.5484 20.2366 40.0402 20.0962 39.4088C20.1716 39.1565 20.4106 38.7047 20.6177 38.3144L20.6184 38.3124C20.6987 38.1607 20.7739 38.0183 20.8328 37.9007L20.8921 37.787C21.2769 37.05 21.5027 36.6175 21.5693 36.2167C21.7097 35.6206 22.1658 31.9376 22.3411 30.3941C22.7971 30.9904 23.4285 31.9726 23.2881 32.6039C24.3054 31.1659 23.5688 29.7628 23.218 29.2016C22.9023 28.6404 22.4814 27.5178 22.832 26.3253C23.1829 25.1325 24.4458 21.8354 24.4458 21.8354C24.4458 21.8354 24.8667 22.572 25.4629 22.4317C26.0593 22.2914 30.8647 15.0655 30.8647 15.0655C30.8647 15.0655 32.1626 17.9067 30.7947 19.9763C29.3916 22.0458 28.0234 22.4317 28.0234 22.4317C28.0234 22.4317 29.9529 22.7824 31.7419 21.4846C32.4783 23.2033 33.1797 24.9922 33.2151 25.2378L33.0642 25.5966C32.6738 26.5265 31.6831 28.8862 31.5664 29.0612C31.4961 29.1314 31.0051 29.2716 30.6543 29.3418C30.0581 29.5171 29.7073 29.6225 29.5669 29.7277C29.3213 29.9381 28.199 33.0249 27.6726 34.533C27.0415 34.7085 26.4099 35.0594 25.9541 35.7608C26.1997 35.5854 26.9712 35.4802 27.5325 35.41C28.0234 35.3748 29.5317 36.1818 29.9177 37.69V37.7602C29.988 38.3214 29.8125 38.8476 29.5317 39.2686ZM26.5334 38.4379V38.437V38.4314C26.5386 38.3418 26.543 38.2675 26.5503 38.2162C26.5854 37.9706 26.6555 37.5147 26.9363 37.4445C27.2168 37.3743 27.8833 37.4795 27.8833 37.9706C27.8833 38.2846 27.6506 38.4322 27.3911 38.5968L27.3896 38.5975C27.2727 38.6718 27.1504 38.7495 27.0415 38.8476C26.8801 39.0088 26.613 39.2911 26.4287 39.4857C26.3325 39.5875 26.2588 39.6653 26.2346 39.6894C26.4827 39.3311 26.5142 38.7776 26.5334 38.4379ZM40.2305 32.9898C40.5811 31.2008 40.6162 29.6575 40.511 28.3946C41.8789 30.2187 42.7207 32.4285 42.9666 34.7085C43.0012 34.9889 43.2815 35.2692 43.5618 35.5496L43.5625 35.5504C43.8083 35.7608 44.0889 36.0414 44.0889 36.2167C44.0889 37.0237 44.0188 37.8303 43.8784 38.6372C43.845 38.7371 43.5596 38.8998 43.3206 39.036L43.282 39.058C42.9314 39.2334 42.6157 39.4088 42.5454 39.6894C41.7739 42.3902 40.1252 44.7755 37.9153 46.4592C41.1775 43.0568 42.7559 37.4445 40.2305 32.9898ZM38.0205 46.775C40.3005 45.0211 42.0544 42.5658 42.8262 39.7946C42.853 39.7135 43.0471 39.5905 43.2312 39.4741C43.2856 39.4396 43.3391 39.4057 43.3872 39.3736C43.738 39.1984 44.0889 38.988 44.1589 38.7074C44.2993 37.9004 44.3696 37.0585 44.3696 36.2167C44.3696 35.9016 44.0547 35.5864 43.7395 35.271L43.738 35.2698C43.6941 35.2171 43.6436 35.1621 43.5925 35.1067L43.5918 35.106L43.5911 35.1054C43.4387 34.9398 43.282 34.7694 43.282 34.6384C43.0012 32.0776 41.9841 29.6575 40.4058 27.6581C39.7156 23.5177 36.9893 22.1943 36.8337 22.1187L36.8279 22.116L36.8323 22.1226C36.9534 22.3021 38.7029 24.8994 37.4592 27.9388C36.2996 30.7287 33.5146 30.6331 32.7354 30.6063C32.6426 30.6031 32.5784 30.6009 32.5486 30.6047C32.2678 30.6047 31.1807 32.0075 29.8125 34.6032C29.6372 34.5333 28.9006 34.3577 28.0586 34.4981C28.6899 32.7442 29.6372 30.2539 29.8125 30.0434C29.8684 29.9876 30.2124 29.8875 30.5269 29.7959L30.5291 29.7953C30.6096 29.7719 30.6882 29.7491 30.7595 29.7277C31.426 29.5523 31.7419 29.447 31.8469 29.3067C31.917 29.2016 32.2678 28.3946 32.6187 27.5529C32.9343 27.5529 33.741 27.4827 33.8113 27.4477C33.8813 27.3775 34.5481 25.6587 34.5481 25.4482C34.5481 25.2728 33.1797 21.8704 32.6538 20.5726C32.8992 20.292 33.145 19.9412 33.3904 19.5553C40.5811 20.327 46.1934 26.4305 46.1934 33.8317C46.1934 39.514 42.8611 44.4599 38.0205 46.775ZM27.7773 25.3773C29.0051 25.6229 29.3557 27.061 28.6895 27.8328C28.0229 28.5693 26.3394 29.6216 25.3569 29.8673C25.1467 30.674 23.3577 30.3232 24.0242 27.7626C24.0242 27.7626 24.3398 28.9903 24.6555 28.8851C24.9712 28.7797 28.5491 23.1675 28.5491 23.1675C28.5491 23.1675 28.0933 24.6407 27.7773 25.3773Z" fill="black"/>
</svg>
