<svg width="150" height="150" viewBox="0 0 150 150" fill="none" xmlns="http://www.w3.org/2000/svg">
<circle cx="75" cy="75" r="75" fill="black"/>
<path d="M111.662 104.872L83.7723 37.1994C83.2933 35.7087 82.3593 34.4055 81.1015 33.4729C79.8437 32.5403 78.3253 32.0252 76.7598 32H74.3067C72.7457 32.0307 71.2333 32.5484 69.9808 33.4806C68.7283 34.4128 67.7984 35.7129 67.3208 37.1994L55.1889 66.6894H45.9899C44.6673 66.7033 43.4031 67.2368 42.4703 68.1746C41.5375 69.1124 41.0108 70.3794 41.0039 71.7021V71.7554C41.0108 73.0782 41.5375 74.3451 42.4703 75.283C43.4031 76.2208 44.6673 76.7542 45.9899 76.7682H50.9227L39.3507 104.872C39.1303 105.488 39.0131 106.137 39.0041 106.791C38.9498 108.174 39.4378 109.523 40.3639 110.551C40.8429 111.042 41.4216 111.424 42.0609 111.673C42.7003 111.921 43.3854 112.03 44.0702 111.991C45.1062 111.976 46.1122 111.641 46.9498 111.031C47.8217 110.378 48.503 109.503 48.9229 108.498L61.6948 76.7682H70.5205C71.8478 76.7612 73.1187 76.2308 74.0573 75.2923C74.9958 74.3537 75.5262 73.0827 75.5332 71.7554V71.6221C75.5262 70.2948 74.9958 69.0239 74.0573 68.0853C73.1187 67.1467 71.8478 66.6164 70.5205 66.6094H65.801L75.5332 42.2922L102.064 108.498C102.483 109.503 103.165 110.378 104.037 111.031C104.874 111.641 105.88 111.976 106.916 111.991C107.605 112.033 108.296 111.927 108.94 111.678C109.584 111.43 110.167 111.045 110.649 110.551C111.566 109.519 112.044 108.17 111.982 106.791C112.016 106.136 111.907 105.481 111.662 104.872Z" fill="white"/>
</svg>
