<svg width="64" height="64" viewBox="0 0 64 64" fill="none" xmlns="http://www.w3.org/2000/svg">
<circle cx="32" cy="32" r="32" transform="rotate(180 32 32)" fill="white"/>
<path fill-rule="evenodd" clip-rule="evenodd" d="M32 64C49.6731 64 64 49.6731 64 32C64 14.3269 49.6731 0 32 0C14.3269 0 0 14.3269 0 32C0 49.6731 14.3269 64 32 64ZM27.406 23.9681L29.7219 19.9191C30.9961 17.6921 32.092 15.9301 32.1589 16.0021C32.2261 16.0741 33.251 17.8331 34.437 19.9121L36.594 23.6911V33.3621L36 33.2541C35.6731 33.1941 34.96 33.0851 34.416 33.0111C33.842 32.9331 32.9221 32.9391 32.2261 33.0251C31.5659 33.1071 30.5691 33.3461 30.01 33.5561C29.4509 33.7661 28.6841 34.1201 28.3049 34.3421C27.926 34.5641 27.5691 34.7461 27.511 34.7461C27.4529 34.7461 27.406 32.3211 27.406 29.3571V23.9681ZM16 43.7801C16 43.6951 17.7561 40.5941 19.9021 36.8891C22.0481 33.1841 23.8301 30.1521 23.8621 30.1521C23.894 30.1521 23.9199 33.2531 23.9199 37.0431V43.9341H19.96C17.499 43.9341 16 43.8761 16 43.7801ZM40.0791 43.9341V37.0111C40.0779 33.1151 40.1379 30.1541 40.2151 30.2391C40.29 30.3221 42.072 33.3651 44.175 37.0001C46.2781 40.6351 47.999 43.6831 47.999 43.7721C47.999 43.8781 46.6331 43.9341 44.0391 43.9341H40.0791ZM29.939 37.2031C30.2971 36.9551 30.9609 36.6201 31.4141 36.4581V36.4561C32.0381 36.2331 32.564 36.1751 33.584 36.2181C34.604 36.2611 35.123 36.3671 35.7229 36.6581L36.5149 37.0421L36.5581 40.5671L36.6011 44.0921H32.2471C27.897 44.0921 27.8921 44.0921 27.689 43.7361C27.5659 43.5211 27.4861 42.8451 27.488 42.0331C27.491 40.8631 27.5549 40.5521 27.978 39.6571C28.2451 39.0911 28.6499 38.4091 28.876 38.1411C29.1021 37.8731 29.5811 37.4511 29.939 37.2031Z" fill="black"/>
</svg>
