<svg width="64" height="64" viewBox="0 0 64 64" fill="none" xmlns="http://www.w3.org/2000/svg">
<rect width="64" height="64" rx="32" fill="black"/>
<path d="M31.3376 7.14765C32.5145 6.53394 33.9512 7.95765 33.3258 9.13351C32.9627 10.092 31.5857 10.3469 30.8823 9.61627C30.1371 8.91508 30.3801 7.52916 31.3376 7.14765ZM18.6786 8.51224C19.3935 8.21794 20.2986 8.87296 20.2257 9.65218C20.3015 10.4981 19.2672 11.1207 18.5384 10.7187C17.5729 10.3447 17.6833 8.77738 18.6786 8.51224ZM44.6057 10.7424C43.4884 10.6074 43.3116 8.85082 44.3872 8.49712C45.2215 8.09022 45.987 8.85325 46.109 9.64408C45.9341 10.3194 45.3687 10.9377 44.6057 10.7424ZM21.5589 13.9001C22.7542 13.1441 24.4598 14.27 24.276 15.6583C24.2139 17.0602 22.3519 17.8724 21.3014 16.9246C20.2856 16.1803 20.4395 14.4725 21.5589 13.9001ZM39.8059 14.7023C40.3391 13.328 42.4999 13.2864 43.1069 14.6242C43.7068 15.6654 42.9689 16.9546 41.9 17.3086C40.4841 17.5729 39.1392 16.0423 39.8059 14.7023ZM29.8131 17.2306C29.8015 16.0493 30.8775 15.1691 32.0001 15.0886C32.7448 15.238 33.5564 15.5552 33.8758 16.3066C34.4712 17.3432 33.9425 18.7704 32.8668 19.2461C32.3749 19.5218 31.7933 19.4184 31.2576 19.3862C30.4387 18.9842 29.7491 18.1958 29.8131 17.2306ZM10.9873 18.9518C12.0792 18.2806 13.5523 19.5056 13.139 20.6917C12.9113 21.7177 11.5322 22.1351 10.7438 21.4801C9.90219 20.8664 10.0356 19.3908 10.9873 18.9518ZM51.4132 18.9497C52.3396 18.2304 53.8683 19.0555 53.7579 20.2251C53.82 21.2916 52.4983 22.096 51.5787 21.5468C50.5659 21.0916 50.4625 19.5334 51.4132 18.9497ZM35.1073 21.0732C36.6361 20.524 38.4518 21.1812 39.3231 22.5442C40.4725 24.2104 39.8609 26.7478 38.0773 27.7039C36.2292 28.8347 33.5305 27.8762 32.8479 25.8123C32.073 23.9646 33.2019 21.6524 35.1073 21.0732ZM26.1379 21.2549C27.8321 20.4552 30.1123 21.1261 30.9307 22.8593C31.8938 24.5462 31.1491 26.8952 29.4273 27.7663C27.7033 28.7453 25.2712 28.003 24.4369 26.1919C23.5013 24.4404 24.3321 22.0614 26.1379 21.2549ZM17.1568 24.3254C17.2856 23.2338 18.3154 22.5234 19.3544 22.4499C20.4738 22.5849 21.368 23.4543 21.4898 24.5873C21.4164 25.7089 20.5497 26.8051 19.3611 26.7983C18.0535 26.9109 16.9071 25.61 17.1568 24.3254ZM43.6839 22.6873C45.0263 21.9059 46.8904 23.0434 46.8307 24.5857C46.9228 26.2197 44.8597 27.3712 43.523 26.4127C42.1343 25.6146 42.2426 23.3669 43.6839 22.6873ZM22.4877 28.4464C24.0578 28.0144 25.853 28.7545 26.6231 30.1976C27.4666 31.6502 27.1218 33.6682 25.8117 34.7336C24.1315 36.2964 21.0327 35.6689 20.1385 33.5362C19.1108 31.5811 20.3591 28.961 22.4877 28.4464ZM39.5002 28.4383C41.0265 28.0017 42.8196 28.59 43.6401 29.9805C44.725 31.5708 44.2071 33.9428 42.592 34.968C40.9002 36.1584 38.2795 35.5334 37.3486 33.672C36.22 31.7466 37.3556 29.0255 39.5002 28.4383ZM12.3894 30.2527C13.7456 29.7397 15.249 31.2363 14.6996 32.5809C14.364 33.8059 12.6376 34.2587 11.7458 33.3555C10.7022 32.5075 11.0886 30.6204 12.3894 30.2527ZM49.1501 32.204C49.1109 31.0802 49.9331 30.085 51.0854 30.0229C52.0142 30.1701 52.9174 30.9193 52.8439 31.9305C52.929 33.2659 51.3198 34.1736 50.182 33.5462C49.6487 33.2751 49.3752 32.7281 49.1501 32.204ZM5.72095 30.9123C6.5369 30.5562 7.54616 31.2633 7.35986 32.1694C7.31612 33.1954 5.80141 33.5899 5.24494 32.7327C4.75327 32.1373 5.04757 31.2193 5.72095 30.9123ZM57.1677 30.8918C57.7423 30.4827 58.6641 30.7768 58.8917 31.448C59.2778 32.181 58.5698 33.1854 57.7447 33.0615C56.5864 33.1671 56.2117 31.4018 57.1677 30.8918ZM26.9195 35.8169C29.0666 35.2585 31.3745 37.0489 31.388 39.2597C31.5282 41.4936 29.255 43.4746 27.0572 42.9587C25.3584 42.6852 24.0254 41.0487 24.0805 39.332C24.0759 37.6901 25.3149 36.1641 26.9195 35.8169ZM35.4224 35.8123C37.6016 35.2032 39.9784 37.0257 39.9438 39.2875C40.0589 41.4801 37.8567 43.3944 35.7048 42.9595C33.6798 42.6976 32.1856 40.4728 32.751 38.5077C33.0364 37.1982 34.1304 36.1333 35.4224 35.8123ZM19.0282 37.1731C20.5362 36.9158 21.9499 38.5981 21.3383 40.03C20.8923 41.5557 18.6718 41.9696 17.6901 40.7233C16.5385 39.5264 17.3982 37.3383 19.0282 37.1731ZM43.9641 37.2403C45.3088 36.6771 46.9593 37.8403 46.8559 39.2996C46.9099 40.9061 44.8722 42.0139 43.5573 41.0762C42.0679 40.2344 42.339 37.7568 43.9641 37.2403ZM50.9339 44.2312C50.4074 43.2497 51.3638 41.9489 52.4535 42.1306C52.9959 42.1214 53.3753 42.5488 53.7225 42.9074C53.7938 43.4889 53.9134 44.1828 53.4306 44.631C52.7751 45.4608 51.2901 45.224 50.9339 44.2312ZM10.9827 42.4038C12.0012 41.7258 13.4667 42.737 13.2378 43.9277C13.116 44.9807 11.7895 45.5825 10.9158 44.985C9.97806 44.4426 10.0126 42.8982 10.9827 42.4038ZM31.1032 44.6081C32.4365 44.0198 34.135 45.1805 34.0087 46.649C34.1075 48.2717 32.0066 49.3955 30.7031 48.421C29.255 47.5843 29.4964 45.1227 31.1032 44.6081ZM21.7841 46.7821C22.9197 46.1846 24.4436 47.2166 24.3402 48.4875C24.3748 49.531 23.3563 50.4204 22.3265 50.2662C21.4736 50.2479 20.9174 49.4832 20.6439 48.7561C20.6579 47.9637 20.9841 47.081 21.7841 46.7821ZM40.661 46.8005C41.8287 46.0788 43.4884 47.1153 43.378 48.4745C43.4079 49.895 41.5322 50.8049 40.445 49.8718C39.3922 49.1403 39.5207 47.3821 40.661 46.8005ZM43.9436 54.9159C43.4241 54.1299 44.0357 53.183 44.8792 53.0038C45.5574 53.1417 46.2745 53.6518 46.132 54.438C46.0332 55.5021 44.4769 55.8285 43.9436 54.9159ZM17.8856 54.2334C18.0924 53.6105 18.5935 52.9913 19.3268 53.1534C20.3958 53.2292 20.713 54.8403 19.7775 55.3368C18.9361 55.9041 17.9601 55.1273 17.8856 54.2334ZM30.4571 54.948C30.6617 54.0265 31.8546 53.5783 32.6408 54.0678C33.1603 54.2909 33.3121 54.8722 33.4455 55.3663C33.3742 55.6236 33.3104 55.8812 33.2478 56.1385C32.926 56.52 32.5123 56.9015 31.9766 56.8877C30.9812 57.0044 30.0831 55.879 30.4571 54.948Z" fill="white"/>
</svg>
