<svg width="64" height="65" viewBox="0 0 64 65" fill="none" xmlns="http://www.w3.org/2000/svg">
<circle cx="32" cy="32" r="32" transform="rotate(180 32 32)" fill="white"/>
<path fill-rule="evenodd" clip-rule="evenodd" d="M32 64.0013C49.6731 64.0013 64 49.6745 64 32.0013C64 14.3282 49.6731 0.00134277 32 0.00134277C14.3269 0.00134277 0 14.3282 0 32.0013C0 49.6745 14.3269 64.0013 32 64.0013ZM25.325 29.943C20.0413 24.3618 21.1784 16.2566 27.8568 11.8964C30.3692 10.2554 30.9144 10.9783 28.8191 13.1712C23.4734 18.7685 24.3544 25.253 31.0108 29.3103C36.6676 32.7578 38.7726 34.4243 40.1892 36.5755C42.5351 40.136 42.608 45.106 40.3709 48.9385C39.1222 51.0762 35.0514 54.4484 34.3782 53.9018C33.9417 53.5478 33.9679 53.498 35.3377 52.1128C41.4351 45.9433 40.4411 39.6555 32.6394 35.026C28.3069 32.4549 26.5406 31.2272 25.325 29.943ZM35.1367 12.9181C34.4208 12.1306 33.8977 11.3916 33.972 11.2731H33.9734C34.7141 10.1006 39.2585 13.7245 40.6724 16.616C42.5433 20.4445 42.0161 25.7389 39.4816 28.5618C37.7153 30.5285 35.9682 28.7691 37.2431 26.3097C39.6536 21.6601 38.935 17.0979 35.1367 12.9181ZM26.6067 52.2905C21.6961 48.5953 20.753 38.9231 25.018 36.002C26.8931 34.7191 27.9573 36.6401 26.71 39.0564C24.4866 43.3641 25.1736 47.8226 28.6704 51.7735C31.081 54.4968 29.9246 54.7876 26.6067 52.2905Z" fill="black"/>
</svg>
