<svg width="64" height="64" viewBox="0 0 64 64" fill="none" xmlns="http://www.w3.org/2000/svg">
<path d="M32 64C49.6731 64 64 49.6731 64 32C64 14.3269 49.6731 0 32 0C14.3269 0 0 14.3269 0 32C0 49.6731 14.3269 64 32 64Z" fill="black"/>
<path fill-rule="evenodd" clip-rule="evenodd" d="M30.7613 16.8774C30.5032 17.0839 30.1935 17.4452 29.9871 18.1161C29.7806 18.7871 28.6452 22.0903 27.2 26.2194H36.8516C35.4064 22.0903 34.271 18.7871 34.0645 18.1161C33.8581 17.4452 33.5484 17.0839 33.2903 16.8774C33.0322 16.671 32.671 16.5161 32 16.5161C31.329 16.5161 31.0193 16.671 30.7613 16.8774ZM16.5161 26.2194H23.071C24.671 21.5226 26.0645 17.6 26.271 16.8774C26.6839 15.6387 27.3548 14.5548 28.3871 13.7806C29.4193 13.0065 30.6581 12.6452 31.9484 12.6452C33.2387 12.6452 34.4774 12.9548 35.5097 13.7806C36.5419 14.5548 37.2129 15.6387 37.6258 16.8774C37.8839 17.6 39.2258 21.471 40.8258 26.2194H47.4839C48.5677 26.2194 49.4452 27.0968 49.4452 28.1806C49.4452 29.2645 48.5677 30.1419 47.4839 30.1419H42.271H38.1935H25.8581H21.7806H16.5161C15.4323 30.1419 14.6064 29.2645 14.6064 28.1806C14.6064 27.0968 15.4839 26.2194 16.5161 26.2194ZM16.5161 33.9613C15.4323 33.9613 14.6064 34.8387 14.6064 35.9226C14.6064 37.0064 15.4839 37.8839 16.5161 37.8839H19.0968L18.0645 40.8774L17.0323 43.871L16.6193 45.0064C16.2581 46.0387 16.8258 47.1226 17.8064 47.4839C18.8387 47.8452 19.9226 47.2774 20.2839 46.2968L20.6968 45.1613L21.729 42.1677C22.1419 40.929 22.6581 39.4839 23.2258 37.8839H40.8774C41.3935 39.4323 41.9097 40.929 42.3742 42.1677L43.4064 45.1613L43.8193 46.2968C44.1806 47.329 45.2645 47.8452 46.2968 47.4839C47.329 47.1226 47.8452 46.0387 47.4839 45.0064L47.071 43.871L46.0387 40.8774L45.0064 37.8839H47.5871C48.671 37.8839 49.5484 37.0064 49.5484 35.9226C49.5484 34.8387 48.671 33.9613 47.5871 33.9613H43.6645H39.5871H24.6193H20.5419H16.5161ZM45.5742 45.5742L47.3806 44.9548C47.3806 44.9548 47.3806 44.9548 45.5742 45.5742ZM45.5742 45.5742C43.7677 46.1936 43.7677 46.1935 43.7677 46.1935L45.5742 45.5742ZM18.4774 45.5742L20.2839 46.1935C20.2839 46.1935 20.2839 46.1936 18.4774 45.5742ZM18.4774 45.5742C16.671 44.9548 16.671 44.9548 16.671 44.9548L18.4774 45.5742Z" fill="white"/>
</svg>
