<svg width="64" height="65" viewBox="0 0 64 65" fill="none" xmlns="http://www.w3.org/2000/svg">
<circle cx="32" cy="32" r="32" transform="rotate(180 32 32)" fill="white"/>
<path fill-rule="evenodd" clip-rule="evenodd" d="M32 64.0013C49.6731 64.0013 64 49.6744 64 32.0013C64 14.3282 49.6731 0.00134277 32 0.00134277C14.3269 0.00134277 0 14.3282 0 32.0013C0 49.6744 14.3269 64.0013 32 64.0013ZM47.8721 19.0989L34.6111 12.0845C32.9729 11.2141 31.0527 11.2141 29.4143 12.0845L16.0256 19.1501C14.0032 20.3533 12.1089 21.787 12.032 25.9597V29.3134H17.2288V24.7054L32 16.8206L46.6687 24.7054V29.3134H51.8655V25.9597C51.7888 21.7614 49.8689 20.3533 47.8464 19.1245L47.8721 19.0989ZM46.6687 39.7725L34.6367 46.5165V41.0638C38.8608 40.0653 41.6511 36.6093 41.6511 32.0013C41.6511 26.4205 37.7856 22.6573 32.0256 22.6573C26.2656 22.6573 22.3999 26.4205 22.3999 32.0013C22.3999 36.6093 25.1904 40.0653 29.4143 41.0638V46.5165L17.2544 39.7581V34.7405H12.032V38.0941C12.1089 42.2669 14.0032 43.7005 16.0256 44.9037L29.4143 51.9693C31.0527 52.8141 32.9983 52.8141 34.6111 51.9693L47.8464 44.955C49.8689 43.7517 51.7888 42.3181 51.8655 38.1198V34.7661H46.6687V39.7725ZM32.0513 27.2397C28.9536 27.2397 27.2639 28.9294 27.2639 32.0013C27.2639 34.9966 29.0559 36.7629 32.0513 36.7629C35.0464 36.7629 36.8384 34.9709 36.8384 32.0013C36.8384 28.9294 35.1487 27.2397 32.0513 27.2397Z" fill="black"/>
</svg>
