<svg width="64" height="65" viewBox="0 0 64 65" fill="none" xmlns="http://www.w3.org/2000/svg">
<circle cx="32" cy="32" r="32" transform="rotate(180 32 32)" fill="white"/>
<path fill-rule="evenodd" clip-rule="evenodd" d="M32 64.0013C49.6731 64.0013 64 49.6745 64 32.0013C64 14.3282 49.6731 0.00134277 32 0.00134277C14.3269 0.00134277 0 14.3282 0 32.0013C0 49.6745 14.3269 64.0013 32 64.0013ZM40.6626 29.564L49.3831 44.6951C49.459 44.8279 49.4988 44.9783 49.4983 45.1313C49.4978 45.2842 49.4573 45.4344 49.3804 45.5667C49.3037 45.699 49.1934 45.8088 49.0608 45.8851C48.9285 45.9614 48.7781 46.0015 48.625 46.0013L39.8855 45.9957L31.1638 45.9901L24.1689 45.9852C24.0156 45.9852 23.8652 45.9448 23.7324 45.868C23.5999 45.7914 23.4897 45.6811 23.4131 45.5484C23.3367 45.4157 23.2964 45.2651 23.2964 45.1118C23.2966 44.9586 23.3372 44.8081 23.4138 44.6754L26.792 38.8341C26.8689 38.7016 26.9792 38.5917 27.1121 38.5152C27.2449 38.4387 27.3953 38.3985 27.5486 38.3985L35.4856 38.4034C35.6201 38.4038 35.7529 38.373 35.8738 38.3135C35.9944 38.2541 36.0999 38.1675 36.1816 38.0606C36.2634 37.9538 36.3193 37.8294 36.345 37.6973C36.3708 37.5652 36.3657 37.429 36.3301 37.2992C36.3098 37.2278 36.281 37.159 36.2444 37.0944L35.5708 35.9282L31.9324 29.6168C31.8608 29.4931 31.7605 29.3888 31.6396 29.3131C31.5186 29.2373 31.3809 29.1922 31.2385 29.1819C31.0962 29.1717 30.9534 29.1964 30.823 29.2541C30.6924 29.3118 30.5779 29.4005 30.4895 29.5126C30.4639 29.5453 30.4404 29.5796 30.4192 29.6154L29.8828 30.543L26.3767 36.6081C26.2998 36.7406 26.1895 36.8506 26.0566 36.927C25.9238 37.0035 25.7734 37.0437 25.6201 37.0437L18.873 37.0395C18.7197 37.0394 18.5691 36.999 18.4363 36.9223C18.3037 36.8456 18.1934 36.7353 18.1169 36.6025C18.0403 36.4697 18 36.319 18 36.1658C18 36.0124 18.0405 35.8618 18.1172 35.7291L21.689 29.5528L30.4297 14.4378C30.5063 14.3051 30.6165 14.1949 30.749 14.1183C30.8818 14.0417 31.0322 14.0013 31.1855 14.0013C31.3389 14.0013 31.4893 14.0417 31.6221 14.1183C31.7546 14.1949 31.8647 14.3051 31.9414 14.4378L36.5723 22.4707L40.6626 29.564Z" fill="black"/>
</svg>
