<svg width="64" height="64" viewBox="0 0 64 64" fill="none" xmlns="http://www.w3.org/2000/svg">
<g clip-path="url(#clip0_20471_178712)">
<path fill-rule="evenodd" clip-rule="evenodd" d="M28.0769 0.258582C4.46623 3.30167 -7.66381 29.6078 5.26362 49.7329C19.5281 71.9392 54.0434 67.3285 62.3217 42.1109C69.5588 20.0663 50.9403 -2.68804 28.0769 0.258582ZM32.8379 12.4755C34.4241 13.8122 38.4901 21.5986 38.4865 23.2922C38.4831 25.0389 29.6676 41.2814 27.5109 43.5155C25.3041 45.8013 13.6548 45.6138 13.6548 43.2922C13.6548 42.5345 30.4444 12.8831 31.1954 12.3152C31.887 11.7922 32.0453 11.8076 32.8379 12.4755ZM44.0324 31.8653C44.2135 32.0858 45.7454 34.6431 47.4367 37.5487C51.8784 45.1795 52.0297 44.9254 43.0357 44.9254C36.262 44.9254 35.4483 44.7552 35.4483 43.3373C35.4483 42.906 39.9551 34.8965 41.7233 32.1859C42.2377 31.3967 43.5023 31.2214 44.0324 31.8653Z" fill="black"/>
</g>
<defs>
<clipPath id="clip0_20471_178712">
<rect width="64" height="64" fill="white"/>
</clipPath>
</defs>
</svg>
