<svg width="150" height="150" viewBox="0 0 150 150" fill="none" xmlns="http://www.w3.org/2000/svg">
<circle cx="75" cy="75" r="75" fill="black"/>
<path d="M51.4683 63.3577V71.5177L58.3511 66.4961L51.4683 63.3577Z" fill="white"/>
<path fill-rule="evenodd" clip-rule="evenodd" d="M74.8678 23.0007C67.1729 22.7995 22.4257 64.7131 23.0056 74.8663C23.5855 85.0194 66.7619 127.2 75.1351 126.999C83.5084 126.798 126.607 86.5317 126.997 75.1336C127.387 63.7355 82.5627 23.202 74.8678 23.0007ZM72.4302 71.2038C71.8045 73.7145 70.8659 74.0284 69.3016 73.7147C67.7373 73.4009 64.2959 70.2623 64.2959 70.2623L54.9103 79.3639V87.5239C54.9103 92.2944 56.3702 90.9762 57.1002 89.7208L94.0171 52.6869C102.026 44.6525 103.611 55.6162 103.403 62.1023V83.1301C103.403 96.9393 96.7286 95.5793 93.3915 93.1731L87.4473 87.5239C87.4473 87.5239 79.9387 80.6193 79.9387 79.3639C79.9387 78.1084 81.5029 77.4808 81.5029 77.4808C83.0673 77.4808 84.8192 78.6106 90.5758 84.3854C96.3324 90.1602 97.3543 86.7916 97.1458 84.3854V69.6346C97.1458 60.3447 93.3915 61.9977 91.5144 63.9854C80.9816 75.9116 58.6645 99.7639 53.6588 99.7639C48.6531 99.7639 47.1931 95.37 47.0888 93.1731V62.1023C47.0888 56.3276 50.426 56.5577 52.0945 57.3946C52.0945 57.3946 73.0559 68.6931 72.4302 71.2038Z" fill="white"/>
</svg>
