<svg width="65" height="64" viewBox="0 0 65 64" fill="none" xmlns="http://www.w3.org/2000/svg">
<path fill-rule="evenodd" clip-rule="evenodd" d="M25.2481 63.0421C42.3931 67.3171 59.7561 56.8841 64.0301 39.7411C68.3041 22.5971 57.8721 5.23111 40.7281 0.957108C23.5881 -3.31689 6.22509 7.11711 1.95309 24.2621C-2.32291 41.4041 8.11009 58.7681 25.2481 63.0421ZM32.943 16.8857C37.5456 15.9916 41.4977 16.353 43.0751 20.359C44.2343 23.2889 43.4923 25.4597 41.7702 27.0649C45.3181 26.9101 47.9639 28.2867 48.8215 32.8261C49.8878 38.4631 46.2175 41.1099 40.4661 43.1222L42.1193 48.8915L38.6411 49.8893L37.0105 44.1969C36.1094 44.4562 35.184 44.7134 34.2244 44.9672L35.8642 50.6854L32.3895 51.6811L30.7309 45.9022C30.4051 45.9934 30.0764 46.0838 29.7455 46.1749C29.2484 46.3117 28.746 46.4499 28.2402 46.5943L23.7138 47.8924L23.2138 43.5403C23.2138 43.5403 25.7982 42.8427 25.7424 42.816C26.7262 42.532 26.7842 41.7503 26.7188 41.2892L24.1047 32.1695C24.1897 32.1443 24.2734 32.1204 24.3541 32.0974C24.3942 32.086 24.4336 32.0747 24.472 32.0636C24.3228 32.0851 24.1948 32.1175 24.0974 32.1448L22.2305 25.6352C21.8947 24.9676 21.2017 24.2812 19.7927 24.6847C19.8218 24.6252 17.2673 25.4107 17.2673 25.4107L16.2012 21.6961L20.999 20.3221L21.0045 20.3397C21.7255 20.1324 22.461 19.9064 23.2096 19.6751L21.5728 13.9621L25.0492 12.9654L26.6546 18.566C27.5779 18.2812 28.5074 17.9951 29.4218 17.7328L27.8262 12.1692L31.3043 11.1715L32.943 16.8857ZM33.7817 40.5494C36.641 39.7723 42.8903 38.0738 41.7523 34.1119C40.5907 30.0599 34.6506 31.916 31.7521 32.8218C31.4282 32.923 31.1422 33.0123 30.9052 33.0802L33.1 40.7377C33.2946 40.6818 33.5244 40.6193 33.7817 40.5494ZM30.4742 29.4179C32.8615 28.7756 38.0687 27.3747 37.0368 23.7724C35.98 20.0886 31.0342 21.6496 28.6188 22.412C28.3471 22.4978 28.1074 22.5735 27.9089 22.6304L29.9001 29.5752C30.0636 29.5283 30.2573 29.4762 30.4742 29.4179Z" fill="black"/>
</svg>
