<svg width="64" height="64" viewBox="0 0 64 64" fill="none" xmlns="http://www.w3.org/2000/svg">
<circle cx="32" cy="32" r="32" transform="rotate(180 32 32)" fill="white"/>
<path fill-rule="evenodd" clip-rule="evenodd" d="M32 64C49.6731 64 64 49.6731 64 32C64 14.3269 49.6731 0 32 0C14.3269 0 0 14.3269 0 32C0 49.6731 14.3269 64 32 64ZM42.8555 24.8744C42.8555 26.7028 42.4525 28.1721 41.8748 29.3434H41.8755C44.8539 31.0847 46.8531 34.3845 46.8531 37.9907C46.8531 42.7375 43.1708 48 36.871 48H20V19.3755C20 17.5113 21.5091 16 23.3706 16L33.0146 16.045C35.8133 16.045 38.2411 16.8871 40.0355 18.4806C41.8541 20.0954 42.8555 22.366 42.8555 24.8744ZM40.3907 24.8744C40.3907 21.2311 37.5414 18.5134 33.0139 18.5134H33.0132H24.1445V18.6213C25.6422 19.1005 26.6101 20.5554 26.6101 22.176V24.6444C26.6101 29.1155 29.4907 32.0004 32.9883 32.0004C36.7112 32.0004 40.3907 29.7641 40.3907 24.8744Z" fill="black"/>
</svg>
