<svg width="65" height="64" viewBox="0 0 65 64" fill="none" xmlns="http://www.w3.org/2000/svg">
<g clip-path="url(#clip0)">
<path fill-rule="evenodd" clip-rule="evenodd" d="M32.9922 64C50.6652 64 64.9918 49.673 64.9918 31.9998C64.9918 14.3268 50.665 0 32.9922 0C15.319 0 0.992188 14.3268 0.992188 31.9998C0.992188 49.673 15.319 64 32.9922 64ZM10.0977 32.3758C10.0647 32.3988 10.0319 32.4216 10.001 32.4481V32.5214C10.0329 32.5488 10.0689 32.5742 10.1045 32.5993C10.1505 32.6318 10.1959 32.6639 10.2313 32.6993C11.0533 33.5213 11.8752 34.3406 12.6971 35.1599C13.519 35.9792 14.341 36.7985 15.1629 37.6205C15.2257 37.6728 15.2885 37.7252 15.3409 37.7775C15.5503 37.6205 20.5552 32.6051 20.6285 32.4795C20.5342 32.3329 15.477 27.2757 15.32 27.1919C15.2571 27.2442 15.2048 27.2966 15.142 27.3594C13.5086 29.0033 11.8752 30.6367 10.2313 32.2701C10.189 32.3124 10.1431 32.3443 10.0978 32.3758L10.0977 32.3758ZM56.9817 32.5214C56.945 32.558 56.911 32.5973 56.877 32.6366C56.8429 32.6758 56.8089 32.7151 56.7723 32.7517L51.9035 37.6205C51.8773 37.6467 51.8485 37.6728 51.8198 37.699C51.791 37.7252 51.7622 37.7514 51.736 37.7776C51.5894 37.7043 46.5426 32.6785 46.417 32.4795C46.4589 32.4272 46.5008 32.3748 46.5531 32.3225L46.554 32.3216C48.208 30.6675 49.8725 29.003 51.537 27.349L51.5789 27.3071C51.715 27.1815 51.736 27.1815 51.8721 27.3071L51.9663 27.4014C52.5009 27.9359 53.0354 28.4693 53.5696 29.0023C54.6362 30.0666 55.7013 31.1294 56.7618 32.1968C56.7972 32.2322 56.8326 32.2701 56.8692 32.3092C56.9084 32.3511 56.9489 32.3944 56.9921 32.4376C56.9817 32.469 56.9817 32.5005 56.9817 32.5214ZM33.6747 9.1303L33.6746 9.13021L33.6746 9.13016C33.6406 9.09094 33.6066 9.05173 33.57 9.01514H33.4967C33.4665 9.04534 33.4363 9.07797 33.405 9.11185L33.4049 9.11196C33.371 9.14852 33.3358 9.18653 33.2978 9.22455C31.7414 10.781 30.185 12.3362 28.6285 13.8915C25.5151 17.0025 22.4017 20.1136 19.2883 23.234C19.257 23.2654 19.2282 23.2968 19.1994 23.3282L19.1994 23.3282C19.1706 23.3597 19.1418 23.3911 19.1104 23.4225C19.2151 23.6005 24.2723 28.6472 24.4293 28.731C24.4543 28.706 24.4817 28.681 24.5103 28.6549C24.5416 28.6263 24.5745 28.5963 24.6073 28.5635L29.2562 23.9146L33.3397 19.8311C33.4025 19.7788 33.4653 19.7264 33.5386 19.6636C33.5765 19.7015 33.6145 19.7366 33.651 19.7704L33.6513 19.7707L33.6513 19.7708L33.6514 19.7708C33.6852 19.8022 33.7178 19.8323 33.748 19.8625C34.8894 20.9987 36.0282 22.1374 37.1669 23.2762C38.3055 24.4148 39.4441 25.5533 40.5852 26.6893L42.4804 28.5844C42.5099 28.6139 42.5427 28.6401 42.5714 28.6629C42.5936 28.6806 42.6133 28.6963 42.627 28.71L47.9355 23.4015C47.8936 23.3492 47.8308 23.2864 47.768 23.2235C45.44 20.8956 43.1094 18.5676 40.7788 16.2396L40.7737 16.2345C38.4414 13.9048 36.1091 11.5752 33.7794 9.24549C33.7428 9.20884 33.7088 9.16957 33.6747 9.1303ZM26.3452 48.7241L26.34 48.7188L26.3347 48.7136C23.9309 46.3124 21.5271 43.9111 19.1206 41.5047C19.1939 41.3686 24.1464 36.4265 24.4082 36.2485C24.4605 36.2904 24.5234 36.3428 24.5757 36.3951C24.7925 36.6049 25.0046 36.8194 25.2152 37.0323C25.3199 37.1382 25.4242 37.2436 25.5285 37.3479C26.8262 38.6404 28.1213 39.9354 29.4163 41.2305L29.4178 41.2319C30.7137 42.5278 32.0096 43.8237 33.3081 45.117C33.3383 45.1472 33.3709 45.1774 33.4048 45.2088C33.4414 45.2426 33.4794 45.2779 33.5175 45.3159C33.5555 45.2779 33.5936 45.2455 33.6302 45.2143C33.6641 45.1855 33.6967 45.1577 33.7269 45.1275C34.6624 44.1919 35.598 43.2589 36.5336 42.326L36.5377 42.3219C37.475 41.3872 38.4122 40.4526 39.3495 39.5153L42.4488 36.4161C42.4816 36.3832 42.5144 36.3532 42.5458 36.3246C42.5744 36.2985 42.6018 36.2735 42.6268 36.2485C42.7733 36.3323 47.7782 41.3058 47.9353 41.5256V41.5466V41.5675C47.9196 41.5832 47.9065 41.6015 47.8934 41.6199C47.8803 41.6382 47.8672 41.6565 47.8515 41.6722C45.4747 44.0438 43.0979 46.4179 40.7211 48.7921C38.3443 51.1663 35.9676 53.5405 33.5908 55.912C33.5862 55.9166 33.5796 55.9192 33.5736 55.9215C33.566 55.9245 33.5594 55.9271 33.5594 55.933C31.1529 53.5265 28.7491 51.1253 26.3452 48.7241ZM29.9477 30.7118C29.351 31.3074 28.7539 31.9034 28.1567 32.5005C28.251 32.6576 33.392 37.7776 33.5176 37.8509C33.7165 37.7148 38.7947 32.6157 38.868 32.49C38.7738 32.3225 33.6328 27.192 33.5176 27.1396C32.3313 28.333 31.1403 29.5216 29.9477 30.7118Z" fill="black"/>
</g>
<defs>
<clipPath id="clip0">
<rect x="0.992188" width="63.9996" height="64" fill="white"/>
</clipPath>
</defs>
</svg>
