<svg width="64" height="64" viewBox="0 0 64 64" fill="none" xmlns="http://www.w3.org/2000/svg">
<circle cx="32" cy="32" r="32" transform="rotate(180 32 32)" fill="white"/>
<path fill-rule="evenodd" clip-rule="evenodd" d="M32 64C49.6731 64 64 49.6731 64 32C64 14.3269 49.6731 0 32 0C14.3269 0 0 14.3269 0 32C0 49.6731 14.3269 64 32 64ZM34.3774 12.2653C35.7168 12.5923 50.0874 26.374 49.7161 26.9755C49.6223 27.127 48.6279 27.1753 47.304 27.0926C44.5239 26.9192 43.5356 26.2527 42.2358 23.6741C41.1851 21.5895 41.0139 21.5137 40.4634 22.8898C39.9233 24.2398 39.9072 26.0861 40.4253 27.3258L40.8206 28.2718L39.4529 29.7177C37.1074 32.1976 34.5051 31.6482 32.4324 28.2355C30.9954 25.8706 30.0671 26.6189 30.1685 30.0604C30.1973 31.0339 30.2073 31.9221 30.1912 32.0341C30.1467 32.3387 27.2495 30.8083 26.0342 29.8387C24.6687 28.7492 23.2817 26.7928 23.0681 25.6551C22.835 24.4119 22.4924 24.5415 22.2808 25.9535C21.9324 28.2766 23.0171 32.264 24.7751 35.1207C25.4236 36.1748 25.5676 36.7464 25.6938 38.7676C25.8416 41.1355 25.8555 41.175 26.8455 42.0306C27.7756 42.835 27.8245 42.9478 27.5247 43.6053C27.3472 43.9949 27.2979 44.4037 27.4148 44.5132C27.7251 44.8039 34.0947 45.5713 37.4385 45.7209L40.3147 45.8495L41.7061 44.9416C43.9543 43.4746 45.7786 43.388 44.0654 44.8295C43.6436 45.1843 43.1587 45.7353 42.9883 46.054C42.8179 46.3724 42.5312 46.6331 42.3516 46.6331C42.1716 46.6331 41.7258 47.007 41.3606 47.4642C40.9954 47.9213 40.5405 48.4313 40.3494 48.5977C40.1582 48.7641 39.7383 49.1744 39.4158 49.5094C38.323 50.6452 37.9351 51.0332 37.582 51.3444C37.3882 51.5151 36.8286 52.0792 36.3386 52.5977C35.0142 53.999 33.0623 54.3908 31.4038 53.5882C29.4836 52.6587 12.7544 36.0714 12.3391 34.6853C11.4343 31.6644 11.675 31.3204 21.6812 21.3478C31.498 11.5639 31.4993 11.5631 34.3774 12.2653ZM38.3782 35.0928C38.4797 35.7799 37.522 36.4979 36.5032 36.4979C35.5037 36.4979 35.571 36.1264 36.696 35.431C37.2095 35.1136 37.6294 34.7338 37.6294 34.5868C37.6294 34.0864 38.2959 34.537 38.3782 35.0928Z" fill="black"/>
</svg>
