<svg width="64" height="64" viewBox="0 0 64 64" fill="none" xmlns="http://www.w3.org/2000/svg">
<g clip-path="url(#clip0)">
<path fill-rule="evenodd" clip-rule="evenodd" d="M24.2574 63.0421C41.4024 67.3171 58.7654 56.8841 63.0394 39.7411C67.3134 22.5971 56.8814 5.23111 39.7374 0.957107C22.5974 -3.31689 5.23437 7.11711 0.962367 24.2621C-3.31363 41.4041 7.11937 58.7681 24.2574 63.0421ZM39.0702 19.3669C43.5032 20.8939 46.7452 23.1829 46.1082 27.4409C45.6472 30.5579 43.9192 32.0669 41.6252 32.5959C44.7752 34.2359 46.3782 36.7509 44.8512 41.1109C42.9562 46.5259 38.4542 46.9829 32.4672 45.8499L31.0142 51.6729L27.5032 50.7979L28.9372 45.0529C28.0272 44.8269 27.0972 44.5869 26.1392 44.3269L24.7002 50.0989L21.1932 49.2239L22.6462 43.3899C22.3184 43.306 21.9886 43.2199 21.6564 43.1333C21.1576 43.0032 20.6535 42.8718 20.1432 42.7439L15.5742 41.6049L17.3172 37.5859C17.3172 37.5859 19.9042 38.2739 19.8692 38.2229C20.8632 38.4689 21.3042 37.8209 21.4782 37.3889L23.7742 28.1839C23.8604 28.2046 23.9448 28.2258 24.0262 28.2462C24.0667 28.2563 24.1064 28.2663 24.1452 28.2759C24.0052 28.2199 23.8782 28.1839 23.7802 28.1589L25.4182 21.5879C25.4612 20.8419 25.2042 19.9009 23.7822 19.5459C23.8372 19.5089 21.2322 18.9119 21.2322 18.9119L22.1662 15.1619L27.0082 16.3709L27.0042 16.3889C27.7322 16.5699 28.4822 16.7419 29.2462 16.9159L30.6852 11.1499L34.1942 12.0249L32.7842 17.6779C33.7262 17.8929 34.6742 18.1099 35.5972 18.3399L36.9972 12.7239L40.5082 13.5989L39.0702 19.3669ZM27.9647 40.2796C30.8295 41.0363 37.0908 42.69 38.0862 38.6899C39.1062 34.5999 33.0339 33.2374 30.0708 32.5725C29.7397 32.4982 29.4474 32.4326 29.2082 32.3729L27.2802 40.1019C27.4767 40.1507 27.7069 40.2115 27.9647 40.2796ZM30.6662 28.9857C33.0547 29.6231 38.2647 31.0135 39.1722 27.3779C40.099 23.6592 35.0352 22.5382 32.5622 21.9908C32.284 21.9292 32.0386 21.8749 31.8382 21.8249L30.0902 28.8349C30.2553 28.8761 30.4491 28.9278 30.6662 28.9857Z" fill="black"/>
</g>
<defs>
<clipPath id="clip0">
<rect width="64" height="64" fill="white"/>
</clipPath>
</defs>
</svg>
