<svg width="64" height="64" viewBox="0 0 64 64" fill="none" xmlns="http://www.w3.org/2000/svg">
<path fill-rule="evenodd" clip-rule="evenodd" d="M32 64C49.6731 64 64 49.6731 64 32C64 14.3269 49.6731 0 32 0C14.3269 0 0 14.3269 0 32C0 49.6731 14.3269 64 32 64ZM43.6352 14.6093C44.9302 16.9921 44.6323 20.9504 42.7719 25.8066C48.0986 28.2844 51.1332 32.6399 51.1159 37.8544C51.1159 46.4488 43.6352 52 32.058 52C20.4807 52 13 46.4488 13 37.8544C13 32.6874 16.0087 28.3534 21.2836 25.8671C19.4275 20.9979 19.1253 17.0223 20.4203 14.6222C20.783 13.9549 21.2952 13.3805 21.9167 12.9439C22.5382 12.5073 23.2523 12.2204 24.0031 12.1056C24.7404 11.9475 25.5047 11.9672 26.2328 12.1631C26.9609 12.359 27.6319 12.7255 28.1903 13.2323C30.8623 15.6021 31.2119 20.5964 31.3975 23.6656H32.6925C32.7875 20.5964 33.2191 15.6021 35.8782 13.2279C36.436 12.7233 37.1057 12.3583 37.8322 12.1632C38.5587 11.9681 39.3211 11.9483 40.0567 12.1056C40.8062 12.2178 41.5194 12.5022 42.1403 12.9367C42.7613 13.3711 43.273 13.9436 43.6352 14.6093ZM23.3815 26.7218L22.6477 27.0326C18.1239 28.9448 14.9857 32.2384 14.7439 36.322C14.377 42.2271 22.4275 46.8632 32.0752 46.8632C41.7229 46.8632 49.7993 42.1581 49.4152 36.2054C49.1389 32.1564 45.9834 28.8714 41.4467 26.9764L40.7085 26.6656L40.9934 25.9448C42.8927 21.2785 43.3417 17.4367 42.2323 15.3992C41.9835 14.9432 41.6306 14.5523 41.2023 14.2582C40.7741 13.9642 40.2825 13.7754 39.7675 13.7071C39.2745 13.5987 38.7627 13.6095 38.2747 13.7387C37.7867 13.8678 37.3366 14.1115 36.9617 14.4496C33.9659 16.9791 34.2076 25.3577 34.2076 25.3577L33.4997 25.3145C32.5262 25.2649 31.5508 25.2649 30.5774 25.3145L29.8522 25.3663C29.8522 25.3663 30.1371 16.9705 27.1154 14.4323C26.5455 13.9142 25.8049 13.6239 25.0348 13.6164C24.7899 13.6182 24.5456 13.6428 24.3053 13.6898C23.7879 13.7594 23.2942 13.9496 22.8638 14.245C22.4334 14.5405 22.0785 14.9328 21.8275 15.3906C20.7138 17.4453 21.1671 21.3044 23.0794 25.9836L23.3815 26.7218ZM38.7276 38.7652C39.8529 38.7652 40.7651 37.4027 40.7651 35.7219C40.7651 34.0412 39.8529 32.6787 38.7276 32.6787C37.6024 32.6787 36.6902 34.0412 36.6902 35.7219C36.6902 37.4027 37.6024 38.7652 38.7276 38.7652ZM27.435 35.7219C27.435 37.4027 26.5228 38.7652 25.3976 38.7652C24.2723 38.7652 23.3601 37.4027 23.3601 35.7219C23.3601 34.0412 24.2723 32.6787 25.3976 32.6787C26.5228 32.6787 27.435 34.0412 27.435 35.7219Z" fill="black"/>
</svg>
