<svg width="64" height="64" viewBox="0 0 64 64" fill="none" xmlns="http://www.w3.org/2000/svg">
<path fill-rule="evenodd" clip-rule="evenodd" d="M32 64C49.6731 64 64 49.6731 64 32C64 14.3269 49.6731 0 32 0C14.3269 0 0 14.3269 0 32C0 49.6731 14.3269 64 32 64ZM50 20.39V26.78H47.048C44.294 26.78 44.078 26.762 43.97 26.438C43.916 26.258 43.538 25.592 43.142 24.98C41.414 22.298 39.002 20.426 35.96 19.4C34.286 18.842 31.1 18.698 29.192 19.13C24.548 20.156 20.93 23.468 19.364 28.13C19.004 29.228 18.95 29.732 18.95 32C18.968 34.34 19.004 34.754 19.454 36.05C20.138 38.12 21.092 39.632 22.73 41.27C24.368 42.908 25.88 43.862 27.95 44.546C29.246 44.996 29.66 45.032 32 45.05C34.268 45.05 34.772 44.996 35.852 44.636C39.146 43.538 41.738 41.45 43.412 38.588L44.114 37.4H47.048H50V43.7V50H32H14V32V14H32H50V20.39Z" fill="black"/>
</svg>
