<svg width="64" height="64" viewBox="0 0 64 64" fill="none" xmlns="http://www.w3.org/2000/svg">
<circle cx="32" cy="32" r="32" transform="rotate(180 32 32)" fill="white"/>
<path fill-rule="evenodd" clip-rule="evenodd" d="M32 64C49.6731 64 64 49.6731 64 32C64 14.3269 49.6731 0 32 0C14.3269 0 0 14.3269 0 32C0 49.6731 14.3269 64 32 64ZM33.123 48C38.8501 48 42.3291 46.092 46.3611 42.144L42.4141 38.027C39.5291 40.913 36.9819 42.44 33.208 42.44C27.1831 42.44 22.686 38.24 22.686 31.957C22.686 25.973 27.3569 21.56 33.0791 21.56C36.644 21.56 39.655 23.087 42.4141 26.016L46.4939 22.111C43.167 18.237 38.3181 16.006 33.2129 16C24.468 16 17 22.323 17 31.957C17 41.338 23.5859 48 33.123 48Z" fill="black"/>
</svg>
