<svg width="64" height="64" viewBox="0 0 64 64" fill="none" xmlns="http://www.w3.org/2000/svg">
<g clip-path="url(#clip0)">
<path d="M37.9733 33.4932C37.9733 33.0665 37.9733 32.8532 37.5466 32.6399C36.0533 31.5732 34.3466 30.5065 32.8533 29.4399C32.6954 29.3344 32.5098 29.2781 32.32 29.2781C32.1301 29.2781 31.9445 29.3344 31.7866 29.4399L27.0933 32.8532C26.8974 32.9531 26.7335 33.1061 26.6203 33.2947C26.5072 33.4833 26.4493 33.6999 26.4533 33.9199C26.4433 34.3798 26.2946 34.8259 26.0266 35.1999C25.9212 35.3577 25.8649 35.5433 25.8649 35.7332C25.8649 35.9231 25.9212 36.1087 26.0266 36.2665C27.7333 39.6799 29.2266 43.0932 30.9333 46.5065C31.5733 47.5732 32 48.8532 32.64 50.1332C32.8533 49.9199 32.8533 49.7065 33.0666 49.4932C34.9866 45.2265 36.6933 40.9599 38.6133 36.6932C38.8266 36.2665 38.8266 36.0532 38.4 35.8399C38.1601 35.5044 37.9975 35.12 37.9237 34.7143C37.85 34.3086 37.8669 33.8916 37.9733 33.4932V33.4932Z" fill="black"/>
<path d="M30.72 27.9466C26.4533 24.96 22.1866 21.9733 18.1333 19.2L17.92 19.4133C18.1333 19.84 18.1333 20.0533 18.3467 20.48L22.8266 30.08C23.2533 30.9333 23.4667 31.7866 24.7467 31.9999C25.1153 32.0332 25.4858 31.9591 25.8133 31.7866C27.0933 30.7199 28.5866 29.8666 29.8666 28.7999L30.72 27.9466Z" fill="black"/>
<path d="M32 0C25.671 0 19.4841 1.87677 14.2218 5.39297C8.95939 8.90918 4.85787 13.9069 2.43587 19.7541C0.0138652 25.6014 -0.619842 32.0355 0.614885 38.2429C1.84961 44.4503 4.89732 50.1521 9.3726 54.6274C13.8479 59.1027 19.5497 62.1504 25.7571 63.3851C31.9645 64.6198 38.3986 63.9861 44.2459 61.5641C50.0931 59.1421 55.0908 55.0406 58.607 49.7782C62.1232 44.5159 64 38.329 64 32C64 23.5131 60.6286 15.3737 54.6274 9.37258C48.6263 3.37142 40.4869 0 32 0V0ZM49.28 18.56C48.8533 18.56 48.64 18.7733 48.4267 19.2C46.72 23.4667 44.8 27.7333 43.0933 32V32.8533C43.2638 33.214 43.3544 33.6071 43.359 34.006C43.3636 34.4048 43.2821 34.8 43.1201 35.1645C42.9581 35.529 42.7194 35.8543 42.4203 36.1181C42.1211 36.3819 41.7686 36.5781 41.3867 36.6933C41.1733 36.6933 40.96 36.9067 40.7467 37.3333C38.8267 41.6 36.9067 46.08 35.2 50.3467C35.0945 50.5045 35.0382 50.6901 35.0382 50.88C35.0382 51.0699 35.0945 51.2555 35.2 51.4133C35.5986 51.9605 35.7761 52.6379 35.697 53.3102C35.618 53.9826 35.2881 54.6003 34.7733 55.04C34.3261 55.4818 33.7341 55.7468 33.1066 55.786C32.4792 55.8252 31.8588 55.636 31.36 55.2533C31.0936 55.0714 30.8657 54.8388 30.6893 54.5687C30.513 54.2986 30.3916 53.9964 30.3321 53.6794C30.2727 53.3623 30.2764 53.0367 30.3429 52.7211C30.4095 52.4054 30.5376 52.106 30.72 51.84C30.8246 51.6429 30.8793 51.4231 30.8793 51.2C30.8793 50.9768 30.8246 50.7571 30.72 50.56C28.5867 46.2933 26.6667 42.0267 24.5333 37.76C24.4362 37.5432 24.2888 37.3526 24.1033 37.2042C23.9178 37.0558 23.6995 36.9538 23.4667 36.9067C23.032 36.8343 22.6212 36.6579 22.2695 36.3924C21.9178 36.1269 21.6356 35.7802 21.447 35.382C21.2583 34.9837 21.1688 34.5457 21.1862 34.1054C21.2036 33.6651 21.3273 33.2355 21.5467 32.8533C21.6522 32.6955 21.7085 32.5099 21.7085 32.32C21.7085 32.1301 21.6522 31.9445 21.5467 31.7867C19.6267 27.52 17.7067 23.4667 15.5733 19.2C15.5733 18.9867 15.36 18.7733 14.72 18.7733C14.0926 18.6851 13.5154 18.3815 13.0873 17.9144C12.6592 17.4474 12.4068 16.846 12.3733 16.2133C12.4128 15.6207 12.6122 15.0498 12.9503 14.5614C13.2883 14.0731 13.7525 13.6855 14.2933 13.44C14.8675 13.2176 15.5013 13.2024 16.0854 13.3971C16.6695 13.5919 17.1675 13.9842 17.4933 14.5067C17.7067 14.9333 17.92 14.9333 18.56 14.9333H45.6533C46.08 14.9333 46.5067 14.9333 46.72 14.2933C47.0111 13.7908 47.4709 13.4078 48.0178 13.2125C48.5647 13.0172 49.1631 13.0222 49.7067 13.2267C50.2366 13.4273 50.6985 13.7745 51.0385 14.2278C51.3784 14.6811 51.5824 15.2218 51.6267 15.7867C51.6346 16.4539 51.4017 17.1017 50.9707 17.6111C50.5396 18.1205 49.9394 18.4574 49.28 18.56V18.56Z" fill="black"/>
<path d="M32 26.4533C32.1579 26.5588 32.3435 26.6151 32.5333 26.6151C32.7232 26.6151 32.9088 26.5588 33.0667 26.4533C37.12 23.4666 41.1733 20.6933 45.0133 17.7067C45.2267 17.4933 45.44 17.4933 45.44 17.28V17.0667H18.56C18.8041 17.1562 19.0234 17.3024 19.2 17.4933L32 26.4533Z" fill="black"/>
<path d="M34.1333 27.9466C35.84 29.2266 37.5466 30.2933 39.2533 31.3599C39.68 31.5733 40.32 31.3599 40.96 31.3599C41.1733 31.3599 41.3866 30.9333 41.3866 30.7199C42.88 27.3066 44.3733 23.6799 45.8666 20.2666C45.8666 20.0533 46.08 19.8399 46.08 19.6266H45.8666C42.24 22.1866 38.1866 24.9599 34.1333 27.9466Z" fill="black"/>
</g>
<defs>
<clipPath id="clip0">
<rect width="64" height="64" fill="white"/>
</clipPath>
</defs>
</svg>
