<svg width="64" height="64" viewBox="0 0 64 64" fill="none" xmlns="http://www.w3.org/2000/svg">
<g clip-path="url(#clip0_626_92241)">
<path d="M32 64C49.673 64 64 49.673 64 32C64 14.327 49.673 0 32 0C14.327 0 0 14.327 0 32C0 49.673 14.327 64 32 64Z" fill="black"/>
<path d="M23.3403 12.0042C22.1882 12.074 21.4592 12.2019 20.6094 12.4843C19.2036 12.9493 18.0179 13.7333 16.822 14.9873C15.7337 16.13 14.899 17.3126 14.1801 18.7328C12.9507 21.1644 12.257 23.9332 12.0471 27.2667C11.9816 28.2899 11.985 29.8761 12.0538 31.0205C12.2705 34.5815 13.3319 39.2488 14.8838 43.4693C15.4515 45.0156 16.0981 46.3942 16.7767 47.512C18.0044 49.5334 19.3951 50.897 20.8882 51.5465C22.0907 52.068 23.342 52.1394 24.6588 51.7624C25.4952 51.5232 26.1687 51.1063 26.8774 50.3938C27.8835 49.3789 28.7635 47.889 29.4958 45.9607C31.0813 41.79 31.3752 37.3736 30.386 32.5734C30.0484 30.9407 29.7729 29.984 28.7585 26.9428C28.2882 25.531 27.5392 23.2157 27.262 22.3171C26.8993 21.1428 26.6356 20.0997 26.5415 19.4686C26.4827 19.0732 26.4911 18.5916 26.5617 18.3308C26.6272 18.0916 26.7767 17.8076 26.8858 17.7179C26.9816 17.6382 27.1411 17.6731 27.1949 17.7843C27.2301 17.8591 27.2268 17.9023 27.173 18.0152C27.0924 18.1863 27.0773 18.2627 27.0773 18.5135C27.079 18.9022 27.1932 19.3257 27.514 20.1412C27.6769 20.5532 27.7693 20.7591 28.5637 22.4832C30.2751 26.1954 31.1468 28.2301 31.7817 29.9907C31.8438 30.1634 31.8992 30.3129 31.906 30.3195C31.9379 30.3561 34.5294 30.1485 35.8193 30.0056C39.7729 29.5721 43.1152 28.7948 44.264 28.039C44.4622 27.9095 44.6352 27.7384 44.6973 27.6122C44.7376 27.5325 44.746 27.4959 44.746 27.3913C44.746 27.285 44.7376 27.2501 44.6906 27.1554C44.4622 26.692 43.6745 26.0144 42.519 25.2902C41.9362 24.9248 40.5002 24.2056 39.4706 23.7654C38.6275 23.4033 36.9009 22.7572 35.8025 22.3902C34.9258 22.0962 34.3211 21.9218 33.3756 21.6876C32.7306 21.5281 32.346 21.4584 31.7901 21.3969C31.5432 21.3703 31.5113 21.3637 31.4827 21.3305C31.4441 21.2806 31.4441 21.2375 31.4861 21.1959C31.5281 21.1544 31.5415 21.1544 31.8405 21.1959C32.7407 21.3155 33.7182 21.5148 34.5563 21.7457C35.3843 21.9749 36.8404 22.4234 37.7004 22.714C39.6688 23.3784 40.7739 23.8119 42.2687 24.5045C43.609 25.1257 44.5311 25.7137 45.1407 26.3382C45.5824 26.7917 45.8041 27.2152 45.8243 27.6487C45.8377 27.956 45.7588 28.2184 45.5589 28.5124C44.877 29.5206 42.9389 30.3976 39.7074 31.1616C37.5324 31.6749 35.1794 32.0669 32.9053 32.2927C32.7021 32.3127 32.5341 32.3309 32.5324 32.3309C32.5308 32.3326 32.5559 32.4306 32.5879 32.5485C33.0682 34.3473 33.3504 36.4817 33.3504 38.3286C33.3504 39.9763 33.1169 41.5691 32.6836 42.8763C32.6601 42.9477 32.645 43.0092 32.6483 43.0125C32.6517 43.0158 32.7676 42.9859 32.9053 42.9444C33.6762 42.7152 34.8888 42.3863 36.3231 42.0176C37.7877 41.6422 38.3352 41.501 38.9264 41.3516C44.9677 39.8168 46.9697 39.2554 48.0094 38.8086C49.3816 38.2173 50.3473 37.342 50.9351 36.1528C51.2794 35.4568 51.5011 34.7078 51.748 33.4122C51.9479 32.3575 52.0016 31.831 52 30.8793C51.9983 30.2149 51.9815 29.9159 51.9076 29.3429C51.6221 27.1222 50.7084 24.9945 49.2875 23.2389C47.7356 21.3205 45.1172 19.3789 41.4877 17.4538C40.9671 17.1781 39.5109 16.4589 38.96 16.2064C36.167 14.9209 33.2278 13.818 30.6463 13.0839C29.7729 12.8364 29.1851 12.6952 28.2614 12.5108C27.0101 12.2617 25.9772 12.1105 24.9863 12.0358C24.6722 12.0109 23.5704 11.991 23.3403 12.0042ZM21.3484 29.8296C22.0135 30.1501 22.6097 30.5388 23.206 31.0437C25.1038 32.6482 26.5398 35.211 27.1344 38.0562C27.734 40.9247 27.4334 43.7815 26.2946 46.0288C25.737 47.1317 25.0215 48.0302 24.338 48.487C23.4831 49.0567 22.4199 49.1381 21.4979 48.6996C21.2308 48.5734 21.162 48.4936 21.2073 48.3608C21.2325 48.2844 21.303 48.2362 21.3887 48.2362C21.4391 48.2362 21.4895 48.2561 21.5852 48.3109C22.7071 48.9687 23.9114 48.5418 24.6672 47.2197C24.7998 46.9888 24.8989 46.7579 25.0299 46.3676C25.3843 45.3146 25.5959 44.3031 25.7017 43.1537C25.737 42.7551 25.7521 41.7186 25.7269 41.2818C25.5623 38.4034 24.5445 35.515 22.6467 32.5319C22.2318 31.8825 21.8035 31.2696 21.293 30.6002C20.7807 29.9259 20.8009 29.9558 20.7925 29.8777C20.7857 29.8229 20.7925 29.798 20.821 29.7615C20.9134 29.6452 20.9839 29.6552 21.3484 29.8296Z" fill="white"/>
</g>
<defs>
<clipPath id="clip0_626_92241">
<rect width="64" height="64" fill="white"/>
</clipPath>
</defs>
</svg>
