<svg width="64" height="65" viewBox="0 0 64 65" fill="none" xmlns="http://www.w3.org/2000/svg">
<circle cx="32" cy="32" r="32" transform="rotate(180 32 32)" fill="white"/>
<path fill-rule="evenodd" clip-rule="evenodd" d="M32 64.0013C49.6731 64.0013 64 49.6745 64 32.0013C64 14.3282 49.6731 0.00134277 32 0.00134277C14.3269 0.00134277 0 14.3282 0 32.0013C0 49.6745 14.3269 64.0013 32 64.0013ZM27.7646 13.1778C28.7449 13.1778 28.9412 13.0799 28.9412 12.5896C28.9412 12.034 29.1375 12.0013 32.4705 12.0013C35.804 12.0013 36 12.034 36 12.5896C36 12.9816 36.196 13.1778 36.5881 13.1778C37.1111 13.1778 37.1765 13.374 37.1765 14.9425V16.7072H40.7058H44.2354V18.4719V20.2366H46.5881H48.9412V24.3543V28.4719H43.647H38.353V26.7073V24.9425H36.5881C35.0198 24.9425 34.8235 24.8773 34.8235 24.3543C34.8235 23.9622 34.6274 23.7661 34.2354 23.7661C33.7124 23.7661 33.647 23.5699 33.647 22.0013V20.2366H31.2942H28.9412V22.5896V24.9425H27.1765H25.4119V32.5896V40.2366H27.1765H28.9412V42.0013V43.7661H31.8823H34.8235V42.0013V40.2366H36H37.1765V38.4719V36.7073H39.5295C41.6863 36.7073 41.8823 36.6581 41.8823 36.119C41.8823 35.5699 42.0786 35.5308 44.8235 35.5308C47.5686 35.5308 47.7646 35.5699 47.7646 36.119C47.7646 36.511 47.9609 36.7073 48.353 36.7073C48.9084 36.7073 48.9412 36.9034 48.9412 40.2366V43.7661H47.1765C45.6079 43.7661 45.4119 43.8313 45.4119 44.3543C45.4119 44.7463 45.2156 44.9425 44.8235 44.9425C44.3005 44.9425 44.2354 45.1387 44.2354 46.7073V48.4719H40.7058H37.1765V50.2366V52.0013H31.8823H26.5881V50.2366V48.4719H23.647H20.7058V46.7073V44.9425H19.5293C18.5491 44.9425 18.353 44.8445 18.353 44.3543C18.353 43.9622 18.1567 43.7661 17.7646 43.7661C17.1963 43.7661 17.1765 43.5699 17.1765 37.8837C17.1765 32.1975 17.1567 32.0013 16.5881 32.0013C16.0217 32.0013 16 31.8052 16 26.7073C16 21.6093 16.0217 21.4131 16.5881 21.4131C16.9802 21.4131 17.1765 21.2169 17.1765 20.8249C17.1765 20.4328 17.3726 20.2366 17.7646 20.2366C18.2876 20.2366 18.353 20.0405 18.353 18.4719V16.7072H22.4707H26.5881V14.9425V13.1778H27.7646Z" fill="black"/>
</svg>
