<svg width="64" height="64" viewBox="0 0 64 64" fill="none" xmlns="http://www.w3.org/2000/svg">
<path d="M32 0C49.6747 0 64 14.3281 64 32C64 49.6747 49.6747 64 32 64C14.3281 64 0 49.6733 0 32C0 14.3281 14.3281 0 32 0Z" fill="black"/>
<path d="M33.1766 34.2596H45.3361C45.5953 34.2596 45.7177 34.2596 45.7364 33.9198C45.8358 32.6828 45.8358 31.4387 45.7364 30.2002C45.7364 29.9598 45.6169 29.8604 45.3562 29.8604H21.1568C20.8573 29.8604 20.7766 29.9598 20.7766 30.2406V33.8003C20.7766 34.2596 20.7766 34.2596 21.2561 34.2596H33.1766ZM44.3785 25.7002C44.413 25.6095 44.413 25.5101 44.3785 25.4208C44.1754 24.9788 43.9349 24.5568 43.6556 24.1608C43.2351 23.484 42.7397 22.8605 42.1752 22.3003C41.9088 21.9619 41.6007 21.6581 41.2551 21.4003C39.5242 19.9272 37.4664 18.8846 35.2545 18.3604C34.1385 18.1099 32.998 17.9904 31.8547 18.0004H21.115C20.8155 18.0004 20.7752 18.12 20.7752 18.3806V25.4799C20.7752 25.7794 20.7752 25.86 21.1553 25.86H44.2345C44.2345 25.86 44.4346 25.8197 44.4749 25.7002H44.377H44.3785ZM44.3785 38.4198C44.0386 38.3824 43.6959 38.3824 43.356 38.4198H21.1769C20.8774 38.4198 20.7766 38.4198 20.7766 38.8202V45.761C20.7766 46.0807 20.7766 46.1614 21.1769 46.1614H31.4169C31.9065 46.1988 32.3961 46.1642 32.8756 46.062C34.3617 45.9554 35.8233 45.6329 37.2173 45.1015C37.7241 44.9258 38.2138 44.6969 38.676 44.4218H38.8157C41.2162 43.1733 43.166 41.212 44.3957 38.8043C44.3957 38.8043 44.5354 38.5019 44.3785 38.4227V38.4198ZM16.7575 49.76V49.6404V44.9805V43.4009V38.7006C16.7575 38.44 16.7575 38.4011 16.4379 38.4011H12.0977C11.8572 38.4011 11.7578 38.4011 11.7578 38.0814V34.2812H16.3975C16.6567 34.2812 16.7575 34.2812 16.7575 33.9414V30.1815C16.7575 29.941 16.7575 29.882 16.4379 29.882H12.0977C11.8572 29.882 11.7578 29.882 11.7578 29.5623V26.0429C11.7578 25.8226 11.7578 25.7636 12.0775 25.7636H16.3774C16.6769 25.7636 16.7575 25.7636 16.7575 25.3834V14.6034C16.7575 14.2838 16.7575 14.2031 17.1579 14.2031H32.1571C33.2457 14.2463 34.3272 14.3658 35.3971 14.5631C37.6017 14.9707 39.72 15.7583 41.6568 16.883C42.9413 17.639 44.1236 18.552 45.1762 19.6032C45.9682 20.4254 46.6825 21.3154 47.3161 22.2629C47.9454 23.2234 48.4681 24.2501 48.8785 25.3229C48.9289 25.6023 49.1967 25.7909 49.4761 25.7434H53.056C53.5153 25.7434 53.5153 25.7434 53.5355 26.184V29.4644C53.5355 29.7841 53.416 29.8647 53.0949 29.8647H50.3344C50.055 29.8647 49.9744 29.8647 49.9945 30.2247C50.104 31.443 50.104 32.6656 49.9945 33.8838C49.9945 34.2236 49.9945 34.264 50.3761 34.264H53.5341C53.6737 34.444 53.5341 34.624 53.5341 34.8054C53.5542 35.0373 53.5542 35.272 53.5341 35.5038V37.9245C53.5341 38.2643 53.4347 38.3651 53.1337 38.3651H49.3537C49.0902 38.3147 48.8339 38.4832 48.7734 38.7453C47.8734 41.0853 46.4334 43.1834 44.5729 44.8654C43.8932 45.4774 43.1789 46.0534 42.433 46.5847C41.6323 47.0455 40.8533 47.5251 40.0325 47.9052C38.5219 48.5849 36.9379 49.086 35.3121 49.4043C33.7684 49.6808 32.2031 49.806 30.6321 49.7844H16.7518V49.7643L16.7575 49.76Z" fill="#FEFEFD"/>
</svg>
