<svg width="150" height="150" viewBox="0 0 150 150" fill="none" xmlns="http://www.w3.org/2000/svg">
<circle cx="75" cy="75" r="75" fill="black"/>
<path d="M74.9301 24C64.882 24.0376 55.2562 28.0459 48.151 35.151C41.0459 42.2562 37.0376 51.882 37 61.9301C36.9995 66.1195 37.6745 70.2816 38.9988 74.2562C39.4743 75.557 40.4293 76.6267 41.6681 77.2461C42.9069 77.8654 44.3356 77.9876 45.6616 77.5876C46.9485 77.0985 48.0001 76.1366 48.6016 74.8982C49.203 73.6599 49.309 72.2386 48.8978 70.9248C47.7712 67.8339 47.2697 64.5501 47.4224 61.2638C47.5798 55.9589 49.2765 50.8142 52.3057 46.4563C55.3349 42.0985 59.566 38.7155 64.4836 36.7195C69.4012 34.7235 74.7932 34.2005 80.0027 35.2144C85.2122 36.2282 90.0145 38.735 93.8247 42.4296C97.6349 46.1241 100.289 50.8469 101.462 56.0227C102.636 61.1985 102.28 66.604 100.436 71.5808C98.5926 76.5576 95.3417 80.8909 91.0792 84.053C86.8168 87.215 81.7268 89.0694 76.4292 89.3901C76.4292 89.3901 71.1228 89.7233 68.4577 90.0564C67.4804 90.1943 66.5113 90.385 65.5547 90.6275C65.4859 90.6791 65.4009 90.7041 65.3152 90.698C65.2295 90.6919 65.1489 90.6551 65.0881 90.5944C65.0273 90.5336 64.9905 90.453 64.9845 90.3673C64.9784 90.2816 65.0034 90.1965 65.0549 90.1278L65.8878 85.6305L70.8849 63.0009C71.172 61.6535 70.9121 60.2472 70.1624 59.0914C69.4127 57.9356 68.2346 57.125 66.8872 56.8378C65.5398 56.5507 64.1335 56.8106 62.9777 57.5603C61.8219 58.31 61.0113 59.4881 60.7242 60.8355C60.7242 60.8355 48.8264 116.089 48.8264 116.588C48.6625 117.255 48.6365 117.948 48.7498 118.625C48.8632 119.302 49.1135 119.949 49.4855 120.526C49.8576 121.103 50.3434 121.598 50.9134 121.981C51.4833 122.363 52.1254 122.626 52.8002 122.751C53.4684 122.912 54.1622 122.934 54.8393 122.818C55.5165 122.701 56.1629 122.449 56.7393 122.075C57.3158 121.701 57.8102 121.214 58.1925 120.643C58.5748 120.072 58.837 119.429 58.9633 118.754C59.1299 118.088 60.629 110.759 60.629 110.759C61.1812 108.061 62.547 105.597 64.5425 103.7C66.5379 101.802 69.067 100.562 71.7891 100.146C72.9313 99.9792 77.7618 99.646 77.7618 99.646C87.4149 98.7538 96.3594 94.1971 102.756 86.9128C109.153 79.6284 112.516 70.1702 112.153 60.4826C111.79 50.7951 107.73 41.6147 100.806 34.829C93.883 28.0433 84.6229 24.168 74.9301 24Z" fill="white"/>
<path d="M82.1229 111.353C81.3024 111.187 80.4572 111.184 79.6357 111.346C78.8143 111.507 78.0329 111.829 77.3363 112.294C76.6398 112.758 76.0419 113.355 75.577 114.052C75.1121 114.748 74.7893 115.529 74.6273 116.35C74.451 117.171 74.4411 118.02 74.5983 118.845C74.7555 119.67 75.0765 120.455 75.5424 121.154C76.0082 121.853 76.6095 122.451 77.3106 122.913C78.0118 123.376 78.7985 123.693 79.6243 123.846C80.4447 124.033 81.2946 124.05 82.1219 123.897C82.9492 123.744 83.7367 123.424 84.436 122.956C85.1354 122.488 85.732 121.883 86.1894 121.177C86.6467 120.47 86.9553 119.678 87.0961 118.849C87.3766 117.201 87.0183 115.509 86.0942 114.116C85.1702 112.723 83.75 111.735 82.1229 111.353Z" fill="white"/>
</svg>
