<svg width="64" height="65" viewBox="0 0 64 65" fill="none" xmlns="http://www.w3.org/2000/svg">
<circle cx="32" cy="32" r="32" transform="rotate(180 32 32)" fill="white"/>
<path fill-rule="evenodd" clip-rule="evenodd" d="M32 64.0013C49.6731 64.0013 64 49.6745 64 32.0013C64 14.3282 49.6731 0.00134277 32 0.00134277C14.3269 0.00134277 0 14.3282 0 32.0013C0 49.6745 14.3269 64.0013 32 64.0013ZM22.577 23.4803C20.014 19.8463 17.798 16.6763 17.652 16.4373L17.653 16.4363C17.447 16.0993 18.199 16.0013 20.99 16.0013H24.592L27.532 20.2433C29.149 22.5763 30.614 24.7713 30.789 25.1203C31.035 25.6113 30.728 26.3093 29.435 28.2023C28.515 29.5483 27.645 30.5233 27.5 30.3693C27.355 30.2153 25.14 27.1143 22.577 23.4803ZM25.591 35.6543C29.628 29.9153 34.383 23.1463 36.158 20.6113H36.159L39.386 16.0023H42.842C44.743 16.0023 46.298 16.0893 46.298 16.1953C46.298 16.3013 44.844 18.4543 43.067 20.9783C41.29 23.5023 36.264 30.6153 31.898 36.7853L23.96 48.0023H17L17.625 47.0453C17.969 46.5193 21.554 41.3933 25.591 35.6543ZM32.801 37.6883L34.397 35.3673C35.275 34.0913 36.081 33.0503 36.189 33.0563C36.296 33.0633 36.637 33.4143 36.943 33.8393C37.249 34.2643 39.558 37.5283 42.073 41.0943C44.588 44.6593 46.645 47.6783 46.645 47.8023C46.645 47.9263 45.13 47.9833 43.277 47.9283L39.908 47.8293L38.31 45.5683C37.431 44.3253 35.831 42.0433 34.756 40.4983L32.801 37.6883Z" fill="black"/>
</svg>
