<svg width="64" height="64" viewBox="0 0 64 64" fill="none" xmlns="http://www.w3.org/2000/svg">
<rect width="64" height="64" rx="32" fill="black"/>
<path d="M26.1383 54.9976C26.0279 54.9858 23.42 54.6992 22.0642 53.9244C21.8334 53.7925 16.3856 50.6489 14.2083 46.7298C12.3727 43.4255 9.2637 37.4567 9.06723 34.6058C8.88845 32.0143 9.02904 26.4653 9.94525 24.633C10.0091 24.5055 10.0879 24.3309 10.1877 24.1097C10.7853 22.7857 12.029 20.0308 14.4982 17.5977C17.5588 14.582 21.4842 13.0492 26.1653 13.042C26.1962 13.0417 29.5725 13 33.3709 13C35.6024 13 37.5412 13.0141 39.1333 13.0422C44.1888 13.1309 48.2274 13.5584 50.1495 13.8976L50.4808 13.9554C51.8282 14.1888 52.3324 14.2762 52.4413 15.2573C52.5348 16.0976 53.285 22.1948 53.2927 22.2563L53.3128 22.4207L48.6554 25.2484H53.6599L54.1533 34.6189L48.7145 38.59H53.6252L51.9461 48.5659L42.611 53.859L26.1608 55L26.1383 54.9976Z" fill="white"/>
<path d="M9.60449 34.6094C9.60449 34.6094 9.86081 37.9417 11.2279 41.0176C12.595 44.0936 15.9334 48.9581 17.1234 50.2455C18.8946 52.1612 22.3359 54.4063 24.472 54.6626C26.608 54.9189 32.446 54.512 33.7677 54.4936C34.6264 54.4815 41.5953 53.778 42.5352 53.6072C43.4751 53.4364 51.4892 48.8479 51.7136 48.4031C51.8971 48.0392 51.999 46.7078 51.999 46.7078L45.4703 48.2106L25.8026 49.14C25.1588 49.1659 24.2005 49.06 23.4434 48.9944C22.4904 48.9117 21.5792 48.7322 20.4724 48.3827C19.286 48.0081 17.8017 47.2409 16.5897 46.3215C14.8846 45.028 12.8402 42.9969 11.6554 40.0778C10.9029 38.2244 9.60449 34.6094 9.60449 34.6094Z" fill="white"/>
<path d="M19.069 25.5992L21.4346 22.382C21.4346 22.382 21.34 21.5304 25.7871 21.4358C30.2342 21.3412 51.9973 22.0981 51.9973 22.0981L47.5501 25.5992H19.069Z" fill="black"/>
<path d="M52.7543 34.5883L47.1716 38.8462L22.4754 39.6032C22.4754 39.6032 20.2991 37.8054 19.9205 37.0958C19.5421 36.3862 19.0689 35.4399 19.0689 35.4399C19.0689 35.4399 44.8061 35.2506 47.2662 35.156C49.7265 35.0613 52.7543 34.5883 52.7543 34.5883Z" fill="black"/>
<path d="M49.9156 48.6869C49.9156 48.6869 42.7243 52.9449 42.1566 53.1341C41.5888 53.3234 27.8902 54.2693 26.544 54.2696C24.8075 54.27 22.6645 53.7019 21.2451 52.6611C19.8258 51.6203 17.6495 49.5386 17.1764 48.687C16.7032 47.8354 15.3785 46.3215 15.3785 46.3215C15.3785 46.3215 18.5957 48.4032 20.8666 49.0655C23.1375 49.7278 27.9231 49.5779 30.0995 49.4833C32.2759 49.3887 49.9156 48.6869 49.9156 48.6869Z" fill="black"/>
</svg>
