<svg width="64" height="64" viewBox="0 0 64 64" fill="none" xmlns="http://www.w3.org/2000/svg">
<circle cx="32" cy="32" r="32" transform="rotate(180 32 32)" fill="white"/>
<path fill-rule="evenodd" clip-rule="evenodd" d="M64 32C64 49.6731 49.6731 64 32 64C14.3269 64 0 49.6731 0 32C0 14.3269 14.3269 0 32 0C49.6731 0 64 14.3269 64 32ZM18.5923 28.129C18.9861 28.9712 19.9614 30.6359 19.9614 30.6359L31.2344 12L20.2322 19.6829C19.5767 20.1202 19.0388 20.7122 18.666 21.4066C18.165 22.4541 17.8987 23.5985 17.886 24.7597C17.8733 25.9208 18.1143 27.0707 18.5923 28.129ZM15.6028 39.356C14.7534 37.7839 14.2498 36.0484 14.1255 34.2658C13.9727 32.7221 13.9595 31.1677 14.0862 29.6217C14.3064 28.1589 14.75 26.7389 15.4011 25.4108C15.4011 25.4108 15.7261 24.7755 15.8936 24.4652C15.8037 25.0577 15.8037 25.6605 15.8936 26.253C16.0967 27.5615 16.5337 28.8226 17.1838 29.9762C23.606 40.8948 31.22 51.8674 31.22 51.8674L19.0505 43.3818C17.6277 42.3007 16.4521 40.9282 15.6028 39.356ZM45.1721 35.7378C44.7781 34.8957 43.8032 33.2311 43.8032 33.2311L32.53 51.8668L43.5322 44.189C44.1877 43.7516 44.7256 43.1596 45.0984 42.4652C45.6001 41.417 45.8667 40.2718 45.8796 39.1098C45.8923 37.9476 45.6509 36.7968 45.1721 35.7378ZM48.1621 24.5113C49.0115 26.0835 49.5151 27.819 49.6392 29.6016C49.7905 31.1455 49.8022 32.6998 49.6736 34.2458C49.4534 35.7084 49.01 37.1285 48.3586 38.4566C48.3586 38.4566 48.2476 38.6738 48.1218 38.9161C48.0325 39.0883 47.9358 39.2733 47.8662 39.4021C47.9563 38.8097 47.9563 38.2069 47.8662 37.6145C47.6648 36.3063 47.2292 35.0451 46.5811 33.8912C40.1538 22.9727 32.5449 12 32.5449 12L44.7144 20.4856C46.1372 21.5666 47.3127 22.9392 48.1621 24.5113Z" fill="black"/>
</svg>
