<svg width="64" height="64" viewBox="0 0 64 64" fill="none" xmlns="http://www.w3.org/2000/svg">
<path fill-rule="evenodd" clip-rule="evenodd" d="M59.4232 15.5261C68.5239 30.67 63.6231 50.3246 48.4753 59.4249C33.3331 68.521 13.6756 63.6201 4.57697 48.4755C-4.52658 33.3315 0.373481 13.6763 15.5171 4.57874C30.6635 -4.52163 50.3218 0.381401 59.4232 15.5261ZM31.991 8.00204L46.3609 31.4192L31.991 39.7615V39.9997L17.62 31.4192L31.9887 8.00392L31.9898 8.00007L31.9904 8.00106L31.991 8.00007V8.00204ZM31.9883 53.9815L17.62 34.0959L31.9906 42.4344L46.3693 34.0961L31.991 53.9838V53.9854L31.9905 53.9846L31.9897 53.9856L31.9883 53.9815Z" fill="black"/>
</svg>
