<svg width="64" height="65" viewBox="0 0 64 65" fill="none" xmlns="http://www.w3.org/2000/svg">
<circle cx="32" cy="32" r="32" transform="rotate(180 32 32)" fill="white"/>
<path fill-rule="evenodd" clip-rule="evenodd" d="M32 64.0013C49.6731 64.0013 64 49.6745 64 32.0013C64 14.3282 49.6731 0.00134277 32 0.00134277C14.3269 0.00134277 0 14.3282 0 32.0013C0 49.6745 14.3269 64.0013 32 64.0013ZM26.6947 18.0013H30.0842V21.5382H26.6947V18.0013ZM18.1474 18.0013H21.6842V21.5382H18.1474V18.0013ZM21.5368 26.5487V30.0856H18V26.5487H21.5368ZM20.5053 46.0013H19.1789V44.675H20.5053V46.0013ZM21.6842 38.9277H18.1474V35.5382H21.6842V38.9277ZM29.2 46.0013H27.8737V44.675H29.2V46.0013ZM29.2 37.7487H27.8737V36.4224H29.2V37.7487ZM30.2316 30.2329H26.6947V26.6961H30.2316V30.2329ZM37.7474 46.0013H36.4211V44.675H37.7474V46.0013ZM37.7474 37.7487H36.4211V36.4224H37.7474V37.7487ZM37.7474 29.054H36.4211V27.7277H37.7474V29.054ZM38.9263 21.5382H35.3895V18.0013H38.9263V21.5382ZM46.4421 46.0013H45.1158V44.675H46.4421V46.0013ZM46.4421 37.7487H45.1158V36.4224H46.4421V37.7487ZM46.4421 29.054H45.1158V27.7277H46.4421V29.054ZM46.4421 20.5066H45.1158V19.1803H46.4421V20.5066Z" fill="black"/>
</svg>
