<svg width="64" height="64" viewBox="0 0 64 64" fill="none" xmlns="http://www.w3.org/2000/svg">
<g clip-path="url(#clip0_20981_177311)">
<circle cx="32" cy="32" r="32" transform="rotate(180 32 32)" fill="white"/>
<path fill-rule="evenodd" clip-rule="evenodd" d="M28.1511 0.0883655C13.3941 2.65309 3.82787 11.4575 0.42724 25.6049C-0.133792 27.9393 -0.145057 36.1715 0.409859 38.2936C1.2947 41.6768 2.25325 44.4575 3.0676 46.0032C4.1343 48.0283 5.37192 50.1304 5.62105 50.3398C5.72599 50.4282 6.15826 51.0065 6.58217 51.6248C7.40329 52.823 12.3174 57.7283 12.6969 57.7283C12.8211 57.7283 13.3049 58.0559 13.7717 58.4562C24.0766 67.2933 44.3998 65.2884 54.7397 54.4147C68.0707 40.3954 66.6847 17.8825 51.8091 6.81081C51.101 6.28399 50.4492 5.77901 50.3607 5.68939C48.9258 4.23195 42.9771 1.64186 38.6121 0.573749C36.9783 0.174135 29.6225 -0.167337 28.1511 0.0883655ZM34.6747 13.1914C36.6631 14.3871 38.9993 15.7463 44.4864 18.9001C45.0616 19.231 46.0759 19.8076 46.7395 20.1815C49.5531 21.7668 49.717 21.9683 49.717 23.841C49.717 25.6029 49.3496 26.2332 48.6567 25.6608C47.6891 24.8616 40.266 20.7871 39.7893 20.7935C39.4961 20.7973 38.8938 21.0833 38.4512 21.4289C38.0087 21.7745 37.5618 22.0604 37.4586 22.0643C37.355 22.0681 35.3271 23.222 32.9523 24.6286C30.5771 26.0351 28.0185 27.5493 27.2661 27.9936C26.1365 28.6605 25.8981 28.9708 25.8981 29.7729C25.8981 31.0418 25.6855 31.0103 22.7131 29.2991C19.6957 27.5621 20.3496 27.5621 17.4539 29.2991C14.116 31.3014 14.2776 31.4568 14.3819 26.3483L14.4714 21.9515L16.4026 20.8426C19.4515 19.0922 25.7892 15.3944 28.9558 13.5185C32.4334 11.4584 31.8476 11.4918 34.6747 13.1914ZM43.16 27.2612C44.3764 27.9994 46.1682 29.0337 47.142 29.5595C48.1156 30.0855 49.0963 30.6601 49.3217 30.8362C49.9648 31.3393 49.7343 42.6228 49.0731 42.9888C48.8076 43.1359 47.142 44.0941 45.3716 45.1182C39.672 48.415 39.9944 48.2975 38.7332 47.5474C38.1354 47.1918 36.1981 46.0598 34.4278 45.0318C29.655 42.2598 30.0824 43.0652 30.0824 36.848C30.0824 30.5432 29.5372 31.4468 35.3934 28.0498C40.1224 25.3065 39.9656 25.3225 43.16 27.2612ZM21.6564 33.5346C22.4845 34.009 23.7775 34.8111 24.5301 35.3167L25.8981 36.2364V39.2627V42.2894L24.0711 43.4555C20.6247 45.6559 20.2944 45.7478 18.7315 44.9418C14.1945 42.603 14.3105 42.753 14.3105 39.2214V36.212L16.0003 35.1301C20.4315 32.293 19.8001 32.4713 21.6564 33.5346ZM28.5748 46.5252C31.0805 47.8127 35.2427 50.4696 35.1568 50.7269C35.1002 50.8963 34.3956 51.408 33.5905 51.8638C31.8905 52.8265 32.4984 53.0167 26.7832 49.735C24.3456 48.3354 24.3288 48.2689 26.1258 47.1427C27.9294 46.0125 27.6931 46.0719 28.5748 46.5252Z" fill="black"/>
</g>
<defs>
<clipPath id="clip0_20981_177311">
<rect width="64" height="64" fill="white"/>
</clipPath>
</defs>
</svg>
