<svg width="64" height="64" viewBox="0 0 64 64" fill="none" xmlns="http://www.w3.org/2000/svg">
<path fill-rule="evenodd" clip-rule="evenodd" d="M32 64C49.6731 64 64 49.6731 64 32C64 14.3269 49.6731 0 32 0C14.3269 0 0 14.3269 0 32C0 49.6731 14.3269 64 32 64ZM43.8562 19.4785L35.0982 24.5391L43.8562 29.5907V19.4785ZM32.3176 52.7911L43.8562 46.1222V34.4003L32.3176 41.0616L20.7791 34.4003V46.1298L32.3176 52.7911ZM29.5371 24.5406L20.7791 19.4845V29.5967L29.5371 24.5406ZM42.4644 31.9955L33.7049 26.9439V37.0516L42.4644 31.9955ZM22.1754 31.9985L30.9289 37.0516V37.0501V26.9439L22.1754 31.9985ZM32.3146 22.9369L42.4734 17.0691L32.3176 11.2059L22.1573 17.0721L32.3146 22.9369ZM18 47.7335V16.2635L32.3161 8L46.6338 16.265V47.7275L32.3161 56L18 47.7335Z" fill="black"/>
</svg>
