<svg width="64" height="64" viewBox="0 0 64 64" fill="none" xmlns="http://www.w3.org/2000/svg">
<g clip-path="url(#clip0_20471_177840)">
<path fill-rule="evenodd" clip-rule="evenodd" d="M63.9306 32C63.9306 49.6348 49.6348 63.9306 32 63.9306C14.3653 63.9306 0.069458 49.6348 0.069458 32C0.069458 14.3652 14.3653 0.0694275 32 0.0694275C49.6348 0.0694275 63.9306 14.3652 63.9306 32ZM15.7077 15.9443L17.8485 13.8035L19.9952 11.6568L22.7155 14.3653L25.4358 17.0738L26.0627 16.8195C27.754 16.1335 29.9598 15.8082 32.4731 15.8733C34.7736 15.9383 36.3348 16.2045 37.9492 16.8077L38.6057 17.056L41.3082 14.3535L44.0049 11.6568L46.1516 13.7976L48.2923 15.9443L45.6253 18.6113L42.9582 21.2844L43.1651 21.8343C43.5436 22.8101 43.7506 23.7445 43.8334 24.7912L43.8748 25.3057L43.1415 25.3412C41.8582 25.4062 37.5767 25.56 37.5648 25.5422C37.5589 25.5304 37.4939 25.2761 37.4229 24.9745C36.8434 22.5144 35.5187 21.3908 32.8871 21.1129C31.6393 20.9828 29.9598 21.1365 28.9604 21.4736C28.0733 21.7693 27.2572 22.2956 26.9261 22.7864C26.3524 23.6321 26.4116 24.7912 27.068 25.6191C27.7303 26.4589 29.398 27.1271 33.2715 28.097C38.7653 29.4808 40.7109 30.3442 42.4378 32.1597C44.0936 33.9042 44.821 36.0213 44.7264 38.8304C44.6731 40.3029 44.4129 41.3733 43.7861 42.6329L43.4845 43.2479L45.8855 45.6489L48.2923 48.0558L46.1457 50.2024L44.0049 52.3432L41.4147 49.753L38.8186 47.1569L38.4282 47.2988C37.7718 47.5413 36.524 47.837 35.6606 47.9611C32.0651 48.4816 28.3572 48.1563 25.8853 47.1155L25.4181 46.9203L22.7096 49.6288L19.9952 52.3432L17.8544 50.2024L15.7077 48.0558L18.3334 45.4242L20.965 42.7926L20.6457 42.1361C20.0957 41.0066 19.6167 39.3803 19.4275 38.0143C19.3861 37.7304 19.3683 37.482 19.392 37.4643C19.4216 37.4288 25.4772 36.8374 25.4949 36.8611C25.4987 36.8687 25.5194 36.9656 25.5493 37.1055C25.5662 37.1846 25.586 37.2774 25.6073 37.3756C25.968 39.0965 26.7841 40.5867 27.8309 41.4501C28.3454 41.87 29.3684 42.3727 30.0899 42.5501C32.0296 43.0468 34.6021 42.834 36.0805 42.0592C37.1745 41.4915 38.0557 40.4507 38.3277 39.4158C38.4342 38.99 38.4401 38.103 38.3336 37.7068C38.0912 36.796 37.5116 36.1928 36.3407 35.637C35.4832 35.2348 34.815 35.0397 30.4625 33.922C28.233 33.3483 26.2223 32.6269 25.0514 31.9882C22.1419 30.3974 20.4979 27.7244 20.4979 24.5842C20.4979 23.6203 20.6161 22.8929 20.9059 22.0236L21.1306 21.3612L18.4162 18.6527L15.7077 15.9443Z" fill="black"/>
</g>
<defs>
<clipPath id="clip0_20471_177840">
<rect width="64" height="64" fill="white"/>
</clipPath>
</defs>
</svg>
