<svg width="64" height="64" viewBox="0 0 64 64" fill="none" xmlns="http://www.w3.org/2000/svg">
<circle cx="32" cy="32" r="32" transform="rotate(180 32 32)" fill="white"/>
<path fill-rule="evenodd" clip-rule="evenodd" d="M64 32C64 49.6731 49.6731 64 32 64C14.3269 64 0 49.6731 0 32C0 14.3269 14.3269 0 32 0C49.6731 0 64 14.3269 64 32ZM13 32C13 42.479 21.521 51 32 51C42.479 51 51 42.479 51 32C51 21.521 42.479 13 32 13C21.521 13 13 21.521 13 32ZM12 32C12 43.0312 20.9688 52 32 52C43.0312 52 52 43.0312 52 32C52 20.9688 43.0312 12 32 12C20.9688 12 12 20.9688 12 32ZM35.125 19.9062C34.1875 19.25 33.0938 19.0312 31.9375 19.0625C28.0625 18.8125 24.9688 23.3125 26.7188 27.375C27.5 29.125 28.875 30.25 30.75 30.75C30.9688 30.8125 31.3125 31.0625 31.3125 31.25C31.3501 31.8875 31.3538 32.525 31.3577 33.1625C31.3601 33.5875 31.3625 34.0125 31.375 34.4375C31.4062 34.9062 31.1562 35.0938 30.7188 35.2188C27.8438 36.0312 26.2188 38.1562 26.25 41.1562C26.2812 43.625 27.7188 45.6875 30.0625 46.625C32.0312 47.4062 34.6562 46.7812 36.1562 45.25C37.9375 43.4062 38.1562 40.3125 37.3438 38.5938C36.5 36.8125 35.125 35.6562 33.1875 35.1875C32.6875 35.0625 32.5312 34.8438 32.5312 34.3438C32.5625 33.4375 32.5625 32.5 32.5312 31.5625C32.5312 31.0938 32.6875 30.875 33.125 30.7812C33.5 30.7188 33.875 30.625 34.2188 30.4688C37.8125 28.7188 38.7188 24.9375 36.9062 21.6875C36.6562 21.25 36.7188 21 37.0625 20.6562C37.4688 20.25 37.8594 19.8438 38.25 19.4375C38.6406 19.0312 39.0312 18.625 39.4375 18.2188C39.75 17.9375 39.8438 17.6562 39.5 17.3125C39.1562 16.9062 38.875 17.0938 38.5938 17.375C38.2585 17.7236 37.9175 18.0607 37.5781 18.3961C37.1267 18.8426 36.6782 19.2861 36.25 19.75C35.875 20.1562 35.5625 20.1875 35.125 19.9062ZM32.1562 36.2812C34.5312 36.2812 36.6875 38.5312 36.6875 41C36.6875 43.5625 34.5312 45.7812 32 45.8125C29.625 45.8438 27.3125 43.4375 27.3438 40.9688C27.375 38.4688 29.6562 36.25 32.1562 36.2812ZM32.0625 29.7188C29.4688 29.7188 27.4062 27.5312 27.4062 24.8438C27.4375 22.2812 29.4688 20.3438 32.0938 20.3125C34.9688 20.25 36.6875 22.6875 36.6875 25C36.6875 27.5 34.4688 29.7188 32.0625 29.7188Z" fill="black"/>
</svg>
