<svg width="64" height="64" viewBox="0 0 64 64" fill="none" xmlns="http://www.w3.org/2000/svg">
<circle cx="32" cy="32" r="32" transform="rotate(180 32 32)" fill="white"/>
<path fill-rule="evenodd" clip-rule="evenodd" d="M32 64C49.6731 64 64 49.6731 64 32C64 14.3269 49.6731 0 32 0C14.3269 0 0 14.3269 0 32C0 49.6731 14.3269 64 32 64ZM39.0269 15.555C36.7935 14.594 34.3867 14.1019 31.9556 14.1092C29.5391 14.1018 27.1462 14.5873 24.9238 15.536C22.7012 16.4847 20.6956 17.8768 19.0293 19.627L32.0203 32.6099L44.9385 19.6958C43.2722 17.9254 41.26 16.516 39.0269 15.555ZM23.1641 14.0372C25.9006 12.6962 28.908 11.9994 31.9556 12C35.02 11.9974 38.0442 12.7005 40.7932 14.0547C43.5425 15.409 45.9429 17.378 47.8086 19.8092L32.0203 35.5976L16.167 19.7363C18.0339 17.3276 20.4275 15.3781 23.1641 14.0372ZM26.8384 33.5613C25.9314 34.2956 24.7993 34.6958 23.6321 34.6948C22.6665 34.6954 21.7205 34.4227 20.9033 33.9082C20.0862 33.3938 19.4312 32.6587 19.0142 31.7878C18.5972 30.9169 18.4351 29.9457 18.5466 28.9866C18.6582 28.0274 19.0388 27.1194 19.6445 26.3674L26.8384 33.5613ZM43.0461 33.924C42.2327 34.4298 41.2935 34.6969 40.3354 34.6948C39.2019 34.6964 38.1003 34.3187 37.2061 33.622L44.3838 26.4444C44.9717 27.2008 45.3352 28.1071 45.4329 29.06C45.5308 30.0129 45.3586 30.9742 44.9368 31.8341C44.5149 32.6941 43.8596 33.4183 43.0461 33.924ZM45.8899 24.9344L49.1284 21.6957H49.1487C50.9744 24.7344 51.9597 28.2037 52.0039 31.7484C52.0479 35.2931 51.1492 38.7858 49.3997 41.869C47.6501 44.9522 45.1128 47.515 42.0471 49.2952C38.9817 51.0753 35.498 52.0087 31.9531 51.9999C28.408 51.9911 24.9292 51.0404 21.8723 49.2451C18.8157 47.4497 16.291 44.8743 14.5569 41.7825C12.8228 38.6906 11.9414 35.1935 12.0029 31.6491C12.0647 28.1046 13.0674 24.6403 14.908 21.6107L18.1467 24.8736C16.9617 26.2563 16.3425 28.0354 16.4128 29.855C16.4832 31.6747 17.2378 33.4007 18.5259 34.6878C19.814 35.9749 21.5408 36.7283 23.3604 36.7971C25.1799 36.866 26.9587 36.2453 28.3403 35.0592L32.0566 38.7634L35.7002 35.1199C37.0828 36.3001 38.8594 36.9159 40.6758 36.8445C42.4922 36.7731 44.2148 36.0197 45.5005 34.7346C46.7861 33.4494 47.5403 31.727 47.6123 29.9106C47.6846 28.0942 47.0693 26.3174 45.8899 24.9344Z" fill="black"/>
</svg>
