<svg width="64" height="64" viewBox="0 0 64 64" fill="none" xmlns="http://www.w3.org/2000/svg">
<circle cx="32" cy="32" r="32" transform="rotate(180 32 32)" fill="white"/>
<path fill-rule="evenodd" clip-rule="evenodd" d="M32 64C49.6731 64 64 49.6731 64 32C64 14.3269 49.6731 0 32 0C14.3269 0 0 14.3269 0 32C0 49.6731 14.3269 64 32 64ZM42.9172 41.1379L45.3169 42.963L45.3208 42.9668C45.5056 43.1155 45.6169 43.338 45.6169 43.578V50.26C45.6169 50.6663 45.2832 51 44.877 51L31.6592 50.945C27.573 50.87 23.6172 49.3901 20.4749 46.7615C17.3325 44.1329 15.1702 40.5044 14.3564 36.4884C13.5427 32.4724 14.1353 28.2889 16.0012 24.6429C17.8674 20.9969 20.936 18.0908 24.6709 16.4247L24.7258 12.3337C24.6895 12.1674 24.7083 11.9999 24.7632 11.8337C24.7996 11.685 24.8933 11.5375 25.0032 11.4075C25.1133 11.2775 25.262 11.185 25.4094 11.1112C25.5569 11.0375 25.7231 11 25.8894 11C26.0557 11 26.2231 11.0375 26.3706 11.1112C26.5369 11.185 26.667 11.2787 26.7769 11.4075C26.887 11.5362 26.9619 11.685 27.0168 11.8512C27.0532 12.0174 27.0718 12.1849 27.0532 12.3512L27.0344 15.5535C28.0881 15.2397 29.178 15.036 30.2693 14.9248L30.2878 12.3524C30.2517 12.1862 30.2705 12.0187 30.3254 11.8524C30.3616 11.7037 30.4553 11.5562 30.5654 11.4262C30.6753 11.2962 30.8242 11.2037 30.9717 11.13C31.1191 11.0562 31.2842 11.0187 31.4517 11.0187C31.6191 11.0187 31.7854 11.0562 31.9329 11.13C32.0991 11.2037 32.229 11.2975 32.3391 11.4262C32.449 11.555 32.5239 11.7037 32.5791 11.8699C32.6165 12.0362 32.6353 12.2037 32.6165 12.3699L32.5979 14.8685C37.1824 15.0173 41.5459 16.9234 44.7808 20.1994L45.4094 20.8281C45.7043 21.1244 45.687 21.6056 45.3906 21.8831L42.7109 24.3929C44.5769 26.8365 45.5945 29.8713 45.5757 32.9624C45.5757 35.885 44.6335 38.7703 42.9172 41.1379ZM40.2175 39.0847C41.4907 37.3092 42.1921 35.1258 42.1921 32.9436C42.2109 30.7225 41.5085 28.5202 40.2148 26.7065L36.4988 30.0638C37.0725 30.97 37.3501 32.0249 37.3125 33.0986C37.2563 34.1723 36.8875 35.2085 36.24 36.0597L40.2175 39.0847ZM22.9297 44.6292C25.4995 46.6103 28.6606 47.7015 31.9141 47.7202L31.9153 47.7152L42.0459 47.7527C42.2498 47.7527 42.416 47.5865 42.416 47.3827L42.4346 45.0141C42.4346 44.9029 42.3796 44.7916 42.2871 44.7179L33.4502 37.9996C32.7302 38.2208 31.9541 38.277 31.1953 38.1658C30.4368 38.0546 29.7168 37.7771 29.0693 37.3696C28.4404 36.9446 27.8855 36.4072 27.4792 35.7597C27.0732 35.1122 26.8145 34.3898 26.7031 33.6311C26.5918 32.8724 26.647 32.1137 26.8694 31.3737C27.0906 30.6525 27.4607 29.9676 27.9592 29.3939C28.4592 28.8201 29.0693 28.3577 29.7717 28.0427C30.4741 27.7277 31.2329 27.5802 31.9902 27.5802C32.6741 27.5802 33.3577 27.729 33.9863 27.9877L40.8997 21.6393C41.0659 21.4731 41.0474 21.2131 40.8623 21.0656C38.3286 19.1407 35.2239 18.0858 32.0254 18.0858C30.2878 18.0858 28.5693 18.3633 26.9419 18.9557L26.9231 24.9341C26.9595 25.1004 26.9407 25.2679 26.8857 25.4341C26.8494 25.5828 26.7556 25.7303 26.6458 25.8603C26.5356 25.9903 26.387 26.0828 26.2395 26.1566C26.092 26.2303 25.927 26.2678 25.7595 26.2678C25.592 26.2678 25.4258 26.2303 25.2783 26.1566C25.1121 26.0828 24.9819 25.9891 24.8721 25.8603C24.762 25.7316 24.687 25.5828 24.6321 25.4166C24.5945 25.2504 24.5757 25.0829 24.5945 24.9166L24.6133 20.0494C21.7847 21.6781 19.585 24.1954 18.3274 27.194C17.0889 30.1913 16.8489 33.5411 17.6799 36.6884C18.5112 39.8357 20.3599 42.6305 22.9297 44.6292ZM33.7266 34.0798C33.9478 33.7286 34.0776 33.3211 34.0776 32.9136L34.0789 32.9161C34.0789 32.3424 33.8577 31.8237 33.4878 31.4537C33.1003 31.0462 32.564 30.8238 32.009 30.8238C31.6016 30.8238 31.1953 30.9525 30.8442 31.175C30.4929 31.415 30.2341 31.73 30.0679 32.1187C29.9004 32.4887 29.8643 32.9136 29.938 33.3211C30.0117 33.7286 30.2141 34.0986 30.5105 34.3948C30.8066 34.691 31.1941 34.876 31.5828 34.9685C31.9702 35.061 32.3965 35.0235 32.7839 34.8573C33.1714 34.691 33.4866 34.4323 33.7266 34.0798Z" fill="black"/>
</svg>
