<svg width="64" height="64" viewBox="0 0 64 64" fill="none" xmlns="http://www.w3.org/2000/svg">
<rect width="64" height="64" rx="32" fill="black"/>
<path d="M12.0991 16.0334C11.4631 16.0834 10.9736 16.1834 11.0011 16.2585C11.2548 16.8623 12.8233 20.4175 12.8448 20.4389C12.8662 20.4603 13.2307 20.4854 13.6594 20.5032C15.5603 20.5747 17.0645 20.9463 18.6903 21.7502C19.8586 22.3255 20.7233 22.9436 21.6237 23.8404C22.9493 25.1625 23.814 26.631 24.3213 28.4282C24.3785 28.6355 24.425 28.8212 24.425 28.8498C24.425 28.8891 24.1355 28.8963 22.8564 28.8963C21.9917 28.8963 21.2485 28.9106 21.2021 28.9284C21.1342 28.9535 20.9556 29.3393 20.2124 31.0437C19.7121 32.1906 19.2977 33.1553 19.2905 33.1875C19.2655 33.2804 19.5656 33.3626 20.316 33.4733C20.4696 33.4984 21.3915 33.5234 22.4812 33.5377L24.3785 33.5591L24.2642 33.9521C22.985 38.2898 19.0154 41.3233 14.1525 41.6877C13.8774 41.7056 13.5165 41.7235 13.3486 41.7235H13.0449L12.1087 43.878C11.3048 45.7181 11.1798 46.0326 11.2334 46.0504C11.4763 46.1397 12.0194 46.1719 13.2771 46.1719C14.885 46.1719 15.6675 46.1004 16.9931 45.8289C22.4062 44.7177 26.9046 41.2733 28.9413 36.6712C29.3343 35.7851 29.7952 34.3273 29.8774 33.7163L29.9024 33.5412H33.9649L33.9792 33.6198C34.2722 35.0562 34.5902 36.0245 35.1405 37.1679C36.7948 40.6123 39.8962 43.4242 43.7372 44.9678C46.0696 45.9019 48.568 46.3505 51.0797 46.2862C52.1302 46.2541 52.9663 46.1362 52.9234 46.0254C52.8877 45.9325 51.1083 41.8485 51.0976 41.8378C51.0869 41.8271 50.7188 41.8128 50.2722 41.7949C49.0181 41.7449 48.0748 41.5984 47.0101 41.2947C45.37 40.8231 43.7479 39.9691 42.5045 38.9258C40.9395 37.6073 39.8068 35.9673 39.2066 34.1486C39.1387 33.9414 39.0708 33.7235 39.0601 33.6591L39.0351 33.5448L40.5643 33.5341C41.404 33.5269 42.1186 33.5091 42.1472 33.4948C42.1936 33.4698 44.023 29.3215 44.023 29.2393C44.023 29.1857 43.5621 29.0499 43.144 28.982C42.8368 28.932 42.4473 28.9177 40.893 28.907L39.01 28.8891L39.0815 28.6355C40.1248 24.9409 43.3263 22.0075 47.4531 20.9677C48.3642 20.739 49.2503 20.6211 50.4008 20.5747C51.0869 20.5461 51.1726 20.5354 51.2155 20.4782C51.2441 20.4389 51.6657 19.4921 52.1516 18.3737C52.7483 17.0052 53.0235 16.3299 52.9984 16.3121C52.9198 16.2692 52.4196 16.1799 52.0266 16.1405C51.4549 16.0798 49.7863 16.0905 49.0502 16.1548C44.8412 16.53 41.0467 18.2272 38.2025 20.9999C36.4661 22.6935 35.2477 24.5943 34.4973 26.7882C34.3044 27.342 34.0721 28.2138 34.0007 28.6355L33.9578 28.8963H29.9642L29.9499 28.8141C29.9392 28.7712 29.8999 28.5676 29.857 28.3603C29.2675 25.4304 27.6024 22.5827 25.2514 20.4854C22.5752 18.095 19.238 16.5979 15.5649 16.1431C14.4609 16.0083 13.0377 15.9619 12.0991 16.0334Z" fill="white"/>
</svg>
