<svg width="64" height="64" viewBox="0 0 64 64" fill="none" xmlns="http://www.w3.org/2000/svg">
<circle cx="32" cy="32" r="32" transform="rotate(180 32 32)" fill="white"/>
<path fill-rule="evenodd" clip-rule="evenodd" d="M32 64C49.6731 64 64 49.6731 64 32C64 14.3269 49.6731 0 32 0C14.3269 0 0 14.3269 0 32C0 49.6731 14.3269 64 32 64ZM35.9991 21.6328C36.0066 16.6905 36.0454 12.4632 36.0854 12.237L36.0879 12.2358C36.1554 11.8583 36.1679 11.892 36.2429 12.647C36.2891 13.0995 36.3954 13.9769 36.4816 14.5981C36.5679 15.2194 36.6841 16.0743 36.7404 16.498C36.7966 16.9218 36.9803 17.9542 37.1478 18.7917C37.3153 19.6291 37.5478 20.6228 37.6641 20.9991C37.7803 21.3753 38.019 22.099 38.1953 22.6078C38.3715 23.1165 38.6428 23.8202 38.799 24.1714C38.9552 24.5227 39.3202 25.2126 39.6115 25.7051C39.9015 26.1976 40.2502 26.7451 40.3864 26.9238C40.5227 27.1025 40.6339 27.2813 40.6339 27.3213C40.6339 27.3613 40.4977 27.565 40.3314 27.7738C40.1652 27.9825 39.8927 28.4287 39.7252 28.7687C39.5577 29.1087 39.3127 29.8712 39.1802 30.4636C38.939 31.5398 38.939 31.5586 38.9502 38.3707C38.9602 44.348 38.9827 45.3092 39.1352 46.0729C39.2315 46.5528 39.4677 47.5228 39.6602 48.229C39.8527 48.9352 40.1302 49.8589 40.2777 50.2827C40.4252 50.7064 40.6114 51.1551 40.6914 51.2801C40.7714 51.4051 40.8377 51.5564 40.8377 51.6164C40.8377 51.6763 40.0402 51.0864 39.0665 50.3039C38.0915 49.5227 36.8791 48.5602 36.3704 48.1665C35.8616 47.7728 35.2267 47.3003 34.9579 47.1166C34.6242 46.8891 34.4705 46.7116 34.4705 46.5566C34.4705 46.4316 34.7242 45.9891 35.0342 45.5704C35.3442 45.1517 35.6517 44.6442 35.7179 44.4404C35.8004 44.1842 35.8604 41.9943 35.9116 37.3445C35.9529 33.6447 35.9916 26.5751 35.9991 21.6328ZM27.6726 12.1875C27.6728 12.1869 27.6731 12.1863 27.6733 12.1858L27.6723 12.1878L27.672 12.1883M27.4421 13.8807C27.5327 13.0388 27.6369 12.2807 27.6726 12.1875C27.7079 12.1779 27.7848 19.289 27.8433 28.0537L27.9508 44.073L28.1845 44.5817C28.312 44.8617 28.5945 45.3242 28.812 45.6091C29.0295 45.8941 29.2582 46.2279 29.3207 46.3491C29.412 46.5266 29.3995 46.6103 29.257 46.7703C29.1595 46.8803 28.5483 47.3666 27.8983 47.8515C27.2483 48.3365 25.9071 49.3827 24.9197 50.1764C23.9322 50.9701 23.0823 51.6201 23.0335 51.6201C22.9848 51.6201 22.9898 51.5626 23.0448 51.4926C23.101 51.4214 23.2648 51.0414 23.4085 50.6451C23.5522 50.2489 23.7872 49.5564 23.9297 49.104C24.0722 48.6515 24.311 47.7965 24.4609 47.2041C24.6897 46.3016 24.7484 45.7741 24.8197 43.9692C24.8672 42.783 24.9097 39.7269 24.9134 37.177C24.9184 34.6272 24.8734 32.0735 24.8147 31.5011C24.7559 30.9286 24.6122 30.1499 24.4947 29.7699C24.3785 29.3899 24.1722 28.8612 24.0372 28.595C23.9022 28.3287 23.6535 27.9537 23.4835 27.76C23.3135 27.5675 23.1748 27.385 23.1748 27.3538C23.1748 27.3225 23.4235 26.9363 23.7272 26.4938C24.031 26.0513 24.4647 25.3189 24.6922 24.8651C24.9197 24.4114 25.2659 23.6252 25.4609 23.119C25.6559 22.6128 25.9359 21.7815 26.0834 21.2741C26.2309 20.7666 26.4646 19.8191 26.6021 19.1692C26.7396 18.5192 26.9471 17.4105 27.0633 16.7043C27.1796 15.9981 27.3508 14.7281 27.4421 13.8807ZM27.6726 12.1875C27.6725 12.1875 27.6724 12.1876 27.6723 12.1878L27.6726 12.1875ZM31.7768 28.205C31.7643 25.5789 31.7981 22.3665 31.8518 21.0678L31.9506 18.7054L32.0268 22.094C32.0681 23.9577 32.0706 27.8163 32.0318 30.6686C31.9731 34.9047 31.9456 35.5909 31.8806 34.4172C31.8368 33.6272 31.7893 30.8311 31.7768 28.205ZM30.1997 47.8375L30.4507 47.644C31.2056 47.0628 31.8606 46.5866 31.9056 46.5866C31.9506 46.5866 32.3268 46.8453 32.7418 47.1616C33.1568 47.4778 33.8342 47.9965 34.2492 48.3165C34.4636 48.4811 34.7833 48.7271 35.1212 48.9872C35.4376 49.2306 35.7699 49.4862 36.0466 49.6989C36.6191 50.1389 37.5191 50.8264 38.044 51.2251C38.569 51.6239 38.9815 51.9688 38.959 51.9901C38.9365 52.0113 38.4678 51.8188 37.9165 51.5614C37.3653 51.3039 36.4891 50.9401 35.9691 50.7514C35.4492 50.5627 34.6105 50.3052 34.1055 50.1777C33.3905 49.9977 32.9005 49.9477 31.9031 49.9489C31.0931 49.9502 30.3657 50.0114 29.9307 50.1152C29.552 50.2052 28.7432 50.4489 28.1333 50.6564C27.5233 50.8639 26.5433 51.2576 25.9559 51.5326C25.3684 51.8076 24.8722 52.0176 24.8547 51.9988C24.8372 51.9801 25.0622 51.7838 25.3572 51.5614C25.6521 51.3389 26.6083 50.6039 27.4858 49.9289C28.2726 49.3237 29.4264 48.434 30.1997 47.8375Z" fill="black"/>
</svg>
