<svg width="64" height="64" viewBox="0 0 64 64" fill="none" xmlns="http://www.w3.org/2000/svg">
<path fill-rule="evenodd" clip-rule="evenodd" d="M32 64C49.6731 64 64 49.6731 64 32C64 14.3269 49.6731 0 32 0C14.3269 0 0 14.3269 0 32C0 49.6731 14.3269 64 32 64ZM39.3256 34.2418L51.6483 48.4165H47.6593L38.2512 37.5902C37.9942 37.295 37.8527 36.9168 37.8527 36.5255C37.8527 36.1341 37.9942 35.756 38.2512 35.4608L39.3256 34.2418ZM34.6372 22.6536L40.4196 16.0117L44.393 16L35.6999 26.002L34.6372 24.7791C34.382 24.4838 34.2416 24.1066 34.2416 23.7164C34.2416 23.3261 34.382 22.9489 34.6372 22.6536ZM31.9531 30.327L19.4975 16.0117H23.5022L33.0705 26.9084C33.3278 27.2042 33.4694 27.583 33.4694 27.975C33.4694 28.367 33.3278 28.7458 33.0705 29.0416L31.9531 30.327ZM25.5182 31.5655L12 16.0117H16.1922L29.3706 31.1709C29.6257 31.4662 29.7661 31.8434 29.7661 32.2336C29.7661 32.6239 29.6257 33.0011 29.3706 33.2963L16.2274 48.4165H12.2578L25.5182 33.1596C25.7088 32.9378 25.8137 32.655 25.8137 32.3626C25.8137 32.0701 25.7088 31.7873 25.5182 31.5655ZM29.3041 42.1145L23.8343 48.4165L19.6343 48.4048L28.132 38.6372L29.3041 39.9852C29.5611 40.2803 29.7026 40.6585 29.7026 41.0498C29.7026 41.4412 29.5611 41.8193 29.3041 42.1145ZM47.8077 16.0117H52L34.7896 35.8125C34.5967 36.0332 34.4904 36.3164 34.4904 36.6095C34.4904 36.9026 34.5967 37.1858 34.7896 37.4065L44.3579 48.4282H40.1617L30.8279 37.6839C30.568 37.3886 30.4246 37.0087 30.4246 36.6154C30.4246 36.222 30.568 35.8421 30.8279 35.5468L47.8077 16.0117Z" fill="black"/>
</svg>
