<svg width="64" height="64" viewBox="0 0 64 64" fill="none" xmlns="http://www.w3.org/2000/svg">
<circle cx="32" cy="32" r="32" transform="rotate(180 32 32)" fill="white"/>
<path fill-rule="evenodd" clip-rule="evenodd" d="M32 64C49.6731 64 64 49.6731 64 32C64 14.3269 49.6731 0 32 0C14.3269 0 0 14.3269 0 32C0 49.6731 14.3269 64 32 64ZM30.0132 13.193C30.235 13.0742 30.4 12.7756 30.4 12.493C30.4 12.01 30.4328 12 32 12C33.5672 12 33.6 12.01 33.6 12.493C33.6 12.7756 33.765 13.0742 33.9868 13.193C34.1996 13.3068 34.5618 13.4 34.7918 13.4C35.0558 13.4 35.2812 13.2122 35.4036 12.8906C35.5788 12.4296 35.6684 12.3946 36.3486 12.5204C36.7618 12.597 37.415 12.7672 37.8 12.8986C38.3618 13.0904 38.5118 13.2542 38.5596 13.7286C38.6056 14.184 38.7662 14.3756 39.2596 14.564C39.8336 14.783 39.936 14.7644 40.2472 14.3854L40.5944 13.9624L41.9038 14.6946C43.1586 15.3964 43.2086 15.4534 43.1036 16.0634C43.0134 16.5886 43.0856 16.7654 43.516 17.0736C43.957 17.3894 44.11 17.4088 44.5028 17.1986C44.9016 16.985 45.054 17.0112 45.5758 17.3828C45.9104 17.621 46.379 18.0896 46.6172 18.4242C46.9866 18.943 47.0142 19.0998 46.8044 19.4916C46.5996 19.8744 46.6176 20.041 46.9128 20.4914C47.209 20.9436 47.3678 21.013 47.8842 20.9162C48.4632 20.8076 48.5476 20.8744 49.2506 21.9992C49.6628 22.6584 50 23.2514 50 23.3168C50 23.3824 49.8182 23.5854 49.5958 23.768C49.2364 24.0632 49.2188 24.171 49.436 24.7404C49.6244 25.2338 49.816 25.3944 50.2714 25.4404C50.7458 25.4882 50.9096 25.6382 51.1014 26.2C51.2328 26.585 51.403 27.2382 51.4796 27.6514C51.6054 28.3316 51.5704 28.4212 51.1094 28.5964C50.7878 28.7188 50.6 28.9442 50.6 29.2082C50.6 29.4382 50.6932 29.8004 50.807 30.0132C50.9258 30.235 51.2244 30.4 51.507 30.4C51.99 30.4 52 30.4328 52 32C52 33.5672 51.99 33.6 51.507 33.6C51.2244 33.6 50.9258 33.765 50.807 33.9868C50.6932 34.1996 50.6 34.5618 50.6 34.7918C50.6 35.0538 50.7868 35.2808 51.1 35.4C51.3838 35.5078 51.5948 35.7436 51.5878 35.945C51.581 36.1402 51.4208 36.795 51.2318 37.4C50.9194 38.3998 50.8308 38.5056 50.2596 38.5616C49.7572 38.6106 49.5862 38.7512 49.4076 39.2616C49.2114 39.822 49.2354 39.9418 49.6036 40.2414C49.9614 40.5326 49.9884 40.6506 49.7876 41.0414C49.658 41.2936 49.3154 41.8822 49.026 42.3494C48.5498 43.1182 48.4416 43.1878 47.8834 43.0834C47.3682 42.987 47.2088 43.0568 46.9128 43.5086C46.6176 43.959 46.5996 44.1256 46.8044 44.5084C47.0142 44.9002 46.9866 45.057 46.6172 45.5758C46.379 45.9104 45.9104 46.379 45.5758 46.6172C45.054 46.9888 44.9016 47.015 44.5028 46.8014C44.11 46.5912 43.957 46.6106 43.516 46.9264C43.0856 47.2346 43.0134 47.4114 43.1036 47.9366C43.2086 48.5466 43.1586 48.6036 41.9038 49.3054L40.5944 50.0376L40.2472 49.6146C39.936 49.2356 39.8336 49.217 39.2596 49.436C38.7662 49.6244 38.6056 49.816 38.5596 50.2714C38.5118 50.7458 38.3618 50.9096 37.8 51.1014C37.415 51.2328 36.7618 51.403 36.3486 51.4796C35.6684 51.6054 35.5788 51.5704 35.4036 51.1094C35.2812 50.7878 35.0558 50.6 34.7918 50.6C34.5618 50.6 34.1996 50.6932 33.9868 50.807C33.765 50.9258 33.6 51.2244 33.6 51.507C33.6 51.99 33.5672 52 32 52C30.4328 52 30.4 51.99 30.4 51.507C30.4 51.2244 30.235 50.9258 30.0132 50.807C29.8004 50.6932 29.4382 50.6 29.2082 50.6C28.9462 50.6 28.7192 50.7868 28.6 51.1C28.4922 51.3838 28.2564 51.5948 28.055 51.5878C27.8598 51.581 27.205 51.4208 26.6 51.2318C25.6002 50.9194 25.4944 50.8308 25.4384 50.2596C25.3894 49.7572 25.2488 49.5862 24.7384 49.4076C24.181 49.2124 24.058 49.2358 23.768 49.592C23.5854 49.8164 23.3892 50 23.3322 50C23.2752 50 22.6804 49.6734 22.0102 49.2742C20.8624 48.5904 20.7978 48.512 20.8988 47.9242C20.9864 47.4134 20.911 47.2322 20.484 46.9264C20.0454 46.6124 19.8886 46.592 19.5028 46.7984C19.1098 47.0088 18.9572 46.9804 18.4434 46.6004C18.1134 46.3564 17.6436 45.8866 17.3996 45.5566C17.0196 45.0428 16.9912 44.8902 17.2016 44.4972C17.408 44.1114 17.3876 43.9546 17.0736 43.516C16.773 43.0962 16.5828 43.0142 16.1 43.0964C15.566 43.1876 15.4422 43.1054 14.974 42.3494C14.6846 41.8822 14.342 41.2936 14.2124 41.0414C14.0116 40.6506 14.0386 40.5326 14.3964 40.2414C14.7668 39.94 14.7894 39.824 14.5884 39.25C14.3958 38.6998 14.2628 38.6 13.7222 38.6C13.106 38.6 13.0716 38.555 12.7418 37.3172C12.5538 36.6116 12.4 35.9344 12.4 35.8122C12.4 35.69 12.625 35.5046 12.9 35.4C13.2132 35.2808 13.4 35.0538 13.4 34.7918C13.4 34.5618 13.3068 34.1996 13.193 33.9868C13.0742 33.765 12.7756 33.6 12.493 33.6C12.01 33.6 12 33.5672 12 32C12 30.4328 12.01 30.4 12.493 30.4C12.7756 30.4 13.0742 30.235 13.193 30.0132C13.3068 29.8004 13.4 29.4382 13.4 29.2082C13.4 28.9442 13.2122 28.7188 12.8906 28.5964C12.4306 28.4216 12.3944 28.3302 12.517 27.6514C12.5916 27.2382 12.7308 26.7484 12.8264 26.5632C12.9218 26.3778 13 26.0404 13 25.8132C13 25.4766 13.1262 25.4 13.6804 25.4C14.268 25.4 14.3918 25.3114 14.5884 24.75C14.79 24.1742 14.7672 24.0604 14.3892 23.7528L13.9624 23.4056L14.6946 22.0962C15.4052 20.8258 15.4462 20.7906 16.08 20.9094C16.6376 21.014 16.7848 20.953 17.0872 20.4914C17.3824 20.041 17.4004 19.8744 17.1956 19.4916C16.9858 19.0998 17.0134 18.943 17.3828 18.4242C17.621 18.0896 18.0896 17.621 18.4242 17.3828C18.943 17.0134 19.0998 16.9858 19.4916 17.1956C19.8744 17.4004 20.041 17.3824 20.4914 17.0872C20.953 16.7848 21.014 16.6376 20.9094 16.08C20.7906 15.4462 20.8258 15.4052 22.0962 14.6946L23.4056 13.9624L23.7528 14.3892C24.0604 14.7672 24.1742 14.79 24.75 14.5884C25.3002 14.3958 25.4 14.2628 25.4 13.7222C25.4 13.106 25.445 13.0716 26.6828 12.7418C27.3884 12.5538 28.0656 12.4 28.1878 12.4C28.31 12.4 28.4954 12.625 28.6 12.9C28.7192 13.2132 28.9462 13.4 29.2082 13.4C29.4382 13.4 29.8004 13.3068 30.0132 13.193ZM37.2782 15.8822C36.7826 15.714 35.6992 15.4466 34.8708 15.2882C34.0426 15.1296 32.6752 15.0084 31.8324 15.0188C30.9896 15.0292 29.6914 15.1586 28.9476 15.3066C28.2038 15.4546 27.0338 15.7708 26.3476 16.0094C25.6614 16.2478 24.5314 16.7562 23.8364 17.1388C23.1416 17.5216 22.0616 18.2502 21.4364 18.7582C20.8114 19.2662 19.961 20.046 19.5466 20.491C19.1324 20.936 18.391 21.8954 17.8992 22.623C17.4074 23.3508 16.7224 24.6106 16.3768 25.4226C16.0312 26.2348 15.5812 27.7094 15.3768 28.6996C15.1724 29.6898 15.004 31.1446 15.0026 31.9324C15.0012 32.7202 15.1324 34.057 15.2944 34.9032C15.4562 35.7492 15.7832 36.9946 16.021 37.6706C16.2588 38.3468 16.7236 39.395 17.054 40C17.3844 40.605 17.9488 41.505 18.3084 42C18.668 42.495 19.5782 43.4942 20.3312 44.2206C21.084 44.9468 22.195 45.853 22.8 46.2342C23.405 46.6154 24.3494 47.1344 24.8984 47.3874C25.4476 47.6406 26.3974 48.0076 27.0092 48.203C27.621 48.3984 28.8184 48.6706 29.6702 48.8082C30.5928 48.957 31.923 49.01 32.9596 48.9396C33.9168 48.8744 35.3752 48.6458 36.2006 48.4314C37.0258 48.217 38.2408 47.7906 38.9006 47.4836C39.5602 47.1768 40.595 46.6144 41.2 46.234C41.805 45.8536 42.9604 44.9028 43.7674 44.1212C44.5744 43.3396 45.6172 42.115 46.0846 41.4C46.552 40.685 47.1318 39.6678 47.373 39.1396C47.6144 38.6114 47.9494 37.7738 48.1178 37.2782C48.286 36.7826 48.5534 35.6992 48.7118 34.8708C48.8704 34.0426 49 32.7506 49 32C49 31.2494 48.8704 29.9574 48.7118 29.1292C48.5534 28.3008 48.286 27.2174 48.1178 26.7218C47.9494 26.2262 47.6144 25.3886 47.373 24.8604C47.1318 24.3322 46.552 23.315 46.0846 22.6C45.6172 21.885 44.5744 20.6604 43.7674 19.8788C42.9604 19.0972 41.805 18.146 41.2 17.7652C40.595 17.3844 39.6678 16.8738 39.1396 16.6306C38.6114 16.3872 37.7738 16.0506 37.2782 15.8822ZM27.0904 17.3554C27.4256 17.249 28.24 17.0462 28.9 16.9048C29.56 16.7634 30.865 16.637 31.8 16.624C32.735 16.611 34.13 16.7278 34.9 16.8834C35.67 17.0388 36.5744 17.2522 36.9096 17.3576C37.245 17.4628 38.1322 17.8446 38.8814 18.2058C39.6306 18.5672 40.7062 19.2248 41.2718 19.6672C41.8372 20.1096 42.58 20.748 42.922 21.0858C43.2642 21.4236 43.9026 22.1628 44.3406 22.7282C44.7788 23.2938 45.4328 24.3694 45.7942 25.1186C46.1554 25.8678 46.5372 26.755 46.6424 27.0904C46.7478 27.4256 46.9612 28.33 47.1166 29.1C47.2722 29.87 47.3996 31.175 47.3996 32C47.3996 32.825 47.2722 34.13 47.1166 34.9C46.9612 35.67 46.7432 36.5902 46.6324 36.945C46.5216 37.2996 46.147 38.1486 45.8 38.8314C45.4528 39.5144 44.9162 40.4392 44.6074 40.8866C44.2986 41.334 43.6532 42.1132 43.173 42.6184C42.6928 43.1234 41.8372 43.8968 41.2718 44.337C40.7062 44.7772 39.6604 45.4184 38.9478 45.7622C38.235 46.1058 37.2578 46.5186 36.776 46.6792C36.2942 46.8398 35.366 47.0676 34.7132 47.1856C34.0606 47.3036 32.8456 47.3998 32.0132 47.3998C31.181 47.3996 29.87 47.2758 29.1 47.1244C28.33 46.9732 27.1956 46.6568 26.579 46.4212C25.9626 46.1858 24.9714 45.7294 24.3764 45.4072C23.7816 45.085 22.7306 44.3328 22.0412 43.7356C21.3516 43.1386 20.3566 42.1132 19.8302 41.457C19.3036 40.801 18.5892 39.6764 18.2428 38.958C17.8964 38.2396 17.4814 37.2578 17.3208 36.776C17.1602 36.2942 16.9324 35.366 16.8144 34.7132C16.6964 34.0606 16.6002 32.8456 16.6002 32.0132C16.6004 31.181 16.7278 29.87 16.8834 29.1C17.0388 28.33 17.2572 27.4082 17.3686 27.0516C17.48 26.695 17.9024 25.7532 18.3072 24.9588C18.7122 24.1644 19.3708 23.1062 19.7708 22.6072C20.1708 22.1082 20.7686 21.4246 21.0992 21.0878C21.4296 20.7512 22.1628 20.1128 22.7282 19.6692C23.2938 19.2256 24.3694 18.5672 25.1186 18.2058C25.8678 17.8446 26.755 17.4618 27.0904 17.3554ZM34.0342 20.1306C33.7272 19.4368 33.4532 19.144 32.8908 18.909C32.484 18.739 32.0496 18.6036 31.9256 18.6078C31.8016 18.6122 31.4092 18.742 31.054 18.8966C30.6986 19.051 30.2264 19.475 30.0046 19.8386C29.783 20.2024 29.6012 20.707 29.6008 20.96C29.6004 21.2128 29.7394 21.6894 29.9098 22.0188C30.08 22.3482 30.5076 22.7934 30.8598 23.008C31.2118 23.2228 31.7342 23.3988 32.0204 23.3992C32.3066 23.3996 32.8434 23.196 33.2134 22.9468C33.584 22.697 34.0096 22.1682 34.1618 21.7684C34.4106 21.115 34.398 20.953 34.0342 20.1306ZM34.8516 31.6408C34.5296 31.695 34.4954 31.4186 34.4452 28.35C34.4044 25.8546 34.3278 25.0052 34.1452 25.0204C34.0104 25.0316 32.37 25.9262 30.5 27.0082C28.63 28.0904 26.8074 29.162 26.45 29.3898C26.073 29.6298 25.8 29.9708 25.8 30.2018C25.8 30.4482 25.9334 30.5996 26.15 30.5988C26.3426 30.598 26.7578 30.463 27.0728 30.2988C27.388 30.1344 27.7192 30 27.809 30C27.8986 30 28.5554 29.73 29.2684 29.4C29.9814 29.07 30.6654 28.8 30.7886 28.8C30.9444 28.8 30.9952 29.5372 30.9562 31.2286C30.912 33.1396 30.836 33.6922 30.6 33.821C30.435 33.9112 29.4768 34.483 28.4708 35.0918C27.3878 35.747 26.2254 36.6536 25.622 37.314C24.894 38.1106 24.511 38.7442 24.2822 39.5316C24.0802 40.2268 24.012 40.901 24.0976 41.3576C24.1722 41.7556 24.4032 42.4144 24.6108 42.8214C24.8186 43.2284 25.3286 43.8422 25.7442 44.1856C26.1598 44.529 26.8558 44.906 27.2908 45.0236C27.7256 45.1412 28.4456 45.2408 28.8908 45.245C29.3358 45.249 30.0906 45.145 30.5682 45.0136C31.075 44.8742 31.8096 44.4306 32.3334 43.9478C32.827 43.493 33.37 42.8514 33.5404 42.522C33.7106 42.1928 33.9448 41.6482 34.061 41.3116C34.177 40.9752 34.3232 39.1324 34.386 37.2164L34.5 33.7328L35.3 33.2836C35.74 33.0366 37.54 32.0286 39.3 31.0438C42.0516 29.504 42.5088 29.1792 42.5632 28.7266C42.598 28.437 42.5306 28.2 42.4132 28.2C42.2958 28.2 40.6256 28.9608 38.7016 29.8908C36.7776 30.8208 35.045 31.6084 34.8516 31.6408ZM27.25 38.9924C27.557 38.3834 28.1446 37.7666 29.1 37.05C29.87 36.4726 30.6236 36 30.7744 36C30.9926 36 31.0314 36.3588 30.9638 37.75C30.8986 39.0904 30.7552 39.7686 30.3516 40.6474C29.9528 41.5154 29.6546 41.8758 29.1266 42.1276C28.5458 42.4046 28.33 42.4196 27.8402 42.2166C27.5166 42.0826 27.1502 41.7498 27.026 41.477C26.9016 41.2044 26.8 40.7344 26.8 40.433C26.8 40.1314 27.0026 39.4832 27.25 38.9924Z" fill="black"/>
</svg>
