<svg width="64" height="64" viewBox="0 0 64 64" fill="none" xmlns="http://www.w3.org/2000/svg">
<rect width="64" height="64" rx="32" fill="black"/>
<path d="M30.127 32.0012L46.5354 41.4C46.6673 41.4792 46.8179 41.522 46.9717 41.5237C47.1256 41.5255 47.2771 41.4863 47.4108 41.4101C47.5444 41.3339 47.6554 41.2235 47.7322 41.0902C47.8091 40.957 47.8491 40.8056 47.8481 40.6518V23.3376C47.85 23.1835 47.8105 23.0317 47.7337 22.8981C47.6568 22.7645 47.5455 22.654 47.4113 22.5782C47.2771 22.5024 47.125 22.464 46.9709 22.4671C46.8168 22.4703 46.6664 22.5147 46.5354 22.5959L30.127 32.0012Z" fill="white"/>
<path d="M46.1876 18.4347L34.9708 10.1846C34.8546 10.0954 34.7183 10.0362 34.5739 10.0121C34.4295 9.98807 34.2814 9.99991 34.1426 10.0466C34.0038 10.0933 33.8786 10.1734 33.7781 10.2799C33.6776 10.3864 33.6048 10.5159 33.5662 10.6571L29.4707 29.0346L46.0891 19.8459C46.2156 19.7808 46.3231 19.6843 46.4014 19.5655C46.4796 19.4468 46.5259 19.3099 46.5358 19.168C46.5457 19.0262 46.5189 18.8842 46.4579 18.7557C46.3969 18.6273 46.3038 18.5167 46.1876 18.4347Z" fill="white"/>
<path d="M34.9576 53.8113L46.1876 45.5612C46.3053 45.4784 46.3998 45.3668 46.4621 45.237C46.5243 45.1072 46.5521 44.9636 46.5429 44.82C46.5337 44.6763 46.4877 44.5375 46.4094 44.4167C46.3311 44.296 46.2231 44.1974 46.0957 44.1303L29.4707 34.9416L33.5662 53.3191C33.6002 53.4618 33.6691 53.5939 33.7668 53.7035C33.8644 53.8131 33.9878 53.8967 34.1257 53.9468C34.2637 53.9969 34.4119 54.0119 34.5571 53.9906C34.7023 53.9692 34.84 53.9121 34.9576 53.8244" fill="white"/>
<path d="M25.8608 31.6599L30.127 11.7073C30.1596 11.542 30.1421 11.3707 30.0767 11.2153C30.0114 11.06 29.9012 10.9277 29.7602 10.8353C29.6192 10.743 29.4539 10.6948 29.2854 10.697C29.1169 10.6992 28.9529 10.7516 28.8143 10.8475L17.8863 19.2289C17.6096 19.4412 17.3857 19.7146 17.232 20.0276C17.0783 20.3407 16.999 20.6851 17.0003 21.0339V42.2992C16.9949 42.6524 17.0722 43.0019 17.2261 43.3199C17.3799 43.6378 17.606 43.9154 17.8863 44.1303L28.7618 52.4855C28.9004 52.5815 29.0644 52.6339 29.2329 52.636C29.4014 52.6382 29.5667 52.59 29.7077 52.4977C29.8487 52.4053 29.9589 52.273 30.0242 52.1177C30.0896 51.9624 30.1071 51.7911 30.0745 51.6257L25.8608 31.6599Z" fill="white"/>
</svg>
