<svg width="64" height="64" viewBox="0 0 64 64" fill="none" xmlns="http://www.w3.org/2000/svg">
<g clip-path="url(#clip0_20471_177753)">
<path fill-rule="evenodd" clip-rule="evenodd" d="M30.576 0.00535475C30.4881 0.0116588 30.1641 0.0323628 29.8563 0.0513388C11.7592 1.16785 -1.848 17.4825 0.205145 35.6023C2.19336 53.1493 18.062 65.7828 35.6141 63.7925C53.1546 61.8035 65.7833 45.929 63.7938 28.3703C61.9698 12.2726 48.442 0.105099 32.2554 0.00343475C31.4196 -0.00181325 30.6639 -0.000949244 30.576 0.00535475ZM37.6379 18.1258C40.7121 22.9281 43.2268 26.8701 43.2261 26.8859C43.2248 26.9167 32.0867 33.3989 32.0225 33.406C31.941 33.4149 20.8026 26.916 20.8145 26.8663C20.8355 26.7791 31.9794 9.39428 32.0143 9.39428C32.033 9.39428 34.5637 13.3235 37.6379 18.1258ZM31.9268 14.0547C31.8838 14.1226 30.1398 16.8477 28.0512 20.1105C25.9626 23.3731 24.2656 26.0541 24.2801 26.0684C24.4086 26.1949 32.0179 30.5706 32.0653 30.5453C32.2419 30.4507 39.729 26.0893 39.7503 26.0687C39.7708 26.0488 32.1292 14.0595 32.0316 13.9587C32.0169 13.9434 31.9698 13.9866 31.9268 14.0547ZM25.5165 33.4871C29.0595 35.548 31.9763 37.2343 31.9985 37.2343C32.0206 37.2343 34.9379 35.548 38.4812 33.4871C42.0246 31.4262 44.9503 29.733 44.9827 29.7245C45.0299 29.7123 45.1053 29.81 45.3605 30.2157C46.7653 32.4472 47.5223 34.6234 47.8077 37.2503C47.8632 37.7597 47.8633 39.8056 47.808 40.3063C47.0295 47.3553 42.0018 52.9222 35.1662 54.3037C34.0503 54.5293 33.3417 54.5943 31.9995 54.5943C30.6572 54.5943 29.9485 54.5293 28.8326 54.3037C20.1728 52.5536 14.5971 44.0051 16.4883 35.3783C16.8864 33.5628 17.5804 31.8963 18.6383 30.2157C18.8932 29.8109 18.969 29.7123 19.0161 29.7245C19.0483 29.733 21.9736 31.4262 25.5165 33.4871Z" fill="black"/>
</g>
<defs>
<clipPath id="clip0_20471_177753">
<rect width="64" height="64" fill="white"/>
</clipPath>
</defs>
</svg>
