<svg width="64" height="64" viewBox="0 0 64 64" fill="none" xmlns="http://www.w3.org/2000/svg">
<circle cx="32" cy="32" r="32" transform="rotate(180 32 32)" fill="white"/>
<path fill-rule="evenodd" clip-rule="evenodd" d="M32 64C49.6731 64 64 49.6731 64 32C64 14.3269 49.6731 0 32 0C14.3269 0 0 14.3269 0 32C0 49.6731 14.3269 64 32 64ZM24.1125 16H17V23.1125H24.1125V16ZM24.1125 28.4458H17V35.5583H24.1125V28.4458ZM24.1125 40.8875H17V48H24.1125V40.8875ZM36.5542 22.2209H29.4417V29.3333H36.5542V22.2209ZM36.5542 34.6667H29.4417V41.7791H36.5542V34.6667ZM49 28.4458H41.8875V35.5583H49V28.4458Z" fill="black"/>
</svg>
