<svg width="64" height="64" viewBox="0 0 64 64" fill="none" xmlns="http://www.w3.org/2000/svg">
<circle cx="32" cy="32" r="32" transform="rotate(180 32 32)" fill="white"/>
<path fill-rule="evenodd" clip-rule="evenodd" d="M32 64C49.6731 64 64 49.6731 64 32C64 14.3269 49.6731 0 32 0C14.3269 0 0 14.3269 0 32C0 49.6731 14.3269 64 32 64ZM48.4688 34.7546V25.8462H16V44.8352C16 46.5934 17.5239 48 19.282 48H45.304C47.1794 48 48.5862 46.5934 48.5862 44.8352V37.4505H43.3113C41.3186 41.4359 37.0989 44.1319 32.293 44.1319C26.4321 44.1319 21.5093 40.1465 20.3369 34.7546H21.5093H48.4688ZM32.293 41.4359C35.5752 41.4359 38.3882 39.7949 40.1465 37.3333H24.4395C26.0806 39.7949 29.011 41.4359 32.293 41.4359ZM20.3369 32.1758C20.6887 29.8315 22.7986 27.956 25.3772 27.956C27.8389 27.956 29.9487 29.7143 30.3003 32.1758H27.6045C27.2527 31.2381 26.4321 30.5348 25.3772 30.5348C24.3223 30.5348 23.502 31.2381 23.1501 32.1758H20.3369ZM34.1685 32.1758C34.5203 29.8315 36.6301 27.956 39.2087 27.956C41.6704 27.956 43.7803 29.7143 44.249 32.1758H41.4358C41.0842 31.2381 40.2637 30.5348 39.2087 30.5348C38.1538 30.5348 37.3333 31.2381 36.9817 32.1758H34.1685ZM48.4688 19.1648C48.4688 17.4066 46.9451 16 45.1868 16H19.282C17.4065 16 16 17.4066 16 19.1648V23.033H48.4688V19.1648Z" fill="black"/>
</svg>
