<svg width="64" height="64" viewBox="0 0 64 64" fill="none" xmlns="http://www.w3.org/2000/svg">
<rect width="64" height="64" rx="32" fill="black"/>
<path d="M27.5182 28.9385L32 38.7108L38.6567 34.9271H38.6695V27.3552L27.5182 28.9385Z" fill="white"/>
<path d="M47.267 21.6777L43.1129 20.1412L38.6694 19.7837V27.3555V43.3759L45.3347 47.164L50.6507 36.4979L47.2798 26.2361L47.267 21.6777Z" fill="white"/>
<path d="M46.8797 19.7837L45.3347 23.5717V47.1044L52 43.3164V19.7837H46.8797Z" fill="white"/>
<path d="M45.3347 16L38.6694 19.7838L45.3347 23.5718L51.9999 19.7838L45.3347 16Z" fill="white"/>
<path d="M32 31.1393L25.3348 23.7845L12 19.7837V43.3164L18.6652 47.1044L20.5763 34.0803L25.3348 34.9273L32 38.7111V31.1393Z" fill="white"/>
<path d="M18.6652 16L12 19.7838L32 31.1394L35.0219 29.4284L38.6695 27.3556L18.6652 16Z" fill="white"/>
<path d="M18.6653 31.1392V47.1043L25.3348 43.3162V34.9272L18.6653 31.1392Z" fill="white"/>
</svg>
