<svg width="64" height="64" viewBox="0 0 64 64" fill="none" xmlns="http://www.w3.org/2000/svg">
<circle cx="32" cy="32" r="32" transform="rotate(180 32 32)" fill="white"/>
<path fill-rule="evenodd" clip-rule="evenodd" d="M32 64C49.6731 64 64 49.6731 64 32C64 14.3269 49.6731 0 32 0C14.3269 0 0 14.3269 0 32C0 49.6731 14.3269 64 32 64ZM20.3477 42.8969C12.0232 34.0958 16.2375 19.5804 28.0154 16.4873C38.2732 13.7932 48.874 22.6759 47.8894 33.1397C46.5703 47.1584 29.948 53.047 20.3477 42.8969ZM33.269 37.7224C35.8467 34.3431 35.6919 29.3087 32.9031 25.8136C31.9846 24.6623 31.9736 24.6619 31.0642 25.737C28.2754 29.0347 28.0803 34.1729 30.6123 37.6365C31.7915 39.2489 32.0972 39.259 33.269 37.7224Z" fill="black"/>
</svg>
