<svg width="64" height="64" viewBox="0 0 64 64" fill="none" xmlns="http://www.w3.org/2000/svg">
<path d="M32 64C49.6731 64 64 49.6731 64 32C64 14.3269 49.6731 0 32 0C14.3269 0 0 14.3269 0 32C0 49.6731 14.3269 64 32 64Z" fill="black"/>
<path d="M16.2496 41.6V26.5387L27.6715 35.1349V41.6H30.5867V34.528C30.5861 34.2652 30.5247 34.0061 30.4072 33.7711C30.2896 33.536 30.1192 33.3314 29.9093 33.1733L16.0576 22.7445C15.8042 22.5564 15.5037 22.4421 15.1893 22.4145C14.8749 22.3869 14.559 22.447 14.2767 22.5881C13.9945 22.7293 13.7568 22.9459 13.5903 23.214C13.4238 23.4821 13.3348 23.7911 13.3333 24.1067V41.6H16.2496ZM47.8379 41.6V26.5387L36.416 35.1349V41.6H33.5008V34.528C33.5013 34.2652 33.5628 34.0061 33.6803 33.7711C33.7978 33.536 33.9682 33.3314 34.1781 33.1733L48.0299 22.7488C48.2829 22.5608 48.5831 22.4466 48.8971 22.4188C49.2111 22.3911 49.5267 22.4508 49.8088 22.5914C50.091 22.7321 50.3286 22.9481 50.4955 23.2155C50.6624 23.483 50.7519 23.7914 50.7541 24.1067V41.6H47.8379Z" fill="white"/>
</svg>
