<svg width="64" height="65" viewBox="0 0 64 65" fill="none" xmlns="http://www.w3.org/2000/svg">
<circle cx="32" cy="32" r="32" transform="rotate(180 32 32)" fill="white"/>
<path fill-rule="evenodd" clip-rule="evenodd" d="M64 32.0013C64 49.6745 49.6731 64.0013 32 64.0013C14.3269 64.0013 0 49.6745 0 32.0013C0 14.3282 14.3269 0.00134277 32 0.00134277C49.6731 0.00134277 64 14.3282 64 32.0013ZM42.7554 16.0114L51.3452 20.8106C51.4619 20.8778 51.5588 20.9732 51.6262 21.0875C51.6938 21.2018 51.7292 21.3312 51.7297 21.4628V42.2764L42.7554 37.242V16.0114ZM41.7554 15.4527L41.728 15.4374L32.2343 20.7528L41.7554 26.2811V15.4527ZM21.4203 15.63C21.404 15.6378 21.388 15.6463 21.3723 15.6553L12.8059 20.4411L41.7554 36.6811V27.4226L41.7489 27.4337L21.4203 15.63ZM11.7818 21.0132L11.7554 21.028V42.9556C11.7559 43.0873 11.7915 43.2166 11.8589 43.3309C11.9263 43.4452 12.0232 43.5407 12.1401 43.6078L21.7407 48.9718V48.9811L21.749 48.9765L21.7554 48.98V26.6081L11.7818 21.0132ZM22.7554 48.4139L31.2556 43.6626L22.7554 38.9874V48.4139ZM42.3571 48.6271L51.7006 43.4067L22.7554 27.1691V37.8462L42.3571 48.6271Z" fill="black"/>
</svg>
