<svg width="64" height="64" viewBox="0 0 64 64"  fill="none" xmlns="http://www.w3.org/2000/svg"><rect width="64" height="64" rx="32" fill="#000"/><path d="M52.384 39.759V24.236a1.652 1.652 0 0 0-.67-1.367L33.219 9.352a1.658 1.658 0 0 0-1.334-.322c-.288.056-.547.2-.777.373L12.74 22.826a1.717 1.717 0 0 0-.737 1.42c-.004 5.172-.004 10.345 0 15.517-.008.56.282 1.104.743 1.42 6.122 4.472 12.242 8.945 18.362 13.42.585.5 1.504.54 2.109.051 6.146-4.487 12.29-8.977 18.43-13.47.463-.31.763-.864.737-1.425" fill="#fff"/><path d="M30.06 12.733c.163-.184.328-.47.613-.433.971.006 1.944-.015 2.915.01.168.105.297.262.44.396a407.138 407.138 0 0 0 0 3.007c-.288.003-.578.016-.867-.004l-.069-.28c0-.748.065-1.498.002-2.245h-2.139l-.007.757c-.3 0-.602 0-.903-.003.002-.4-.042-.807.016-1.205M27.64 13.956c.328-.013.657-.013.986-.005.005 1.386.01 2.77-.003 4.156-.314.006-.627.006-.939.004-.104-1.38-.02-2.77-.044-4.155M35.99 15.445c.873-.012 1.746-.008 2.62-.002.004.32.004.639 0 .959-.874.009-1.748.012-2.622-.003a47.453 47.453 0 0 1 0-.954M30.69 15.917c.352-.008.705-.007 1.058-.007.337.656.76 1.269 1.035 1.957-.324.015-.649.015-.972.016a78.032 78.032 0 0 1-1.121-1.966M34.29 17.07c.305-.006.61-.005.916 0 .83 1.288 1.637 2.591 2.474 3.876 0 .391 0 .782-.007 1.173l-.358-.063c-.71-1.058-1.363-2.153-2.065-3.216-.011 1.196.004 2.392-.008 3.588-.318.006-.636.006-.955 0-.004-1.785-.01-3.571.003-5.357M38.08 17.796a19.7 19.7 0 0 1 .976.002c.002.306.002.614 0 .92-.325.008-.651.008-.975.002a61.949 61.949 0 0 1 0-.924M22.024 18.098c.256-.004.513-.003.77 0a16.47 16.47 0 0 1 2.051.006c.002.297 0 .595-.002.892-1.012.608-1.985 1.282-3.011 1.863-.303-.115-.534-.357-.78-.559.67-.41 1.328-.84 2.007-1.239-.344-.017-.688-.015-1.031-.018-.006-.316-.007-.63-.004-.945M30.12 18.451c.315-.01.63-.008.943 0 .008.316.008.63 0 .945-.314.01-.628.01-.943.002a20.176 20.176 0 0 1 0-.947M25.506 19.374c.504.763.992 1.537 1.502 2.296.51-.768 1.001-1.548 1.515-2.312 0 .506.033 1.017-.01 1.523-.467.8-1.006 1.554-1.508 2.331-.494-.764-1.018-1.512-1.486-2.291-.053-.513-.015-1.032-.013-1.547M39.444 19.503c1.511-.007 3.023-.006 4.534.001l-.001.92c-1.51.004-3.021.004-4.533.001a76.635 76.635 0 0 1 0-.922M31.445 20.7c.303-.006.608-.006.914-.002.015 1.34 0 2.682.008 4.025-.142.134-.282.271-.42.408-1.048.011-2.095 0-3.141.006-.138-.133-.28-.259-.404-.402-.053-.41-.014-.829-.015-1.242.291-.002.584-.002.877 0 .008.237.007.474.003.71.72.081 1.447.023 2.17.04.004-1.18-.007-2.363.008-3.543M46.055 24.663c-.01-1.012-.01-2.024 0-3.037.317-.007.633-.008.951 0 .01 1.012.01 2.025 0 3.038-.316.006-.633.005-.95 0M41.542 22.39c.599-.006 1.2-.099 1.794-.002.39 1.27.724 2.56 1.112 3.832-.306.002-.614.002-.92.002-.293-.987-.542-1.986-.844-2.97l-.504.005c-.25.994-.552 1.973-.811 2.964l-.925-.001c.38-1.272.735-2.553 1.098-3.83M15.976 22.875c1.378-.008 2.757-.012 4.134 0 .008.317.008.632.002.949-1.38.012-2.759.009-4.138 0-.004-.316-.004-.634.002-.95M20.76 22.876c.313-.002.627-.003.94 0 .008.318.008.637 0 .955-.313.003-.627.002-.94 0a40.843 40.843 0 0 1 0-.953M24.223 22.915c.308-.002.616 0 .924.003.009.736.004 1.474.004 2.21-.312.003-.624.004-.935 0-.003-.736-.012-1.476.007-2.214M48.31 23.576c.354-.006.709-.005 1.063-.006.35.649.776 1.264 1.036 1.958-.322.012-.646.013-.968.014-.382-.652-.745-1.316-1.131-1.966M34.364 24.364c.307-.002.613-.002.92 0 .007 1.01.002 2.018.002 3.028l-.924.003c0-1.01-.002-2.021.002-3.032M37.6 25.591a40.552 40.552 0 0 1 0-.949c.31-.004.62-.004.93.004 0 .316.003.63-.002.946-.309.002-.62 0-.93 0M20.094 26.99c.744-.543 1.537-1.015 2.3-1.528.505.006 1.008 0 1.513.007-.75.536-1.546.999-2.3 1.528.775.487 1.534.997 2.305 1.489-.519.01-1.037.003-1.556.005-.748-.508-1.525-.976-2.262-1.501M46.056 26.11c.318-.007.636-.008.955 0 .008.318.007.634-.002.952-.317.007-.635.006-.951 0a21.802 21.802 0 0 1 0-.95M13.427 26.24c1.587-.01 3.177-.013 4.766.002.004.3.004.602.005.903-.71.465-1.42.933-2.15 1.364-.308-.112-.54-.368-.804-.555.393-.248.792-.489 1.173-.754-.997-.005-1.993.006-2.99-.006a33.012 33.012 0 0 1 0-.954M27.016 27.16c1.375.006 2.75-.006 4.123.006.033.313.029.628-.013.94-1.37.006-2.739.001-4.107.002a93.7 93.7 0 0 1-.003-.947ZM32.036 27.166c.33-.006.66-.006.99.005.002.309.001.616 0 .923-.33.01-.66.01-.99.004-.003-.311-.003-.621 0-.931M36.36 28.496c-.044-.326.29-.493.462-.717.403 0 .807-.002 1.21.006.01.303.01.607.005.913-.255.004-.511.004-.766.008v2.164c1.186.008 2.373-.005 3.56.007.003.307.003.615-.005.92-1.336.009-2.674.001-4.01.004-.17-.222-.497-.39-.456-.714a186.54 186.54 0 0 1 0-2.591M40.858 28.208c.327-.012.657-.012.985 0 .003.313.003.626 0 .94-.329.01-.656.01-.984 0a43.49 43.49 0 0 1 0-.942M43.984 28.208c1.383-.019 2.764-.006 4.147-.007.002.319.002.64-.002.958-1.381 0-2.762.011-4.144-.006-.005-.315-.005-.63 0-.945M24.832 29.311l2.323-.001c.007.322.007.644 0 .966h-2.32a12.081 12.081 0 0 1-.001-.965M29.942 29.31l3.646-.001c.442-.07.884.39.828.825-.003.893-.003 1.787-.001 2.682-.156.168-.312.334-.469.5-.402 0-.803 0-1.206-.004a46.9 46.9 0 0 1-.001-.918l.755-.01c0-.703 0-1.407.002-2.11-1.18-.105-2.37-.017-3.555-.048a48.107 48.107 0 0 1 0-.915M21.375 29.594c.594-.004 1.186-.007 1.78.002.36 1.284.746 2.561 1.086 3.85-.3 0-.598 0-.896.003-.304-.99-.54-2-.854-2.985-.17.01-.34.023-.509.036-.224.992-.546 1.96-.792 2.948-.307 0-.614 0-.92-.003.366-1.284.73-2.57 1.104-3.851M47.283 30.754c1.035-.01 2.071-.021 3.105.003.26.161.555.422.498.766 0 .736-.004 1.474 0 2.21-.009.354.007.708-.003 1.062.016.289-.063.573-.046.863-.295 0-.59 0-.884-.004.003-1.329 0-2.66.002-3.989-.723-.02-1.445-.004-2.167-.01-.002.247-.002.494-.006.742-.304.005-.608.007-.912.005-.006-.407-.005-.815-.004-1.223.14-.14.279-.281.416-.425M17.829 30.79h.961c.003 1.011 0 2.02 0 3.03h-.966c.005-1.01.002-2.02.004-3.03M14.812 31.635c.316-.004.631.005.946.026.003.3.003.599 0 .899-.318.003-.636.004-.954 0-.003-.309-.002-.616.008-.923M26.11 37.171a605.93 605.93 0 0 1-.002-5.359c.314-.004.627-.004.94.002.736 1.187 1.495 2.36 2.247 3.54.324.418.13.98.182 1.466-.11 0-.218.003-.326.005-.677-1.074-1.383-2.13-2.03-3.22-.117 1.185-.021 2.381-.06 3.571-.318.003-.635.003-.952-.005ZM30.285 32.5c.32-.008.638-.008.957-.003.005.78.004 1.561 0 2.342-.32.005-.639.005-.959-.003-.005-.779-.007-1.558 0-2.337M36.068 33.543c.312-.002.625-.003.938 0 .006.318.006.636 0 .954h-.938a40.852 40.852 0 0 1 0-.953M39.11 33.585c.972-.013 1.944-.006 2.917-.004.04.284.064.573.036.861-.092.187-.312.112-.477.13-.828-.025-1.658.047-2.48-.046-.006-.315-.006-.628.004-.941ZM43.032 33.72c.313-.005.63-.026.943.022.03 1.098.012 2.198.007 3.297-.317.006-.633.006-.95 0-.01-1.106-.01-2.212 0-3.319M34.364 34.37c.306 0 .614-.003.92 0 .003.315.004.632 0 .95-.307.004-.613.004-.92 0a65.537 65.537 0 0 1 0-.952M19.617 35.044c1.093-.118 2.196-.024 3.293-.06.283-.003.566.01.847.04.005.318.003.638 0 .957-1.38-.002-2.757.007-4.135-.005-.008-.31-.008-.62-.006-.932M13.428 35.75c.15-.147.3-.294.452-.44.399-.003.798-.004 1.196.004.004.302.004.605.002.906-.248.006-.495.007-.743.01.005.719-.004 1.438.005 2.157 1.175.003 2.35-.008 3.525.006.006.297.006.592.004.89l-.874.002c-1.043-.01-2.087.017-3.128-.013-.174-.099-.35-.261-.428-.445-.028-1.026-.004-2.052-.01-3.078M37.803 36.347c.157-.147.315-.294.476-.438 1.016.008 2.032 0 3.048.004.153.146.306.293.46.438v3.016c-.31.002-.62 0-.928-.008 0-.846-.007-1.69.003-2.536l-2.134-.001c.001.257 0 .515-.006.772-.305.005-.61.005-.914.004-.01-.417-.007-.833-.006-1.25M44.326 38.122c1.127-.734 2.265-1.449 3.402-2.166.271.18.538.371.803.561-.818.522-1.636 1.042-2.452 1.56 1.2.013 2.4 0 3.602.007.003.32.003.64 0 .958-1.784.006-3.568.006-5.352 0a40.925 40.925 0 0 1-.002-.92M31.571 38.304c1.131-.753 2.298-1.45 3.428-2.203.27.185.535.374.809.552-.782.55-1.612 1.029-2.41 1.558 1.194.021 2.388-.002 3.581.013.008.328.008.658 0 .986-1.786.01-3.572.003-5.359.003-.046-.3-.046-.606-.048-.91M19.83 37.492c.497.76.995 1.519 1.486 2.28.526-.752.997-1.541 1.519-2.297.01.511.002 1.024.007 1.536-.52.76-.995 1.552-1.529 2.302-.494-.754-.973-1.518-1.488-2.258-.005-.52-.01-1.043.006-1.563M25.271 39.44c-.011-.325-.012-.65.006-.973.312-.004.626-.003.938.023.007.316.007.633 0 .95-.313.002-.628.003-.943 0M29.693 39.909c.317-.004.635-.005.951 0 .008 1.18 0 2.359.005 3.538-.225.01-.45.02-.675.04l-.288-.051c.007-1.175-.006-2.351.007-3.526M36.245 40.649c.598-.012 1.195-.004 1.792-.007l1.101 3.852c-.308 0-.617 0-.924-.007-.263-.982-.547-1.957-.813-2.937-.167-.01-.334-.017-.501-.025-.276.99-.552 1.98-.826 2.97-.308 0-.616 0-.923-.005.375-1.278.749-2.556 1.094-3.84M22.704 42.776c1.138-.731 2.273-1.466 3.427-2.173.266.187.534.368.797.56-.826.513-1.636 1.054-2.47 1.554 1.209.023 2.419-.004 3.629.014.005.317.006.635-.003.953-1.792.006-3.584.014-5.376-.003a22.018 22.018 0 0 1-.004-.905M32.102 40.837c.334.003.667-.017.997-.06.39.643.852 1.282 1.053 2.015-.312.002-.624.002-.935.005-.367-.657-.739-1.31-1.115-1.96M45.275 41.23c.326-.01.653-.01.98-.004v.937c-.327.009-.653.009-.98-.005-.005-.31-.005-.619 0-.928M42.873 43.725c.394-.634.816-1.25 1.213-1.883.012.47.019.94.007 1.412.011.176-.117.313-.2.455-.436.646-.855 1.305-1.284 1.955-.517-.77-1.016-1.548-1.527-2.323-.002-.515-.007-1.03.006-1.543.5.75.974 1.52 1.487 2.264.145-.062.21-.217.299-.337M18.6 42.813c.835-.028 1.673-.014 2.51-.008.005.31.025.62-.015.93-.83.04-1.664.021-2.495.006-.003-.31-.003-.618 0-.928M28.794 44.835c1.341-.02 2.68 0 4.022-.01l.46.462c-.006 1.024-.004 2.05-.003 3.076-.134.14-.267.282-.399.426-.429.009-.858.01-1.288-.003.006-.29-.031-.586.038-.87.243-.025.486-.016.731-.018.003-.718 0-1.435 0-2.152-1.188-.007-2.376.015-3.563-.011-.004-.3-.004-.6 0-.9M22.354 45.175c.313-.004.626-.003.94.003.005.313.005.627.002.942-.316.004-.63.005-.943 0-.005-.315-.005-.63 0-.945M38.942 45.682c.355-.299.677.2.981.345v.113c-.793.511-1.605.995-2.381 1.533l.45-.003c.239 0 .479.002.72.008.002.313.002.627-.003.94-.977.014-1.953.01-2.93.003-.02-.296-.023-.593-.025-.888 1.042-.713 2.13-1.357 3.187-2.05M24.116 46.552c1.267-.004 2.536-.011 3.804.004.002.312.002.624 0 .937-1.27.019-2.537.01-3.806.005a28.927 28.927 0 0 1 0-.946M27.494 48.96c.357-.003.715-.005 1.072.002.33.658.77 1.263 1.024 1.958-.32.018-.639.018-.959.02-.39-.653-.756-1.322-1.137-1.98ZM33.826 49.96c.312-.003.624.002.934.023.006.312.004.625-.035.936h-.892c-.012-.322-.012-.64-.007-.96M31.651 53.064c0-.729-.016-1.458.012-2.187.314 0 .63.018.943.046.003.714.003 1.427 0 2.141-.319.005-.637.005-.955 0" fill="#000"/></svg>
