<svg width="64" height="64" viewBox="0 0 64 64" fill="none" xmlns="http://www.w3.org/2000/svg"><circle cx="32" cy="32" r="32" transform="rotate(180 32 32)" fill="#fff"/><path fill-rule="evenodd" clip-rule="evenodd" d="M32 64c17.673 0 32-14.327 32-32C64 14.327 49.673 0 32 0 14.327 0 0 14.327 0 32c0 17.673 14.327 32 32 32Zm-1.962-46.93c.214-.418.515-.701.932-.877l.001.002c.39-.165.853-.23 1.264-.177.357.046.827.214 1.044.37.217.157.534.47.703.696.189.25.312.687.32 1.122.005.391-.092.92-.218 1.173a2.552 2.552 0 0 1-.661.779c-.24.175-.793.352-1.23.394-.551.052-.957-.006-1.317-.191a2.507 2.507 0 0 1-.838-.782c-.183-.299-.317-.804-.317-1.204a3.382 3.382 0 0 1 .317-1.305Zm-6.218 2.8a3.98 3.98 0 0 1 .859-.407c.231-.067.601-.084.824-.037.223.047.6.182.837.3.237.119.579.4.76.628.18.227.373.62.429.873.056.254.023.753-.074 1.11-.113.416-.384.817-.76 1.123-.32.262-.828.522-1.13.579-.378.07-.774.003-1.273-.216-.441-.193-.854-.527-1.053-.851-.195-.316-.329-.815-.329-1.224 0-.38.106-.893.235-1.141.128-.248.432-.58.675-.736Zm13.599-.014c.23-.15.653-.322.94-.383.288-.06.714-.06.947.003.232.063.583.199.779.303.195.105.497.42.67.701.183.298.316.803.316 1.203 0 .38-.108.898-.24 1.152-.133.255-.474.626-.759.827-.362.256-.747.366-1.284.366-.592 0-.904-.104-1.367-.454-.33-.25-.701-.695-.826-.99-.124-.296-.225-.739-.225-.984s.142-.678.316-.96c.173-.282.503-.635.733-.784ZM16.565 23.58c.145-.167.555-.436.912-.599v.002c.357-.163.758-.295.892-.295s.552.138.93.308c.396.178.824.532 1.013.84.2.324.327.811.327 1.254 0 .443-.128.93-.328 1.256-.204.33-.614.66-1.079.862-.657.287-.832.305-1.415.135-.365-.108-.867-.383-1.113-.614-.247-.23-.524-.699-.618-1.04-.121-.45-.115-.786.024-1.213.105-.326.31-.73.455-.896Zm13.621.116c.281-.383.685-.707 1.014-.811h-.001c.301-.095.657-.178.79-.185.134-.007.548.123.92.291.374.168.795.483.94.7a3.9 3.9 0 0 1 .405.894c.088.304.082.722-.015 1.073-.089.316-.356.786-.596 1.044-.258.277-.74.547-1.18.66-.649.167-.822.152-1.376-.117-.348-.17-.798-.553-1-.853-.251-.374-.367-.785-.367-1.302 0-.577.11-.907.466-1.394Zm13.506.147c.202-.325.628-.685 1.013-.859h.001c.365-.166.737-.3.826-.302.09-.002.43.07.757.16.33.092.813.411 1.087.72.27.305.54.804.597 1.11.058.307.02.81-.083 1.121-.104.31-.43.776-.727 1.034-.297.257-.804.517-1.126.577-.423.078-.79.02-1.313-.209-.44-.193-.853-.526-1.053-.85-.196-.32-.328-.815-.328-1.238-.001-.442.13-.913.349-1.264Zm-20.066 2.863c.139-.114.527-.303.862-.42.335-.116.792-.17 1.015-.12.223.052.6.19.838.31.238.119.598.445.8.725.251.349.37.751.378 1.276.008.541-.09.9-.33 1.22-.188.25-.577.59-.864.757a2.65 2.65 0 0 1-1.124.304c-.332 0-.84-.123-1.13-.272a2.527 2.527 0 0 1-.845-.785c-.185-.298-.318-.804-.318-1.205 0-.38.105-.892.232-1.137.13-.245.347-.538.486-.653Zm13.52.095c.186-.163.606-.388.936-.5.352-.12.809-.157 1.109-.09.28.063.676.203.88.31.203.108.511.427.684.708.189.308.316.803.316 1.236 0 .433-.126.928-.316 1.237-.175.283-.545.63-.823.773a2.975 2.975 0 0 1-1.113.267 2.84 2.84 0 0 1-1.12-.253c-.28-.144-.694-.531-.92-.86-.226-.328-.41-.8-.41-1.047 0-.248.1-.683.22-.967.122-.284.372-.65.557-.814Zm-7.142 3.912c.162-.322.527-.683.851-.843.312-.154.822-.28 1.135-.28.312 0 .82.127 1.13.28.309.154.698.515.864.801.172.296.303.83.303 1.238 0 .396-.126.93-.279 1.186-.153.258-.469.58-.702.717-.233.136-.69.297-1.015.357-.427.08-.793.022-1.31-.205-.508-.223-.797-.48-.99-.883a3.274 3.274 0 0 1-.27-1.187c0-.34.127-.871.283-1.18Zm-13.193-.143c.118-.211.39-.48.602-.597.214-.117.621-.216.907-.219.286-.003.701.078.924.178.224.1.52.419.657.707.138.288.252.659.25.822 0 .162-.148.536-.328.828-.18.292-.562.629-.85.748-.288.12-.724.179-.97.133-.244-.046-.664-.332-.931-.634-.33-.373-.486-.715-.482-1.066.003-.284.103-.69.221-.9Zm27.102.452c.055-.253.32-.644.589-.867v-.001c.352-.294.672-.406 1.163-.403.395.002.821.12 1.023.281.19.153.426.436.527.629.1.193.181.54.181.771 0 .231-.103.618-.229.86s-.418.54-.648.662c-.23.122-.632.222-.892.222s-.668-.127-.907-.28c-.238-.154-.539-.536-.67-.847-.14-.331-.197-.757-.137-1.027Zm-20.178 2.923c.126-.208.447-.475.715-.593.268-.119.579-.22.693-.222.115-.003.464.1.777.229.395.163.643.414.817.827.228.538.227.656-.013 1.277-.192.499-.417.756-.83.95-.35.166-.744.23-1.024.169-.25-.056-.65-.299-.884-.543-.3-.31-.436-.634-.453-1.08-.015-.349.077-.806.202-1.014Zm13.818-.304c.196-.179.503-.36.68-.403.18-.043.419-.085.533-.095.114-.01.455.084.757.209.302.124.639.391.747.592.108.201.198.645.198.986 0 .46-.117.743-.45 1.087-.248.256-.646.508-.886.56-.24.053-.637.02-.882-.073-.245-.092-.535-.258-.644-.368-.108-.11-.291-.431-.408-.712-.12-.29-.165-.718-.106-.985.057-.26.264-.62.46-.798Zm-20.41 3.142c-.085-.35-.008-.534.386-.924.27-.267.644-.486.834-.486.19 0 .523.178.742.395.246.244.398.58.398.878 0 .29-.142.613-.355.81-.194.18-.551.328-.792.328a1.4 1.4 0 0 1-.774-.282 1.575 1.575 0 0 1-.44-.719Zm27.334-.194c0-.403.115-.64.428-.883.235-.184.547-.333.693-.333.147 0 .434.116.638.257.203.142.439.435.522.652.107.28.083.525-.086.848-.13.249-.354.498-.5.553a2.27 2.27 0 0 1-.654.1c-.216 0-.538-.145-.717-.322-.198-.196-.324-.535-.324-.872Zm-14.202 1.287c.064-.335.302-.72.599-.967l-.002.002c.277-.232.696-.412.956-.412.256 0 .651.07.88.157.23.086.562.394.74.683.178.289.324.707.324.928 0 .22-.142.631-.315.914a1.503 1.503 0 0 1-.899.671c-.321.088-.735.131-.92.096-.186-.035-.5-.17-.697-.298-.198-.129-.453-.456-.566-.727a2.027 2.027 0 0 1-.1-1.047Zm-6.23 1.989c0-.172.145-.458.324-.635.178-.177.52-.322.759-.322.24 0 .605.158.81.35.207.192.376.478.376.635 0 .157-.085.472-.19.699-.104.227-.36.456-.567.507a1.84 1.84 0 0 1-.755 0c-.208-.052-.463-.28-.568-.507-.104-.227-.19-.556-.19-.727Zm13.709-.326c.126-.242.323-.478.436-.523h.001c.114-.044.384-.087.601-.094.217-.007.564.145.77.337.206.192.376.507.376.701 0 .194-.152.542-.337.775-.215.272-.492.422-.77.421-.24-.002-.521-.057-.628-.124-.106-.068-.303-.332-.436-.587-.212-.404-.214-.522-.014-.906ZM17.75 40.79a.712.712 0 0 1 .138-.523.72.72 0 0 1 .48-.233c.157 0 .38.115.498.254.154.185.167.329.043.523-.094.148-.377.268-.636.268-.32 0-.485-.092-.523-.29Zm27.293.04c-.058-.181-.015-.438.096-.57a.638.638 0 0 1 .524-.194.788.788 0 0 1 .487.308c.09.142.117.377.061.522-.063.162-.288.263-.582.263-.342 0-.511-.095-.586-.33Zm-14.35 2.578c0-.153.152-.468.337-.701.251-.318.481-.424.919-.424.32 0 .717.12.88.266.168.15.297.485.297.772 0 .28-.094.635-.21.79-.114.155-.504.321-.866.37-.576.077-.7.032-1.007-.354-.192-.242-.35-.567-.35-.72Zm-6 .657c0-.258.091-.506.203-.55v-.002c.111-.044.252-.086.313-.093.06-.007.225.1.365.24.14.14.254.315.254.39 0 .077-.12.256-.264.4-.145.145-.37.222-.5.173a1.47 1.47 0 0 0-.303-.09c-.037 0-.068-.211-.068-.468Zm13.46-.014c0-.076.114-.252.254-.39.141-.139.317-.252.395-.252.077 0 .254.113.394.252.14.14.254.314.254.39 0 .077-.114.253-.254.391-.141.139-.317.252-.395.252-.077 0-.254-.113-.394-.252-.14-.14-.254-.314-.254-.39Zm-6.811 3.401a.77.77 0 0 1 .195-.476.746.746 0 0 1 .454-.193c.142 0 .346.088.454.193.107.106.194.32.194.476 0 .157-.146.362-.324.456a.618.618 0 0 1-.649 0c-.178-.095-.324-.3-.324-.456Z" fill="#000"/></svg>
