<svg width="64" height="64" viewBox="0 0 64 64" fill="none" xmlns="http://www.w3.org/2000/svg">
<circle cx="32" cy="32" r="32" transform="rotate(180 32 32)" fill="white"/>
<path fill-rule="evenodd" clip-rule="evenodd" d="M64 32C64 49.6731 49.6731 64 32 64C14.3269 64 0 49.6731 0 32C0 14.3269 14.3269 0 32 0C49.6731 0 64 14.3269 64 32ZM29.949 27.2893L32.3494 34.5545L34.7009 27.2893H36.7708V36.6619H35.208V30.1443L33.063 36.6619H31.5793L29.374 30.1518V36.6619H27.9316V27.2893H29.949ZM45.9031 36.7107H44.4905C44.4905 36.7107 44.3704 35.7679 44.3667 35.7754C44.124 36.141 43.7937 36.4402 43.406 36.6455C43.0183 36.8509 42.5852 36.956 42.1465 36.9512C39.4832 36.9512 37.8789 34.8963 37.8789 32.1766C37.8789 29.3216 39.3591 27.124 42.0112 27.124C44.6633 27.124 45.9031 28.7431 45.9031 30.4485H44.3103C44.3103 29.7761 43.5815 28.7431 42.0564 28.7431C40.5312 28.7431 39.5168 29.994 39.5168 32.1653C39.5168 34.1826 40.6702 35.3058 42.0977 35.2983C44.4343 35.2983 44.3779 33.2472 44.3779 33.2472H41.9211V31.6995H45.9031V36.7107ZM22.3494 27.0526C20.1519 27.0526 18.0818 28.8896 18.0818 31.9361C18.0818 35.0503 19.9827 36.97 22.3342 36.97C24.5881 36.97 26.8196 35.1443 26.8196 31.8422C26.8196 28.8257 24.686 27.0526 22.3494 27.0526ZM22.3794 35.2945C20.9255 35.2945 19.7498 34.0248 19.7498 31.9662C19.7498 29.9076 21.0271 28.7318 22.3794 28.7318C23.822 28.7318 25.1404 29.9038 25.1404 31.9023C25.1519 34.0887 23.7693 35.2945 22.3794 35.2945ZM20.8914 48.6312C24.1809 50.8284 28.0481 52.0007 32.0037 52C37.3057 51.993 42.3882 49.8836 46.137 46.1342C49.8855 42.3849 51.9941 37.3018 52 32C52 28.0442 50.8269 24.1773 48.6292 20.8882C46.4314 17.5992 43.3076 15.0357 39.6528 13.5221C35.998 12.0084 31.9766 11.6126 28.0969 12.3846C24.217 13.1566 20.6536 15.0618 17.8564 17.8592C15.0596 20.6566 13.155 24.2206 12.3838 28.1005C11.6125 31.9804 12.0093 36.0018 13.5234 39.6563C15.0378 43.3107 17.6018 46.434 20.8914 48.6312ZM21.4124 16.1443C24.5476 14.0497 28.2334 12.9316 32.0037 12.9316V12.9354C37.0581 12.9414 41.9038 14.9519 45.4778 18.5259C49.052 22.0999 51.0625 26.9456 51.0684 32C51.0676 35.7705 49.949 39.456 47.8535 42.5907C45.7583 45.7254 42.7805 48.1684 39.2969 49.6107C35.8132 51.0531 31.98 51.4301 28.2822 50.6941C24.5842 49.958 21.1875 48.142 18.5217 45.4756C15.856 42.8092 14.0405 39.4123 13.3052 35.7142C12.5698 32.0161 12.9478 28.1831 14.3906 24.6997C15.8337 21.2163 18.2773 18.239 21.4124 16.1443Z" fill="black"/>
</svg>
