<svg width="64" height="64" viewBox="0 0 64 64" fill="none" xmlns="http://www.w3.org/2000/svg">
<circle cx="32" cy="32" r="32" transform="rotate(180 32 32)" fill="white"/>
<path fill-rule="evenodd" clip-rule="evenodd" d="M32 64C49.6731 64 64 49.6731 64 32C64 14.3269 49.6731 0 32 0C14.3269 0 0 14.3269 0 32C0 49.6731 14.3269 64 32 64ZM47.9607 47.574L21.7947 21.51C27.7966 15.45 37.5977 15.607 43.5967 21.672C47.2087 25.332 48.2817 29.886 47.8757 35.332H47.8828L47.9607 47.574ZM16.0166 17L42.0986 43.086C36.0427 49.123 26.2627 48.891 20.2087 42.849C16.5627 39.203 15.8508 34.646 16.0237 29.181H16.0166V17Z" fill="black"/>
</svg>
