<svg width="150" height="150" viewBox="0 0 150 150" fill="none" xmlns="http://www.w3.org/2000/svg">
<circle cx="75" cy="75" r="75" fill="black"/>
<path d="M73.6511 38.4113C73.2349 37.9211 72.8449 37.4506 72.4704 36.9988C71.4941 35.8209 70.623 34.7699 69.6668 33.8259L69.6666 33.8258C67.9892 32.1712 66.0718 31.2951 64.1221 31.2774C62.1706 31.2596 60.2562 32.1024 58.5892 33.7526C47.9913 44.2315 37.4277 54.739 26.9039 65.2864C25.277 66.9145 24.47 68.8638 24.5009 70.8357C24.5317 72.8054 25.3977 74.748 27.0244 76.3699L27.0245 76.37C40.7336 90.0364 54.4488 103.697 68.1926 117.33L68.1926 117.33C69.889 119.013 71.7166 119.973 73.6272 120.079C75.5415 120.185 77.4502 119.429 79.2951 117.856C82.0822 115.48 84.69 112.883 87.2773 110.308C87.8501 109.737 88.4219 109.168 88.9944 108.603C98.6087 99.1099 108.205 89.595 117.799 80.0819C118.985 78.9055 120.171 77.7291 121.358 76.5528L121.006 76.1978L121.358 76.5528C123.084 74.8407 123.995 72.8448 124.012 70.8114C124.029 68.777 123.151 66.771 121.423 65.042L121.422 65.0418C110.881 54.5061 100.324 43.9929 89.7313 33.5082C88.0292 31.8232 86.0036 30.9714 83.9476 30.9883C81.893 31.0051 79.8589 31.8889 78.1351 33.5805L78.1347 33.5809C77.122 34.5772 76.1644 35.6369 75.033 36.8889C74.6018 37.3661 74.1454 37.8712 73.6511 38.4113ZM63.567 90.2555L63.5674 90.2551C66.2402 87.461 68.9758 84.724 71.6347 82.064C72.2308 81.4676 72.823 80.8751 73.4098 80.2867C76.6299 83.5093 79.6937 86.5728 82.6274 89.5062C83.1313 90.0101 83.6314 90.5101 84.1278 91.0065C80.7752 94.3642 77.2674 97.8764 73.4625 101.674C72.8697 101.077 72.2723 100.476 71.6718 99.8726C68.9568 97.1427 66.178 94.3489 63.4623 91.4941C63.4632 91.4935 63.4391 91.4552 63.4187 91.3474C63.3963 91.2293 63.3877 91.0767 63.3976 90.9126C63.4074 90.749 63.4345 90.5912 63.4733 90.4632C63.4925 90.3996 63.5129 90.349 63.5321 90.3114C63.5415 90.2929 63.5498 90.2791 63.5564 90.2695C63.5596 90.2647 63.5623 90.2612 63.5641 90.2589C63.566 90.2565 63.567 90.2555 63.567 90.2555ZM62.0059 68.1157C62.6359 68.6494 63.3059 69.217 64.0233 69.8606C63.397 70.3759 62.7944 70.8695 62.21 71.3482C60.6196 72.651 59.164 73.8434 57.732 75.061L57.7316 75.0614C57.212 75.5043 56.7065 76.0262 56.2182 76.5483C56.0843 76.6914 55.9522 76.834 55.8211 76.9755C55.4675 77.3572 55.122 77.7301 54.773 78.0798C54.2961 78.5576 53.8363 78.9671 53.384 79.2626C52.9319 79.5579 52.5142 79.7215 52.1173 79.7445C51.8247 79.7614 51.4736 79.6483 51.0502 79.3748C50.6301 79.1033 50.1855 78.7043 49.7187 78.2254C49.2869 77.7825 48.8529 77.2891 48.4133 76.7893C48.379 76.7503 48.3446 76.7112 48.3103 76.6722C47.8402 76.138 47.3627 75.5998 46.895 75.1416L46.8948 75.1415C45.6845 73.957 44.8086 73.0959 44.2305 72.3849C43.65 71.6708 43.4418 71.1916 43.4408 70.7748C43.4398 70.3576 43.6459 69.877 44.2213 69.159C44.7941 68.4442 45.6618 67.5779 46.858 66.386L46.8581 66.3859C48.9229 64.3271 50.9951 62.2714 53.0173 60.2653C53.7989 59.4899 54.5731 58.7218 55.3365 57.9639C55.5693 58.5478 55.7794 59.1141 55.9859 59.6704C56.1571 60.1318 56.3257 60.5863 56.5026 61.0381C56.9665 62.2231 57.4725 63.3476 58.1857 64.3449C58.9146 65.3659 59.8289 66.2381 60.8757 67.1498C61.2382 67.4654 61.6143 67.784 62.0059 68.1157ZM95.8908 79.3118C92.4482 75.9286 88.9064 72.4463 85.1698 68.7652C85.754 68.013 86.4581 67.3202 87.2031 66.6176C87.3346 66.4936 87.4676 66.3691 87.6013 66.2439C88.3267 65.5649 89.0744 64.865 89.7265 64.1098C90.5045 63.209 91.1716 62.2029 91.5392 61.0002C91.7836 60.2007 91.8912 59.3287 91.8222 58.3607C96.2803 62.8232 100.375 66.9241 104.307 70.8624C101.566 73.616 98.6552 76.5391 95.8908 79.3118Z" fill="white" stroke="black"/>
<path d="M79.8732 32.3698C82.9877 29.2289 88.0588 29.2074 91.1998 32.3219L122.63 63.4872C125.771 66.6017 125.792 71.6728 122.678 74.8138L121.672 75.8288C118.557 78.9697 113.486 78.9912 110.345 75.8767L73.2275 39.072L79.8732 32.3698Z" fill="white"/>
<path d="M119.542 64.6C116.427 61.4591 111.356 61.4376 108.215 64.5521L67.6302 104.795C64.2089 108.188 64.1855 113.711 67.5779 117.132C70.9703 120.554 76.4939 120.577 79.9152 117.184L120.5 76.9416C123.642 73.8271 123.662 68.756 120.548 65.615L119.542 64.6Z" fill="white"/>
<path d="M65.3639 46.7639L52.2754 59.7423L84.2547 91.9934C87.3692 95.1344 92.4403 95.1559 95.5812 92.0413L97.2953 90.3417C100.436 87.2272 100.458 82.1561 97.3433 79.0152L65.3639 46.7639Z" fill="white"/>
<path fill-rule="evenodd" clip-rule="evenodd" d="M62.2132 25.2992L104.401 68.2367L102.974 69.6384L60.7866 26.7009L62.2132 25.2992Z" fill="black"/>
<path fill-rule="evenodd" clip-rule="evenodd" d="M66.494 46.0918L96.701 75.7869L95.299 77.2131L66.506 48.9082L54.9082 60.506L83.2131 89.299L81.7869 90.701L52.0918 60.494L66.494 46.0918Z" fill="black"/>
</svg>
