<svg width="64" height="64" viewBox="0 0 64 64" fill="none" xmlns="http://www.w3.org/2000/svg">
<g clip-path="url(#clip0_20981_177520)">
<circle cx="32" cy="32" r="32" transform="rotate(180 32 32)" fill="white"/>
<path fill-rule="evenodd" clip-rule="evenodd" d="M27.3365 0.385218C1.15719 4.53715 -9.2577 36.725 9.68071 54.9507C25.6354 70.3045 51.6612 65.4647 61.0642 45.3948C71.6268 22.8499 51.8767 -3.50701 27.3365 0.385218ZM33.5828 18.5669C39.1149 22.0141 44.0574 25.0904 44.5664 25.4034L45.4913 25.9724L44.3877 26.4324C43.7809 26.6857 41.7517 27.8528 39.8787 29.0263C36.8137 30.9464 36.3997 31.121 35.7411 30.7703C33.5841 29.6218 19.5326 20.7072 18.7793 20.0091C15.7643 17.2154 17.8513 12.3376 22.0736 12.3092C23.4105 12.3002 24.3108 12.7897 33.5828 18.5669ZM22.179 24.1046L26.5372 26.8163L26.5359 37.8241C26.5346 50.1249 26.5155 50.2385 24.2334 51.4205C22.0013 52.5772 19.6966 51.9795 18.0849 49.8262C17.3702 48.8713 16.8289 21.0148 17.5306 21.282C17.6902 21.3431 19.7819 22.6132 22.179 24.1046ZM49.0844 28.2578C52.8607 30.5869 51.8367 34.167 46.4076 37.6148C39.9147 41.7381 28.6725 48.7319 28.3176 48.8685C28.0795 48.96 28.0244 47.3359 28.1358 43.5123L28.2956 38.0248L36.6077 32.8251C45.8257 27.0584 46.6505 26.7566 49.0844 28.2578Z" fill="black"/>
</g>
<defs>
<clipPath id="clip0_20981_177520">
<rect width="64" height="64" fill="white"/>
</clipPath>
</defs>
</svg>
