<svg width="64" height="64" viewBox="0 0 64 64" fill="none" xmlns="http://www.w3.org/2000/svg">
<circle cx="32" cy="32" r="32" transform="rotate(180 32 32)" fill="white"/>
<path fill-rule="evenodd" clip-rule="evenodd" d="M32 64C49.6731 64 64 49.6731 64 32C64 14.3269 49.6731 0 32 0C14.3269 0 0 14.3269 0 32C0 49.6731 14.3269 64 32 64ZM22.9111 14.0799C24.2036 13.4456 26.1042 12.7236 27.134 12.4746C28.1638 12.2257 30.2732 12.0117 31.8223 12.0004C33.3699 11.9892 35.552 12.1944 36.6707 12.4571C37.7893 12.7199 39.7598 13.4518 41.0498 14.0837C42.8252 14.9533 44.0464 15.8817 46.0659 17.9023C48.0854 19.923 49.0149 21.1429 49.8845 22.9184C50.5176 24.2084 51.2646 26.2491 51.5474 27.454C51.9165 29.0305 52.0215 30.562 51.9216 32.928C51.8176 35.3903 51.5813 36.7842 50.9768 38.4983C50.5339 39.7558 49.5754 41.6964 48.8499 42.8112C48.124 43.926 46.5664 45.7302 45.3889 46.82C44.1304 47.9862 42.3135 49.2636 40.9761 49.923C39.7261 50.5399 37.7893 51.2593 36.6707 51.522C35.552 51.7848 33.4414 52 31.9788 52C30.5161 52 28.4314 51.791 27.3455 51.5346C26.2595 51.2781 24.5378 50.655 23.5181 50.1495C22.4995 49.644 21.0657 48.8157 20.3313 48.3102C19.5967 47.8047 18.2905 46.6349 17.426 45.7115C16.5627 44.7881 15.3877 43.2954 14.8159 42.3946C14.2441 41.4937 13.4158 39.7345 12.9753 38.4846C12.3774 36.7854 12.1396 35.3853 12.0359 32.928C11.9358 30.5632 12.0408 29.0318 12.4099 27.454C12.6926 26.2503 13.4409 24.2084 14.0728 22.9184C14.9424 21.1429 15.8708 19.923 17.8914 17.9023C19.9121 15.8817 21.1333 14.952 22.9111 14.0799ZM40.3416 15.7315C38.9253 15.0333 36.7795 14.2564 35.5759 14.0036L35.5747 14.0049C34.3708 13.7521 32.6807 13.5557 31.821 13.5657C30.9614 13.5757 29.3611 13.7796 28.2651 14.0174C27.1689 14.2551 25.3411 14.887 24.2024 15.4187C23.064 15.9505 21.3936 16.9439 20.4915 17.6258C19.5894 18.3077 18.2957 19.6015 17.6162 20.5011C16.9368 21.4019 15.9609 22.9847 15.4478 24.0195C14.9348 25.0542 14.2905 26.9835 14.0178 28.3073C13.7449 29.6311 13.5234 31.3189 13.5259 32.0572C13.5298 32.7954 13.7388 34.3856 13.9902 35.5893C14.2417 36.7929 15.02 38.9375 15.718 40.3551C16.6113 42.1668 17.575 43.5181 18.9636 44.907C20.1287 46.0718 21.824 47.3455 23.0952 48.0112C24.2812 48.6318 26.0967 49.3913 27.1289 49.6978C28.3552 50.0619 30.0369 50.2558 31.9773 50.2558C33.918 50.2558 35.5996 50.0619 36.8257 49.6978C37.8582 49.3913 39.6736 48.6318 40.8596 48.0112C42.1133 47.3543 43.8237 46.0756 44.9424 44.9558C46.0608 43.8359 47.3408 42.1255 47.9978 40.8731C48.6184 39.687 49.3779 37.8715 49.6843 36.8392C50.0486 35.6131 50.2424 33.9314 50.2424 31.9908C50.2424 30.0502 50.0486 28.3686 49.6843 27.1424C49.3779 26.1102 48.6184 24.2947 47.9978 23.1086C47.332 21.8374 46.0583 20.142 44.8936 18.9771C43.5046 17.5883 42.1533 16.6249 40.3416 15.7315ZM21.6714 23.0998L22.3545 22.3716L23.0376 21.6447L30.8738 29.4809L29.4724 30.8823L21.6714 23.0998ZM32.897 29.6724L36.8896 25.671L40.8821 21.6685L42.4487 23.2362L34.5037 31.1813L32.897 29.6724ZM30.4121 31.8782L31.1016 31.1438L31.1028 31.145L31.7922 30.4106L33.3713 31.9896L31.9949 33.3659L30.4121 31.8782ZM32.9321 34.3606L33.614 33.6349L34.2959 32.9092L42.2861 40.8819L40.9221 42.3332L32.9321 34.3606ZM21.6362 40.9344L25.4736 37.0882L25.4749 37.0895C27.5857 34.9737 29.3962 33.2433 29.4976 33.2433C29.5989 33.2433 29.9841 33.5648 30.3545 33.959L31.0266 34.6747L23.2402 42.4408L21.6362 40.9344Z" fill="black"/>
</svg>
