<svg width="64" height="64" viewBox="0 0 64 64" fill="none" xmlns="http://www.w3.org/2000/svg">
<path fill-rule="evenodd" clip-rule="evenodd" d="M24.2534 63.0426C41.3984 67.3176 58.7615 56.8846 63.0354 39.7416C67.3096 22.5976 56.8774 5.23161 39.7334 0.957591C22.5935 -3.3164 5.23047 7.11759 0.958502 24.2626C-3.31762 41.4046 7.11548 58.7686 24.2534 63.0426ZM22.3242 14.5195L25.6267 13.2752V13.2727C27.4426 12.5886 29.0044 12.0171 29.0945 12.0021C29.1846 11.9871 29.5547 12.0871 29.9148 12.2247C30.2752 12.3623 31.4331 13.3127 32.4898 14.3394C33.5464 15.3661 35.1409 17.0756 36.0339 18.1385C36.9268 19.2015 38.0535 20.5646 38.5361 21.1673L39.4141 22.264L36.1577 24.2512C34.367 25.3442 32.8062 26.2645 32.6899 26.2971C32.5735 26.3296 30.1939 23.6922 27.4014 20.437L22.3242 14.5195ZM41.1172 18.3799C41.4124 17.4495 41.6987 16.5453 41.7539 16.3703H41.7576C41.8337 16.1289 42.1065 16.1877 42.8806 16.6116C43.4434 16.9192 44.3762 17.6396 44.9551 18.211C45.5342 18.7825 46.2795 19.8468 46.6135 20.5746C47.0698 21.5725 47.2188 22.2991 47.2175 23.5221C47.2161 24.415 47.0974 25.4542 46.9524 25.8306C46.8086 26.207 46.7422 26.5997 46.8071 26.7048C46.8723 26.8098 47.5664 26.9674 48.3503 27.0561C49.2295 27.1549 49.9172 27.3763 50.1423 27.6314C50.3801 27.9002 50.5989 28.997 50.7691 30.7615C50.9116 32.2547 50.959 33.669 50.8728 33.9029C50.7864 34.1367 50.6077 34.4018 50.4727 34.4906C50.3377 34.5794 49.6172 34.7245 48.8694 34.8108L47.51 34.9683L48.0603 36.0976C48.363 36.7191 48.7293 37.9884 48.8743 38.9188C49.0195 39.8492 49.0745 40.9472 48.9983 41.3586C48.917 41.7951 48.1929 42.883 47.2625 43.9697C45.9419 45.5116 45.5579 45.8205 45.044 45.7593C44.5176 45.6967 44.1887 45.239 42.9031 42.7855C42.0676 41.191 41.3836 39.8317 41.3823 39.7654C41.3811 39.6991 42.6941 38.6124 44.3013 37.3493L47.2212 35.0534L47.0723 32.7574C47.0212 31.9754 46.9509 30.9666 46.8855 30.073C46.8452 29.5234 46.8069 29.0173 46.7759 28.6343L46.6284 26.8073L43.2544 24.6726C41.3987 23.4984 39.8279 22.4004 39.7642 22.2341C39.7004 22.0677 39.8579 21.5125 40.1143 21.001C40.3721 20.4895 40.8223 19.3103 41.1172 18.3799ZM14.3557 28.0178C14.6782 27.6952 16.1653 27.5251 22.5642 27.0787L22.563 27.0824C26.8611 26.7823 30.8391 26.5247 31.4043 26.5084C32.271 26.4847 32.4309 26.5534 32.4309 26.9511C32.4309 27.21 32.5999 29.3497 32.8062 31.7069C33.0125 34.0629 33.2202 36.0538 33.2676 36.1288C33.3152 36.2039 35.1084 37.0267 37.2544 37.9559C40.2544 39.2552 41.1323 39.7341 41.0547 40.0318C40.9998 40.2444 39.5928 42.4753 37.9285 44.9877C36.2639 47.5 34.5107 50.0074 34.0317 50.5588C33.374 51.3154 32.8762 51.6293 31.9959 51.8406C31.1492 52.0445 30.2888 52.052 28.8482 51.8719C27.7578 51.7344 26.6497 51.508 26.386 51.3667C26.1221 51.2254 25.907 51.004 25.907 50.8752C25.907 50.7464 27.5252 47.4062 29.5022 43.4533L33.0977 36.2651H24.2124C15.9663 36.2651 15.291 36.2339 14.8408 35.8262C14.4695 35.4898 14.3193 34.9508 14.1992 33.5302C14.113 32.5085 14.0242 30.9391 14.0017 30.0424C13.9717 28.8169 14.0593 28.3142 14.3557 28.0178Z" fill="black"/>
</svg>
