<svg width="64" height="65" viewBox="0 0 64 65" fill="none" xmlns="http://www.w3.org/2000/svg">
<circle cx="32" cy="32" r="32" transform="rotate(180 32 32)" fill="white"/>
<path fill-rule="evenodd" clip-rule="evenodd" d="M32 64.0013C49.6731 64.0013 64 49.6745 64 32.0013C64 14.3282 49.6731 0.00134277 32 0.00134277C14.3269 0.00134277 0 14.3282 0 32.0013C0 49.6745 14.3269 64.0013 32 64.0013ZM32.0002 13.4363V12.0013C35.9558 12.0013 39.8226 13.1743 43.1116 15.3719C46.4006 17.5696 48.964 20.6931 50.4778 24.3477C51.9915 28.0022 52.3876 32.0235 51.6159 35.9031C50.8442 39.7828 48.9393 43.3464 46.1423 46.1435C43.3452 48.9405 39.7816 50.8453 35.902 51.617C32.0223 52.3887 28.001 51.9927 24.3465 50.4789C20.692 48.9652 17.5684 46.4017 15.3708 43.1127C13.1731 39.8238 12.0002 35.957 12.0002 32.0013C11.9824 27.6762 13.3832 23.4644 15.9878 20.0114C15.4641 19.3198 15.2153 18.4586 15.2893 17.5943C15.3634 16.73 15.7551 15.9237 16.3888 15.3313C17.0225 14.7388 17.8532 14.4021 18.7206 14.3863C19.5879 14.3705 20.4304 14.6766 21.0853 15.2456C21.7402 15.8145 22.161 16.606 22.2665 17.467C22.3721 18.3281 22.1548 19.1977 21.6567 19.908C21.1586 20.6182 20.415 21.1188 19.5695 21.3129C18.7239 21.507 17.8365 21.3809 17.0785 20.959C14.7003 24.1481 13.4217 28.0231 13.4351 32.0013C13.4351 35.6732 14.5239 39.2625 16.5639 42.3155C18.6038 45.3685 21.5033 47.7481 24.8956 49.1532C28.2879 50.5584 32.0208 50.926 35.622 50.2097C39.2233 49.4933 42.5313 47.7252 45.1277 45.1288C47.724 42.5325 49.4922 39.2245 50.2085 35.6232C50.9248 32.0219 50.5572 28.2891 49.1521 24.8968C47.7469 21.5045 45.3674 18.605 42.3144 16.565C39.2614 14.5251 35.672 13.4363 32.0002 13.4363ZM19.8777 16.1894C19.54 15.9647 19.1433 15.8451 18.7377 15.8459C18.1951 15.8479 17.6752 16.0647 17.2919 16.4487C16.9085 16.8328 16.6927 17.3531 16.6917 17.8958C16.6917 18.3013 16.812 18.6978 17.0375 19.035C17.2629 19.3722 17.5832 19.6349 17.958 19.79C18.3328 19.945 18.7452 19.9854 19.1429 19.906C19.5407 19.8266 19.9059 19.6309 20.1925 19.3439C20.479 19.0568 20.6739 18.6912 20.7526 18.2933C20.8312 17.8954 20.7901 17.4831 20.6343 17.1086C20.4786 16.7341 20.2153 16.4142 19.8777 16.1894ZM41.1551 32.0013C41.1551 37.0574 37.0563 41.1562 32.0002 41.1562C26.944 41.1562 22.8453 37.0574 22.8453 32.0013C22.8453 26.9452 26.944 22.8464 32.0002 22.8464C37.0563 22.8464 41.1551 26.9452 41.1551 32.0013Z" fill="black"/>
</svg>
