<svg width="64" height="64" viewBox="0 0 64 64" fill="none" xmlns="http://www.w3.org/2000/svg">
<path fill-rule="evenodd" clip-rule="evenodd" d="M32 64C49.672 64 64 49.672 64 32C64 14.328 49.672 0 32 0C14.326 0 0 14.326 0 32C0 49.674 14.326 64 32 64ZM50.2999 16.184C49.8439 20.946 46.1639 32.236 35.0939 39.292L33.4479 45.488L27.6519 49.428L25.9299 43.038C25.4039 43.11 23.9859 43.05 22.5279 42.232L20.1939 44.206L18.1419 41.778L20.4759 39.804C20.0839 38.962 19.5539 36.934 20.5699 35.56C19.2379 34.894 16.1099 33.568 14.7119 32.988L19.5599 27.928L25.7059 27.054C29.4379 22.884 39.5819 14.872 50.2999 16.184ZM33.9619 30.402C35.0739 31.718 37.0439 31.882 38.3599 30.77C39.6759 29.658 39.8399 27.688 38.7279 26.372C37.6159 25.056 35.6459 24.892 34.3299 26.004C33.0139 27.116 32.8499 29.086 33.9619 30.402ZM14.126 44.646L6.37598 50.736L8.35198 53.252L16.102 47.162L14.126 44.646ZM4.8501 44.646L12.6001 38.556L14.5761 41.072L6.8261 47.162L4.8501 44.646ZM20.3501 48.522L12.6001 54.612L14.5761 57.128L22.3261 51.038L20.3501 48.522Z" fill="black"/>
</svg>
