<svg width="64" height="64" viewBox="0 0 64 64" fill="none" xmlns="http://www.w3.org/2000/svg"><path d="M32 64c17.673 0 32-14.327 32-32C64 14.327 49.673 0 32 0 14.327 0 0 14.327 0 32c0 17.673 14.327 32 32 32Z" fill="#fff"/><path fill-rule="evenodd" clip-rule="evenodd" d="M64 32C64 14.327 49.673 0 32 0 14.327 0 0 14.327 0 32c0 17.673 14.327 32 32 32 17.673 0 32-14.327 32-32Zm-12.344 4.363-.157-.011a15.59 15.59 0 0 0 .157.01Zm.46-.864c-.153-1.604-.428-3.068-.851-4.477-.47-1.842-1.174-3.568-2.163-5.356l.105.191a77.545 77.545 0 0 0 1.828-6.591l.015.015.111.148c.192.258.703 1.027.932 1.397a23.281 23.281 0 0 1 2.433 5.436 23.077 23.077 0 0 1-.34 14.014 23.092 23.092 0 0 1-4.142 7.262 25.744 25.744 0 0 1-3.239 3.173 23.897 23.897 0 0 1-9.34 4.607c-3.772.91-7.706.91-11.478 0a23.847 23.847 0 0 1-9.34-4.607 25.744 25.744 0 0 1-3.239-3.173 22.824 22.824 0 0 1-4.141-22.245 24.164 24.164 0 0 1 1.886-4.067c.347-.592.776-1.258.983-1.531a76.39 76.39 0 0 0 1.707 6.098c-1.62 3.337-2.533 6.562-2.807 9.967-.013.171-.025.343-.036.515l.143-.02c-.023.247-.041.495-.057.745 0 .022-.002.046-.004.07a.914.914 0 0 0-.003.07c-.06 1.073-.03 1.583.148 2.256.554 2.108 2.262 4.43 4.94 6.707 4.385 3.727 10.33 6.42 14.834 6.73 4.697.318 11.626-2.426 16.24-6.434a23.196 23.196 0 0 0 2.042-2.048c.458-.533 1.139-1.45 1.087-1.45-.015 0 0-.015.03-.03.022-.014.044-.036.029-.051-.008-.008.007-.03.03-.037.022-.008.036-.022.03-.037-.008-.015 0-.03.029-.037.022-.008.03-.03.022-.045-.008-.014 0-.03.015-.03.014 0 .03-.021.03-.036 0-.015.014-.037.029-.037.015 0 .03-.015.03-.03a.777.777 0 0 1 .096-.17c.11-.17.554-.961.613-1.094.422-.954.688-1.805.814-2.655.059-.407.096-1.154.066-1.331-.004-.018-.006-.045-.008-.082a3.2 3.2 0 0 0-.006-.08c-.01-.09-.016-.207-.022-.335l-.015-.258a25.016 25.016 0 0 0-.067-1.028ZM21.257 11.945a30.517 30.517 0 0 1 2.8 3.337l.002-.001a3.47 3.47 0 0 0 .204-.074c1.843-.65 3.465-.97 5.58-1.112.701-.045 2.847-.045 3.422 0 1.91.127 3.804.5 5.633 1.105l.317.104a30.643 30.643 0 0 1 2.786-3.44 24.212 24.212 0 0 0-20.743.08Zm29.562 6.428Zm-35.154 3.846c0-.002.002-.004.003-.005 1.32-2.125 2.937-3.664 4.223-4.663-1.287 1-2.906 2.54-4.226 4.668Zm6.293-6.356Zm4.708 16.29.405-.293-.006-.009c.163.213.295.462.38.684.042.113.077.233.096.35a.813.813 0 0 1-.044.454l-.004.01-.005.009a.653.653 0 0 1-.128.174c1.265-.635 2.77-1.054 4.54-1.054 1.618 0 2.964.35 4.078.897a.69.69 0 0 1-.05-.111c-.084-.235-.023-.468.012-.596.2-.722.808-1.419 1.625-2.02h.001c.423-.31 2.059-1.315 2.817-1.736 1.247-.692 2.317-1.141 3.09-1.252h.001c.126-.018.265-.029.39-.03.062 0 .129.001.192.008.049.005.14.017.233.056a.738.738 0 0 1 .325.29c.06.093.108.2.146.303.077.209.136.466.17.736v.004c.019.166.021.545.017.873-.003.172-.007.344-.014.488-.005.13-.014.274-.03.365a.693.693 0 0 1-.08.213 1.165 1.165 0 0 1-.087.13 2.583 2.583 0 0 1-.203.234c-.151.156-.344.328-.538.475l-.003.002c-1.1.815-3.002 1.537-4.895 1.881-.55.101-1.102.16-1.564.173a5.034 5.034 0 0 1-.745-.03 9.071 9.071 0 0 1 2.465 2.363 11.28 11.28 0 0 1 1.507 2.947 16.088 16.088 0 0 1 10.706-3.297l-.001-.014v-.01a25.072 25.072 0 0 0-.065-1.012v-.001c-.31-3.317-1.144-6.018-2.73-8.888a3.244 3.244 0 0 1-.176-.338.736.736 0 0 1-.026-.052l-.008-.018-.088-.18.065-.197a78.244 78.244 0 0 0 1.896-6.873c.502-2.242.907-4.648.947-6.677.02-1.015-.05-1.913-.235-2.64-.165-.647-.41-1.121-.724-1.43-.085.003-.204.01-.354.028a7.34 7.34 0 0 0-1.557.382c-1.341.474-3.262 1.496-5.483 3.7a30.249 30.249 0 0 0-3.305 3.971l-.212.305-.667-.22a22.276 22.276 0 0 0-5.51-1.081h-.006c-.548-.043-2.668-.044-3.351 0-2.072.139-3.647.45-5.44 1.082-.082.033-.156.058-.218.079l-.349.117-.215-.296a29.775 29.775 0 0 0-3.414-3.942c-2.313-2.218-4.311-3.245-5.71-3.722a7.847 7.847 0 0 0-1.622-.383 4.424 4.424 0 0 0-.382-.028c-.341.322-.603.82-.777 1.502-.194.757-.266 1.693-.24 2.75.05 2.113.487 4.616 1.022 6.933a77.605 77.605 0 0 0 1.89 6.725l.06.183-.075.177a2.228 2.228 0 0 1-.098.201c-1.59 3.266-2.488 6.41-2.767 9.722 2.232-.227 6.809-.161 10.503 3.423a13.79 13.79 0 0 1 1.98-2.966 11.305 11.305 0 0 1 2.85-2.362 1.992 1.992 0 0 1-.275.061c-.174.026-.47.028-.743.02a9.778 9.778 0 0 1-.841-.055l-.007-.001c-1.608-.215-3.32-.714-4.584-1.339-.71-.351-1.248-.717-1.66-1.134l-.006-.006-.33-.347-.037-.466c-.02-.265-.028-.598-.023-.9.005-.28.02-.582.06-.776.047-.29.148-.565.282-.81l.02-.036.027-.034.001-.002c.01-.012.052-.067.107-.113a.6.6 0 0 1 .255-.127.933.933 0 0 1 .181-.02c.046-.002.102-.002.163-.002h.006c.393 0 .72.067 1.189.217.967.303 2.359 1.017 4.007 2.02 1.352.818 1.944 1.266 2.4 1.907l-.007-.008-.393.31Zm14.448-16.03Zm-.108-.057Zm7.89-5.987-.052-.503.283-.029.17.232c.39.536.626 1.199.752 1.92v.003c.364 2.11-.159 4.949-.739 7.196a44.278 44.278 0 0 1-1.23 3.962l-.024.062-.006.016-.002.006-.465-.182.465.182-.381 1-.519-.935a17.22 17.22 0 0 0-4.23-5.037l-.014-.008-.041-.033a15.577 15.577 0 0 0-1.5-1.076 10.33 10.33 0 0 0-.546-.32l-.027-.015-.007-.003-.575-.291.422-.491c2.467-2.872 4.481-4.409 5.901-5.229.71-.41 1.27-.64 1.663-.77a4.5 4.5 0 0 1 .59-.151 1.752 1.752 0 0 1 .038-.006l.013-.002H48.845l.051.502Zm-11.462 34.9c.111-.421.2-.776.2-.798 0-.023-.192-.037-.828-.008h-.85l-.09.133c-.073.126-.088.133-.162.119a23.428 23.428 0 0 0-1.072-.015h-.991l-.215-.333-.222-.333-.162-.015-.163-.014-.007-.777-.008-.776.178-.067c.614-.214 1.286-.688 1.656-1.161.185-.259.333-.547.43-.85.066-.222.11-.777.11-1.42 0-.452-.052-.636-.23-.873-.154-.207-.28-.303-.554-.436l-.23-.111-2.055-.008c-1.745 0-2.078 0-2.204.037-.37.096-.658.385-.762.755-.051.162-.051.229-.044.961l.001.045c.014.697.015.757.073.916.288.8 1.058 1.457 2.367 2.034l.406.178.008.769.007.769h-.31l-.244.37-.237.37-.925-.023-.248-.007-.222-.006h-.005c-.341-.01-.645-.019-.767-.024l-.318-.015-.03-.096-.03-.096-.924-.007-.924-.008v.09c0 .043.015.095.052.125.022.015.133.11.244.207l.192.17.022.237c.015.125.052.355.082.502l.059.274.229-.022.23-.015.051.215c.096.392.23.769.414 1.124.17.34.244.458.266.436 0-.004.017-.028.042-.064.025-.036.058-.084.091-.136l.126-.192-.022-1.05c-.015-.584-.022-1.058-.015-1.065.008-.007.23.022.488.06 1.613.228 3.24.265 4.86.103a24.378 24.378 0 0 0 1.412-.185l.059-.015v2.048l.155.252.155.251.045-.103c.022-.06.185-.451.362-.873l.326-.769h.236c.078.007.15 0 .226-.006l.01-.001c0-.015.09-.355.2-.777Zm-3.705 1.324c-.14.081-.236.118-.258.103-.013-.004-.052-.034-.104-.075a4.994 4.994 0 0 0-.133-.102l-.2-.163-.207.222-.056.06c-.396.43-.416.45-.543.458-.207.022-.251-.015-.503-.392-.133-.192-.236-.355-.236-.355s-.097-.015-.207-.022l-.208-.023-.096.2-.096.2-.17-.052a3.617 3.617 0 0 1-.392-.155l-.222-.111v-.422l1.967.008 1.967.007.008.2v.015c.003.089.005.142-.015.184-.028.063-.102.105-.283.208l-.013.007Zm-20.359-33.56a3.626 3.626 0 0 1-.059.011l.06-.01Zm-.118.023.06-.011-.06.01Zm.502-3.21.274.028-.05.502.05-.502h.007l.013.002.04.006a4.738 4.738 0 0 1 .606.15c.405.128.983.358 1.718.768 1.468.819 3.552 2.354 6.105 5.226l.444.499-.597.292-.007.004-.028.014a10.911 10.911 0 0 0-.566.321 16.278 16.278 0 0 0-1.586 1.102l-.004.002a.387.387 0 0 1-.016.01c-1.352 1.057-3.066 2.717-4.384 5.034l-.512.902-.382-.966-.003-.006-.006-.017-.024-.061-.088-.233a42.99 42.99 0 0 1-1.188-3.727c-.601-2.245-1.144-5.084-.769-7.2.127-.723.372-1.398.784-1.931l.17-.219Zm26.373 16.575.03.002h.013l.042.003.151.007c.127.006.299.013.479.017.18.005.366.007.52.004a3.546 3.546 0 0 0 .268-.017c.087-.022.168-.027.218-.03l.043-.001h.022l.059-.004c.055-.004.07-.011.082-.018.032-.02.214-.161.392-.918.116-.497-.123-.892-.582-1.229-.466-.341-1.034-.517-1.216-.543-.16-.023-.649-.002-1.12.233-.442.22-.854.618-.971 1.363-.056.355.019.554.108.677.099.137.264.246.486.325.22.078.457.112.648.125a2.935 2.935 0 0 0 .285.007h.013l.002-.001.028-.002Zm-2.063-1.211c-.294 1.866 2.065 1.717 2.065 1.717s1.327.074 1.622 0c.05-.013.105-.015.166-.017.3-.01.707-.024 1.014-1.327.368-1.568-1.696-2.314-2.212-2.389-.516-.075-2.36.15-2.655 2.016Zm-15.307 1.213-.03-.002-.028.002h-.014l-.06.002c-.054 0-.132-.001-.226-.008a2.514 2.514 0 0 1-.648-.125c-.222-.079-.387-.188-.486-.325-.089-.123-.164-.322-.108-.677.118-.745.53-1.142.972-1.363.47-.235.96-.256 1.12-.233.181.026.75.202 1.215.543.46.337.699.732.582 1.23-.178.756-.36.897-.392.917-.012.007-.027.014-.082.018a1.217 1.217 0 0 1-.058.003l-.066.003a1.1 1.1 0 0 0-.218.03 3.536 3.536 0 0 1-.267.017c-.155.002-.34 0-.521-.005a24.5 24.5 0 0 1-.479-.017l-.151-.007-.041-.002-.014-.001Zm-.028.504s-2.36.15-2.064-1.717c.295-1.867 2.138-2.09 2.654-2.016.516.075 2.58.821 2.212 2.389-.306 1.303-.715 1.317-1.013 1.327-.061.002-.117.004-.167.017-.295.074-1.622 0-1.622 0Z" fill="#000"/></svg>
