<svg width="64" height="64" viewBox="0 0 64 64" fill="none" xmlns="http://www.w3.org/2000/svg">
<circle cx="32" cy="32" r="32" transform="rotate(180 32 32)" fill="white"/>
<path fill-rule="evenodd" clip-rule="evenodd" d="M32 64C49.6731 64 64 49.6731 64 32C64 14.3269 49.6731 0 32 0C14.3269 0 0 14.3269 0 32C0 49.6731 14.3269 64 32 64ZM37.6184 35.7259C37.7397 36.603 37.979 37.2581 38.3347 37.6922C38.9861 38.4825 40.1016 38.8775 41.6816 38.8775C42.6282 38.8775 43.3967 38.7735 43.9868 38.565C45.1069 38.1655 45.667 37.4232 45.667 36.3381C45.667 35.704 45.3889 35.2135 44.8337 34.8661C44.2778 34.5276 43.4055 34.2282 42.2156 33.9676L40.1841 33.512C38.187 33.0602 36.8066 32.5697 36.0425 32.04C34.749 31.1545 34.1018 29.7697 34.1018 27.8855C34.1018 26.1663 34.7271 24.7381 35.9773 23.6008C37.2278 22.4636 39.064 21.8947 41.4863 21.8947C43.5095 21.8947 45.2349 22.4307 46.6631 23.5032C48.0918 24.5756 48.8403 26.1318 48.9099 28.1722H45.0547C44.9854 27.0173 44.4817 26.1971 43.5439 25.7107C42.9192 25.3895 42.1418 25.2286 41.2131 25.2286C40.1797 25.2286 39.355 25.4371 38.7385 25.8539C38.1221 26.2707 37.814 26.8522 37.814 27.5992C37.814 28.2851 38.1174 28.7975 38.7253 29.136C39.1162 29.3617 39.9495 29.6265 41.2261 29.9305L44.5339 30.7246C45.9839 31.072 47.0779 31.5364 47.8159 32.1183C48.9622 33.0215 49.5352 34.328 49.5352 36.0383C49.5352 37.7924 48.8645 39.2488 47.5229 40.408C46.1814 41.5672 44.2866 42.1465 41.8379 42.1465C39.3376 42.1465 37.3708 41.5756 35.9385 40.4337C34.5056 39.2922 33.7896 37.7229 33.7896 35.7259H37.6184ZM14 48V16H41.7896V18.9474H17.3684V45.0526H41.7896V48H14Z" fill="black"/>
</svg>
