<svg width="64" height="64" viewBox="0 0 64 64" fill="none" xmlns="http://www.w3.org/2000/svg">
<rect width="64" height="64" rx="32" fill="black"/>
<path fill-rule="evenodd" clip-rule="evenodd" d="M46.2447 23.6606C46.0047 23.9036 45.6793 24.0402 45.3399 24.0402H13.2821C12.1491 24.0402 11.5751 22.6585 12.3672 21.8378L17.6257 16.39C17.8664 16.1406 18.1962 16 18.5405 16H50.7178C51.8578 16 52.4288 17.3962 51.6227 18.2127L46.2447 23.6606ZM46.2447 47.9916C46.0047 48.2287 45.6793 48.3618 45.3399 48.3618H13.2821C12.1491 48.3618 11.5751 47.0146 12.3672 46.2145L17.6257 40.9029C17.8664 40.6597 18.1962 40.5226 18.5405 40.5226H50.7178C51.8578 40.5226 52.4288 41.8838 51.6227 42.68L46.2447 47.9916ZM45.3399 28.2613C45.6793 28.2613 46.0047 28.3944 46.2447 28.6315L51.6227 33.9431C52.4288 34.7393 51.8578 36.1005 50.7178 36.1005H18.5405C18.1962 36.1005 17.8664 35.9634 17.6257 35.7202L12.3672 30.4086C11.5751 29.6085 12.1491 28.2613 13.2821 28.2613H45.3399Z" fill="white"/>
</svg>
