<svg width="64" height="65" viewBox="0 0 64 65" fill="none" xmlns="http://www.w3.org/2000/svg">
<circle cx="32" cy="32" r="32" transform="rotate(180 32 32)" fill="white"/>
<path fill-rule="evenodd" clip-rule="evenodd" d="M64 32.0013C64 49.6745 49.6731 64.0013 32 64.0013C14.3269 64.0013 0 49.6745 0 32.0013C0 14.3282 14.3269 0.00134277 32 0.00134277C49.6731 0.00134277 64 14.3282 64 32.0013ZM25.1001 44.6264L30.8 37.6264C31.4001 36.9263 32.5 36.9263 33.1001 37.6264L38.8 44.6264C39.2 45.1264 39.2 45.9263 38.8 46.5264L33.1001 53.5264C32.5 54.2263 31.4001 54.2263 30.8 53.5264L25.1001 46.5264C24.7 45.9263 24.7 45.1264 25.1001 44.6264ZM41.8 20.5263L47.5 27.5263C47.8999 28.1263 47.8999 28.9263 47.5 29.4263L41.8 36.4263C41.2 37.1263 40.1001 37.1263 39.5 36.4263L33.8 29.4263C33.3999 28.8263 33.3999 28.0263 33.8 27.5263L39.5 20.5263C40.1001 19.8263 41.2 19.8263 41.8 20.5263ZM22 20.5263C22.6001 19.8263 23.7 19.8263 24.3 20.5263L30 27.5263C30.3999 28.1263 30.3999 28.9263 30 29.4263L24.3 36.4263C23.7 37.1263 22.6001 37.1263 22 36.4263L16.3 29.4263C15.8999 28.8263 15.8999 28.0263 16.3 27.5263L22 20.5263ZM33.1001 9.52634L38.8 16.5263C39.2 17.1263 39.2 17.9263 38.8 18.4263L33.1001 25.4263C32.5 26.1263 31.3999 26.1263 30.8 25.4263L25.1001 18.4263C24.7 17.8263 24.7 17.0263 25.1001 16.5263L30.8 9.52634C31.3999 8.82634 32.5 8.82634 33.1001 9.52634Z" fill="black"/>
</svg>
