<svg width="64" height="64" viewBox="0 0 64 64" fill="none" xmlns="http://www.w3.org/2000/svg">
<circle cx="32" cy="32" r="32" transform="rotate(180 32 32)" fill="white"/>
<path fill-rule="evenodd" clip-rule="evenodd" d="M32 64C49.6731 64 64 49.6731 64 32C64 14.3269 49.6731 0 32 0C14.3269 0 0 14.3269 0 32C0 49.6731 14.3269 64 32 64ZM12.3516 27.3715C11.833 23.2444 18.0688 15.7742 24.3662 12.9784C28.3135 11.2259 28.9719 11.7468 27.1729 15.1987C26.8774 15.7651 26.4387 16.6749 26.1975 17.2199C24.916 20.1181 20.4062 24.637 17.4292 26.0059C16.884 26.2564 15.5461 26.8859 14.4561 27.4044L12.4741 28.3474L12.3516 27.3715ZM37.0195 15.1987C36.7241 14.6322 36.3027 13.6955 36.0828 13.1176C35.0393 10.3728 42.6643 13.5437 46.6196 17.4994C50.2212 21.1011 53.4956 28.6075 51.1711 27.9332C50.0972 27.6216 46.9065 26.1236 45.1873 25.1238C43.0515 23.8819 38.9451 19.3696 37.9946 17.2199C37.7537 16.6749 37.3147 15.7651 37.0195 15.1987ZM29.7175 23.5846C29.7175 23.3484 29.9409 22.7941 30.2131 22.3526C31.0457 21.004 33.761 21.4198 34.2764 22.9741C35.2571 25.9325 38.0239 28.695 41.0151 29.7027C42.9504 30.3544 42.8076 33.4983 40.8169 34.0671C39.9846 34.305 38.4783 35.4149 37.0513 36.8419C35.624 38.269 34.5142 39.7753 34.2764 40.6077C33.613 42.9287 29.7886 42.6651 29.7305 40.2946C29.7129 39.5898 28.1777 37.4674 26.7446 36.1677C25.5701 35.1021 25.0354 34.7925 22.8572 33.9165C21.1824 33.2426 21.4043 30.3064 23.177 29.6888C26.0405 28.6919 29.7175 25.2602 29.7175 23.5846ZM26.978 51.671C20.2295 50.1544 13.5491 43.3786 12.3081 36.7912L12 35.1548L14.219 36.2374C15.4397 36.8332 16.884 37.5237 17.4292 37.7719C19.1416 38.5524 19.9158 39.1533 22.3728 41.6087C24.5847 43.8195 25.1863 44.6027 26.0933 46.4547C26.2805 46.8365 26.7412 47.7359 27.1172 48.4542C27.4932 49.1721 27.9453 50.2638 28.1221 50.8798L28.4436 52L26.978 51.671ZM46.7629 37.7711C47.3081 37.5221 48.7351 36.8245 49.9343 36.2204C51.1333 35.6162 52.136 35.1077 52.1624 35.0902C52.4585 34.8924 51.376 38.8691 50.7512 40.2736C48.2729 45.8431 40.4646 52.1157 36.6116 51.6313L35.6355 51.5089L36.5786 49.5268C37.0972 48.4367 37.7266 47.0989 37.9773 46.5538C38.7874 44.7918 39.3875 44.0192 41.8254 41.5987C44.3005 39.1415 45.0728 38.5429 46.7629 37.7711Z" fill="black"/>
</svg>
