<svg width="64" height="64" viewBox="0 0 64 64" fill="none" xmlns="http://www.w3.org/2000/svg">
<circle cx="32" cy="32" r="32" transform="rotate(180 32 32)" fill="white"/>
<path fill-rule="evenodd" clip-rule="evenodd" d="M32 64C49.6731 64 64 49.6731 64 32C64 14.3269 49.6731 0 32 0C14.3269 0 0 14.3269 0 32C0 49.6731 14.3269 64 32 64ZM47.8035 37.3229C47.8447 37.3779 47.9072 37.4342 47.9912 37.4892H47.9873C48.5977 37.8232 49.0354 38.301 49.2993 38.9264C49.5632 39.5518 49.6108 40.2385 49.4446 40.9877C49.3608 41.5981 49.0769 42.1472 48.5903 42.6325C48.1038 43.1178 47.5271 43.4305 46.8604 43.5694C46.4988 43.6244 46.1235 43.6257 45.7346 43.5694C45.3457 43.5131 44.9841 43.3742 44.6514 43.1529C44.5676 43.0966 44.4851 43.069 44.4014 43.069C44.3174 43.069 44.2212 43.0966 44.1099 43.1529C42.6489 43.9959 41.1904 44.8427 39.7346 45.6932C38.2686 46.5513 36.7964 47.3968 35.3179 48.2336C35.2354 48.2887 35.1716 48.3449 35.1304 48.4C35.0891 48.455 35.0679 48.5526 35.0679 48.6914C35.0679 49.5232 34.79 50.2587 34.2346 50.8978C33.6794 51.537 32.999 51.8972 32.1934 51.981C31.3604 52.0648 30.6038 51.871 29.9231 51.3982C29.2427 50.9254 28.8188 50.2737 28.6523 49.4407L28.6111 49.0241V48.6501C28.6111 48.5388 28.5898 48.4475 28.5486 48.3787C28.5188 48.3292 28.4854 48.2901 28.4478 48.2617C28.4331 48.2507 28.418 48.2413 28.4023 48.2336C26.9026 47.4006 25.4089 46.5538 23.9231 45.6932C22.4321 44.8302 20.9387 43.9696 19.4438 43.1116C19.3943 43.0953 19.3474 43.0838 19.3032 43.0772C19.2727 43.0726 19.2432 43.0703 19.2151 43.0703C19.1836 43.0703 19.1506 43.0732 19.116 43.0789C19.075 43.0857 19.0317 43.0966 18.9861 43.1116C17.9856 43.6945 16.98 43.7582 15.9656 43.2992C14.9512 42.8401 14.3333 42.0709 14.1106 40.9877C14.0005 40.266 14.0693 39.6068 14.3193 39.0102C14.5696 38.4136 15.0137 37.9345 15.6528 37.573C15.7642 37.518 15.8403 37.4617 15.8816 37.4067C15.9229 37.3516 15.9443 37.2541 15.9443 37.1152V26.8298C15.9443 26.7185 15.9229 26.6347 15.8816 26.5797C15.8594 26.5501 15.8271 26.5166 15.7849 26.4789C15.7483 26.4464 15.7043 26.4108 15.6528 26.3721C15.0137 26.0118 14.5559 25.5328 14.2781 24.9361C14.0005 24.3395 13.9304 23.6941 14.0693 22.9999C14.2092 22.2782 14.5208 21.6878 15.0073 21.23C15.4939 20.7722 16.0842 20.4883 16.7786 20.3769C17.1687 20.3494 17.5427 20.3707 17.9043 20.4395C18.2656 20.5083 18.6135 20.6409 18.946 20.8347C19.0024 20.891 19.0637 20.9185 19.1338 20.9185C19.2039 20.9185 19.2664 20.8898 19.3213 20.8347C20.8135 19.9792 22.3059 19.1261 23.8005 18.2743C25.2952 17.4225 26.7874 16.5682 28.2795 15.7127C28.3623 15.6564 28.426 15.5939 28.4673 15.5251C28.5085 15.4563 28.5298 15.3662 28.5298 15.2549C28.5298 14.3105 28.8613 13.5188 29.5293 12.8809C30.197 12.243 31.0027 11.9515 31.947 12.0066C32.6687 12.0066 33.3354 12.263 33.947 12.7771C34.5586 13.2911 34.9053 13.9228 34.989 14.672C35.0166 14.7246 35.0366 14.7808 35.0515 14.8384C35.0601 14.873 35.0662 14.913 35.0696 14.9587C35.0718 14.9858 35.0728 15.0149 35.0728 15.046C35.0728 15.2411 35.1079 15.3862 35.1765 15.4838C35.2454 15.5814 35.3643 15.6852 35.5305 15.7965C36.9866 16.6195 38.4387 17.4526 39.8845 18.2944C41.3206 19.1299 42.7578 19.9629 44.1975 20.7922C44.3088 20.8485 44.3987 20.876 44.4688 20.876C44.5388 20.876 44.6289 20.8472 44.7402 20.7922C45.7122 20.2093 46.6978 20.1393 47.6985 20.5833C48.699 21.0274 49.3093 21.8041 49.532 22.9148C49.5596 23.0261 49.5808 23.1312 49.5947 23.2275C49.6084 23.3238 49.616 23.4139 49.616 23.4977C49.616 24.1369 49.4771 24.6922 49.1995 25.1638C48.9216 25.6353 48.519 26.0243 47.9912 26.3295C47.9072 26.3858 47.8447 26.4471 47.8035 26.5171C47.7622 26.5872 47.741 26.6772 47.741 26.7886V37.0314C47.741 37.1703 47.7622 37.2678 47.8035 37.3229ZM44.594 42.236C45.1631 42.7914 45.8511 43.014 46.6565 42.9027L46.6501 42.8964C47.4282 42.8414 48.0449 42.4937 48.5039 41.8558C48.9629 41.2179 49.053 40.5374 48.7754 39.8157C48.5803 38.9276 48.0662 38.3035 47.2332 37.942C46.4001 37.5805 45.5808 37.6493 44.7754 38.1496C44.7202 38.2059 44.6577 38.2422 44.5876 38.2547C44.5176 38.2672 44.4275 38.2334 44.3162 38.1496C43.647 37.7594 42.9729 37.3779 42.2949 37.0039C41.6121 36.6262 40.9377 36.2309 40.2749 35.8169C40.1636 35.7606 40.1011 35.6981 40.0872 35.6293C40.0735 35.5605 40.0811 35.4704 40.1084 35.3591C40.3311 34.6649 40.3726 34.012 40.2336 33.4016C40.0947 32.7912 39.7759 32.2221 39.2754 31.6942C39.1655 31.6104 38.9502 31.3052 38.6301 30.7774C38.3098 30.2495 38.1223 29.9168 38.0671 29.778C37.9834 29.6392 37.9558 29.5416 37.9834 29.4866C38.011 29.4315 38.0811 29.3752 38.1924 29.3202C39.228 28.7323 40.2637 28.1432 41.2969 27.5503C42.3298 26.9574 43.3657 26.3683 44.4014 25.7804C44.4851 25.6966 44.5676 25.6553 44.6514 25.6553C44.7354 25.6553 44.8052 25.6966 44.8604 25.7804C45.1667 25.9743 45.4783 26.1069 45.7983 26.1757C46.1187 26.2445 46.4451 26.2382 46.7778 26.1544C47.4458 26.0431 48.001 25.7166 48.4451 25.1763C48.8892 24.6359 49.0706 24.018 48.9868 23.3238C48.9316 22.5471 48.5903 21.9217 47.9661 21.4501C47.342 20.9786 46.6401 20.826 45.8623 20.9923C45.1956 21.1037 44.6753 21.4101 44.3 21.9092C43.9248 22.4083 43.7371 22.9911 43.7371 23.6578C43.7371 23.7416 43.7158 23.8179 43.6746 23.8867C43.6333 23.9555 43.5569 24.0318 43.4456 24.1156C42.3899 24.6985 41.3406 25.2951 40.2998 25.9055C39.2693 26.5096 38.2349 27.1063 37.1953 27.6954C37.084 27.7792 36.9939 27.8067 36.9241 27.7792C36.854 27.7517 36.7915 27.7092 36.7363 27.6541C36.2634 27.1538 35.7356 26.7723 35.1528 26.5084C34.5701 26.2445 33.9446 26.0719 33.2778 25.9881C33.0276 25.933 32.8813 25.8842 32.8401 25.843C32.7988 25.8017 32.7776 25.6703 32.7776 25.4477V18.1192C32.7776 17.9529 32.8064 17.8128 32.8613 17.7027C32.9165 17.5927 33.0276 17.4813 33.1941 17.37C33.7495 17.0648 34.1309 16.5933 34.3398 15.9541C34.5486 15.3149 34.5273 14.7045 34.2773 14.1217C33.9995 13.5113 33.5618 13.061 32.9651 12.7683C32.3687 12.4756 31.7507 12.4418 31.1116 12.6632C30.5273 12.8296 30.0771 13.1085 29.7568 13.4963C29.4368 13.884 29.249 14.3843 29.1941 14.9947C29.1665 15.4388 29.2703 15.8815 29.5066 16.3268C29.7432 16.7721 30.1245 17.0773 30.6523 17.2437C30.7363 17.2987 30.8049 17.355 30.8613 17.41C30.9175 17.4651 30.9451 17.5489 30.9451 17.6602V25.7804C30.9451 25.9193 30.9238 26.0081 30.8826 26.0506C30.8413 26.0931 30.7649 26.1281 30.6536 26.1557C30.4023 26.2958 30.1445 26.4283 29.8833 26.5509C29.6194 26.676 29.3628 26.8361 29.1128 27.03C28.8625 27.2239 28.605 27.384 28.3423 27.509C28.0796 27.6341 27.7668 27.6967 27.4053 27.6967H26.905C26.8623 27.6967 26.8201 27.6931 26.7776 27.6859C26.7368 27.6791 26.696 27.6689 26.6548 27.6554C25.6079 27.05 24.5598 26.4459 23.509 25.8442C22.467 25.2476 21.4041 24.6434 20.3208 24.033C20.1545 23.9492 20.0369 23.8529 19.9668 23.7416C19.8967 23.6303 19.8906 23.4914 19.9456 23.3251C19.9456 23.2413 19.9319 23.1662 19.9043 23.0962C19.8872 23.0525 19.8752 23.0118 19.8689 22.9739C19.865 22.9511 19.863 22.9293 19.863 22.9086C19.7517 22.2431 19.4177 21.6878 18.8623 21.2438C18.3069 20.7997 17.6404 20.6471 16.8623 20.786C16.1406 20.9248 15.5576 21.285 15.1125 21.8692C14.6672 22.4533 14.5146 23.1049 14.6533 23.8267C14.7922 24.771 15.2925 25.4365 16.1531 25.8255C17.0137 26.2145 17.8479 26.1594 18.6536 25.6591C18.7373 25.6041 18.8135 25.569 18.8823 25.5553C18.9512 25.5415 19.0273 25.5753 19.1113 25.6591C19.8943 26.1056 20.6785 26.5497 21.4653 26.9912C22.2683 27.4415 23.0676 27.8993 23.8618 28.3646C23.9968 28.4446 24.1282 28.5284 24.2583 28.6147C24.3821 28.6973 24.5146 28.7673 24.6536 28.8224C23.7368 29.7943 23.2227 30.8012 23.1113 31.8418C23 32.8825 23.2776 33.9719 23.9443 35.1102L23.9019 35.1314L23.8606 35.1527C23.05 35.628 22.2371 36.0996 21.4229 36.5686C20.6084 37.0377 19.7954 37.5092 18.9849 37.9845C18.9575 38.012 18.9011 38.0258 18.8186 38.0258C18.7361 38.0258 18.6797 38.012 18.6521 37.9845C18.4309 37.8457 18.207 37.7269 17.9856 37.6306C17.7642 37.5342 17.5278 37.4855 17.2776 37.4855C16.4434 37.4855 15.783 37.7631 15.2976 38.3185C14.8123 38.8738 14.5547 39.443 14.5271 40.0258C14.4995 40.72 14.7285 41.3592 15.2151 41.9421C15.7017 42.5249 16.3621 42.8164 17.1951 42.8164C17.918 42.8164 18.5295 42.56 19.0288 42.0459C19.5278 41.5318 19.7778 40.9002 19.7778 40.1509C19.7778 40.0396 19.813 39.942 19.8818 39.8595C19.9275 39.8044 19.9768 39.7549 20.0293 39.7117C20.0557 39.6902 20.0828 39.6702 20.1106 39.6519L22.7349 38.1521L25.3191 36.6537C25.3813 36.6112 25.4407 36.5851 25.4958 36.5749C25.5137 36.5715 25.531 36.5699 25.5479 36.5699C25.6167 36.5699 25.6929 36.5986 25.7769 36.6537C26.332 36.9038 26.8862 37.0502 27.4429 37.0915C27.9995 37.1327 28.5549 37.0702 29.1101 36.9038H29.3391C29.4092 36.9038 29.4717 36.9326 29.5266 36.9876L30.0271 37.1965L30.5273 37.4467C30.6375 37.4742 30.7063 37.523 30.7349 37.5918C30.7637 37.6606 30.7776 37.7369 30.7776 37.8207V45.8984C30.7776 46.0097 30.77 46.0935 30.7563 46.1485C30.7424 46.2036 30.6951 46.2598 30.6111 46.3149C30.1396 46.5363 29.7581 46.9053 29.4653 47.4181C29.1726 47.9309 29.0828 48.4938 29.1941 49.1042C29.3328 49.7984 29.7007 50.3662 30.2983 50.8115C30.8962 51.2568 31.5554 51.4232 32.2786 51.3119C32.8625 51.2018 33.3467 50.9379 33.7368 50.5213C34.1272 50.1048 34.3623 49.5907 34.446 48.9804C34.5286 48.5363 34.46 48.0635 34.2373 47.5644C34.0146 47.0654 33.6255 46.6626 33.0703 46.3574C32.9602 46.3299 32.8826 46.2949 32.8413 46.2536C32.8 46.2123 32.7788 46.136 32.7788 46.0247V38.1546C32.7788 38.0446 32.8152 37.9745 32.8838 37.947C32.9526 37.9195 33.0291 37.877 33.1128 37.8219C33.3867 37.7944 33.657 37.7531 33.9258 37.6968C34.1897 37.6406 34.4612 37.5718 34.7388 37.488C34.8777 37.4604 34.9951 37.4467 35.0928 37.4467C35.1904 37.4467 35.2942 37.4604 35.4055 37.488C35.9609 37.7381 36.5225 37.8419 37.0928 37.8007C37.6631 37.7594 38.2109 37.5718 38.7388 37.239C38.7788 37.2195 38.822 37.2069 38.8682 37.2013C38.887 37.1989 38.9065 37.1978 38.9265 37.1978C38.9954 37.1978 39.0579 37.2115 39.114 37.239C39.8271 37.6768 40.5488 38.1009 41.2805 38.5086C41.9897 38.9039 42.6978 39.2991 43.4055 39.6956C43.5457 39.7794 43.6357 39.8545 43.677 39.9245C43.7183 39.9946 43.7395 40.0984 43.7395 40.2372C43.7395 41.014 44.0249 41.6807 44.594 42.236ZM37.2393 31.4516C37.323 31.5616 37.448 31.673 37.6145 31.7843L37.6157 31.7855C38.0322 32.0357 38.3511 32.3959 38.5737 32.8687C38.7964 33.3415 38.8665 33.7993 38.7827 34.2434C38.699 34.7987 38.47 35.2703 38.0947 35.6593C37.7195 36.0483 37.2678 36.2834 36.74 36.3672C36.4336 36.451 36.1423 36.4723 35.8645 36.4298C35.5869 36.3872 35.323 36.2834 35.0728 36.1171C34.9353 36.0333 34.8225 36.0045 34.74 36.0333C34.6575 36.062 34.5461 36.0896 34.4072 36.1171C33.657 36.4498 32.9202 36.5824 32.1985 36.5123C31.4768 36.4423 30.7676 36.1996 30.0732 35.7831C29.9619 35.6993 29.8582 35.658 29.7605 35.658C29.6631 35.658 29.5593 35.6718 29.448 35.6993C28.5037 36.032 27.5867 35.957 26.6973 35.4704C25.8081 34.9838 25.239 34.2696 24.9888 33.3253C24.6836 32.2146 24.905 31.2077 25.6555 30.3058C26.406 29.404 27.3364 28.9812 28.4473 29.0363C28.6687 29.0363 28.8425 29.0012 28.9675 28.9324C29.0386 28.8935 29.1162 28.8477 29.2004 28.7951C29.2649 28.7548 29.3333 28.7105 29.4053 28.6623C30.072 28.0244 30.7876 27.6154 31.5518 27.434C32.3159 27.2526 33.1277 27.3014 33.9895 27.5791C34.8225 27.8568 35.5032 28.287 36.031 28.8699C36.5588 29.4528 36.9065 30.1745 37.0728 31.0351C37.1003 31.2014 37.1553 31.3415 37.2393 31.4516ZM45.886 39.7794C46.0386 39.6406 46.2112 39.5718 46.4062 39.5718C46.6016 39.5718 46.7678 39.6406 46.9067 39.7794C47.0454 39.9183 47.1155 40.0996 47.1155 40.321C47.1155 40.4874 47.0454 40.6475 46.9067 40.8001C46.7678 40.9527 46.6001 41.029 46.4062 41.029C46.2124 41.029 46.0386 40.9614 45.886 40.8214C45.7334 40.6813 45.657 40.5149 45.657 40.321C45.657 40.0984 45.7334 39.9183 45.886 39.7794ZM32.3848 15.7114C32.2322 15.8515 32.0596 15.9203 31.8645 15.9203C31.6707 15.9203 31.4968 15.8503 31.3442 15.7114C31.1914 15.5726 31.1152 15.3912 31.1152 15.1698C31.1152 14.9747 31.1914 14.8084 31.3442 14.6695C31.4968 14.5294 31.6707 14.4606 31.8645 14.4606C32.0583 14.4606 32.2322 14.5307 32.3848 14.6695C32.5374 14.8084 32.6138 14.9747 32.6138 15.1698C32.6138 15.3925 32.5374 15.5714 32.3848 15.7114ZM16.7798 39.7794C16.946 39.6406 17.1274 39.5718 17.3213 39.5718C17.5715 39.5718 17.7517 39.6406 17.863 39.7794C17.9744 39.9183 18.0156 40.1121 17.988 40.3623C17.988 40.5562 17.9192 40.73 17.7805 40.8826C17.6416 41.0352 17.4751 41.1115 17.28 41.1115C17.0574 41.084 16.8772 40.994 16.7385 40.8414C16.5996 40.6888 16.5295 40.5149 16.5295 40.321C16.5295 40.0984 16.6133 39.9183 16.7798 39.7794ZM31.3442 48.1085C31.4968 47.9685 31.6694 47.8997 31.8645 47.8997C32.0583 47.8997 32.2322 47.9697 32.3848 48.1085C32.5374 48.2474 32.6138 48.4275 32.6138 48.6501C32.6138 48.844 32.5374 49.0104 32.3848 49.1492C32.2322 49.2893 32.0583 49.3581 31.8645 49.3581C31.6707 49.3581 31.4968 49.2881 31.3442 49.1492C31.1914 49.0104 31.1152 48.844 31.1152 48.6501C31.1152 48.4275 31.1914 48.2486 31.3442 48.1085ZM16.821 22.9986C16.96 22.8598 17.1274 22.791 17.3213 22.791C17.5164 22.791 17.6892 22.8585 17.8418 22.9986C17.9944 23.1387 18.0857 23.3051 18.113 23.499C18.113 23.7216 18.0505 23.9017 17.9255 24.0406C17.8003 24.1794 17.6265 24.2482 17.4038 24.2482C17.155 24.2482 16.96 24.1794 16.821 24.0406C16.6821 23.9017 16.6133 23.7216 16.6133 23.499C16.6133 23.3038 16.6821 23.1375 16.821 22.9986ZM46.9268 24.0406C46.7742 24.1794 46.6016 24.2482 46.4062 24.2482C46.1562 24.2482 45.9761 24.1844 45.8647 24.0606C45.7534 23.9367 45.7122 23.7491 45.7397 23.499C45.7397 23.2776 45.8022 23.1037 45.9272 22.9786C46.0522 22.8535 46.2263 22.791 46.4475 22.791C46.6702 22.791 46.8491 22.8585 46.9893 22.9986C47.1294 23.1387 47.198 23.3051 47.198 23.499C47.1692 23.7216 47.0793 23.9017 46.9268 24.0406Z" fill="black"/>
</svg>
