<svg width="150" height="150" viewBox="0 0 150 150" fill="none" xmlns="http://www.w3.org/2000/svg">
<circle cx="75" cy="75" r="75" fill="black"/>
<path d="M46.2205 35.1738L122.349 87.1539L103.521 114.986L27.3931 62.5964L46.2205 35.1738Z" fill="white"/>
<path d="M122.35 87.1538C115.801 96.5675 93.6992 92.8839 72.8253 78.1494C51.5422 63.8242 40.082 44.5875 46.2214 35.1738C52.77 25.7601 74.8718 29.4437 95.7456 44.1782C117.029 58.0941 128.489 77.7401 122.35 87.1538Z" fill="white"/>
<path d="M103.522 114.576C96.9734 123.99 74.8717 120.306 53.9978 105.572C33.124 90.8374 21.2545 72.01 27.8032 62.187C34.3518 52.7733 56.4536 56.4569 77.3275 71.1914C98.2013 85.9259 109.661 105.163 103.522 114.576Z" fill="white"/>
<path fill-rule="evenodd" clip-rule="evenodd" d="M119.485 85.5167C113.755 93.7025 93.6994 89.6096 74.4627 76.103C54.8167 62.5963 43.3565 45.4061 49.0866 37.2203C54.8167 29.0344 74.8719 33.1274 94.1086 46.634C113.345 60.1406 124.806 77.3308 119.485 85.5167ZM101.476 73.2379C98.6109 77.3308 88.7879 75.2844 78.9649 68.7357C69.5512 62.1871 63.8211 53.5919 66.6861 49.499C69.5512 45.4061 79.3741 47.4526 89.1971 54.0012C98.6109 60.5499 104.341 69.145 101.476 73.2379Z" fill="black"/>
</svg>
