<svg width="64" height="64" viewBox="0 0 64 64" fill="none" xmlns="http://www.w3.org/2000/svg">
<rect width="64" height="64" rx="32" fill="black"/>
<path fill-rule="evenodd" clip-rule="evenodd" d="M30.8407 11.5439C28.9828 11.7581 27.2553 12.6058 25.9491 13.9444C24.9684 14.9154 24.0395 15.9123 23.0459 16.893C22.5485 17.4033 22.0458 17.8996 21.543 18.4034C21.0402 18.9073 20.4857 19.4424 19.9635 19.9711C19.4413 20.4997 19.0076 20.9636 18.5243 21.4545C17.7691 22.2097 17.0139 22.9649 16.2587 23.7277C15.6793 24.3265 15.1129 24.9447 14.54 25.5424C14.2023 25.8995 13.8387 26.2307 13.5205 26.6061C12.207 28.2086 11.4892 30.2166 11.489 32.2886C11.489 32.4105 11.489 32.5357 11.4965 32.6565C11.5234 33.8462 11.8357 35.0121 12.4071 36.056C12.7324 36.6869 13.1091 37.2899 13.5334 37.8588C13.8139 38.2537 14.0178 38.2472 14.3868 37.9419C14.4573 37.8833 14.5233 37.8194 14.5842 37.7509C14.9478 37.3679 15.3039 36.986 15.6739 36.6041C16.1961 36.056 16.7312 35.509 17.2534 34.9545C17.7756 34.4 18.342 33.7893 18.89 33.2164C19.1511 32.9359 19.4295 32.677 19.6927 32.4008C20.2527 31.8085 20.8007 31.1978 21.3607 30.612C21.9206 30.0262 22.4881 29.4781 23.0362 28.9052C23.5842 28.3323 24.2585 27.6311 24.8756 26.9945C25.4928 26.358 26.016 25.8229 26.5889 25.2371C27.3344 24.4657 28.0605 23.6759 28.7984 22.9056C29.257 22.4341 29.7284 21.9821 30.187 21.5171C30.8235 20.8805 31.4158 20.244 32.0405 19.6075C32.6651 18.9709 33.129 18.5437 33.6642 17.9956C34.8603 16.7873 36.0546 15.5718 37.2471 14.349C37.3241 14.2731 37.3962 14.1924 37.4629 14.1074C37.7563 13.7373 37.7812 13.6553 37.4187 13.3942C36.8652 12.9581 36.2725 12.5742 35.6482 12.2474C34.5448 11.7314 33.3416 11.464 32.1235 11.4641H32.0631C31.6563 11.4642 31.2498 11.4898 30.8461 11.5407L30.8397 11.5342L30.8407 11.5439ZM41.3803 19.3831H41.3037C40.7811 19.3832 40.2648 19.4973 39.7908 19.7174C39.3168 19.9374 38.8965 20.2582 38.559 20.6572C38.4987 20.7241 38.4349 20.7878 38.3681 20.8482L36.4196 22.7589C35.7831 23.3965 35.0948 24.0902 34.4259 24.7591C33.8724 25.3126 33.3179 25.8542 32.7709 26.4087C32.2239 26.9633 31.637 27.5804 31.0447 28.1597C30.4524 28.7391 29.8223 29.3465 29.2106 29.9431L27.0388 32.1332L23.0016 36.1715C21.2179 37.9624 19.4367 39.7497 17.658 41.5335C17.3149 41.8712 17.3084 41.9154 17.658 42.2779C18.5114 43.141 19.3777 43.9976 20.2052 44.8672C20.7172 45.4099 21.3928 45.7699 22.1288 45.8921C22.8232 46.0318 23.5405 46.0078 24.224 45.822C24.7361 45.6953 25.2087 45.4436 25.5996 45.0895L27.7142 43.0471C28.2105 42.5703 28.7143 42.0988 29.2041 41.6144C30.1848 40.6434 31.1525 39.6659 32.1332 38.7014C32.9295 37.9182 33.7451 37.1414 34.5532 36.3581L37.8685 33.1269C38.9 32.1138 39.9378 31.0954 40.9822 30.0823C41.0518 29.9788 41.1484 29.8964 41.2616 29.844C41.3747 29.7916 41.5001 29.7713 41.624 29.7852C41.7479 29.7991 41.8657 29.8467 41.9644 29.9229C42.0632 29.999 42.1391 30.1008 42.1841 30.2171C42.7149 30.9924 42.9988 31.91 42.9986 32.8496C42.9984 33.0103 42.9902 33.1709 42.9738 33.3308C42.8882 34.278 42.4975 35.1718 41.8604 35.878C41.0955 36.7001 40.2809 37.4769 39.4869 38.2666C38.9205 38.8266 38.3411 39.3746 37.7736 39.9411C37.041 40.6671 36.3214 41.4062 35.5889 42.1323C35.481 42.2531 35.3796 42.3804 35.2652 42.4948L34.5456 43.2403C34.0062 43.7797 33.457 44.304 32.9273 44.8446C32.3976 45.3851 31.7891 46.0173 31.2227 46.6074C31.172 46.6646 31.1148 46.7024 31.0641 46.7531C30.4265 47.3454 29.8406 47.9398 29.2354 48.5365C28.9495 48.817 28.6754 49.1029 28.3949 49.3834C27.9116 49.8743 27.4142 50.3544 26.9492 50.855C26.6633 51.1538 26.6633 51.3383 27.001 51.5746C27.5555 52.0002 28.1456 52.377 28.765 52.7009C30.3056 53.3976 32.013 53.6405 33.6868 53.4011C35.3482 53.2039 36.9068 52.4938 38.1458 51.3696C39.0877 50.5421 39.9292 49.6121 40.8074 48.721C41.4439 48.0833 42.0816 47.4026 42.7623 46.7466L44.6029 44.8931C45.1639 44.3267 45.7174 43.7592 46.2849 43.1993C46.8523 42.6393 47.5579 41.9704 48.1945 41.3393C48.831 40.7081 49.4686 40.0662 50.1052 39.3908C50.6127 38.874 51.0815 38.3205 51.5077 37.7348C52.3023 36.5342 52.7983 35.1611 52.9545 33.73C53.0408 33.0191 53.0408 32.3004 52.9545 31.5895C52.765 30.3245 52.3067 29.1149 51.6102 28.0421C51.1093 27.2831 50.51 26.5938 49.8279 25.9923C48.0639 24.2412 46.3054 22.4773 44.5802 20.6874C44.2042 20.2687 43.7442 19.9338 43.2303 19.7044C42.7164 19.4751 42.1599 19.3564 41.5971 19.3561H41.5734L41.3824 19.382L41.3803 19.3831Z" fill="white"/>
</svg>
