<svg width="64" height="64" viewBox="0 0 64 64" fill="none" xmlns="http://www.w3.org/2000/svg">
<circle cx="32" cy="32" r="32" transform="rotate(180 32 32)" fill="white"/>
<path fill-rule="evenodd" clip-rule="evenodd" d="M32 64C49.6731 64 64 49.6731 64 32C64 14.3269 49.6731 0 32 0C14.3269 0 0 14.3269 0 32C0 49.6731 14.3269 64 32 64ZM32 24C31.0996 24 30.2546 23.762 29.5249 23.3454L21.7083 30.3128C21.7878 30.535 21.8521 30.7645 21.8999 31H41.1001C41.5635 28.7178 43.5811 27 46 27C48.7615 27 51 29.2386 51 32C51 34.7614 48.7615 37 46 37C45.4858 37 44.9897 36.9224 44.5229 36.7782L36.8442 43.7568C36.946 44.1543 37 44.5708 37 45C37 47.7614 34.7615 50 32 50C29.2385 50 27 47.7614 27 45C27 42.2386 29.2385 40 32 40C33.2278 40 34.3521 40.4425 35.2224 41.1768L42.0073 35.0104C41.7727 34.6998 41.5737 34.361 41.416 34H21.584C20.8125 35.7659 19.0503 37 17 37C14.2385 37 12 34.7614 12 32C12 29.2386 14.2385 27 17 27C18.0754 27 19.0715 27.3395 19.887 27.9172L27.4829 21.1466C27.1733 20.4962 27 19.7683 27 19C27 16.2386 29.2385 14 32 14C34.7615 14 37 16.2386 37 19C37 21.7614 34.7615 24 32 24Z" fill="black"/>
</svg>
