<svg width="64" height="65" viewBox="0 0 64 65" fill="none" xmlns="http://www.w3.org/2000/svg">
<circle cx="32" cy="32" r="32" transform="rotate(180 32 32)" fill="white"/>
<path fill-rule="evenodd" clip-rule="evenodd" d="M32 64.0013C49.6731 64.0013 64 49.6745 64 32.0013C64 14.3282 49.6731 0.00134277 32 0.00134277C14.3269 0.00134277 0 14.3282 0 32.0013C0 49.6745 14.3269 64.0013 32 64.0013ZM39 20.0013H53.512V24.8386H39.0239V29.6759H53.512V34.5133H39.0239V49.0013H34.1865V34.5133H29.3491V49.0013H24.512V34.5133H10V29.6759H24.512V34.4894H29.3491V29.6759H34.1865V34.4894H39V29.6759H34.1865V24.8386H39V20.0013ZM29.3491 24.8386H34.1865V20.0013H29.3491V24.8386ZM24.512 24.8386V29.6759H29.3491V24.8386H24.512ZM24.512 24.8386V20.0013H10V24.8386H24.512Z" fill="black"/>
</svg>
