<svg width="65" height="64" viewBox="0 0 65 64" fill="none" xmlns="http://www.w3.org/2000/svg">
<g clip-path="url(#clip0)">
<g clip-path="url(#clip1)">
<path fill-rule="evenodd" clip-rule="evenodd" d="M32.9922 64C50.6652 64 64.9918 49.673 64.9918 31.9998C64.9918 14.3268 50.665 0 32.9922 0C15.319 0 0.992188 14.3268 0.992188 31.9998C0.992188 49.673 15.319 64 32.9922 64ZM15.9922 14C16.0249 14.3594 31.6881 53.744 31.895 54C31.9159 53.9831 31.9374 53.9664 31.9591 53.9496C32.0279 53.8964 32.0985 53.8417 32.1565 53.7713C32.2618 53.6551 32.3622 53.5341 32.4627 53.413C32.5129 53.3525 32.5631 53.292 32.6139 53.2321C36.6877 48.2818 40.7614 43.3261 44.8352 38.3703L44.8413 38.3629C47.7584 34.8201 50.6755 31.2773 53.5872 27.7345C53.707 27.5875 53.8159 27.4295 53.9194 27.2716C54.0283 27.1028 54.0174 26.9285 53.8704 26.776C53.8268 26.7297 53.7836 26.6831 53.7403 26.6365C53.6107 26.4966 53.481 26.3567 53.3421 26.226C52.8466 25.7469 52.3456 25.2731 51.8447 24.7994L51.8444 24.7992C50.2705 23.307 48.702 21.8094 47.1335 20.3118C46.6814 19.8816 46.1804 19.533 45.5486 19.4132C43.027 18.9394 40.5109 18.4711 37.9893 18.0027C36.615 17.7484 35.2384 17.4986 33.8625 17.2489C33.1174 17.1137 32.3724 16.9786 31.6282 16.8428C29.1012 16.3744 26.5687 15.9061 24.0416 15.4432C22.8597 15.228 21.6792 15.0129 20.4986 14.7978C19.3182 14.5827 18.1379 14.3676 16.9562 14.1525C16.7077 14.1054 16.4558 14.0683 16.2005 14.0308C16.1313 14.0207 16.0619 14.0105 15.9922 14ZM31.748 47.8924C31.7371 47.8938 31.7262 47.8952 31.7153 47.8952C31.6917 47.8503 31.666 47.8044 31.6405 47.7588C31.6072 47.6993 31.5742 47.6403 31.5465 47.5848C29.0906 41.4263 26.6402 35.2679 24.1897 29.1094L24.1887 29.1069C22.9415 25.97 21.6998 22.8278 20.4581 19.6855C20.4036 19.5439 20.3546 19.3969 20.3056 19.2498C20.469 19.1028 20.6051 19.1681 20.7304 19.2662L20.7305 19.2662C21.0518 19.5167 21.373 19.7672 21.6889 20.0286L33.1259 29.4718C33.3002 29.6188 33.469 29.7658 33.6324 29.9238C33.8666 30.147 33.9591 30.4302 33.9265 30.7406C33.8491 31.4832 33.762 32.2209 33.6744 32.9629L33.6596 33.0878L33.3002 36.0286C33.2321 36.595 33.1626 37.1614 33.0932 37.7278C33.0238 38.2941 32.9543 38.8605 32.8862 39.4268C32.8182 39.9797 32.7514 40.5325 32.6847 41.0854C32.618 41.638 32.5513 42.1907 32.4832 42.7434L32.4432 43.0735C32.3203 44.0862 32.197 45.1025 32.0693 46.1144L32.0512 46.2578C31.9973 46.6847 31.9429 47.1151 31.8841 47.5412C31.8736 47.6188 31.847 47.6941 31.8207 47.7686C31.8064 47.8091 31.7922 47.8494 31.7807 47.8897C31.7698 47.8897 31.7589 47.8911 31.748 47.8924ZM49.8061 28.6951C49.8507 28.6912 49.8981 28.6872 49.9491 28.6821C49.8184 28.9925 34.9122 47.1926 34.3567 47.7372C34.3132 47.7808 34.2623 47.8195 34.1946 47.8711C34.1607 47.897 34.1225 47.926 34.079 47.9605C34.0751 47.8976 34.07 47.8433 34.0654 47.7947C34.0568 47.7045 34.0501 47.6337 34.0572 47.563C34.1243 46.8862 34.2013 46.2143 34.2788 45.5381L34.2914 45.4282C34.4057 44.4316 34.5256 43.4295 34.6454 42.4329C34.7134 41.8747 34.7815 41.3179 34.8496 40.7611C34.9177 40.2042 34.9858 39.6474 35.0538 39.0892L35.4623 35.7726C35.5331 35.2117 35.6025 34.6494 35.672 34.0871C35.7414 33.5248 35.8108 32.9626 35.8816 32.4016C35.8957 32.2934 35.9119 32.1851 35.9282 32.0766C35.9562 31.8903 35.9843 31.7032 36.0015 31.514C36.0287 31.2689 36.1594 31.1436 36.3936 31.1001C37.0526 30.9748 37.7116 30.8496 38.3706 30.7297C40.5599 30.3322 42.7493 29.9401 44.9441 29.548C46.4745 29.2703 48.0049 28.998 49.5407 28.7257C49.6231 28.7107 49.708 28.7034 49.8061 28.6951ZM21.9646 17.4383C21.92 17.3958 21.8738 17.3516 21.8251 17.3057C22.1518 17.2294 42.9127 21.0197 43.3211 21.2103C43.2949 21.2366 43.2705 21.2623 43.247 21.287C43.2023 21.3341 43.1606 21.378 43.1142 21.4173C42.4427 21.978 41.7712 22.5391 41.0996 23.1003C39.1948 24.692 37.2892 26.2843 35.3806 27.8707C35.0429 28.1484 34.836 28.1375 34.4874 27.8489C32.9244 26.5555 31.3627 25.2621 29.801 23.9687C28.2393 22.6753 26.6776 21.3819 25.1145 20.0885C24.1887 19.3206 23.2574 18.5473 22.3315 17.774C22.2099 17.6727 22.0943 17.5623 21.9646 17.4383ZM50.2814 26.3458C50.0199 26.5146 38.5013 28.6113 38.1527 28.5514C38.1046 28.388 38.2093 28.3094 38.3057 28.237C38.3185 28.2274 38.3312 28.2179 38.3433 28.2083L38.3436 28.2081C39.1386 27.5329 39.9337 26.8577 40.7396 26.1933C41.8536 25.2684 42.9705 24.3495 44.0883 23.4299C44.4842 23.1041 44.8803 22.7782 45.2763 22.452C45.3851 22.362 45.5043 22.2822 45.616 22.2075C45.6664 22.1738 45.7153 22.1411 45.761 22.1089C46.0932 22.2342 49.9873 25.9047 50.2814 26.3458Z" fill="black"/>
</g>
</g>
<defs>
<clipPath id="clip0">
<rect x="0.992188" width="64" height="64" fill="white"/>
</clipPath>
<clipPath id="clip1">
<rect x="0.992188" width="64" height="64" fill="white"/>
</clipPath>
</defs>
</svg>
