<svg width="64" height="64" viewBox="0 0 64 64" fill="none" xmlns="http://www.w3.org/2000/svg">
<path d="M32 64C49.6731 64 64 49.6731 64 32C64 14.3269 49.6731 0 32 0C14.3269 0 0 14.3269 0 32C0 49.6731 14.3269 64 32 64Z" fill="black"/>
<path d="M32.3852 51.9996C31.9669 51.9994 31.5603 51.8611 31.2286 51.6062C31.2286 51.6062 29.777 50.5126 25.7646 48.3136C19.6239 44.9502 16.7994 40.9141 16.0166 34.384C15.4107 29.329 15.0174 18.7707 15.0016 18.3222C14.9904 18.0524 15.037 17.7834 15.1382 17.533C15.2394 17.2827 15.3929 17.0569 15.5884 16.8707C15.784 16.6844 16.017 16.5421 16.272 16.4533C16.527 16.3644 16.798 16.331 17.0669 16.3553C17.1062 16.3553 21.2131 16.7015 24.7457 15.7102C27.0723 15.0392 29.2498 13.9311 31.1617 12.4451C31.5046 12.1576 31.9377 12 32.3852 12C32.8326 12 33.2657 12.1576 33.6086 12.4451C35.5186 13.9404 37.6961 15.0579 40.0246 15.7377C43.5651 16.729 47.6641 16.3828 47.7074 16.3828C47.9761 16.3585 48.247 16.3918 48.5018 16.4807C48.7565 16.5697 48.9894 16.712 49.1846 16.8983C49.3798 17.0846 49.5329 17.3105 49.6337 17.5608C49.7344 17.8112 49.7805 18.0802 49.7687 18.3497C49.7687 18.7982 49.3753 29.3644 48.7538 34.4115C47.967 40.9417 45.1465 44.9778 39.0097 48.3372C34.9972 50.5362 33.5535 51.6259 33.5378 51.6377C33.2033 51.8808 32.7986 52.0079 32.3852 51.9996ZM18.8725 20.2183C19.0102 23.6053 19.3524 30.34 19.797 33.9355C20.3477 38.5302 21.7993 41.8032 27.5977 44.9856C29.958 46.272 31.4765 47.2082 32.4009 47.8101C33.3253 47.2082 34.8556 46.272 37.2041 44.9856C43.0065 41.811 44.4384 38.5302 44.9734 33.9355C45.4179 30.34 45.7601 23.6053 45.8978 20.2183C43.5707 20.2402 41.2508 19.9559 38.9979 19.3725C36.6421 18.6939 34.4097 17.6435 32.3852 16.2609C30.3606 17.6435 28.1282 18.6939 25.7724 19.3725C23.5195 19.9559 21.1996 20.2402 18.8725 20.2183Z" fill="white"/>
</svg>
