<svg width="150" height="150" viewBox="0 0 150 150" fill="none" xmlns="http://www.w3.org/2000/svg">
<circle cx="75" cy="75" r="75" fill="black"/>
<path d="M58.9263 26.5778C57.571 26.3689 57.5139 26.3444 58.1516 26.2469C59.3739 26.0601 62.26 26.3148 64.2488 26.7847C68.8919 27.8817 73.1167 30.6917 77.6266 35.6823L78.8247 37.0081L80.5386 36.7343C87.7592 35.581 95.1048 36.4976 101.249 39.3185C102.939 40.0946 105.604 41.6394 105.937 42.0364C106.043 42.1629 106.237 42.9773 106.369 43.8463C106.826 46.8529 106.597 49.1575 105.672 50.8788C105.169 51.8154 105.141 52.1123 105.479 52.9139C105.75 53.5536 106.503 54.027 107.249 54.026C108.775 54.0239 110.418 51.5709 111.18 48.1576L111.483 46.8019L112.082 47.4764C115.368 51.1773 117.95 56.2244 118.393 59.817L118.508 60.7537L117.956 59.9022C117.006 58.4369 116.05 57.4394 114.827 56.6349C112.622 55.1847 110.29 54.6912 104.116 54.3678C98.5387 54.0757 95.3824 53.6023 92.2527 52.5879C86.9278 50.8624 84.2435 48.5643 77.9182 40.3161C75.1087 36.6525 73.3722 34.6256 71.6449 32.9932C67.7199 29.2841 63.8632 27.3389 58.9263 26.5778Z" fill="white"/>
<path d="M107.193 34.7574C107.334 32.3025 107.668 30.6833 108.342 29.2045C108.609 28.6192 108.858 28.1401 108.897 28.1401C108.935 28.1401 108.819 28.5721 108.639 29.1001C108.15 30.5352 108.069 32.4982 108.406 34.782C108.834 37.6797 109.078 38.0978 112.16 41.228C113.605 42.6962 115.286 44.5479 115.895 45.3429L117.004 46.7885L115.895 45.7554C114.54 44.492 111.424 42.0283 110.736 41.676C110.274 41.4399 110.205 41.444 109.92 41.7256C109.658 41.9852 109.603 42.3751 109.567 44.2189C109.51 47.0925 109.115 48.9369 108.165 50.781C107.65 51.7785 107.569 51.5656 108.034 50.4398C108.382 49.5991 108.417 49.2296 108.415 46.4479C108.409 40.8586 107.742 39.5149 103.827 37.2131C102.835 36.6299 101.2 35.789 100.195 35.3442C99.1894 34.8993 98.3907 34.5119 98.4197 34.4829C98.5306 34.3733 102.349 35.4809 103.886 36.0685C106.172 36.9424 106.549 37.0557 106.826 36.9503C107.013 36.8796 107.103 36.3409 107.193 34.7574Z" fill="white"/>
<path d="M61.559 44.3195C58.8076 40.5546 57.1052 34.7821 57.4738 30.4669L57.5877 29.1316L58.214 29.2452C59.3902 29.4584 61.4181 30.2086 62.3676 30.7818C64.9734 32.3547 66.1016 34.4256 67.2493 39.7434C67.5855 41.301 68.0266 43.0637 68.2295 43.6604C68.5562 44.6209 69.7909 46.8645 70.7947 48.3216C71.5177 49.3711 71.0374 49.8684 69.4392 49.7249C66.9983 49.506 63.692 47.238 61.559 44.3195Z" fill="white"/>
<path d="M103.858 72.3398C90.9998 67.1942 86.4712 62.7277 86.4712 55.1916C86.4712 54.0826 86.5096 53.1752 86.5564 53.1752C86.6032 53.1752 87.1007 53.5412 87.6619 53.9886C90.2693 56.0671 93.1891 56.9549 101.272 58.127C106.029 58.8167 108.705 59.3738 111.175 60.1876C119.023 62.7746 123.878 68.0244 125.036 75.1749C125.373 77.2527 125.175 81.1491 124.63 83.2026C124.2 84.8246 122.885 87.7482 122.536 87.8606C122.44 87.8916 122.345 87.5233 122.32 87.0223C122.188 84.3373 120.823 81.7233 118.53 79.7652C115.923 77.539 112.422 75.7664 103.858 72.3398Z" fill="white"/>
<path d="M94.8287 74.4773C94.6675 73.5244 94.3881 72.3076 94.2077 71.7732L93.8796 70.8016L94.489 71.4814C95.3324 72.4222 95.9988 73.6261 96.5636 75.2295C96.9947 76.4533 97.0432 76.8173 97.0399 78.8059C97.0366 80.7582 96.9828 81.1675 96.5847 82.2691C95.9571 84.006 95.1781 85.2377 93.871 86.5597C91.5222 88.9358 88.5024 90.2511 84.1446 90.7967C83.3871 90.8911 81.1793 91.0511 79.2384 91.1513C74.3469 91.4043 71.1275 91.9268 68.2347 92.9365C67.8188 93.0814 67.4475 93.17 67.4098 93.1326C67.2927 93.0165 69.2623 91.8497 70.8891 91.0706C73.1829 89.9722 75.4664 89.3733 80.5825 88.5264C83.1098 88.1077 85.7197 87.6003 86.3825 87.3984C92.6412 85.4912 95.8583 80.5694 94.8287 74.4773Z" fill="white"/>
<path d="M100.723 84.8814C99.0145 81.2312 98.6222 77.7069 99.5581 74.4202C99.6584 74.069 99.8193 73.7816 99.9162 73.7816C100.013 73.7816 100.416 73.9982 100.812 74.2628C101.599 74.7896 103.178 75.6768 107.385 77.9562C112.634 80.8007 115.627 83.0032 117.662 85.5196C119.444 87.7232 120.547 90.2335 121.078 93.2944C121.379 95.0277 121.202 99.1992 120.755 100.945C119.343 106.45 116.063 110.773 111.385 113.297C110.7 113.666 110.084 113.97 110.018 113.971C109.951 113.973 110.201 113.341 110.573 112.569C112.146 109.299 112.326 106.118 111.136 102.578C110.407 100.41 108.922 97.765 105.923 93.2944C102.435 88.0973 101.581 86.7141 100.723 84.8814Z" fill="white"/>
<path d="M52.426 104.576C57.1976 100.572 63.1347 97.7272 68.5427 96.8537C70.8735 96.4775 74.7561 96.6267 76.9144 97.1759C80.3739 98.0559 83.4686 100.027 85.0781 102.375C86.651 104.67 87.3258 106.67 88.0283 111.12C88.3055 112.875 88.6069 114.637 88.6982 115.037C89.2258 117.343 90.2525 119.186 91.5249 120.112C93.5457 121.582 97.0255 121.673 100.449 120.346C101.03 120.121 101.534 119.965 101.569 120C101.694 120.123 99.9699 121.27 98.7539 121.874C97.1176 122.686 95.8165 123 94.0876 123C90.9524 123 88.3495 121.415 86.1776 118.183C85.7501 117.546 84.7895 115.641 84.0427 113.948C81.7495 108.75 80.6172 107.166 77.9545 105.433C75.6373 103.925 72.649 103.655 70.401 104.751C67.4479 106.19 66.6239 109.941 68.739 112.317C69.5796 113.262 71.1472 114.077 72.429 114.235C74.827 114.532 76.8879 112.719 76.8879 110.312C76.8879 108.75 76.2836 107.858 74.7625 107.176C72.685 106.244 70.4519 107.334 70.4626 109.273C70.4672 110.101 70.8296 110.619 71.6638 110.995C72.199 111.236 72.2114 111.254 71.775 111.164C69.8688 110.772 69.4223 108.488 70.9549 106.971C72.795 105.151 76.6 105.954 77.9067 108.439C78.4557 109.483 78.5193 111.561 78.0407 112.816C76.9697 115.626 73.8465 117.102 70.6783 116.299C68.5212 115.751 67.6429 115.159 65.0423 112.496C60.5232 107.869 58.7688 106.973 52.2538 105.962L51.0054 105.768L52.426 104.576Z" fill="white"/>
<path fill-rule="evenodd" clip-rule="evenodd" d="M31.2226 21.7674C46.3142 39.9727 56.7086 47.4838 57.8637 49.0707C58.8174 50.381 58.4585 51.559 56.8246 52.4823C55.916 52.9956 54.048 53.5156 53.1127 53.5156C52.0549 53.5156 51.6917 53.1101 51.6917 53.1101C51.0783 52.5319 50.7329 52.633 47.583 47.076C43.2101 40.3319 39.5505 34.7374 39.4507 34.6437C39.2199 34.4272 39.2238 34.4344 47.1372 48.5072C48.4158 51.4403 47.3915 52.517 47.3915 52.9347C47.3915 53.7845 47.1583 54.2312 46.1035 55.4006C44.3451 57.3502 43.5591 59.5409 42.9917 64.0745C42.3557 69.1568 40.567 72.7468 35.6101 78.891C32.7086 82.4877 32.2338 83.147 31.5016 84.5965C30.5794 86.4221 30.3258 87.4445 30.2231 89.7495C30.1144 92.187 30.326 93.7617 31.0752 96.0918C31.7311 98.1322 32.4157 99.4792 34.166 102.173C35.6764 104.498 36.5461 106.227 36.5461 106.903C36.5461 107.44 36.6494 107.441 38.99 106.916C44.5912 105.659 49.1394 103.447 51.6973 100.738C53.2804 99.0605 53.6521 98.1343 53.6641 95.8367C53.672 94.3333 53.6189 94.0183 53.21 93.1534C52.5445 91.7459 51.3329 90.5754 48.6625 88.7614C45.1636 86.3839 43.6691 84.4701 43.2563 81.838C42.9177 79.6783 43.3105 78.1546 45.2462 74.1225C47.2496 69.9488 47.7461 68.1703 48.082 63.9635C48.2989 61.2456 48.5993 60.1737 49.385 59.3133C50.2044 58.4162 50.9421 58.1123 52.97 57.8369C56.2762 57.3881 58.3814 56.5379 60.1118 54.953C61.6129 53.5781 62.2411 52.2534 62.3375 50.2591L62.4107 48.7475L61.5718 47.7754C58.5339 44.2548 29.1881 19 29.0012 19C28.9612 19 29.9609 20.2454 31.2226 21.7674ZM38.2515 92.5077C38.9383 91.2983 38.5733 89.7444 37.4244 88.9848C36.3389 88.2677 34.6525 88.6057 34.6525 89.5405C34.6525 89.8259 34.8112 90.0334 35.1689 90.2165C35.7713 90.5242 35.815 90.8709 35.3411 91.5787C34.8611 92.2958 34.8998 92.9264 35.4504 93.3545C36.3377 94.045 37.5936 93.6651 38.2515 92.5077Z" fill="white"/>
<path fill-rule="evenodd" clip-rule="evenodd" d="M64.4979 58.6298C62.9458 59.1036 61.437 60.7386 60.97 62.4529C60.6851 63.4987 60.8468 65.3333 61.2735 65.8998C61.963 66.8149 62.6297 67.056 64.435 67.0434C67.9696 67.0189 71.0423 65.5122 71.3996 63.6287C71.6924 62.0847 70.3428 59.9449 68.484 59.0055C67.5248 58.521 65.4848 58.3288 64.4979 58.6298ZM68.6298 61.8411C69.1748 61.0713 68.9364 60.2394 68.0094 59.6768C66.244 58.6053 63.5743 59.492 63.5743 61.1495C63.5743 61.9746 64.9665 62.8749 66.2426 62.8749C67.092 62.8749 68.2543 62.3715 68.6298 61.8411Z" fill="white"/>
</svg>
