<svg width="64" height="64" viewBox="0 0 64 64" fill="none" xmlns="http://www.w3.org/2000/svg">
<rect width="64" height="64" rx="32" fill="black"/>
<path d="M35.8624 27.7524V23.0955H46.5115V16H17.5135V23.0955H28.1639V27.7486C19.5082 28.1462 13 29.8604 13 31.914C13 33.9676 19.5114 35.6818 28.1639 36.0819V50.9985H35.8649V36.0807C44.5049 35.6818 51 33.9688 51 31.9171C51 29.8654 44.5049 28.1524 35.8649 27.7536L35.8624 27.7524ZM35.8649 34.8172V34.8134C35.6476 34.8272 34.5313 34.8942 32.0457 34.8942C30.0585 34.8942 28.6604 34.8379 28.1677 34.8122V34.8184C20.5206 34.4797 14.8125 33.148 14.8125 31.5546C14.8125 29.9612 20.5212 28.6314 28.1677 28.2921V33.4918C28.6686 33.5262 30.1011 33.6107 32.0783 33.6107C34.453 33.6107 35.647 33.5118 35.8661 33.4918V28.2921C43.4982 28.632 49.1931 29.965 49.1931 31.5528C49.1931 33.1405 43.4957 34.4741 35.8661 34.8141" fill="white"/>
</svg>
