<svg width="150" height="150" viewBox="0 0 150 150" fill="none" xmlns="http://www.w3.org/2000/svg">
<circle cx="75" cy="75" r="75" fill="black"/>
<path fill-rule="evenodd" clip-rule="evenodd" d="M87.9067 64.612C87.9067 73.06 74.7296 72.0351 70.5495 72.0351V57.1522C74.7369 57.1522 87.9067 55.8272 87.9067 64.612ZM91.3475 87.7159C91.3475 96.9473 75.5641 95.8931 70.5349 95.8931V79.5461C75.5641 79.5461 91.3475 78.082 91.3475 87.7525V87.7159ZM101.743 61.3177C100.901 52.4597 93.3167 49.5315 83.7193 48.6091V36.4641H76.3475V48.3675C74.3928 48.3675 72.4016 48.3675 70.4177 48.4407V36.4641H63.0092V48.6823H47.98V56.6325C47.98 56.6325 53.4558 56.5373 53.3753 56.6325C54.3635 56.5237 55.3553 56.8035 56.1409 57.4129C56.9265 58.0222 57.4442 58.9132 57.5847 59.8975V93.3601C57.5641 93.7045 57.4758 94.0415 57.3248 94.3517C57.1738 94.6619 56.963 94.9392 56.7045 95.1677C56.4461 95.3962 56.145 95.5715 55.8187 95.6834C55.4923 95.7953 55.1471 95.8417 54.8028 95.8199C54.898 95.9077 49.4075 95.8199 49.4075 95.8199L47.9434 104.7H62.9141V117.145H70.3299V104.883H76.2523V117.064H83.6681V104.788C96.1937 104.056 104.898 100.93 106.025 89.1801C106.911 79.7145 102.475 75.4978 95.3811 73.8067C99.693 71.6105 102.402 67.7379 101.757 61.2957" fill="white"/>
<path d="M34.6709 30.5344C42.1876 23.7346 51.3128 18.962 61.1855 16.6667C71.0582 14.3715 81.3529 14.6293 91.0984 17.4158L91.9476 17.6574C92.3722 17.7818 92.7894 17.9136 93.2067 18.0527C93.807 18.243 94.4073 18.448 94.993 18.6603L95.5786 18.8726C96.3766 19.1654 97.1745 19.4802 97.9578 19.8097L98.053 19.8536C104.297 22.5382 110.1 26.1515 115.264 30.571L118.529 27.0425C118.09 26.6032 117.636 26.2006 117.189 25.7833C105.885 15.9908 91.539 10.4138 76.5889 10C75.7909 10 74.993 10 74.195 10H74.0266C69.1776 10.0672 64.3499 10.6562 59.6269 11.757L58.6606 11.9912L57.8553 12.2035C53.1492 13.4653 48.601 15.2556 44.2975 17.5403C39.5852 20.0702 35.2952 23.3179 31.5815 27.1669L34.6709 30.5344Z" fill="white"/>
<path d="M30.5348 34.6413L26.9477 31.5007C2.61385 57.0058 6.15704 98.5066 26.9477 118.287L30.608 115.425C20.4882 104.411 14.8669 90.0026 14.8547 75.0457C14.8425 60.0889 20.4403 45.6713 30.5421 34.6413H30.5348Z" fill="white"/>
<path d="M124.407 33.0893C123.844 32.5036 123.273 31.9253 122.68 31.3762L119.539 34.8169C137.987 55.7759 141.882 89.0482 120.117 114.663L123.177 118.36C133.633 106.687 139.519 91.6294 139.751 75.9601C139.982 60.2908 134.543 45.0656 124.437 33.0893H124.407Z" fill="white"/>
<path d="M115.498 119.561C113.375 121.149 111.267 122.606 109.151 123.953C101.473 129.379 92.6206 132.911 83.3164 134.261C78.5559 135.02 73.7148 135.133 68.924 134.597C56.8575 133.427 45.4345 128.606 36.1788 120.776C35.6956 120.425 35.2198 120.081 34.7147 119.715L31.3398 122.738C43.148 134.4 59.334 140.007 75.2637 140C75.6151 140 75.9958 140 76.3179 140H76.4863C91.304 139.614 105.54 134.153 116.816 124.532C117.328 124.048 117.848 123.572 118.338 123.067L115.498 119.561Z" fill="white"/>
</svg>
