<svg width="64" height="65" viewBox="0 0 64 65" fill="none" xmlns="http://www.w3.org/2000/svg">
<circle cx="32" cy="32" r="32" transform="rotate(180 32 32)" fill="white"/>
<path fill-rule="evenodd" clip-rule="evenodd" d="M32 64.0013C49.6731 64.0013 64 49.6744 64 32.0013C64 14.3282 49.6731 0.00134277 32 0.00134277C14.3269 0.00134277 0 14.3282 0 32.0013C0 49.6744 14.3269 64.0013 32 64.0013ZM39.2439 35.88L40.5671 31.5796L46.7764 31.5763L43.3689 42.4929C43.2341 42.9288 42.9631 43.3101 42.5959 43.5809C42.2285 43.8518 41.7842 43.998 41.3279 43.998H37.2722C36.8271 43.9976 36.3933 43.8585 36.031 43.5999C35.6687 43.3414 35.3962 42.9764 35.251 42.5557L32.6277 34.9472C32.5872 34.8312 32.5117 34.7307 32.4114 34.6595C32.3677 34.6285 32.3203 34.6038 32.2708 34.5857C32.2063 34.5623 32.1379 34.5502 32.0686 34.5502C31.9458 34.5502 31.8259 34.5884 31.7258 34.6595C31.6257 34.7307 31.55 34.8312 31.5095 34.9472L28.8862 42.5557C28.7422 42.9755 28.4714 43.3401 28.1111 43.599C27.7507 43.858 27.3188 43.9986 26.875 44.0013H23.0608C22.6045 44.0013 22.1602 43.8551 21.7927 43.5843C21.4255 43.3134 21.1545 42.9321 21.0198 42.4962L14 20.0013H20.2092L25.0391 35.5228L27.3547 28.8636C27.6941 27.881 28.3315 27.0288 29.1785 26.4258C30.0251 25.8227 31.0391 25.4988 32.0786 25.4993C33.1182 25.4988 34.1321 25.8227 34.9788 26.4258C35.8254 27.0288 36.4631 27.881 36.8025 28.8636L39.2439 35.88ZM50.3887 20.0013L47.3916 29.608H41.1824L44.1794 20.0013H50.3887Z" fill="black"/>
</svg>
