<svg width="64" height="65" viewBox="0 0 64 65" fill="none" xmlns="http://www.w3.org/2000/svg">
<g clip-path="url(#clip0_20967_177321)">
<circle cx="32" cy="32" r="32" transform="rotate(180 32 32)" fill="white"/>
<path fill-rule="evenodd" clip-rule="evenodd" d="M32 64.0013C49.6731 64.0013 64 49.6745 64 32.0013C64 14.3282 49.6731 0.00134277 32 0.00134277C14.3269 0.00134277 0 14.3282 0 32.0013C0 49.6745 14.3269 64.0013 32 64.0013ZM31.5 44.2442C31.9341 44.2442 32.3606 44.1297 32.7371 43.912L51 33.3165V40.7688C51.0002 41.5525 50.7957 42.3224 50.4065 43.0011C50.0171 43.6798 49.4573 44.2435 48.783 44.6353L33.717 53.4028C33.043 53.7949 32.2783 54.0013 31.5 54.0013C30.7217 54.0013 29.957 53.7949 29.283 53.4028L14.217 44.6353C13.5427 44.2435 12.9829 43.6798 12.5935 43.0011C12.2043 42.3224 11.9998 41.5525 12 40.7688V23.2339C11.9993 22.4506 12.2034 21.681 12.5918 21.0023C12.9802 20.3236 13.5391 19.7598 14.2126 19.3674L29.2786 10.5999C29.9526 10.2078 30.7173 10.0013 31.4956 10.0013C32.2742 10.0013 33.0388 10.2078 33.7126 10.5999L48.7786 19.3674C49.4529 19.7592 50.0129 20.3228 50.4021 21.0016C50.7913 21.6803 50.9958 22.4502 50.9956 23.2339V24.1194C50.9954 24.8043 50.8162 25.4772 50.4761 26.0704C50.1357 26.6636 49.6465 27.1564 49.0574 27.4992L32.0706 37.3802C31.8997 37.4795 31.7061 37.5317 31.5088 37.5317C31.3115 37.5317 31.1177 37.4795 30.9468 37.3802L27.1443 35.1883C26.9692 35.0892 26.824 34.9446 26.7236 34.7695C26.6233 34.5944 26.5715 34.3953 26.5737 34.1932V29.8095C26.5715 29.6073 26.6233 29.4083 26.7236 29.2332C26.824 29.0581 26.9692 28.9135 27.1443 28.8144L37.3713 22.7955L32.7371 20.0907C32.3606 19.873 31.9341 19.7585 31.5 19.7585C31.0659 19.7585 30.6394 19.873 30.2629 20.0907L21.8699 24.9874C21.4976 25.2046 21.1882 25.5158 20.9719 25.8902C20.7559 26.2646 20.6404 26.6892 20.6372 27.1222V36.8629C20.6375 37.2989 20.7515 37.7272 20.9678 38.1049C21.1841 38.4826 21.4951 38.7966 21.8699 39.0153L30.2629 43.912C30.6394 44.1297 31.0659 44.2442 31.5 44.2442Z" fill="black"/>
</g>
<defs>
<clipPath id="clip0_20967_177321">
<rect width="64" height="64" fill="white" transform="translate(0 0.00134277)"/>
</clipPath>
</defs>
</svg>
