<svg width="65" height="64" viewBox="0 0 65 64" fill="none" xmlns="http://www.w3.org/2000/svg">
<g clip-path="url(#clip0)">
<path fill-rule="evenodd" clip-rule="evenodd" d="M64.9918 31.9998C64.9918 49.673 50.6652 64 32.9922 64C15.319 64 0.992188 49.673 0.992188 31.9998C0.992188 14.3268 15.319 0 32.9922 0C50.665 0 64.9918 14.3268 64.9918 31.9998ZM11.6904 41.7256C11.6904 41.4143 11.6901 41.1054 11.6898 40.7981C11.689 39.883 11.6882 38.983 11.6947 38.0829C11.6947 38.0201 11.7693 37.9304 11.835 37.8945C12.0542 37.7756 12.2755 37.6613 12.4968 37.5469C12.7182 37.4325 12.9395 37.3181 13.1587 37.1992C14.4122 36.5218 15.039 35.4586 15.0215 34.0007C15.0191 33.7557 15.0145 33.5103 15.0099 33.2649C14.9975 32.5982 14.985 31.931 15.0171 31.2687C15.131 29.0392 15.6395 26.8904 16.5774 24.8762C19.2511 19.1341 23.6254 15.5408 29.7353 14.343C34.71 13.3696 39.2991 14.4866 43.4542 17.4563C43.4849 17.4788 43.5112 17.5012 43.555 17.5416C43.5261 17.5582 43.4995 17.5748 43.4739 17.5908C43.4373 17.6136 43.4026 17.6352 43.3665 17.6537C43.0831 17.802 42.7996 17.9499 42.5162 18.0977C41.805 18.4688 41.0944 18.8395 40.3861 19.2148C40.2458 19.2911 40.145 19.2821 40.0091 19.2059C37.5941 17.8556 35.0037 17.2589 32.2599 17.398C26.3209 17.6941 21.1095 21.6597 19.1064 27.3883C18.3307 29.5999 18.0589 32.2287 18.3789 34.4717C24.1257 31.4694 29.8694 28.4682 35.615 25.466L35.6997 25.4217C41.8934 22.1854 48.0893 18.9479 54.2934 15.7068V16.1599C54.2934 16.4201 54.2931 16.68 54.2929 16.9398C54.292 17.7191 54.2912 18.4971 54.2978 19.2776C54.2978 19.4212 54.2627 19.5019 54.1312 19.5692C49.6572 21.9022 45.1849 24.2387 40.7122 26.5753C38.0207 27.9815 35.3291 29.3876 32.6369 30.7932C30.4197 31.9502 28.2025 33.1083 25.9853 34.2665L25.9681 34.2754C23.7466 35.4358 21.5252 36.5962 19.3037 37.7555C18.0683 38.4 16.8339 39.0456 15.5996 39.6913L15.5913 39.6956C14.3541 40.3428 13.117 40.9899 11.8788 41.6358C11.8419 41.6564 11.8025 41.6744 11.7466 41.6998L11.6904 41.7256ZM54.2935 24.6518V23.2611C54.2534 23.2826 54.2175 23.3007 54.184 23.3176C54.1404 23.3395 54.1008 23.3594 54.0612 23.3822C48.4684 26.2981 42.8801 29.2185 37.2917 32.1389C28.8325 36.5576 20.3732 40.9763 11.914 45.3905C11.7518 45.4758 11.686 45.561 11.686 45.7584C11.6926 46.5725 11.6918 47.384 11.691 48.1968C11.6907 48.4679 11.6904 48.7392 11.6904 49.0107V49.2799C17.2492 46.3749 22.7996 43.4747 28.3467 40.5762C34.7663 37.2218 41.1815 33.8697 47.6006 30.515C47.6065 30.5351 47.6115 30.5498 47.6156 30.5619C47.6207 30.5768 47.6245 30.5878 47.6269 30.6002C47.811 32.1883 47.7715 33.7628 47.4779 35.3329C46.9826 37.9887 45.8824 40.3528 44.138 42.3849C41.3679 45.6104 37.8703 47.3554 33.6845 47.5932C30.9407 47.7457 28.3503 47.1221 25.9353 45.7719C25.8169 45.7046 25.7249 45.7001 25.5978 45.7674C25.0284 46.0677 24.4561 46.3667 23.8834 46.6658C23.4554 46.8893 23.0272 47.113 22.5998 47.3375C22.5743 47.3515 22.5497 47.3665 22.5235 47.3823C22.4913 47.4019 22.4569 47.4228 22.4157 47.4451C22.4446 47.4668 22.47 47.4876 22.494 47.5072C22.5246 47.5321 22.5527 47.5551 22.5823 47.5752C26.8426 50.5988 31.5455 51.6754 36.6123 50.5808C42.5513 49.2979 46.8073 45.7315 49.4064 40.1195C50.34 38.1008 50.8528 35.9565 50.9668 33.727C50.9988 33.0584 50.9864 32.3874 50.9739 31.7158C50.9693 31.4681 50.9647 31.2203 50.9624 30.9726C50.9492 29.5281 51.5672 28.4694 52.812 27.792C53.2372 27.5587 53.6667 27.3344 54.1006 27.1236C54.2628 27.0473 54.2979 26.9531 54.2979 26.7826C54.2913 26.2508 54.2921 25.7165 54.2929 25.1834C54.2932 25.006 54.2935 24.8288 54.2935 24.6518Z" fill="black"/>
</g>
<defs>
<clipPath id="clip0">
<rect x="0.992188" width="64" height="64" fill="white"/>
</clipPath>
</defs>
</svg>
