<svg width="65" height="64" viewBox="0 0 65 64" fill="none" xmlns="http://www.w3.org/2000/svg">
<g clip-path="url(#clip0)">
<path fill-rule="evenodd" clip-rule="evenodd" d="M64.9918 31.9998C64.9918 49.673 50.6652 64 32.9922 64C15.319 64 0.992188 49.673 0.992188 31.9998C0.992188 14.3268 15.319 0 32.9922 0C50.665 0 64.9918 14.3268 64.9918 31.9998ZM47.1328 15H52.9183L40.8817 27.2267C36.5247 31.6526 29.4605 31.6526 25.1035 27.2267L13.067 15H18.8524L27.9962 24.2883C30.7556 27.0914 35.2295 27.0914 37.9891 24.2883L47.1328 15ZM12.9922 49H18.7776L27.9957 39.6361C30.7552 36.833 35.229 36.833 37.9886 39.6361L47.2067 49H52.9922L40.8814 36.6978C36.5243 32.2719 29.4601 32.2719 25.103 36.6978L12.9922 49Z" fill="black"/>
</g>
<defs>
<clipPath id="clip0">
<rect x="0.992188" width="63.9996" height="64" fill="white"/>
</clipPath>
</defs>
</svg>
