<svg width="64" height="64" viewBox="0 0 64 64" fill="none" xmlns="http://www.w3.org/2000/svg">
<rect width="64" height="64" rx="32" fill="black"/>
<path d="M36.9673 54C33.8083 54 31.5074 53.2439 30.0619 51.7318C28.6178 50.2203 27.8951 48.5902 27.8951 46.8434C27.8951 46.2046 28.0208 45.6673 28.2728 45.2305C28.5187 44.7997 28.8757 44.4426 29.3066 44.1968C29.7433 43.9447 30.2806 43.8191 30.9194 43.8191C31.5581 43.8191 32.0948 43.9447 32.5322 44.1968C32.9689 44.4488 33.3133 44.7938 33.5653 45.2305C33.8173 45.6673 33.943 46.2046 33.943 46.8434C33.943 47.6161 33.7583 48.2458 33.3889 48.7332C33.0189 49.2206 32.5822 49.5392 32.0781 49.6913C32.5155 50.2953 33.2043 50.7237 34.145 50.9757C35.0858 51.2451 36.0265 51.3791 36.9673 51.3791C38.2774 51.3791 39.4618 51.0264 40.5206 50.321C41.5787 49.6149 42.3604 48.5735 42.8645 47.1961C43.3685 45.8186 43.6205 44.2558 43.6205 42.5083C43.6205 40.6101 43.3428 38.9883 42.7888 37.6448C42.2507 36.2841 41.453 35.276 40.3942 34.6206C39.3681 33.9748 38.1796 33.6341 36.9673 33.6382C36.1605 33.6382 35.1531 33.9742 33.943 34.6462L31.7254 35.755V34.6462L41.705 21.3404H27.8951V35.1496C27.8951 36.2924 28.1471 37.2331 28.6512 37.9725C29.1552 38.712 29.928 39.0813 30.9701 39.0813C31.7754 39.0813 32.5489 38.8126 33.2883 38.2746C34.0324 37.7319 34.6798 37.0676 35.2031 36.3097C35.2704 36.1577 35.3544 36.0487 35.4551 35.9813C35.5457 35.9014 35.662 35.8568 35.7828 35.8557C35.9675 35.8557 36.1855 35.948 36.4382 36.1334C36.6736 36.4014 36.7909 36.7124 36.7909 37.0651C36.762 37.3027 36.7198 37.5384 36.6646 37.7712C36.0939 39.048 35.3038 40.0221 34.2957 40.6941C33.3142 41.358 32.1549 41.7094 30.9701 41.7022C27.9791 41.7022 25.9122 41.1142 24.7701 39.9387C23.6281 38.7619 23.0567 37.1658 23.0567 35.1503V21.3404H16V18.7695H23.0567V12.9236L21.4438 11.3094V10H26.1309L27.8944 10.9067V18.7695L46.1401 18.7195L47.9549 20.5336L36.7659 31.7226C37.4433 31.4526 38.1564 31.2828 38.8828 31.2186C40.0922 31.2186 41.453 31.6053 42.9651 32.378C44.4939 33.1341 45.6701 34.1762 46.4928 35.5023C47.3162 36.8131 47.8452 38.0732 48.0806 39.2826C48.3326 40.4928 48.459 41.5675 48.459 42.5083C48.459 44.6592 48.0049 46.658 47.0982 48.5069C46.1908 50.3543 44.8133 51.7318 42.9651 52.6392C41.117 53.5466 39.1174 54 36.9673 54Z" fill="white"/>
</svg>
