<svg width="150" height="150" viewBox="0 0 150 150" fill="none" xmlns="http://www.w3.org/2000/svg">
<circle cx="75" cy="75" r="75" fill="black"/>
<path d="M71.9028 106.621V44.2207H78.6972V106.621H71.9028Z" fill="white"/>
<path d="M106.489 65.0105L85.5055 70.5755L80.8261 48.7955L87.0655 47.3855L89.5251 57.7055C89.5251 57.7055 95.1945 48.4055 87.6355 38.7755C83.1808 33.8255 81.0661 33.6155 76.0714 32.8355C71.677 32.2055 61.463 33.6905 58.4183 45.6155C57.1283 53.2955 58.5833 58.9805 68.4823 66.4205L67.9273 74.7005C67.9273 74.7005 56.8736 66.9155 54.0236 61.4555C51.8189 57.1355 48.0392 48.6005 54.8636 36.7205C58.5383 30.7806 65.7826 25.0806 78.5464 25.6806C84.9658 25.9506 100.639 33.7955 98.2092 52.1255C97.7892 55.5605 96.0045 60.1355 96.0045 60.1355L104.614 58.2155L106.489 65.0105Z" fill="white"/>
<path d="M94.5062 113.836C90.6665 119.671 83.2724 125.176 70.5387 124.246C64.1193 123.811 48.6709 115.546 51.5805 97.2909C52.0905 93.8709 53.9952 89.3559 53.9952 89.3559L45.3412 91.0359L43.6465 84.2109L64.7793 79.2009L68.8887 101.101L62.6043 102.346L60.4146 91.9509C60.4146 91.9509 54.5052 101.086 61.7946 110.926C66.114 115.996 68.214 116.251 73.2084 117.166C77.573 117.916 87.8318 116.686 91.1915 104.851C92.6765 97.2159 91.3715 91.4859 81.6824 83.7759L82.4624 75.5109C82.4624 75.5109 93.3065 83.5809 96.0062 89.1159C98.0759 93.5109 101.631 102.151 94.5062 113.836Z" fill="white"/>
</svg>
