<svg width="64" height="64" viewBox="0 0 64 64" fill="none" xmlns="http://www.w3.org/2000/svg">
<circle cx="32" cy="32" r="32" transform="rotate(180 32 32)" fill="white"/>
<path fill-rule="evenodd" clip-rule="evenodd" d="M32 0C14.3269 0 0 14.3269 0 32C0 49.6731 14.3269 64 32 64C49.6731 64 64 49.6731 64 32C64 14.3269 49.6731 0 32 0ZM21 18.034L25.6809 16L43.551 24.573V29.23L38.9009 31.299V31.329L26.813 37.436L38.9009 43.235V33.556L43.551 31.496V45.879L38.9009 47.941L21 39.353V34.647L33.3149 28.648L21 22.74V18.034Z" fill="black"/>
</svg>
