<svg width="291" height="229" viewBox="0 0 291 229" fill="none" xmlns="http://www.w3.org/2000/svg">
<path d="M176.691 84.2061C176.691 84.2061 189.591 74.1061 185.291 50.7061C180.191 22.7061 154.391 19.4061 147.991 18.5061C147.991 18.5061 149.591 5.5061 145.891 1.7061C144.291 0.106101 136.991 1.8061 136.391 4.6061C135.491 8.7061 136.991 16.0061 136.991 16.0061C136.991 16.0061 129.591 16.8061 127.591 16.8061H115.591C115.591 16.8061 116.091 5.3061 113.591 2.7061C110.691 -0.193899 104.991 1.4061 104.591 3.3061C103.791 7.5061 103.291 16.5061 103.291 16.5061L63.1909 21.7061L75.0909 42.6061L85.3909 42.2061L86.7909 50.5061C94.9909 91.8061 87.7909 149.906 87.7909 149.906L75.4909 151.506L68.0909 172.506L103.691 174.506C103.691 174.506 102.891 187.506 106.191 192.706C107.791 195.306 111.691 195.706 116.291 194.706C117.491 194.606 118.691 194.506 119.791 194.206C122.391 193.106 123.491 189.806 124.291 187.106C125.391 183.306 126.491 172.706 126.491 172.706C126.491 172.706 140.991 173.606 146.391 172.706C146.391 172.706 144.691 189.906 147.791 192.606C151.091 195.106 155.391 196.006 159.391 194.906L160.891 193.106C162.591 191.006 162.991 188.806 163.391 185.506L164.591 174.006L167.691 173.606C175.391 173.406 202.391 166.006 204.291 133.606C206.391 100.006 176.691 84.1061 176.691 84.2061ZM117.391 35.9061C127.791 33.3061 154.691 32.5061 161.391 40.2061C171.491 51.7061 166.991 73.8061 156.991 78.2061C145.391 83.3061 121.091 82.8061 113.491 81.9061C108.891 81.4061 106.691 79.2061 106.191 67.1061C105.491 53.9061 102.091 39.7061 117.391 35.9061ZM183.991 128.006C183.991 144.006 177.991 151.306 166.891 154.906C144.191 162.306 117.691 156.506 112.891 154.606C110.891 153.806 109.191 152.906 109.091 150.706C108.391 139.306 109.691 119.306 110.391 109.306C110.691 105.606 114.191 103.706 117.791 102.906C125.491 101.206 145.791 97.8061 156.291 100.406C160.291 101.406 169.391 104.406 172.991 106.306C185.491 112.806 183.991 128.006 183.991 128.006Z" fill="#00B57B"/>
<path d="M16.091 142.506C16.091 146.006 13.291 148.906 9.69102 148.906C6.09102 148.906 3.29102 146.106 3.29102 142.506C3.29102 139.006 6.09102 136.106 9.69102 136.106C13.191 136.106 16.091 139.006 16.091 142.506Z" fill="#00B57B"/>
<path d="M9.69102 148.906C13.2256 148.906 16.091 146.041 16.091 142.506C16.091 138.971 13.2256 136.106 9.69102 136.106C6.15639 136.106 3.29102 138.971 3.29102 142.506C3.29102 146.041 6.15639 148.906 9.69102 148.906Z" stroke="white" stroke-width="0.5" stroke-miterlimit="9.9996"/>
<path d="M284.091 86.2061C283.891 89.5061 280.991 92.0061 277.691 91.7061C274.391 91.4061 271.891 88.6061 272.191 85.3061C272.391 82.2061 274.991 79.7061 278.191 79.7061C281.491 79.8061 284.191 82.7061 284.091 86.2061C284.091 86.2061 284.091 86.1061 284.091 86.2061Z" fill="#00B57B"/>
<path d="M284.091 86.2061C283.891 89.5061 280.991 92.0061 277.691 91.7061C274.391 91.4061 271.891 88.6061 272.191 85.3061C272.391 82.2061 274.991 79.7061 278.191 79.7061C281.491 79.8061 284.191 82.7061 284.091 86.2061ZM284.091 86.2061C284.091 86.1061 284.091 86.2061 284.091 86.2061Z" stroke="white" stroke-miterlimit="9.9996"/>
<path d="M271.091 84.4062L273.991 87.5062C273.991 87.5062 272.291 87.8062 272.191 88.4062C272.091 89.0063 272.091 89.7063 272.091 89.7063L270.291 88.1063L271.091 84.4062Z" fill="white"/>
<path d="M285.391 88.2061L282.191 84.9061C282.191 84.9061 283.891 84.6061 283.991 84.0061C284.091 83.4061 284.091 82.7061 284.091 82.7061L285.891 84.3061L285.391 88.2061Z" fill="white"/>
<path d="M234.891 25.0059C241.791 12.8059 237.691 7.20586 237.691 7.30586C236.291 5.20586 232.891 4.50586 231.191 6.60586C230.491 7.50586 230.091 8.50586 229.891 9.50586C228.691 15.6059 233.491 21.8059 233.491 21.8059L234.891 25.0059Z" fill="#00B57B"/>
<path d="M236.391 24.7059C238.591 20.7059 244.991 4.00594 234.491 4.70594C229.091 5.10594 227.691 10.4059 228.791 15.1059C229.691 18.8059 231.991 21.9059 233.591 25.3059C233.891 26.0059 236.691 25.0059 236.491 24.5059C235.691 22.7059 234.691 21.1059 233.791 19.3059C232.691 17.4059 231.891 15.4059 231.591 13.3059C231.191 10.7059 231.991 3.30594 235.891 7.00594C240.391 11.4059 235.991 20.8059 233.691 25.2059C233.291 25.5059 235.991 25.4059 236.391 24.7059Z" fill="white"/>
<path d="M237.591 29.1063C238.791 30.3063 238.791 32.2063 237.591 33.3063C236.391 34.5063 234.491 34.5063 233.391 33.3063C232.191 32.1063 232.191 30.2063 233.391 29.1063C234.591 28.0063 236.491 28.0063 237.591 29.1063Z" fill="#00B57B"/>
<path d="M236.291 29.606C237.091 30.506 237.291 31.706 236.791 32.806C236.591 33.106 236.391 33.306 236.191 33.606L235.991 33.706C236.491 33.606 236.591 33.606 236.291 33.606C235.991 33.606 235.691 33.506 235.491 33.306C235.291 33.206 234.991 33.006 234.791 32.806C233.991 31.906 233.791 30.706 234.291 29.606C234.391 29.406 234.591 29.206 234.691 29.006C234.791 28.906 234.891 28.806 235.091 28.706C234.591 28.806 234.491 28.806 234.791 28.806C235.091 28.806 235.291 28.906 235.491 29.006C235.791 29.206 235.991 29.406 236.291 29.606C236.791 30.106 239.491 29.006 238.991 28.606C237.291 27.006 234.491 27.606 232.691 28.706C231.191 29.706 230.691 31.706 231.691 33.206C231.791 33.406 231.891 33.506 232.091 33.706C233.691 35.306 236.691 34.706 238.391 33.606C239.891 32.606 240.391 30.606 239.491 29.106C239.391 28.906 239.191 28.706 239.091 28.606C238.491 28.006 235.791 29.106 236.291 29.606Z" fill="white"/>
<path d="M267.391 69.6062C269.891 69.0062 271.791 65.1062 268.091 64.8062C264.691 64.7062 261.391 66.0062 258.991 68.4062C258.091 69.3062 260.191 69.3062 260.691 68.8062C261.891 67.6062 263.291 66.8062 264.791 66.4062C265.591 66.2062 267.791 65.6062 267.991 66.8062C267.991 67.5062 267.591 68.2061 266.991 68.5061C265.691 68.8061 265.991 69.9062 267.391 69.6062Z" fill="#221F1F"/>
<path d="M258.791 67.0061C259.591 66.2061 260.391 65.5061 261.391 64.8061C262.091 64.2061 262.891 63.8061 263.791 63.5061C264.791 63.3061 265.391 63.7061 264.891 64.7061C264.491 65.7061 266.591 65.5061 266.891 64.8061C268.091 62.1061 264.891 61.8061 262.991 62.4061C260.691 63.3061 258.591 64.7061 256.991 66.5061C256.091 67.4061 258.191 67.5061 258.791 67.0061Z" fill="#221F1F"/>
<path d="M258.391 63.6059C259.391 62.6059 261.691 60.6059 260.191 59.3059C258.991 58.2059 256.291 59.1059 255.091 59.7059C250.391 62.3059 244.591 72.1059 252.291 74.6059C256.891 76.1059 264.391 75.0059 268.191 71.9059C269.591 70.7059 270.391 69.3059 268.191 68.6059C265.691 67.8059 262.291 69.2059 260.191 70.5059C258.991 71.3059 260.891 71.4059 261.491 71.0059C262.591 70.3059 269.291 68.4059 266.691 71.5059C265.791 72.5059 263.791 73.0059 262.491 73.4059C259.791 74.1059 256.091 74.6059 253.391 73.5059C249.791 71.9059 250.291 68.3059 251.991 65.5059C252.491 64.7059 252.991 63.9059 253.591 63.1059C253.891 62.7059 258.791 57.1059 258.391 61.1059C258.291 61.9059 257.091 62.9059 256.591 63.4059C255.691 64.1059 257.891 64.0059 258.391 63.6059Z" fill="#221F1F"/>
<path d="M271.991 151.906C273.691 149.806 269.691 146.906 268.091 146.006C266.891 145.306 265.591 144.906 264.291 144.906C263.691 144.906 263.091 145.006 262.491 145.406C262.191 145.706 262.091 145.906 262.591 145.906C263.691 146.006 264.791 146.306 265.691 146.906C267.191 147.706 270.991 150.506 269.491 152.406C269.191 152.706 270.391 152.606 270.491 152.606C271.091 152.606 271.591 152.406 271.991 151.906Z" fill="#221F1F"/>
<path d="M263.791 143.006C265.391 143.306 273.391 145.506 271.691 148.106C271.491 148.506 272.591 148.306 272.691 148.306C273.291 148.306 273.791 148.006 274.191 147.606C276.191 144.606 267.791 142.306 265.891 142.006C265.291 141.906 264.691 142.006 264.191 142.306C263.991 142.506 263.291 142.906 263.791 143.006Z" fill="#221F1F"/>
<path d="M268.691 139.606C264.091 139.506 260.091 135.306 255.391 137.506C251.591 139.206 250.891 144.106 253.091 147.406C254.591 149.506 257.291 151.106 259.591 152.106C261.491 153.006 263.991 154.206 266.191 153.906C267.191 153.806 268.791 153.306 268.891 152.106C269.091 150.006 264.391 147.906 263.091 147.206C262.391 146.806 260.291 147.906 260.691 148.106C262.491 148.906 264.191 150.006 265.591 151.406C267.591 153.606 263.991 152.106 263.091 151.706C259.991 150.506 255.991 148.406 254.891 145.106C253.791 142.106 254.591 137.306 258.691 138.106C261.591 138.706 264.091 140.606 267.191 140.606C267.591 140.706 269.891 139.606 268.691 139.606Z" fill="#221F1F"/>
<path d="M17.4914 123.706C15.9914 123.506 19.0914 121.506 19.3914 121.406C20.1914 121.006 21.0914 120.706 21.9914 120.606C22.6914 120.506 23.3914 120.506 24.1914 120.606C24.9914 120.806 26.7914 119.606 25.4914 119.306C23.1914 118.806 20.8914 119.206 18.7914 120.206C17.4914 120.806 15.6914 121.706 15.0914 123.106C14.4914 124.506 15.6914 124.906 16.7914 125.106C17.8914 125.306 18.9914 123.906 17.4914 123.706Z" fill="#221F1F"/>
<path d="M23.4915 116.106C21.4915 116.006 12.5915 115.906 13.7915 119.606C13.9915 120.406 16.2915 121.006 16.0915 120.306C15.1915 117.406 23.0915 117.406 24.7915 117.606C25.3915 117.606 25.2915 117.306 25.0915 116.906C24.6915 116.306 24.1915 116.106 23.4915 116.106Z" fill="#221F1F"/>
<path d="M20.8914 114.306C24.9914 115.306 32.8914 111.606 34.4914 117.406C35.6914 121.506 31.9914 124.506 28.5914 125.706C26.4914 126.406 24.3914 126.606 22.1914 126.506C17.0914 126.006 23.3914 123.606 24.9914 123.206C25.3914 123.106 27.4914 121.806 26.3914 122.106C25.0914 122.406 16.4914 124.306 17.9914 127.006C18.9914 128.806 23.7914 127.606 25.2914 127.406C27.7914 127.006 30.1914 126.106 32.3914 124.906C35.4914 123.206 38.1914 119.106 36.3914 115.606C33.9914 110.706 26.9914 114.206 22.9914 113.206C22.2914 112.906 20.7914 114.206 20.8914 114.306Z" fill="#221F1F"/>
<path d="M276.191 114.806C277.491 114.606 279.191 114.206 280.091 113.106C281.191 111.706 279.391 110.906 278.291 110.506C275.491 109.506 272.391 109.506 269.491 110.506C267.991 111.006 269.391 111.506 270.291 111.206C271.391 110.906 272.591 110.806 273.691 110.906C274.891 111.006 276.091 111.306 277.091 111.806C278.591 112.606 278.191 113.606 276.491 113.906C275.491 113.906 274.491 115.006 276.191 114.806Z" fill="#221F1F"/>
<path d="M269.091 108.706C270.291 108.306 271.591 108.006 272.891 107.806C273.991 107.606 275.191 107.706 276.191 108.106C276.991 108.606 277.191 109.206 276.391 109.906C275.391 110.706 277.691 110.706 278.191 110.206C280.491 108.306 277.991 106.706 275.891 106.506C273.391 106.406 270.991 106.706 268.691 107.606C267.491 108.006 267.691 109.106 269.091 108.706Z" fill="#221F1F"/>
<path d="M269.691 104.206C270.791 103.106 273.191 100.906 272.491 99.1061C271.891 97.6061 269.891 97.5061 268.691 98.2061C267.291 99.0061 266.291 100.706 264.891 101.606C263.291 102.706 261.291 103.406 259.891 104.706C257.991 106.406 257.491 109.106 258.491 111.406C260.691 116.406 269.891 118.806 274.791 118.106C276.291 117.906 278.991 117.106 278.291 115.106C277.291 112.406 271.991 112.306 269.791 112.506C268.591 112.606 267.991 114.206 269.591 114.006C270.991 113.906 272.791 113.806 274.091 114.506C275.391 115.206 276.191 116.106 274.391 116.606C272.591 117.106 270.091 116.206 268.591 115.706C265.691 114.806 261.291 113.106 260.491 109.906C259.191 105.006 265.091 103.806 267.891 101.406C268.791 100.606 270.891 98.3061 269.691 101.306C269.191 102.206 268.491 103.006 267.791 103.606C266.891 104.606 269.091 104.806 269.691 104.206Z" fill="#221F1F"/>
<path d="M20.8913 85.4061C20.1913 85.2061 18.7913 84.7061 18.4913 83.9061C17.9913 82.5061 21.3913 82.6061 22.1913 82.7061C23.4913 82.8061 24.6913 83.1061 25.8913 83.7061C26.3913 84.0061 28.4913 83.1061 27.7913 82.7061C25.0913 81.5061 22.0913 81.2061 19.2913 81.9061C18.3913 82.1061 16.1913 82.6061 16.0913 83.9061C15.9913 85.2061 18.0913 86.0061 19.0913 86.3061C19.5913 86.5061 21.6913 85.6061 20.8913 85.4061Z" fill="#221F1F"/>
<path d="M28.991 80.2062C26.791 79.0062 24.191 78.3062 21.691 78.3062C19.891 78.4062 16.291 79.7061 18.391 82.0061C18.891 82.5061 21.091 81.7062 20.491 81.1062C19.891 80.5062 19.791 79.8061 20.791 79.5061C21.891 79.4061 22.891 79.6061 23.891 80.0061C24.991 80.3061 26.091 80.7062 27.091 81.2062C27.791 81.5062 29.891 80.6062 28.991 80.2062Z" fill="#221F1F"/>
<path d="M29.7913 76.1059C29.0913 75.3059 28.5913 74.5059 28.0913 73.6059C27.1913 71.5059 27.7913 72.1059 28.6913 73.3059C30.7913 76.0059 35.9913 78.0059 36.3913 81.5059C36.9913 86.1059 31.9913 87.7059 28.3913 88.4059C26.5913 88.8059 24.6913 88.9059 22.8913 88.7059C21.5913 88.5059 20.2913 88.7059 20.7913 87.3059C21.3913 85.6059 24.5913 86.2059 25.8913 86.5059C26.7913 86.7059 28.5913 85.4059 27.1913 85.1059C24.5913 84.5059 20.4913 84.3059 18.3913 86.3059C16.5913 88.0059 18.2913 89.4059 20.0913 89.9059C25.0913 91.4059 34.0913 89.9059 37.3913 85.6059C39.0913 83.5059 39.0913 80.6059 37.4913 78.4059C36.3913 77.0059 34.5913 76.1059 33.2913 75.0059C31.8913 73.9059 30.8913 71.7059 29.4913 70.8059C28.0913 70.0059 26.3913 70.4059 25.4913 71.7059C24.5913 73.4059 26.5913 75.9059 27.5913 77.1059C28.2913 77.8059 30.4913 76.9059 29.7913 76.1059Z" fill="#221F1F"/>
<path d="M170.891 193.206C174.191 187.706 173.291 179.006 173.191 172.906L171.391 174.306C184.491 174.806 197.791 167.506 204.991 156.606C217.891 137.106 215.391 109.906 199.591 92.9058C195.791 88.7058 191.291 85.1058 186.291 82.4058C184.091 81.3058 183.391 84.5058 185.291 85.5058C184.691 85.2058 185.491 85.6058 185.691 85.8058C186.391 86.2058 186.991 86.6058 187.691 87.0058C190.091 88.6058 192.291 90.4058 194.391 92.3058C200.991 98.4058 205.691 106.106 208.091 114.706C213.491 135.106 205.191 160.506 184.391 168.306C180.191 169.806 175.791 170.706 171.391 170.806C170.491 170.806 169.591 171.206 169.591 172.206C169.691 177.606 170.691 186.106 167.791 190.906C166.691 192.906 169.791 195.106 170.891 193.206Z" fill="#221F1F"/>
<path d="M130.591 193.306C131.691 189.906 132.391 186.406 132.891 182.906C133.091 181.406 132.791 174.506 133.491 173.806C134.191 173.106 138.791 174.006 139.491 174.006C142.391 174.006 145.291 174.006 148.291 173.806L145.691 171.306C145.291 177.006 143.891 185.706 146.491 191.006C149.691 197.406 160.391 196.306 165.991 195.406C166.191 195.406 164.291 192.706 163.491 192.806C159.491 193.506 155.391 193.506 151.291 192.806C149.091 192.406 149.291 193.006 148.691 191.406C148.391 190.106 148.191 188.806 148.291 187.506C148.091 182.806 148.091 178.206 148.491 173.506C148.491 172.906 146.491 171.006 145.891 171.006C140.891 171.306 135.891 171.306 130.991 171.006C130.891 171.006 130.891 171.006 130.891 171.106C130.991 177.706 129.991 184.206 127.991 190.406C127.591 191.606 130.591 193.306 130.591 193.306Z" fill="#221F1F"/>
<path d="M177.391 89.406C195.491 77.506 198.591 49.006 186.391 31.706C179.391 21.806 166.691 15.706 154.691 15.006L156.891 16.106C156.991 11.406 157.491 4.60604 152.891 1.90604C148.891 -0.393962 141.091 -0.593962 136.891 1.20604C132.691 3.00604 133.091 11.506 133.691 15.306C133.791 16.106 135.391 15.806 133.691 15.606C132.191 15.506 130.691 15.506 129.191 15.606H121.191L123.691 16.306C123.091 15.706 123.491 11.906 123.391 11.106C123.391 9.30604 123.191 7.50604 122.891 5.70604C122.191 2.60604 120.091 2.10604 117.091 1.50604C113.291 0.806038 107.991 0.206038 104.291 1.90604C100.991 3.30604 100.891 6.90604 100.691 10.106C100.591 12.006 100.691 13.906 100.691 15.806C100.691 17.506 101.491 17.106 99.5914 17.006C95.0914 16.606 90.1914 17.406 85.6914 17.806C77.6914 18.406 69.5914 18.906 61.5914 19.806C61.3914 19.806 60.7914 20.006 60.9914 20.406C64.8914 27.806 68.6914 35.206 72.5914 42.606C72.9914 43.306 74.4914 43.606 75.1914 43.506L86.2914 42.706L83.4914 41.706C88.6914 67.906 90.2914 94.706 88.2914 121.306C87.5914 130.106 86.3914 139.106 86.0914 147.906C85.9914 149.506 86.1914 148.706 85.7914 148.806C82.1914 149.806 78.0914 149.806 74.3914 150.306C74.1914 150.306 73.8914 150.406 73.7914 150.706L66.3914 171.706C66.0914 172.506 68.6914 172.806 69.0914 172.806C81.4914 173.106 94.0914 173.706 106.491 173.206L103.791 172.106C103.591 177.806 102.491 186.206 104.991 191.506C106.091 193.906 108.691 194.206 111.091 194.506C115.891 195.206 120.691 195.206 125.491 194.606C127.291 194.406 123.991 193.006 123.091 193.106C119.491 193.706 112.491 194.806 109.491 192.806C107.491 191.406 107.691 187.706 107.491 185.406C107.191 181.206 107.191 177.106 107.391 172.906C107.391 172.006 105.291 171.806 104.691 171.806C92.2914 172.306 79.6914 171.706 67.2914 171.406L69.9914 172.506C72.0914 166.506 74.1914 160.506 76.3914 154.506C76.5914 153.506 76.8914 152.606 77.3914 151.806C77.6914 151.406 76.3914 152.306 77.3914 151.906C78.0914 151.706 78.8914 151.606 79.6914 151.606L89.0914 150.306C89.2914 150.306 89.6914 150.206 89.6914 149.906C90.0914 147.506 90.3914 145.006 90.4914 142.606C91.5914 130.006 92.8914 117.306 93.0914 104.706C93.2914 83.706 91.3914 62.706 87.2914 42.106C87.1914 41.406 85.1914 41.106 84.6914 41.206L73.5914 42.006L76.1914 42.906L70.1914 31.406L66.2914 23.906C65.8914 23.106 65.3914 22.306 64.9914 21.406C64.4914 20.306 64.3914 21.406 64.5914 21.206C66.0914 20.306 69.9914 20.706 71.6914 20.506C75.2914 20.206 78.7914 19.906 82.3914 19.606C89.3914 19.106 96.3914 18.506 103.491 18.406C103.691 18.406 104.491 18.306 104.491 18.006C104.191 14.206 103.491 8.40604 105.391 4.90604C106.991 2.10604 116.191 1.00604 118.491 3.40604C120.091 5.00604 119.691 9.50604 119.791 11.706C119.891 15.206 119.591 16.806 123.391 17.006C127.691 17.306 132.091 17.006 136.391 17.006C136.591 17.006 137.491 16.906 137.391 16.606C136.991 12.206 135.891 3.30604 141.291 2.20604C143.091 1.80604 144.891 1.60604 146.691 1.70604C151.191 1.90604 152.191 4.20604 152.591 8.10604C152.891 10.506 152.991 12.906 153.091 15.306C153.091 16.106 154.791 16.406 155.291 16.406C167.291 17.106 179.291 24.306 184.891 34.906C194.091 52.206 190.691 77.206 173.791 88.306C173.191 88.706 176.391 90.006 177.391 89.406Z" fill="#221F1F"/>
<path d="M104.491 183.406C110.491 186.006 117.591 186.206 123.891 185.106C125.291 184.806 126.191 183.006 124.191 183.306C118.491 184.306 112.091 184.306 106.691 181.906C105.791 181.506 103.191 182.906 104.491 183.406Z" fill="#221F1F"/>
<path d="M145.891 183.406C151.891 186.006 158.991 186.206 165.291 185.106C166.691 184.806 167.591 183.006 165.591 183.306C159.891 184.306 153.491 184.306 148.091 181.906C147.191 181.506 144.591 182.906 145.891 183.406Z" fill="#221F1F"/>
<path d="M122.891 194.306L113.691 194.806C117.291 204.806 121.791 214.406 127.091 223.506C127.091 223.506 119.091 226.006 119.191 227.306C119.291 229.006 128.391 227.506 128.791 226.206L129.291 227.706H130.991C130.891 227.606 123.791 208.006 122.891 194.306Z" fill="#221F1F"/>
<path d="M152.491 194.306L161.691 194.806C158.091 204.806 153.591 214.406 148.291 223.506C148.291 223.506 156.291 226.006 156.191 227.306C156.191 229.006 146.991 227.506 146.591 226.206L146.091 227.706H144.391C144.391 227.606 151.591 208.006 152.491 194.306Z" fill="#221F1F"/>
<path d="M114.091 106.406C113.791 114.006 113.491 121.606 113.191 129.206C112.991 134.106 112.291 139.206 112.391 144.206C112.291 146.006 113.091 147.706 114.391 149.006C118.491 152.906 125.591 153.906 130.891 154.506C139.291 155.506 147.691 155.306 156.091 154.106C163.191 153.106 170.891 151.406 176.891 147.206C182.591 143.206 184.491 135.906 184.991 129.206C186.491 109.706 169.891 99.606 152.291 98.506C144.691 98.206 137.091 98.206 129.391 98.706C125.991 98.806 122.291 98.806 118.991 99.606C115.191 100.606 114.991 102.606 114.191 106.006C113.791 107.806 117.291 109.006 117.691 107.306C118.191 105.306 117.891 103.506 119.991 102.506C121.991 101.506 124.791 101.706 126.791 101.606C131.391 101.306 135.891 101.306 140.491 101.206C151.191 101.006 162.991 100.606 172.091 107.106C178.291 111.506 181.291 118.606 181.291 126.106C181.291 132.006 179.991 139.806 175.291 143.806C170.591 147.906 163.491 149.606 157.291 150.706C149.891 152.006 142.391 152.406 134.891 151.906C129.591 151.606 122.391 151.206 117.791 148.006C115.391 146.406 115.791 144.906 115.991 142.206C116.291 137.406 116.491 132.606 116.691 127.806C116.991 120.806 117.291 113.906 117.591 106.906C117.691 105.306 114.091 104.506 114.091 106.406Z" fill="#221F1F"/>
<path d="M109.591 61.5057C110.191 66.0057 110.391 76.6058 115.591 78.7058C120.491 80.7058 128.091 79.5058 133.191 79.3058C140.491 79.0058 147.991 78.5058 155.191 76.8058C162.891 75.0058 166.391 68.7058 167.691 61.2058C167.891 59.8058 165.491 57.3057 165.091 59.5057C163.791 66.9057 160.091 72.1058 152.791 73.6058C147.091 74.7058 141.291 75.4058 135.491 75.6058C130.091 76.0058 124.691 76.1058 119.291 75.8058C118.191 75.7058 115.791 75.9058 114.891 75.2058C113.991 74.5058 113.791 71.6058 113.591 70.6058C112.991 67.9058 112.591 65.1058 112.191 62.4058C111.891 60.8058 109.291 59.1057 109.591 61.5057Z" fill="#221F1F"/>
<path d="M188.191 84.8063C188.191 84.8063 218.191 70.1063 227.791 45.4062L229.991 46.3063C224.291 64.8063 212.391 80.7063 196.191 91.3063L188.191 84.8063Z" fill="#221F1F"/>
<path d="M197.991 93.5059C198.291 93.9059 238.991 82.5059 248.991 71.0059L251.091 73.5059C251.091 73.5059 238.991 88.8059 204.191 101.606L197.991 93.5059Z" fill="#221F1F"/>
<path d="M210.891 113.806C221.991 108.706 259.691 110.306 259.691 110.306L259.491 107.306C227.591 101.206 207.191 105.306 207.191 105.306L210.891 113.806Z" fill="#221F1F"/>
<path d="M210.292 116.006C210.292 116.006 231.491 118.606 254.191 138.806L253.092 141.006C253.092 141.006 219.891 124.606 211.391 125.006" fill="#221F1F"/>
<path d="M90.3912 85.506C90.3912 85.506 63.2912 74.906 49.6912 55.606L47.4912 57.406C47.5912 57.506 59.0912 83.506 91.0912 96.606L90.3912 85.506Z" fill="#221F1F"/>
<path d="M91.7913 99.506C91.4913 99.906 48.1913 91.006 36.9913 81.606L36.0913 85.506C36.0913 85.506 54.6913 101.206 92.4913 108.806L91.7913 99.506Z" fill="#221F1F"/>
<path d="M90.1913 121.006C71.9913 115.106 35.5913 119.906 35.5913 119.906V116.806C66.5913 107.206 90.3913 112.206 90.3913 112.206L90.1913 121.006Z" fill="#221F1F"/>
<path d="M89.1913 123.406C89.1913 123.406 66.3913 124.706 41.5913 146.506L42.4913 148.706C42.4913 148.706 72.6913 130.506 87.8913 132.406" fill="#221F1F"/>
<path d="M42.4913 47.8061C40.5913 47.6061 39.4913 45.0061 38.4913 43.6061C37.6913 42.3061 36.2913 41.5061 34.7913 41.6061C30.1913 42.0061 34.4913 47.2061 36.0913 48.6061C36.4913 48.9061 38.3913 48.7061 37.7913 48.3061C36.3913 47.2061 35.2913 45.7061 34.6913 44.0061C34.5913 43.6061 34.4913 42.7061 34.9913 42.5061C35.4913 42.3061 36.3913 43.8061 36.6913 44.2061C37.9913 46.0061 39.1913 48.3061 41.6913 48.6061C42.6913 48.8061 43.7913 48.1061 42.4913 47.8061Z" fill="#221F1F"/>
<path d="M37.5911 52.7061C36.6911 52.3061 37.1911 51.1061 37.6911 50.6061C38.1911 50.3061 38.6911 50.1061 39.2911 50.1061C40.1911 50.1061 42.2911 50.7061 41.2911 52.0061C40.9911 52.4061 42.7911 52.7061 43.1911 52.2061C43.9911 51.1061 42.7911 49.9061 41.7911 49.6061C40.7911 49.3061 39.7911 49.2061 38.7911 49.3061C37.6911 49.3061 36.5911 49.7061 35.6911 50.4061C34.9911 51.0061 34.8911 52.0061 35.3911 52.7061C35.5911 52.9061 35.7911 53.1061 36.0911 53.2061C36.5911 53.4061 38.3911 53.1061 37.5911 52.7061Z" fill="#221F1F"/>
<path d="M40.9914 57.0059C41.9914 57.0059 43.7914 56.8059 44.3914 55.9059C45.4914 54.3059 43.1914 53.3059 41.8914 53.2059C40.2914 53.0059 37.9914 53.1059 36.7914 54.2059C35.0914 55.7059 36.5914 57.2059 38.1914 57.9059C41.8914 59.5059 48.2914 60.4059 50.5914 56.1059C51.7914 53.6059 51.7914 50.7059 50.6914 48.2059C50.0914 46.7059 49.3914 45.3059 48.8914 43.8059C48.6914 42.8059 48.0914 41.8059 47.3914 41.1059C46.1914 40.3059 44.5914 40.3059 43.4914 41.1059C41.8914 42.6059 42.9914 45.9059 43.7914 47.6059C43.9914 48.1059 46.0914 47.9059 45.7914 47.3059C45.1914 46.0059 44.8914 44.7059 44.8914 43.3059C44.9914 40.8059 46.0914 41.9059 46.6914 43.5059C47.6914 46.1059 49.3914 49.2059 49.4914 52.0059C49.5914 53.6059 49.1914 55.2059 48.3914 56.6059C46.7914 58.9059 43.8914 58.7059 41.4914 58.0059C40.0914 57.6059 35.8914 55.3059 39.6914 54.2059C40.3914 54.0059 42.8914 54.2059 42.6914 55.4059C42.5914 56.2059 41.6914 56.3059 41.0914 56.3059C39.6914 56.2059 39.6914 57.0059 40.9914 57.0059Z" fill="#221F1F"/>
<path d="M238.891 46.3061C240.391 46.2061 241.791 45.4061 242.591 44.2061C243.591 42.9061 245.491 38.7061 243.791 37.2061C242.691 36.2061 240.491 37.1061 239.591 37.9061C238.191 39.1061 237.491 41.3061 237.091 43.1061L239.191 42.5061C236.391 40.4061 231.591 37.7061 228.691 41.2061C226.891 43.3061 226.691 46.0061 229.091 47.5061C229.691 47.9061 231.591 47.0061 231.091 46.7061C229.291 45.6061 229.291 44.8061 229.791 42.9061C229.991 42.1061 230.491 40.9061 231.391 40.6061C233.091 40.1061 235.891 42.4061 237.091 43.3061C237.491 43.6061 239.091 43.4061 239.191 42.7061C239.391 41.7061 239.991 38.7061 240.991 38.3061C242.591 37.7061 241.991 39.9061 241.791 40.7061C241.591 41.5061 240.591 45.0061 239.591 45.0061C238.991 45.2061 237.391 46.4061 238.891 46.3061Z" fill="#221F1F"/>
<path d="M245.591 36.2061C244.791 36.1061 244.591 36.206 244.991 36.506C245.191 36.606 245.291 36.806 245.291 37.006C245.491 37.406 245.591 37.906 245.691 38.406C245.791 39.706 245.591 41.106 245.191 42.306C244.791 43.806 243.891 46.106 242.091 46.506C240.791 46.806 241.091 48.006 242.391 47.706C245.991 46.806 247.591 42.706 247.891 39.306C247.991 37.906 247.891 35.8061 246.291 35.2061C245.291 34.9061 244.191 35.306 243.591 36.106C242.891 37.006 245.091 36.9061 245.591 36.2061Z" fill="#221F1F"/>
<path d="M248.691 38.9062C250.291 38.3062 248.291 44.5062 248.291 44.5062C247.091 47.3062 245.091 49.5062 241.991 49.4062C237.791 49.2062 233.791 48.0062 230.191 45.9062C229.691 45.6062 227.792 47.1062 228.092 47.3062C233.192 50.2062 240.491 52.5062 245.891 49.2062C249.191 47.1062 251.291 43.7062 251.691 39.8062C251.791 38.2062 251.292 37.1062 249.592 37.8062C248.992 38.0062 247.091 39.5062 248.691 38.9062Z" fill="#221F1F"/>
<path d="M32.4912 155.006C31.5912 155.506 29.2912 153.306 28.5912 152.606C27.8912 151.906 25.5912 149.506 28.0912 149.606C29.2912 149.706 30.8912 151.706 31.5912 152.506C31.9912 152.906 33.1912 152.406 33.3912 152.006C34.2912 150.006 36.5912 144.306 39.4912 147.006C40.8912 148.306 41.2912 150.306 40.5912 152.106C40.3912 152.606 42.2912 152.406 42.4912 151.806C43.2912 149.206 42.2912 145.906 39.3912 145.306C35.2912 144.506 32.8912 149.306 31.5912 152.306L33.4912 151.806C32.3912 150.506 30.7912 148.906 28.9912 148.506C27.8912 148.206 25.7912 148.406 25.1912 149.706C24.1912 151.806 28.1912 154.806 29.6912 155.406C30.8912 156.006 32.3912 156.006 33.5912 155.406C34.7912 154.806 33.0912 154.706 32.4912 155.006Z" fill="#221F1F"/>
<path d="M24.6912 148.706C23.6912 148.206 22.4911 148.406 21.7911 149.306C20.6911 150.706 21.7912 152.706 22.5912 153.906C24.4912 156.606 27.6912 159.306 31.1912 158.406C32.4912 158.106 32.1911 156.906 30.8911 157.206C29.2911 157.606 27.3911 156.106 26.2911 155.106C25.2911 154.206 24.4911 153.106 23.8911 151.906C23.6911 151.506 23.5912 151.206 23.5912 150.806C23.5912 150.506 23.5912 150.306 23.5912 150.006C23.8912 149.506 23.6912 149.406 22.9912 149.806C23.6912 150.206 25.6912 149.206 24.6912 148.706Z" fill="#221F1F"/>
<path d="M20.9913 152.706C14.9913 153.606 25.0913 160.806 27.0913 161.306C33.0913 162.706 40.0913 157.306 42.3913 152.106C42.6913 151.306 41.1913 151.306 40.9913 151.906C39.1913 155.406 36.1913 158.206 32.5913 159.706C30.7913 160.506 28.7913 160.606 26.9913 159.906C25.8913 159.506 24.7913 158.906 23.8913 158.106C25.1913 159.106 19.0913 154.106 20.8913 153.806C21.6913 153.706 21.9913 152.606 20.9913 152.706Z" fill="#221F1F"/>
<path d="M272.891 135.706C273.391 136.406 273.891 137.206 274.191 138.106C274.191 138.406 274.091 138.706 273.991 138.906C273.791 139.306 273.691 139.806 273.491 140.206C273.391 140.406 273.591 140.506 273.691 140.606L277.991 142.606C278.691 142.806 279.391 142.606 279.891 142.106L281.091 140.206C281.591 139.406 279.491 139.606 279.091 140.206L277.891 142.106L279.791 141.606L275.491 139.606C275.591 139.706 275.591 139.906 275.691 140.006C276.091 139.306 276.391 138.406 276.391 137.606C276.091 136.706 275.591 135.906 274.991 135.106C274.691 134.406 272.591 135.206 272.891 135.706Z" fill="#221F1F"/>
<path d="M274.891 129.806H272.691C272.391 129.806 271.191 130.006 271.191 130.506C270.991 132.006 270.791 133.506 270.591 135.006C270.591 135.106 270.591 135.306 270.791 135.306L273.091 135.906C273.591 136.006 274.191 135.906 274.591 135.706C274.791 135.606 275.291 135.106 274.791 135.006L272.491 134.406L272.691 134.706C272.891 133.206 273.091 131.706 273.291 130.206L271.791 130.906H273.991C274.391 130.906 275.191 130.706 275.391 130.406C275.591 130.106 275.291 129.806 274.891 129.806Z" fill="#221F1F"/>
<path d="M282.691 126.606L282.091 124.606C281.991 124.306 281.391 124.406 281.191 124.506L276.891 125.306C276.591 125.306 275.591 125.606 275.591 126.006C275.591 126.706 275.691 127.506 275.691 128.206C275.691 128.606 277.891 128.206 277.891 127.606C277.891 127.006 277.791 126.106 277.791 125.406L276.491 126.106L280.791 125.306L279.891 125.206C280.091 125.906 280.291 126.506 280.491 127.206C280.691 127.906 282.791 127.106 282.691 126.606Z" fill="#221F1F"/>
<path d="M285.991 128.106C284.991 127.206 283.791 126.606 282.491 126.406C281.991 126.306 281.391 126.406 280.991 126.706C280.791 126.806 280.191 127.206 280.691 127.306C281.891 127.506 282.991 128.106 283.891 128.906C284.391 129.306 286.291 128.406 285.991 128.106Z" fill="#221F1F"/>
<path d="M287.891 133.306L289.591 132.206C289.891 132.006 290.091 131.606 289.891 131.306C289.191 130.006 288.491 128.606 287.791 127.306C287.591 126.806 286.691 127.006 286.291 127.206L284.491 128.006C284.091 128.206 283.691 128.706 283.991 129.106C284.291 129.506 285.091 129.406 285.491 129.206L287.291 128.406L285.791 128.306L287.891 132.306C287.991 132.006 288.091 131.706 288.191 131.406L286.491 132.506C286.191 132.706 285.991 133.006 286.191 133.406C286.191 133.506 286.291 133.606 286.391 133.606C286.791 133.706 287.391 133.606 287.891 133.306Z" fill="#221F1F"/>
<path d="M281.992 140.106C282.592 140.606 283.092 141.006 283.692 141.506C284.092 141.806 285.392 141.406 285.692 141.006C286.792 139.906 287.892 138.806 288.992 137.606C289.092 137.506 289.092 137.506 288.992 137.306L287.592 135.806C287.192 135.406 285.292 136.206 285.492 136.506L286.892 138.006V137.806L283.592 141.206L285.592 140.706L283.892 139.306C283.492 139.006 281.592 139.906 281.992 140.106Z" fill="#221F1F"/>
<path d="M278.091 132.906C278.291 131.606 279.191 130.306 280.691 130.906C281.591 131.206 282.291 132.006 282.491 132.906C282.791 134.106 282.291 137.006 280.491 136.706C279.791 136.606 277.991 137.606 279.191 137.806C282.591 138.406 286.191 135.106 284.391 131.606C282.491 127.906 276.591 129.406 275.891 133.106C275.791 133.906 277.891 133.606 278.091 132.906Z" fill="#221F1F"/>
<path d="M273.991 80.7061C276.291 78.9061 279.391 78.7061 281.891 80.1061C283.291 81.0061 284.191 83.2061 285.691 83.7061C286.791 83.8061 287.791 83.8061 288.891 83.6061L287.991 82.8061C286.891 85.1061 285.791 87.5061 284.691 89.9061L286.691 89.5061L281.591 84.2061L280.791 85.3061L283.291 84.6061C284.591 84.2061 284.291 82.9061 282.891 83.3061L280.391 84.0061C280.091 84.1061 279.091 84.6061 279.591 85.1061L284.691 90.4061C285.391 90.8061 286.191 90.7061 286.691 90.0061C287.791 87.6061 288.891 85.3061 289.991 82.9061C290.291 82.3061 289.591 82.1061 289.091 82.1061C288.291 82.3061 287.591 82.3061 286.791 82.2061C286.391 82.0061 285.591 80.4061 284.691 79.7061C283.291 78.5061 281.491 77.8061 279.691 77.7061C277.191 77.6061 274.691 78.4061 272.591 79.9061C271.391 80.7061 273.191 81.2061 273.991 80.7061Z" fill="#221F1F"/>
<path d="M282.091 91.8059C279.991 93.8059 276.791 94.0059 274.491 92.3059C273.091 91.4059 272.191 89.1059 270.691 88.7059C269.591 88.6059 268.591 88.6059 267.491 88.8059L268.391 89.6059C269.491 87.2059 270.591 84.9059 271.691 82.5059L269.691 82.9059L274.791 88.2059L275.591 87.1059L273.091 87.8059C271.791 88.2059 272.091 89.5059 273.391 89.1059L275.891 88.4059C276.191 88.3059 277.191 87.8059 276.691 87.3059L271.691 82.0059C270.991 81.6059 270.191 81.7059 269.691 82.4059L266.391 89.5059C266.091 90.1059 266.791 90.3059 267.291 90.3059C268.091 90.2059 268.791 90.1059 269.591 90.2059C270.091 90.4059 271.091 92.2059 271.991 93.0059C273.491 94.3059 275.391 95.0059 277.391 95.0059C279.791 94.9059 282.191 94.0059 283.991 92.4059C284.891 91.4059 282.791 91.2059 282.091 91.8059Z" fill="#221F1F"/>
<path d="M260.791 41.8059L269.591 50.7059C269.991 51.1059 270.991 50.7059 271.291 50.5059L279.891 42.5059C280.291 42.1059 279.991 41.9059 279.491 41.9059L262.291 41.0059C261.591 41.0059 260.191 41.9059 261.491 42.0059L278.591 42.9059C278.491 42.7059 278.391 42.5059 278.191 42.3059L269.591 50.3059L271.291 50.1059L262.491 41.2059C262.191 40.7059 260.291 41.4059 260.791 41.8059Z" fill="#221F1F"/>
<path d="M276.791 55.1062L263.291 54.4062C262.991 54.4062 261.791 54.5062 261.591 54.3062C262.191 54.8062 261.891 52.4062 261.891 52.0062V45.4062C261.891 44.9062 259.991 45.3062 259.991 45.9062V55.0062C259.991 55.1062 260.291 55.2062 260.391 55.2062L275.691 56.0062C276.091 56.0062 277.791 55.2062 276.791 55.1062Z" fill="#221F1F"/>
<path d="M278.191 42.6062V54.8062C278.191 55.3062 280.091 54.9062 280.091 54.3062V42.1062C280.091 41.6062 278.191 41.9062 278.191 42.6062Z" fill="#221F1F"/>
<path d="M233.192 21.0058C231.192 18.4058 229.992 15.3058 229.592 12.0058C229.392 9.00582 230.592 4.40582 234.492 5.60582C235.392 5.90582 237.092 4.60582 235.792 4.20582C232.892 3.20582 229.792 4.50582 228.292 7.10582C225.892 11.8058 228.292 18.1058 231.192 22.0058C231.792 22.7058 233.792 21.9058 233.192 21.0058Z" fill="#221F1F"/>
<path d="M234.991 7.50609C238.791 12.2061 234.891 20.5061 232.491 24.7061C232.391 24.9061 234.291 24.8061 234.591 24.3061C236.891 20.0061 240.891 11.6061 237.091 6.90609C236.791 6.50609 234.891 7.40609 234.991 7.50609Z" fill="#221F1F"/>
<path d="M235.291 29.1062C236.091 30.0062 236.291 31.3062 235.791 32.4062C235.591 32.9062 235.191 33.4062 234.691 33.4062C234.091 33.3062 233.591 33.1062 233.191 32.6062C232.391 31.7062 232.191 30.4062 232.691 29.3062C232.891 28.8062 233.291 28.3062 233.791 28.3062C234.391 28.4062 234.891 28.6062 235.291 29.1062C235.691 29.5062 237.691 28.7062 237.291 28.4062C235.791 27.0062 233.191 27.3062 231.591 28.4062C230.091 29.4062 229.691 31.3062 230.591 32.8062C230.691 33.0062 230.791 33.1062 230.991 33.3062C232.491 34.8062 235.091 34.3062 236.691 33.3062C238.191 32.3062 238.591 30.4062 237.591 28.9062C237.491 28.7062 237.391 28.6062 237.191 28.4062C236.991 27.9062 234.991 28.7062 235.291 29.1062Z" fill="#221F1F"/>
<path d="M16.8911 68.6061C17.8911 69.6061 17.8911 71.1061 16.8911 72.1061C15.8911 73.1061 14.3911 73.1061 13.3911 72.1061C12.3911 71.1061 12.3911 69.6061 13.3911 68.6061C14.3911 67.7061 15.9911 67.6061 16.8911 68.6061Z" fill="#00B57B"/>
<path d="M16.1914 68.9062C16.8914 69.6062 17.0914 70.7063 16.5914 71.6063C16.3914 72.1063 15.8914 72.6062 15.2914 72.5062C14.7914 72.4062 14.3914 72.2063 13.9914 71.8063C13.2914 71.1063 13.0914 70.0063 13.5914 69.1063C13.7914 68.6063 14.2914 68.1063 14.8914 68.2063C15.4914 68.3063 15.8914 68.5062 16.1914 68.9062C16.4914 69.1063 17.7914 68.6063 17.5914 68.4062C16.2914 67.4062 14.4914 67.4062 13.1914 68.4062C11.9914 69.2063 11.6914 70.8062 12.4914 72.0062C12.5914 72.1062 12.6914 72.2062 12.7914 72.4062C13.9914 73.5063 15.9914 73.3062 17.1914 72.4062C18.3914 71.6062 18.6914 70.0063 17.8914 68.8063C17.7914 68.7063 17.6914 68.5063 17.5914 68.4062C17.3914 68.1062 15.9914 68.6062 16.1914 68.9062Z" fill="white"/>
<path d="M13.3915 66.006C10.8915 61.506 15.2915 58.506 17.0915 55.006C18.2915 52.806 13.2915 50.306 12.5915 54.506C12.0915 57.406 9.59145 56.206 9.29145 55.406C8.29145 52.906 9.99146 46.306 17.4915 48.306C20.9915 49.206 25.1915 55.006 15.2915 63.306" fill="#00B57B"/>
<path d="M14.0914 65.8061C12.3914 62.0061 14.6914 59.6061 16.7914 56.7061C17.5914 55.6061 18.3914 54.4061 17.5914 53.1061C16.0914 50.6061 13.2914 51.9061 12.0914 53.7061C11.4914 54.6061 10.6914 56.7061 9.79138 54.7061C9.59138 53.9061 9.59138 53.0061 9.89138 52.2061C10.8914 48.8061 14.9914 47.5061 17.9914 49.2061C24.2914 52.7061 17.9914 60.2061 14.6914 63.0061C13.9914 63.6061 15.0914 64.0061 15.5914 63.6061C19.0914 60.5061 24.8914 54.3061 20.5914 49.6061C17.7914 46.5061 11.8914 46.8061 9.39138 50.1061C7.99138 52.1061 7.39138 58.6061 11.6914 56.7061C12.4914 56.3061 12.4914 55.9061 12.9914 55.3061C13.5914 54.5061 14.8914 51.5061 16.0914 53.5061C16.9914 55.0061 15.5914 56.2061 14.6914 57.4061C12.5914 60.2061 10.9914 62.7061 12.5914 66.2061C12.8914 66.8061 14.3914 66.3061 14.0914 65.8061Z" fill="white"/>
<path d="M15.3915 68.7059C16.0915 69.4059 16.2915 70.5059 15.7915 71.4059C15.5915 71.8059 15.2915 72.2059 14.8915 72.2059C14.3915 72.1059 13.9915 71.9059 13.5915 71.6059C12.8915 70.9059 12.6915 69.8059 13.1915 68.9059C13.3915 68.5059 13.6915 68.1059 14.1915 68.1059C14.5915 68.2059 15.0915 68.4059 15.3915 68.7059C15.7915 69.0059 17.3915 68.3059 17.0915 68.1059C15.7915 66.9059 13.6915 67.2059 12.3915 68.1059C11.1915 68.9059 10.7915 70.5059 11.5915 71.8059C11.6915 72.0059 11.7915 72.1059 11.8915 72.2059C13.0915 73.4059 15.2915 73.1059 16.5915 72.2059C17.7915 71.4059 18.1915 69.8059 17.3915 68.5059C17.2915 68.4059 17.1915 68.2059 17.0915 68.1059C16.7915 67.8059 15.0915 68.5059 15.3915 68.7059Z" fill="#221F1F"/>
<path d="M13.4911 65.6059C11.7911 61.9059 14.0911 59.5059 16.0911 56.6059C16.8911 55.4059 17.7911 54.3059 16.9911 52.9059C15.3911 50.4059 12.3911 51.6059 11.0911 53.5059C10.5911 54.3059 9.99114 56.3059 9.19114 54.5059C8.99114 53.7059 8.99114 52.8059 9.29114 52.0059C10.1911 48.7059 14.0911 47.5059 17.0911 49.1059C23.2911 52.5059 17.0911 59.9059 13.7911 62.8059C12.8911 63.6059 14.2911 64.1059 14.9911 63.5059C18.5911 60.4059 24.3911 54.2059 19.9911 49.3059C17.0911 46.1059 10.9911 46.4059 8.49114 49.9059C6.89114 52.0059 6.49114 58.6059 10.9911 56.6059C11.8911 56.2059 11.8911 55.8059 12.3911 55.1059C12.8911 54.4059 13.9911 51.5059 15.0911 53.4059C15.8911 54.8059 14.4911 56.0059 13.7911 57.1059C11.6911 60.0059 9.99114 62.5059 11.5911 66.0059C11.9911 66.9059 13.7911 66.3059 13.4911 65.6059Z" fill="#221F1F"/>
<path d="M40.7912 24.7059L40.2912 20.4059C40.2912 20.0059 39.5912 19.8059 39.2912 19.9059L18.6912 21.7059C18.1912 21.7059 17.4912 22.1059 17.4912 22.8059C17.9912 26.9059 18.4912 31.1059 18.9912 35.2059C19.0912 36.3059 21.3912 35.7059 21.2912 34.6059C20.7912 30.4059 20.2912 26.3059 19.7912 22.2059L18.5912 23.4059L39.1912 21.6059L38.1912 21.1059C38.2912 22.5059 38.4912 24.0059 38.6912 25.4059C38.7912 26.4059 40.9912 25.8059 40.7912 24.7059Z" fill="#221F1F"/>
<path d="M23.6911 36.7062L40.5911 35.3062C41.0911 35.3062 41.8911 34.9062 41.8911 34.3062C41.7911 33.0062 41.6911 31.7062 41.5911 30.4062C41.4911 29.6062 39.1911 30.1062 39.2911 31.0062C39.3911 32.3062 39.4911 33.6062 39.5911 35.0062L40.8911 34.0062L23.9911 35.4062C22.7911 35.5062 22.0911 36.8062 23.6911 36.7062Z" fill="#221F1F"/>
<path d="M31.7911 27.306C31.9911 28.706 32.1911 30.006 32.3911 31.406C32.3911 31.706 33.1911 31.606 33.3911 31.606L41.8911 30.506C42.1911 30.506 43.2911 30.206 43.2911 29.706C43.0911 28.106 42.8911 26.506 42.6911 25.006C42.6911 24.706 41.8911 24.806 41.6911 24.806L33.2911 26.506C32.2911 26.706 31.2911 27.806 32.8911 27.506L41.2911 25.806L40.2911 25.606L40.8911 30.306L42.2911 29.506L33.7911 30.606L34.7911 30.806C34.5911 29.406 34.3911 28.106 34.1911 26.706C34.0911 26.206 31.6911 26.706 31.7911 27.306Z" fill="#221F1F"/>
<path d="M37.4915 28.4062C37.4915 29.0062 36.9915 29.5062 36.3915 29.5062C35.7915 29.5062 35.2915 29.0062 35.2915 28.4062C35.2915 27.8062 35.7915 27.3062 36.3915 27.3062C36.3915 27.3062 36.3915 27.3062 36.4915 27.3062C36.9915 27.4062 37.4915 27.9062 37.4915 28.4062Z" fill="#221F1F"/>
<path d="M1.09135 102.206C1.49135 105.906 1.89135 109.606 2.39135 113.206C2.39135 113.506 2.99135 113.506 3.29135 113.506L12.7914 112.506C13.7914 112.406 14.3914 111.206 12.9914 111.306L3.49135 112.306L4.39135 112.606C3.99135 108.906 3.49135 105.206 3.09135 101.606C3.09135 100.906 0.991352 101.406 1.09135 102.206Z" fill="#221F1F"/>
<path d="M5.99139 100.406C8.49139 100.106 10.8914 99.9059 13.3914 99.9059L12.7914 99.7059C13.2914 102.906 13.6914 106.106 14.1914 109.206C14.2914 109.706 16.2914 109.306 16.1914 108.706C15.6914 105.506 15.2914 102.306 14.7914 99.2059C14.7914 99.0059 14.3914 99.0059 14.1914 99.0059C11.3914 99.0059 8.59139 99.2059 5.79139 99.7059C4.49139 99.8059 4.69139 100.606 5.99139 100.406Z" fill="#221F1F"/>
<path d="M7.49125 104.406C7.59125 105.106 7.59125 105.706 7.69125 106.406C7.69125 106.706 9.69125 106.406 9.69125 105.906C9.59125 105.206 9.59125 104.606 9.49125 103.906C9.49125 103.606 7.39125 103.906 7.49125 104.406Z" fill="#221F1F"/>
<path d="M10.5912 107.206C10.5912 108.206 9.79121 109.006 8.79121 109.006C7.79121 109.006 6.99121 108.206 6.99121 107.206C6.99121 106.206 7.79121 105.406 8.79121 105.406C9.79121 105.406 10.5912 106.206 10.5912 107.206Z" fill="#221F1F"/>
<path d="M2.79127 98.806C2.29127 96.506 2.39127 92.906 4.69127 91.706C8.89127 89.406 11.7913 93.906 11.9913 97.506C11.9913 98.106 13.9913 97.706 13.9913 97.006C13.6913 92.006 9.79127 89.006 4.79127 90.606C0.991267 91.806 -0.00873306 95.906 0.791267 99.406C0.891267 100.006 2.89127 99.506 2.79127 98.806Z" fill="#221F1F"/>
<path d="M17.1911 142.806C17.0911 145.206 15.9911 147.806 13.7911 149.006C10.7911 150.606 7.19112 148.506 5.69112 146.006C2.69112 141.006 6.79112 133.306 13.1911 136.206C14.0911 136.206 14.9911 135.906 15.5911 135.406C8.49112 132.206 -2.20888 139.506 3.49112 147.406C8.29112 153.906 19.2911 149.906 19.6911 142.206C19.7911 141.906 17.2911 142.206 17.1911 142.806Z" fill="#221F1F"/>
<path d="M6.99135 141.606L10.6914 145.206C11.2914 145.806 12.5914 145.306 13.0914 144.706L21.7914 134.206C22.4914 133.406 19.9914 133.506 19.3914 134.206L10.6914 144.706L13.0914 144.206L9.49135 140.606C8.79135 139.906 6.39135 140.906 6.99135 141.606Z" fill="#221F1F"/>
<path d="M141.491 42.806C147.291 43.606 154.491 42.706 158.291 37.806C159.091 36.706 156.191 36.906 155.591 37.706C152.791 41.306 147.191 41.806 143.291 41.206C142.191 41.006 139.791 42.606 141.491 42.806Z" fill="#221F1F"/>
<path d="M132.391 42.7059C127.991 43.8059 122.291 43.7059 118.991 40.1059C118.291 39.3059 115.491 40.4059 116.291 41.3059C120.391 45.6059 127.391 45.6059 132.791 44.2059C134.491 43.8059 134.091 42.2059 132.391 42.7059Z" fill="#221F1F"/>
<path d="M142.491 29.5061C144.091 27.4061 146.991 24.4061 149.291 27.0061C149.991 27.8061 152.791 26.7061 151.991 25.8061C148.191 21.5061 142.391 25.9061 139.791 29.3061C138.991 30.5061 141.891 30.3061 142.491 29.5061Z" fill="#221F1F"/>
<path d="M131.491 29.7061C127.191 25.9061 119.091 22.6061 116.191 29.8061C115.791 30.7061 118.691 30.4061 119.091 29.5061C120.391 26.3061 122.991 27.2061 125.491 28.6061C126.691 29.3061 127.791 30.0061 128.791 30.9061C129.591 31.5061 132.291 30.4061 131.491 29.7061Z" fill="#221F1F"/>
<path d="M134.091 27.3061C133.391 28.9061 133.391 30.7061 134.091 32.2061C134.491 33.0061 136.591 32.2061 136.091 31.3061C135.791 30.5061 135.691 29.6061 135.891 28.8061C135.891 28.5061 135.991 28.2061 136.091 27.9061C136.091 27.7061 136.191 27.5061 136.191 27.5061C136.491 26.3061 134.391 26.4061 134.091 27.3061Z" fill="#221F1F"/>
<path d="M136.991 54.406C136.991 54.406 138.891 48.406 146.791 49.306C154.691 50.206 159.091 54.406 165.091 50.706C174.491 44.806 175.591 51.006 177.691 51.906C178.291 52.106 179.091 52.106 179.691 51.906C180.091 51.806 180.491 52.006 180.591 52.406C180.691 52.606 180.591 52.906 180.491 53.106C179.691 54.206 178.391 54.706 176.991 54.606C173.791 54.006 172.091 51.706 170.091 53.706C168.091 55.606 148.191 74.306 137.591 60.506L136.991 54.406Z" fill="#221F1F"/>
<path d="M139.391 55.6062C139.391 55.6062 137.491 49.6062 129.591 50.5062C121.691 51.4062 117.291 55.6062 111.291 51.9062C101.891 46.0062 100.791 52.2062 98.6911 53.1062C98.1911 53.3062 97.6911 53.3062 97.1911 53.2062C96.6911 53.1062 96.2911 53.4062 96.1911 53.9062C96.0911 54.2062 96.1911 54.5062 96.3911 54.7062C97.1911 55.5062 98.2911 55.9062 99.3911 55.7062C102.591 55.1062 104.291 52.8062 106.291 54.8062C108.291 56.7062 128.191 75.4062 138.791 61.6062L139.391 55.6062Z" fill="#221F1F"/>
</svg>