<svg width="204" height="225" viewBox="0 0 204 225" fill="none" xmlns="http://www.w3.org/2000/svg">
<path d="M83.7642 41.6519C81.3642 41.6519 79.1642 42.2519 77.2642 43.3519L95.8642 60.9519C96.7642 59.1519 97.2642 57.1519 97.2642 55.0519C97.2642 54.1519 97.1641 53.2519 96.9641 52.4519L86.0641 41.8519C85.3641 41.7519 84.5642 41.6519 83.7642 41.6519Z" fill="#00B57B"/>
<path d="M75.3643 44.6519C74.6643 45.2519 73.9643 45.8519 73.3643 46.6519L92.8643 65.0519C93.4643 64.5519 93.9642 63.9519 94.4642 63.3519L75.3643 44.6519Z" fill="#00B57B"/>
<path d="M94.564 129.252H105.464L107.864 208.952H97.164L94.564 129.252Z" fill="#00B57B"/>
<path d="M147.664 98.0518L142.464 95.5518C142.464 95.5518 159.964 87.3518 156.064 59.8518C151.564 27.9518 121.064 22.9518 114.464 22.0518C114.464 22.0518 115.864 9.45176 111.764 5.85176C109.964 4.35176 102.164 4.65176 101.164 6.05176C98.8642 9.75176 100.264 18.4518 100.264 18.4518L78.7642 18.7518C78.7642 18.7518 79.1641 9.25176 76.5641 6.45176C73.6641 3.35176 65.8641 5.15176 65.5641 7.05176C64.7641 11.3518 64.2642 18.2518 64.2642 18.2518L29.2642 19.4518L38.5641 42.8518L48.0641 43.6518L50.2642 51.4518C51.2642 65.7518 50.9642 80.0518 49.2642 94.2518C49.2642 94.2518 66.5641 100.352 89.0641 116.452C91.4641 118.152 104.364 118.352 106.364 116.452C109.964 113.052 119.264 107.352 130.064 103.552C136.664 100.952 148.564 98.6518 147.664 98.0518ZM67.6642 52.2518C67.6642 52.2518 68.2642 38.0518 83.6642 38.5518C83.6642 38.5518 89.5642 41.3518 92.6642 41.2518C99.1642 41.0518 104.664 40.2518 113.464 41.8518C113.464 41.8518 119.664 36.8518 129.864 39.9518C133.964 41.1518 139.764 48.9518 139.464 55.9518C139.264 59.4518 136.064 64.6518 136.064 64.6518C139.464 75.3518 130.464 88.2518 123.664 92.0518C112.564 98.3518 84.3642 97.3518 75.7642 96.0518C68.2642 94.9518 68.3642 91.5518 67.7642 78.2518C67.1642 64.9518 67.7642 52.1518 67.7642 52.1518" fill="#00B57B"/>
<path d="M153.164 95.9519C160.064 91.9519 163.864 83.1519 165.264 75.6519C167.564 62.5519 164.564 49.0519 156.964 38.1519C148.664 26.8519 136.164 19.4519 122.364 17.5519L123.264 18.2519C123.264 13.6519 123.364 7.95191 121.264 3.75191C118.764 -1.04809 111.564 0.0519053 107.164 0.351905C102.864 0.651905 100.964 0.851905 100.164 5.45191C99.564 9.85191 99.364 14.2519 99.764 18.7519C100.464 18.3519 101.064 17.9519 101.764 17.4519H93.564C91.864 17.3519 90.264 17.3519 88.564 17.4519C86.764 17.7519 88.164 17.8519 88.164 17.0519C87.964 13.0519 87.464 9.05191 86.764 5.15191C86.164 2.15191 85.464 1.05191 82.364 0.451905C78.164 -0.348095 68.164 -0.448095 65.064 3.25191C61.964 6.95191 63.664 15.5519 64.064 19.8519L66.064 18.5519L30.764 18.7519C30.264 18.7519 28.464 19.1519 28.764 20.0519L37.264 43.3519C37.364 43.7519 37.764 43.8519 38.164 43.8519C41.064 44.0519 43.964 44.2519 46.764 44.5519C47.964 44.6519 47.064 43.7519 46.964 44.9519C47.064 46.4519 47.264 47.9519 47.664 49.4519C49.564 62.9519 49.664 76.5519 48.164 90.0519C48.064 91.3519 50.964 90.8519 51.064 89.7519C52.864 74.2519 52.464 58.6519 49.664 43.3519C49.564 42.9519 49.064 42.8519 48.764 42.8519C45.864 42.6519 42.364 42.8519 39.564 42.0519C38.464 41.7519 40.264 42.8519 39.964 42.3519C39.764 41.9519 39.664 41.6519 39.564 41.2519C39.164 39.8519 38.664 38.4519 38.064 37.0519C35.964 31.1519 33.764 25.1519 31.564 19.2519L29.564 20.5519L64.864 20.3519C65.564 20.3519 66.964 20.0519 66.864 19.0519C66.564 15.8519 66.364 12.5519 66.464 9.25191C66.564 7.55191 66.364 4.85191 67.664 3.65191C68.964 2.45191 72.464 2.35191 74.164 2.15191C76.364 1.95191 79.164 1.55191 81.264 2.35191C83.664 3.25191 83.564 5.75191 83.864 8.05191C84.364 11.5519 84.764 15.1519 85.064 18.7519C85.064 19.1519 85.664 19.2519 85.964 19.2519H100.364C101.064 19.2519 102.364 18.9519 102.364 17.9519C102.164 15.0519 102.164 12.1519 102.364 9.25191C102.464 7.65191 102.364 5.15191 103.064 3.55191C103.864 1.85191 104.364 2.25191 106.564 2.05191C112.164 1.65191 117.664 1.05191 119.164 7.55191C119.864 11.1519 120.264 14.7519 120.164 18.4519C120.164 18.9519 120.564 19.1519 121.064 19.1519C132.764 20.6519 145.264 27.9519 152.664 37.4519C160.464 47.6519 163.964 60.5519 162.564 73.2519C161.664 80.8519 158.264 90.6519 151.164 94.7519C149.664 96.0519 152.164 96.6519 153.164 95.9519Z" fill="black"/>
<path d="M109.964 120.152L111.664 211.352C111.664 213.452 111.564 215.652 111.764 217.852C111.864 218.352 111.864 218.752 111.764 219.252C111.564 219.752 112.264 218.452 111.964 218.852C111.464 219.352 110.964 219.652 110.264 219.952C107.264 221.852 103.764 222.852 100.264 222.852C97.7643 222.852 95.2642 222.252 92.9642 221.352C91.9642 220.952 88.3643 219.552 87.7643 218.452C87.3643 217.652 87.6642 215.552 87.6642 214.652C87.3642 197.852 86.9642 181.052 86.6642 164.252L85.7643 119.952C85.7643 119.052 82.8643 119.552 82.8643 120.752L84.7643 215.652C84.7643 216.552 84.4643 218.452 84.8643 219.252C85.8643 221.352 90.9642 222.952 93.0642 223.652C95.9642 224.552 99.0642 224.752 102.064 224.352C105.964 223.852 114.264 222.052 114.664 217.452C115.264 211.452 114.464 205.052 114.364 199.052C114.164 188.852 113.964 178.752 113.864 168.552L112.964 119.452C112.864 118.452 109.964 118.952 109.964 120.152Z" fill="black"/>
<path d="M84.7642 121.852C93.8642 124.952 104.264 124.452 113.264 121.352C114.664 120.852 111.064 117.652 109.464 118.252C101.364 121.052 91.8642 121.652 83.6642 118.852C80.6642 117.752 83.2642 121.252 84.7642 121.852Z" fill="black"/>
<path d="M9.46436 152.352C9.96436 160.552 10.3644 168.752 10.7644 176.952C10.9644 181.552 11.1644 186.152 11.4644 190.752C11.5644 192.452 11.5644 193.152 13.0644 194.052C15.1644 195.352 18.1644 195.852 20.5644 196.652L33.2644 201.152L65.0644 212.452L84.9644 219.552C85.7644 219.852 88.3644 218.652 87.2644 218.252L40.8644 201.752L17.3644 193.352C15.5644 192.752 14.9644 192.852 14.3644 191.052C13.3644 187.752 13.9644 183.252 13.7644 179.852C13.2644 170.352 12.7644 160.952 12.2644 151.452C12.3644 150.752 9.46436 151.352 9.46436 152.352Z" fill="black"/>
<path d="M85.4643 119.552L37.6643 100.452L13.4643 90.852C11.9643 90.252 10.4643 89.352 8.7643 89.752C5.6643 90.452 6.26429 93.052 6.46429 95.452C7.06429 105.552 7.66431 115.552 8.36431 125.552C8.36431 126.352 11.3643 125.752 11.2643 124.752L9.7643 100.452C9.7643 99.752 8.7643 90.952 8.6643 91.152C8.9643 90.952 12.2643 92.552 12.6643 92.752L66.1643 114.152L83.1643 120.952C83.8643 121.152 86.4643 119.952 85.4643 119.552Z" fill="black"/>
<path d="M189.964 151.552V176.252C189.964 180.252 190.164 184.352 189.964 188.352C189.864 191.352 188.364 192.752 185.864 193.752C178.564 196.752 170.764 198.852 163.264 201.352L131.864 211.852L113.064 218.152C111.364 218.752 111.764 220.252 113.464 219.652L162.764 203.152C170.664 200.452 178.664 197.952 186.564 195.152C188.764 194.352 191.064 193.652 192.164 191.352C193.464 188.652 192.764 184.552 192.764 181.652V151.352C192.864 149.952 189.964 150.552 189.964 151.552Z" fill="black"/>
<path d="M189.264 97.3518V121.852C189.264 124.252 193.464 126.252 193.464 123.152V98.6518C193.464 96.2518 189.264 94.2518 189.264 97.3518Z" fill="black"/>
<path d="M111.664 121.852L191.464 98.3517C194.564 97.4517 191.164 95.0517 189.164 95.6517L109.364 119.152C106.164 120.152 109.664 122.452 111.664 121.852Z" fill="black"/>
<path d="M109.464 116.252C109.364 116.352 110.164 115.352 110.964 114.752C113.964 112.552 117.264 110.752 120.664 109.452C140.664 101.052 163.164 98.2518 184.464 95.6518C185.864 95.4518 187.864 92.5518 185.764 92.8518C163.564 95.5518 139.864 98.4518 119.164 107.552C115.064 109.352 108.464 112.052 106.364 116.452C105.464 118.452 108.864 117.552 109.464 116.252Z" fill="black"/>
<path d="M91.164 115.652C86.864 111.052 80.764 107.652 75.364 104.752C57.964 95.5517 38.664 90.3517 19.364 86.6517C17.064 86.2517 16.764 88.6517 18.964 89.1517C37.764 92.7517 56.864 97.8517 73.864 107.052C78.864 109.752 84.364 112.752 88.264 117.052C89.364 118.252 92.664 117.352 91.164 115.652Z" fill="black"/>
<path d="M72.1642 83.6519C72.7642 86.4519 73.2642 90.7519 76.3642 92.1519C77.8642 92.8519 80.0642 92.7519 81.6642 92.8519C88.0642 93.3519 94.4642 93.2519 100.864 93.1519C113.264 92.9519 126.664 94.2519 135.164 83.6519C136.064 82.5519 133.864 82.2519 133.264 83.0519C129.064 88.3519 124.764 90.2519 118.364 90.8519C112.964 91.3519 107.564 91.5519 102.164 91.6519C96.5642 91.7519 90.9642 91.7519 85.2642 91.5519C83.3642 91.5519 81.4642 91.4519 79.5642 91.1519C75.5642 90.2519 75.0642 86.8519 74.3642 83.1519C74.2642 82.0519 71.9642 82.6519 72.1642 83.6519Z" fill="black"/>
<path d="M13.464 144.552C16.064 145.552 25.564 144.852 25.664 147.252C25.864 150.452 16.564 151.252 14.264 151.652C11.164 152.152 5.16397 152.152 3.16397 145.052C2.36397 142.352 2.16396 139.552 2.46396 136.752C2.86396 132.952 4.76396 126.652 9.56396 125.152" fill="white"/>
<path d="M12.2642 145.152C15.4642 146.052 19.7642 145.052 22.6642 146.452C26.3642 148.352 20.3642 149.952 18.4642 150.252C16.9642 150.552 15.3642 150.752 13.8642 150.952C7.66419 151.352 4.66419 147.252 3.86419 141.452C3.16419 136.252 4.46416 127.952 9.96416 125.652C11.8642 124.852 10.0642 124.252 8.86419 124.752C2.66419 127.352 0.364183 134.452 0.764183 140.852C1.26418 148.352 5.46417 153.152 13.0642 152.452C16.4642 152.152 24.5642 151.852 26.5642 148.352C29.1642 143.952 16.4642 144.552 14.5642 144.052C13.9642 143.652 11.3642 144.852 12.2642 145.152Z" fill="black"/>
<path d="M9.76416 129.552C18.8642 132.052 25.1642 129.852 25.6642 132.452C26.3642 136.652 14.3641 138.452 11.4641 136.252" fill="white"/>
<path d="M8.66416 130.152C11.7642 130.952 14.9642 131.352 18.1642 131.552C19.6642 131.652 23.4642 131.052 24.2642 132.652C26.3642 136.852 15.0642 137.352 12.8642 135.952C12.2642 135.552 9.96417 136.652 10.2642 136.852C14.0642 139.352 22.8642 137.752 26.1642 134.652C27.6642 133.252 27.5641 131.352 25.4641 130.752C23.8641 130.452 22.1641 130.352 20.4641 130.452C17.2641 130.352 14.1642 129.852 11.0642 129.152C10.3642 128.952 7.96416 129.952 8.66416 130.152Z" fill="black"/>
<path d="M15.9644 137.352C15.9644 137.352 18.2644 137.652 20.7644 137.852C23.9644 138.052 27.4644 138.252 27.4644 140.552C27.4644 144.152 15.1644 145.752 11.4644 143.952" fill="white"/>
<path d="M14.7644 137.952C16.5644 138.252 28.9644 138.452 25.2644 142.252C22.8644 144.652 15.8644 144.652 12.8644 143.452C12.0644 143.152 9.76441 144.352 10.0644 144.452C14.7644 146.352 21.8644 145.252 26.2644 143.052C27.7644 142.352 29.9644 140.752 28.4644 138.852C26.4644 136.352 19.9644 137.152 17.1644 136.752C16.5644 136.652 13.9644 137.752 14.7644 137.952Z" fill="black"/>
<path d="M191.664 129.652C186.364 130.152 177.364 130.752 177.264 133.652C177.064 137.452 185.964 137.052 190.264 136.952" fill="white"/>
<path d="M192.264 129.152C188.564 129.352 184.964 129.852 181.364 130.652C179.764 131.052 176.564 131.752 175.964 133.652C174.464 138.552 187.264 137.652 189.364 137.552C189.864 137.552 192.464 136.452 191.164 136.552C188.164 136.652 180.664 137.652 178.864 134.552C176.664 130.752 188.864 130.452 191.064 130.252C191.764 130.152 194.064 129.052 192.264 129.152Z" fill="black"/>
<path d="M190.264 137.052C190.264 137.052 175.964 138.052 176.464 141.552C176.864 144.752 187.564 144.352 189.064 144.052" fill="white"/>
<path d="M190.964 136.452C188.464 136.652 185.964 136.952 183.564 137.452C181.164 137.952 177.064 138.552 175.464 140.752C172.364 145.252 186.864 144.952 188.864 144.652C190.064 144.452 191.464 143.252 189.364 143.552C187.664 143.852 175.764 143.752 178.264 140.252C179.364 138.552 183.264 138.452 185.064 138.152C186.564 137.952 188.164 137.752 189.664 137.652C190.464 137.552 192.864 136.352 190.964 136.452Z" fill="black"/>
<path d="M190.164 144.152C189.664 144.152 179.164 145.552 179.364 147.952C179.664 151.152 189.164 150.452 191.564 150.452C194.764 150.452 200.864 149.552 201.864 142.252C202.364 138.752 202.664 135.552 202.064 133.552C201.064 129.852 196.964 124.652 191.864 123.852" fill="white"/>
<path d="M190.764 143.452C188.064 143.652 179.164 144.352 178.064 147.552C176.564 152.052 188.564 151.252 190.764 151.152C196.564 150.952 201.864 148.852 203.264 142.652C205.264 134.152 202.164 125.052 192.864 123.052C192.064 122.852 189.464 124.152 191.064 124.452C202.464 126.952 206.064 148.652 192.664 149.652C190.064 149.852 184.464 150.552 182.364 148.952C178.964 146.352 187.664 144.952 189.664 144.852C190.464 144.752 192.664 143.252 190.764 143.452Z" fill="black"/>
<path d="M93.7641 132.852H100.464C101.564 132.852 101.564 133.152 101.264 132.652C101.564 133.252 101.364 134.852 101.364 135.452C101.564 141.252 101.664 147.052 101.864 152.852C102.264 168.652 102.664 184.452 103.064 200.352L103.364 212.452C103.364 212.852 105.564 212.552 105.564 211.852C104.864 185.252 104.164 158.652 103.464 132.052C103.464 131.852 102.964 131.852 102.864 131.852H94.6641C93.9641 131.852 92.2641 132.852 93.7641 132.852Z" fill="black"/>
<path d="M74.1641 127.652C74.4641 152.852 74.8641 178.052 75.1641 203.252L77.1641 202.552L36.4641 189.852C34.5641 189.252 32.4641 188.752 30.6641 188.052C26.2641 186.252 25.2641 182.652 25.2641 178.452L24.8641 157.152C24.8641 156.852 22.6641 157.152 22.6641 157.752C22.7641 165.052 22.7641 172.352 23.0641 179.652C23.2641 186.752 27.6641 188.452 33.4641 190.352L75.4641 203.452C75.8641 203.552 77.4641 203.252 77.4641 202.752C77.1641 177.552 76.7641 152.352 76.4641 127.152C76.3641 126.752 74.1641 127.052 74.1641 127.652Z" fill="black"/>
<path d="M21.3643 108.852L69.8643 126.352C70.6643 126.652 74.1643 126.052 72.4643 125.452L23.9643 107.952C23.1643 107.652 19.6643 108.252 21.3643 108.852Z" fill="black"/>
<path d="M121.964 126.652L123.664 183.952C123.764 188.452 121.864 200.752 128.064 202.252C130.564 202.852 133.564 201.352 135.864 200.552L150.764 195.552L179.464 185.952C179.664 185.852 180.364 185.652 180.364 185.252V159.152C180.364 158.252 178.164 158.752 178.164 159.452V183.452C178.164 184.052 178.164 184.752 178.164 185.352C178.164 185.452 179.764 184.652 178.564 185.052C167.664 189.052 156.464 192.452 145.464 196.152C141.064 197.652 136.464 199.752 131.864 200.652C126.464 201.752 126.164 197.352 126.064 193.652C125.764 181.652 125.364 169.652 124.964 157.552C124.664 147.052 124.364 136.552 124.064 126.052C124.164 125.452 121.964 125.852 121.964 126.652Z" fill="black"/>
<path d="M178.164 110.552L127.464 125.752C126.564 126.052 129.664 127.252 130.464 126.952L181.164 111.752C182.064 111.552 178.964 110.352 178.164 110.552Z" fill="black"/>
<path d="M139.264 55.1518C138.964 63.9518 132.064 71.8518 122.564 70.3518C114.964 69.0518 109.464 62.3518 109.464 54.6518C109.464 45.5518 117.364 37.7518 126.764 39.6518C134.364 41.1518 138.964 47.8518 139.264 55.2518C139.264 56.1518 142.164 55.5518 142.164 54.4518C141.864 44.8518 133.864 37.3518 124.264 37.6518C123.864 37.6518 123.464 37.6518 123.164 37.7518C114.164 38.5518 106.464 45.9518 106.464 55.1518C106.464 65.1518 115.264 72.7518 125.064 72.0518C134.364 71.5518 141.764 64.0518 142.164 54.7518C142.164 53.5518 139.264 54.1518 139.264 55.1518Z" fill="black"/>
<path d="M99.1642 55.0521C98.8642 63.5521 92.2642 70.8521 83.3642 70.1521C75.4642 69.3521 69.3642 62.7521 69.2642 54.8521C69.2642 46.4521 76.3641 38.9521 85.0641 39.7521C93.2641 40.3521 98.8642 47.1521 99.1642 55.0521C99.2642 56.6521 102.164 56.2521 102.064 54.8521C101.664 45.1521 94.2642 37.3521 84.2642 37.4521C74.6642 37.5521 66.3642 45.3521 66.2642 55.0521C66.3642 64.7521 74.3641 72.5521 84.0641 72.4521C93.8641 72.3521 101.764 64.5521 102.064 54.8521C102.164 53.3521 99.2642 53.6521 99.1642 55.0521Z" fill="black"/>
<path d="M104.464 68.4518C104.464 68.4518 96.8643 60.8518 85.2643 72.2518C77.1643 80.2518 69.8643 75.5518 66.1643 72.0518C65.6643 71.5518 64.7643 71.5518 64.2643 72.0518C63.9643 72.3518 63.8643 72.8518 63.9643 73.2518C64.8643 77.4518 67.9643 83.5518 78.3643 85.1518C94.6643 87.7518 104.464 82.0518 105.164 76.1518C105.664 70.3518 104.464 68.4518 104.464 68.4518Z" fill="black"/>
<path d="M103.064 68.4518C103.064 68.4518 110.664 60.8518 122.264 72.2518C130.364 80.2518 137.664 75.5518 141.364 72.0518C141.864 71.5518 142.764 71.5518 143.264 72.0518C143.564 72.3518 143.664 72.8518 143.564 73.2518C142.664 77.4518 139.564 83.5518 129.164 85.1518C112.864 87.7518 103.064 82.0518 102.364 76.1518C101.864 70.3518 103.064 68.4518 103.064 68.4518Z" fill="black"/>
<path d="M97.1641 35.5521C96.8641 29.7521 87.5641 30.2521 83.8641 30.6521C82.3641 30.8521 81.5641 32.7521 83.5641 32.4521C86.5641 32.0521 94.0641 31.4521 94.2641 36.2521C94.2641 37.4521 97.2641 36.8521 97.1641 35.5521Z" fill="black"/>
<path d="M113.864 35.552C114.364 31.352 121.264 32.552 123.764 33.052C124.864 33.252 127.164 31.652 125.464 31.352C121.464 30.552 111.564 29.652 110.864 35.952C110.864 37.152 113.764 36.652 113.864 35.552Z" fill="black"/>
<path d="M128.964 55.5522C128.964 55.5522 129.664 63.8522 122.464 62.8522C120.064 62.0522 118.464 59.7522 118.564 57.1522C118.564 57.2522 126.264 57.3522 128.964 55.5522Z" fill="black"/>
<path d="M115.464 59.6523L122.764 58.6523L118.864 64.6523L115.464 59.6523Z" fill="white"/>
<path d="M114.364 57.3522C120.564 58.9522 127.664 58.6522 133.164 55.2522C134.864 54.2522 132.364 53.3522 131.264 54.0522C126.864 56.7522 120.964 56.7522 116.064 55.5522C114.864 55.2522 112.564 56.9522 114.364 57.3522Z" fill="black"/>
<path d="M91.6643 55.9521C91.6643 55.9521 92.3643 64.2522 85.2643 63.2522C82.8643 62.4522 81.2643 60.1522 81.3643 57.5522C81.3643 57.6522 89.0643 57.7521 91.6643 55.9521Z" fill="black"/>
<path d="M78.2642 59.9522L85.5641 59.0522L81.5641 65.0522L78.2642 59.9522Z" fill="white"/>
<path d="M74.8639 55.7524C80.6639 59.5524 88.5639 58.6524 94.6639 56.2524C96.5639 55.5524 94.7639 54.8524 93.5639 55.3524C88.5639 57.2524 82.2639 57.7524 77.5639 54.7524C76.8639 54.2524 74.3639 55.3524 74.8639 55.7524Z" fill="black"/>
<path d="M133.164 147.052L134.064 173.152L171.464 160.752V134.752L133.164 147.052Z" fill="#00B57B"/>
<path d="M138.764 154.452L163.964 146.552C165.564 146.052 168.264 142.652 165.264 143.652L140.164 151.552C138.464 151.952 135.764 155.352 138.764 154.452Z" fill="black"/>
<path d="M141.164 160.052L166.264 152.152C168.464 151.452 163.664 150.952 162.764 151.252L137.664 159.152C135.464 159.752 140.264 160.352 141.164 160.052Z" fill="black"/>
<path d="M132.464 152.052V169.352C132.464 170.252 134.064 170.452 134.664 170.252L173.864 157.452C174.764 157.152 172.664 156.152 171.964 156.352L132.664 169.152L134.864 170.052V152.752C134.864 151.752 132.464 151.352 132.464 152.052Z" fill="black"/>
<path d="M69.7639 146.052L68.8639 172.152L31.4639 159.752V133.752L69.7639 146.052Z" fill="#00B57B"/>
<path d="M68.0641 151.052V168.352L69.7641 168.252L30.5641 155.452C29.4641 155.152 28.0641 155.852 29.6641 156.352L68.8641 169.152C69.0641 169.252 70.5641 169.652 70.5641 169.052V151.752C70.4641 150.752 68.0641 150.352 68.0641 151.052Z" fill="black"/>
</svg>