<svg width="1280" height="51" viewBox="0 0 1280 51" fill="none" xmlns="http://www.w3.org/2000/svg">
<path d="M-6.55469 21.6264C2.84908 23.6907 11.4209 25.2274 20.608 27.7998C91.5387 47.6603 186.931 -8.71812 265.381 2.48904C337.219 12.7515 408.385 41.0725 481.217 41.0725C576.448 41.0725 673.275 61.0471 767.892 41.0725C803.41 33.5742 838.894 25.0693 875.462 24.4044C914.457 23.6954 951.969 23.3244 991.212 20.5461C1037.52 17.2675 1081.62 31.3494 1127.33 31.3494C1159.44 31.3494 1191.18 35.3612 1223.33 34.4361C1259.1 33.4067 1294.96 34.1274 1330.75 34.1274C1339.45 34.1274 1342.8 33.1151 1347.72 39.6834" stroke="black" stroke-width="1.4" stroke-linecap="round" stroke-linejoin="round"/>
</svg>