<svg width="1280" height="31" viewBox="0 0 1280 31" fill="none" xmlns="http://www.w3.org/2000/svg">
<path d="M-28 19.7599C19.2421 19.7599 65.9685 22.6653 113.111 25.0932C183.35 28.7106 255.057 27.1541 325.556 29.0932C395.516 31.0175 463.396 22.0544 533 17.7599C596.385 13.8491 660.285 11.3931 723.778 9.42654C777.326 7.76797 832.287 12.9547 885.778 15.4265C935.488 17.7237 984.401 17.9803 1034.22 17.2043C1060.55 16.7942 1085.7 21.4986 1111.78 23.9265C1165.63 28.9405 1221.98 25.4302 1275.06 14.8154C1294.75 10.8766 1314.04 5.33588 1333.67 1.20432C1334.42 1.04552 1338.24 0.637455 1336 1.75987" stroke="black" stroke-width="1.4" stroke-linecap="round" stroke-linejoin="round"/>
</svg>